<?xml version="1.0" ?>
<xmeml version="4">
  <sequence>
    <uuid>OrionEp16_timeline</uuid>
    <duration>14074</duration>
    <name>OrionEp16_timeline</name>
    <rate>
      <timebase>30</timebase>
      <ntsc>TRUE</ntsc>
    </rate>
    <media>
      <video>
        <format/>
        <track>
          <generatoritem id="subtitle-1">
            <name>Subtitle 1</name>
            <enabled>TRUE</enabled>
            <duration>94</duration>
            <rate>
              <timebase>30</timebase>
              <ntsc>TRUE</ntsc>
            </rate>
            <start>0</start>
            <end>94</end>
            <in>0</in>
            <out>94</out>
            <effect>
              <name>Text</name>
              <effectid>Text</effectid>
              <effectcategory>Text</effectcategory>
              <effecttype>generator</effecttype>
              <mediatype>video</mediatype>
              <parameter>
                <parameterid>str</parameterid>
                <name>Text</name>
                <value>送ったメッセージに「既読」がついたまま 返信が来ない——</value>
              </parameter>
            </effect>
          </generatoritem>
          <generatoritem id="subtitle-2">
            <name>Subtitle 2</name>
            <enabled>TRUE</enabled>
            <duration>95</duration>
            <rate>
              <timebase>30</timebase>
              <ntsc>TRUE</ntsc>
            </rate>
            <start>94</start>
            <end>189</end>
            <in>0</in>
            <out>95</out>
            <effect>
              <name>Text</name>
              <effectid>Text</effectid>
              <effectcategory>Text</effectcategory>
              <effecttype>generator</effecttype>
              <mediatype>video</mediatype>
              <parameter>
                <parameterid>str</parameterid>
                <name>Text</name>
                <value>その沈黙に 心がざわついたことは ありませんか？</value>
              </parameter>
            </effect>
          </generatoritem>
          <generatoritem id="subtitle-3">
            <name>Subtitle 3</name>
            <enabled>TRUE</enabled>
            <duration>94</duration>
            <rate>
              <timebase>30</timebase>
              <ntsc>TRUE</ntsc>
            </rate>
            <start>189</start>
            <end>283</end>
            <in>0</in>
            <out>94</out>
            <effect>
              <name>Text</name>
              <effectid>Text</effectid>
              <effectcategory>Text</effectcategory>
              <effecttype>generator</effecttype>
              <mediatype>video</mediatype>
              <parameter>
                <parameterid>str</parameterid>
                <name>Text</name>
                <value>この沈黙は 拒絶のサインなのか</value>
              </parameter>
            </effect>
          </generatoritem>
          <generatoritem id="subtitle-4">
            <name>Subtitle 4</name>
            <enabled>TRUE</enabled>
            <duration>147</duration>
            <rate>
              <timebase>30</timebase>
              <ntsc>TRUE</ntsc>
            </rate>
            <start>293</start>
            <end>440</end>
            <in>0</in>
            <out>147</out>
            <effect>
              <name>Text</name>
              <effectid>Text</effectid>
              <effectcategory>Text</effectcategory>
              <effecttype>generator</effecttype>
              <mediatype>video</mediatype>
              <parameter>
                <parameterid>str</parameterid>
                <name>Text</name>
                <value>それとも まだ言葉にならない何かが 相手の中で熟成されている時間なのか？</value>
              </parameter>
            </effect>
          </generatoritem>
          <generatoritem id="subtitle-5">
            <name>Subtitle 5</name>
            <enabled>TRUE</enabled>
            <duration>146</duration>
            <rate>
              <timebase>30</timebase>
              <ntsc>TRUE</ntsc>
            </rate>
            <start>440</start>
            <end>586</end>
            <in>0</in>
            <out>146</out>
            <effect>
              <name>Text</name>
              <effectid>Text</effectid>
              <effectcategory>Text</effectcategory>
              <effecttype>generator</effecttype>
              <mediatype>video</mediatype>
              <parameter>
                <parameterid>str</parameterid>
                <name>Text</name>
                <value>ようこそ オリオンの会議室へ</value>
              </parameter>
            </effect>
          </generatoritem>
          <generatoritem id="subtitle-6">
            <name>Subtitle 6</name>
            <enabled>TRUE</enabled>
            <duration>197</duration>
            <rate>
              <timebase>30</timebase>
              <ntsc>TRUE</ntsc>
            </rate>
            <start>596</start>
            <end>793</end>
            <in>0</in>
            <out>197</out>
            <effect>
              <name>Text</name>
              <effectid>Text</effectid>
              <effectcategory>Text</effectcategory>
              <effecttype>generator</effecttype>
              <mediatype>video</mediatype>
              <parameter>
                <parameterid>str</parameterid>
                <name>Text</name>
                <value>今夜のテーマは「既読スルーの哲学」</value>
              </parameter>
            </effect>
          </generatoritem>
          <generatoritem id="subtitle-7">
            <name>Subtitle 7</name>
            <enabled>TRUE</enabled>
            <duration>187</duration>
            <rate>
              <timebase>30</timebase>
              <ntsc>TRUE</ntsc>
            </rate>
            <start>803</start>
            <end>990</end>
            <in>0</in>
            <out>187</out>
            <effect>
              <name>Text</name>
              <effectid>Text</effectid>
              <effectcategory>Text</effectcategory>
              <effecttype>generator</effecttype>
              <mediatype>video</mediatype>
              <parameter>
                <parameterid>str</parameterid>
                <name>Text</name>
                <value>古今東西の叡智を星座のように結び 現代の悩みに新しい視座を見つける8分間</value>
              </parameter>
            </effect>
          </generatoritem>
          <generatoritem id="subtitle-8">
            <name>Subtitle 8</name>
            <enabled>TRUE</enabled>
            <duration>111</duration>
            <rate>
              <timebase>30</timebase>
              <ntsc>TRUE</ntsc>
            </rate>
            <start>1000</start>
            <end>1111</end>
            <in>0</in>
            <out>111</out>
            <effect>
              <name>Text</name>
              <effectid>Text</effectid>
              <effectcategory>Text</effectcategory>
              <effecttype>generator</effecttype>
              <mediatype>video</mediatype>
              <parameter>
                <parameterid>str</parameterid>
                <name>Text</name>
                <value>今夜めぐる星々は——</value>
              </parameter>
            </effect>
          </generatoritem>
          <generatoritem id="subtitle-9">
            <name>Subtitle 9</name>
            <enabled>TRUE</enabled>
            <duration>111</duration>
            <rate>
              <timebase>30</timebase>
              <ntsc>TRUE</ntsc>
            </rate>
            <start>1111</start>
            <end>1222</end>
            <in>0</in>
            <out>111</out>
            <effect>
              <name>Text</name>
              <effectid>Text</effectid>
              <effectcategory>Text</effectcategory>
              <effecttype>generator</effecttype>
              <mediatype>video</mediatype>
              <parameter>
                <parameterid>str</parameterid>
                <name>Text</name>
                <value>「語りえぬものには沈黙せよ」という 言葉の限界</value>
              </parameter>
            </effect>
          </generatoritem>
          <generatoritem id="subtitle-10">
            <name>Subtitle 10</name>
            <enabled>TRUE</enabled>
            <duration>176</duration>
            <rate>
              <timebase>30</timebase>
              <ntsc>TRUE</ntsc>
            </rate>
            <start>1232</start>
            <end>1408</end>
            <in>0</in>
            <out>176</out>
            <effect>
              <name>Text</name>
              <effectid>Text</effectid>
              <effectcategory>Text</effectcategory>
              <effecttype>generator</effecttype>
              <mediatype>video</mediatype>
              <parameter>
                <parameterid>str</parameterid>
                <name>Text</name>
                <value>宇宙の85％を占めながら 誰にも見えない「暗黒物質」</value>
              </parameter>
            </effect>
          </generatoritem>
          <generatoritem id="subtitle-11">
            <name>Subtitle 11</name>
            <enabled>TRUE</enabled>
            <duration>175</duration>
            <rate>
              <timebase>30</timebase>
              <ntsc>TRUE</ntsc>
            </rate>
            <start>1408</start>
            <end>1583</end>
            <in>0</in>
            <out>175</out>
            <effect>
              <name>Text</name>
              <effectid>Text</effectid>
              <effectcategory>Text</effectcategory>
              <effecttype>generator</effecttype>
              <mediatype>video</mediatype>
              <parameter>
                <parameterid>str</parameterid>
                <name>Text</name>
                <value>他者の「顔」がなければ 本当の対話は生まれないという洞察</value>
              </parameter>
            </effect>
          </generatoritem>
          <generatoritem id="subtitle-12">
            <name>Subtitle 12</name>
            <enabled>TRUE</enabled>
            <duration>210</duration>
            <rate>
              <timebase>30</timebase>
              <ntsc>TRUE</ntsc>
            </rate>
            <start>1593</start>
            <end>1803</end>
            <in>0</in>
            <out>210</out>
            <effect>
              <name>Text</name>
              <effectid>Text</effectid>
              <effectcategory>Text</effectcategory>
              <effecttype>generator</effecttype>
              <mediatype>video</mediatype>
              <parameter>
                <parameterid>str</parameterid>
                <name>Text</name>
                <value>そして 大切なことほど言葉にしない 古代日本の「言挙げせず」の知恵</value>
              </parameter>
            </effect>
          </generatoritem>
          <generatoritem id="subtitle-13">
            <name>Subtitle 13</name>
            <enabled>TRUE</enabled>
            <duration>210</duration>
            <rate>
              <timebase>30</timebase>
              <ntsc>TRUE</ntsc>
            </rate>
            <start>1803</start>
            <end>2013</end>
            <in>0</in>
            <out>210</out>
            <effect>
              <name>Text</name>
              <effectid>Text</effectid>
              <effectcategory>Text</effectcategory>
              <effecttype>generator</effecttype>
              <mediatype>video</mediatype>
              <parameter>
                <parameterid>str</parameterid>
                <name>Text</name>
                <value>バラバラの星々が 沈黙の向こう側にある物語を紡ぎ始めます</value>
              </parameter>
            </effect>
          </generatoritem>
          <generatoritem id="subtitle-14">
            <name>Subtitle 14</name>
            <enabled>TRUE</enabled>
            <duration>122</duration>
            <rate>
              <timebase>30</timebase>
              <ntsc>TRUE</ntsc>
            </rate>
            <start>2023</start>
            <end>2145</end>
            <in>0</in>
            <out>122</out>
            <effect>
              <name>Text</name>
              <effectid>Text</effectid>
              <effectcategory>Text</effectcategory>
              <effecttype>generator</effecttype>
              <mediatype>video</mediatype>
              <parameter>
                <parameterid>str</parameterid>
                <name>Text</name>
                <value>金曜日の午後 上司への提案メールを送った</value>
              </parameter>
            </effect>
          </generatoritem>
          <generatoritem id="subtitle-15">
            <name>Subtitle 15</name>
            <enabled>TRUE</enabled>
            <duration>102</duration>
            <rate>
              <timebase>30</timebase>
              <ntsc>TRUE</ntsc>
            </rate>
            <start>2155</start>
            <end>2257</end>
            <in>0</in>
            <out>102</out>
            <effect>
              <name>Text</name>
              <effectid>Text</effectid>
              <effectcategory>Text</effectcategory>
              <effecttype>generator</effecttype>
              <mediatype>video</mediatype>
              <parameter>
                <parameterid>str</parameterid>
                <name>Text</name>
                <value>既読がついた でも 返信がない</value>
              </parameter>
            </effect>
          </generatoritem>
          <generatoritem id="subtitle-16">
            <name>Subtitle 16</name>
            <enabled>TRUE</enabled>
            <duration>46</duration>
            <rate>
              <timebase>30</timebase>
              <ntsc>TRUE</ntsc>
            </rate>
            <start>2267</start>
            <end>2313</end>
            <in>0</in>
            <out>46</out>
            <effect>
              <name>Text</name>
              <effectid>Text</effectid>
              <effectcategory>Text</effectcategory>
              <effecttype>generator</effecttype>
              <mediatype>video</mediatype>
              <parameter>
                <parameterid>str</parameterid>
                <name>Text</name>
                <value>1時間 2時間……</value>
              </parameter>
            </effect>
          </generatoritem>
          <generatoritem id="subtitle-17">
            <name>Subtitle 17</name>
            <enabled>TRUE</enabled>
            <duration>46</duration>
            <rate>
              <timebase>30</timebase>
              <ntsc>TRUE</ntsc>
            </rate>
            <start>2313</start>
            <end>2359</end>
            <in>0</in>
            <out>46</out>
            <effect>
              <name>Text</name>
              <effectid>Text</effectid>
              <effectcategory>Text</effectcategory>
              <effecttype>generator</effecttype>
              <mediatype>video</mediatype>
              <parameter>
                <parameterid>str</parameterid>
                <name>Text</name>
                <value>「何か気に障ることを 書いてしまったのだろうか」</value>
              </parameter>
            </effect>
          </generatoritem>
          <generatoritem id="subtitle-18">
            <name>Subtitle 18</name>
            <enabled>TRUE</enabled>
            <duration>46</duration>
            <rate>
              <timebase>30</timebase>
              <ntsc>TRUE</ntsc>
            </rate>
            <start>2359</start>
            <end>2405</end>
            <in>0</in>
            <out>46</out>
            <effect>
              <name>Text</name>
              <effectid>Text</effectid>
              <effectcategory>Text</effectcategory>
              <effecttype>generator</effecttype>
              <mediatype>video</mediatype>
              <parameter>
                <parameterid>str</parameterid>
                <name>Text</name>
                <value>20世紀初頭のウィーン</value>
              </parameter>
            </effect>
          </generatoritem>
          <generatoritem id="subtitle-19">
            <name>Subtitle 19</name>
            <enabled>TRUE</enabled>
            <duration>46</duration>
            <rate>
              <timebase>30</timebase>
              <ntsc>TRUE</ntsc>
            </rate>
            <start>2405</start>
            <end>2451</end>
            <in>0</in>
            <out>46</out>
            <effect>
              <name>Text</name>
              <effectid>Text</effectid>
              <effectcategory>Text</effectcategory>
              <effecttype>generator</effecttype>
              <mediatype>video</mediatype>
              <parameter>
                <parameterid>str</parameterid>
                <name>Text</name>
                <value>哲学者ルートヴィヒ・ヴィトゲンシュタインは 言葉の限界について考え抜いていました</value>
              </parameter>
            </effect>
          </generatoritem>
          <generatoritem id="subtitle-20">
            <name>Subtitle 20</name>
            <enabled>TRUE</enabled>
            <duration>119</duration>
            <rate>
              <timebase>30</timebase>
              <ntsc>TRUE</ntsc>
            </rate>
            <start>2461</start>
            <end>2580</end>
            <in>0</in>
            <out>119</out>
            <effect>
              <name>Text</name>
              <effectid>Text</effectid>
              <effectcategory>Text</effectcategory>
              <effecttype>generator</effecttype>
              <mediatype>video</mediatype>
              <parameter>
                <parameterid>str</parameterid>
                <name>Text</name>
                <value>頭の中で 送った文面を何度も反芻する</value>
              </parameter>
            </effect>
          </generatoritem>
          <generatoritem id="subtitle-21">
            <name>Subtitle 21</name>
            <enabled>TRUE</enabled>
            <duration>120</duration>
            <rate>
              <timebase>30</timebase>
              <ntsc>TRUE</ntsc>
            </rate>
            <start>2580</start>
            <end>2700</end>
            <in>0</in>
            <out>120</out>
            <effect>
              <name>Text</name>
              <effectid>Text</effectid>
              <effectcategory>Text</effectcategory>
              <effecttype>generator</effecttype>
              <mediatype>video</mediatype>
              <parameter>
                <parameterid>str</parameterid>
                <name>Text</name>
                <value>週末が 重くのしかかる</value>
              </parameter>
            </effect>
          </generatoritem>
          <generatoritem id="subtitle-22">
            <name>Subtitle 22</name>
            <enabled>TRUE</enabled>
            <duration>123</duration>
            <rate>
              <timebase>30</timebase>
              <ntsc>TRUE</ntsc>
            </rate>
            <start>2710</start>
            <end>2833</end>
            <in>0</in>
            <out>123</out>
            <effect>
              <name>Text</name>
              <effectid>Text</effectid>
              <effectcategory>Text</effectcategory>
              <effecttype>generator</effecttype>
              <mediatype>video</mediatype>
              <parameter>
                <parameterid>str</parameterid>
                <name>Text</name>
                <value>私たちは今 かつてないほど「つながって」いる</value>
              </parameter>
            </effect>
          </generatoritem>
          <generatoritem id="subtitle-23">
            <name>Subtitle 23</name>
            <enabled>TRUE</enabled>
            <duration>123</duration>
            <rate>
              <timebase>30</timebase>
              <ntsc>TRUE</ntsc>
            </rate>
            <start>2833</start>
            <end>2956</end>
            <in>0</in>
            <out>123</out>
            <effect>
              <name>Text</name>
              <effectid>Text</effectid>
              <effectcategory>Text</effectcategory>
              <effecttype>generator</effecttype>
              <mediatype>video</mediatype>
              <parameter>
                <parameterid>str</parameterid>
                <name>Text</name>
                <value>でも そのつながりが かつてないほど不安を生んでいる</value>
              </parameter>
            </effect>
          </generatoritem>
          <generatoritem id="subtitle-24">
            <name>Subtitle 24</name>
            <enabled>TRUE</enabled>
            <duration>158</duration>
            <rate>
              <timebase>30</timebase>
              <ntsc>TRUE</ntsc>
            </rate>
            <start>2966</start>
            <end>3124</end>
            <in>0</in>
            <out>158</out>
            <effect>
              <name>Text</name>
              <effectid>Text</effectid>
              <effectcategory>Text</effectcategory>
              <effecttype>generator</effecttype>
              <mediatype>video</mediatype>
              <parameter>
                <parameterid>str</parameterid>
                <name>Text</name>
                <value>なぜ「既読」という二文字が これほど心を乱すのでしょうか</value>
              </parameter>
            </effect>
          </generatoritem>
          <generatoritem id="subtitle-25">
            <name>Subtitle 25</name>
            <enabled>TRUE</enabled>
            <duration>209</duration>
            <rate>
              <timebase>30</timebase>
              <ntsc>TRUE</ntsc>
            </rate>
            <start>3411</start>
            <end>3620</end>
            <in>0</in>
            <out>209</out>
            <effect>
              <name>Text</name>
              <effectid>Text</effectid>
              <effectcategory>Text</effectcategory>
              <effecttype>generator</effecttype>
              <mediatype>video</mediatype>
              <parameter>
                <parameterid>str</parameterid>
                <name>Text</name>
                <value>彼は29歳で たった75ページの本を 書き上げました</value>
              </parameter>
            </effect>
          </generatoritem>
          <generatoritem id="subtitle-26">
            <name>Subtitle 26</name>
            <enabled>TRUE</enabled>
            <duration>208</duration>
            <rate>
              <timebase>30</timebase>
              <ntsc>TRUE</ntsc>
            </rate>
            <start>3620</start>
            <end>3828</end>
            <in>0</in>
            <out>208</out>
            <effect>
              <name>Text</name>
              <effectid>Text</effectid>
              <effectcategory>Text</effectcategory>
              <effecttype>generator</effecttype>
              <mediatype>video</mediatype>
              <parameter>
                <parameterid>str</parameterid>
                <name>Text</name>
                <value>その最後の一文は こう結ばれています</value>
              </parameter>
            </effect>
          </generatoritem>
          <generatoritem id="subtitle-27">
            <name>Subtitle 27</name>
            <enabled>TRUE</enabled>
            <duration>59</duration>
            <rate>
              <timebase>30</timebase>
              <ntsc>TRUE</ntsc>
            </rate>
            <start>3838</start>
            <end>3897</end>
            <in>0</in>
            <out>59</out>
            <effect>
              <name>Text</name>
              <effectid>Text</effectid>
              <effectcategory>Text</effectcategory>
              <effecttype>generator</effecttype>
              <mediatype>video</mediatype>
              <parameter>
                <parameterid>str</parameterid>
                <name>Text</name>
                <value>「語りえぬものについては 沈黙せねばならない」</value>
              </parameter>
            </effect>
          </generatoritem>
          <generatoritem id="subtitle-28">
            <name>Subtitle 28</name>
            <enabled>TRUE</enabled>
            <duration>58</duration>
            <rate>
              <timebase>30</timebase>
              <ntsc>TRUE</ntsc>
            </rate>
            <start>3897</start>
            <end>3955</end>
            <in>0</in>
            <out>58</out>
            <effect>
              <name>Text</name>
              <effectid>Text</effectid>
              <effectcategory>Text</effectcategory>
              <effecttype>generator</effecttype>
              <mediatype>video</mediatype>
              <parameter>
                <parameterid>str</parameterid>
                <name>Text</name>
                <value>しかし 宇宙の質量の約85％を占め</value>
              </parameter>
            </effect>
          </generatoritem>
          <generatoritem id="subtitle-29">
            <name>Subtitle 29</name>
            <enabled>TRUE</enabled>
            <duration>125</duration>
            <rate>
              <timebase>30</timebase>
              <ntsc>TRUE</ntsc>
            </rate>
            <start>3965</start>
            <end>4090</end>
            <in>0</in>
            <out>125</out>
            <effect>
              <name>Text</name>
              <effectid>Text</effectid>
              <effectcategory>Text</effectcategory>
              <effecttype>generator</effecttype>
              <mediatype>video</mediatype>
              <parameter>
                <parameterid>str</parameterid>
                <name>Text</name>
                <value>言葉で論理的に語れる領域には 限界がある</value>
              </parameter>
            </effect>
          </generatoritem>
          <generatoritem id="subtitle-30">
            <name>Subtitle 30</name>
            <enabled>TRUE</enabled>
            <duration>126</duration>
            <rate>
              <timebase>30</timebase>
              <ntsc>TRUE</ntsc>
            </rate>
            <start>4090</start>
            <end>4216</end>
            <in>0</in>
            <out>126</out>
            <effect>
              <name>Text</name>
              <effectid>Text</effectid>
              <effectcategory>Text</effectcategory>
              <effecttype>generator</effecttype>
              <mediatype>video</mediatype>
              <parameter>
                <parameterid>str</parameterid>
                <name>Text</name>
                <value>そして本当に大切なこと—— 倫理や美や人生の意味——は</value>
              </parameter>
            </effect>
          </generatoritem>
          <generatoritem id="subtitle-31">
            <name>Subtitle 31</name>
            <enabled>TRUE</enabled>
            <duration>126</duration>
            <rate>
              <timebase>30</timebase>
              <ntsc>TRUE</ntsc>
            </rate>
            <start>4216</start>
            <end>4342</end>
            <in>0</in>
            <out>126</out>
            <effect>
              <name>Text</name>
              <effectid>Text</effectid>
              <effectcategory>Text</effectcategory>
              <effecttype>generator</effecttype>
              <mediatype>video</mediatype>
              <parameter>
                <parameterid>str</parameterid>
                <name>Text</name>
                <value>しばしばその限界の「向こう側」にある</value>
              </parameter>
            </effect>
          </generatoritem>
          <generatoritem id="subtitle-32">
            <name>Subtitle 32</name>
            <enabled>TRUE</enabled>
            <duration>200</duration>
            <rate>
              <timebase>30</timebase>
              <ntsc>TRUE</ntsc>
            </rate>
            <start>4352</start>
            <end>4552</end>
            <in>0</in>
            <out>200</out>
            <effect>
              <name>Text</name>
              <effectid>Text</effectid>
              <effectcategory>Text</effectcategory>
              <effecttype>generator</effecttype>
              <mediatype>video</mediatype>
              <parameter>
                <parameterid>str</parameterid>
                <name>Text</name>
                <value>私たちは テキストメッセージという 「言葉だけ」で相手を理解しようとしていないでしょうか</value>
              </parameter>
            </effect>
          </generatoritem>
          <generatoritem id="subtitle-33">
            <name>Subtitle 33</name>
            <enabled>TRUE</enabled>
            <duration>200</duration>
            <rate>
              <timebase>30</timebase>
              <ntsc>TRUE</ntsc>
            </rate>
            <start>4552</start>
            <end>4752</end>
            <in>0</in>
            <out>200</out>
            <effect>
              <name>Text</name>
              <effectid>Text</effectid>
              <effectcategory>Text</effectcategory>
              <effecttype>generator</effecttype>
              <mediatype>video</mediatype>
              <parameter>
                <parameterid>str</parameterid>
                <name>Text</name>
                <value>言葉の限界の向こう側に 実はもっと広大な領域が広がっているとしたら？</value>
              </parameter>
            </effect>
          </generatoritem>
          <generatoritem id="subtitle-34">
            <name>Subtitle 34</name>
            <enabled>TRUE</enabled>
            <duration>47</duration>
            <rate>
              <timebase>30</timebase>
              <ntsc>TRUE</ntsc>
            </rate>
            <start>4762</start>
            <end>4809</end>
            <in>0</in>
            <out>47</out>
            <effect>
              <name>Text</name>
              <effectid>Text</effectid>
              <effectcategory>Text</effectcategory>
              <effecttype>generator</effecttype>
              <mediatype>video</mediatype>
              <parameter>
                <parameterid>str</parameterid>
                <name>Text</name>
                <value>ここで 宇宙に目を向けてみましょう</value>
              </parameter>
            </effect>
          </generatoritem>
          <generatoritem id="subtitle-35">
            <name>Subtitle 35</name>
            <enabled>TRUE</enabled>
            <duration>47</duration>
            <rate>
              <timebase>30</timebase>
              <ntsc>TRUE</ntsc>
            </rate>
            <start>4809</start>
            <end>4856</end>
            <in>0</in>
            <out>47</out>
            <effect>
              <name>Text</name>
              <effectid>Text</effectid>
              <effectcategory>Text</effectcategory>
              <effecttype>generator</effecttype>
              <mediatype>video</mediatype>
              <parameter>
                <parameterid>str</parameterid>
                <name>Text</name>
                <value>ここで 古代日本の知恵に 耳を傾けてみましょう</value>
              </parameter>
            </effect>
          </generatoritem>
          <generatoritem id="subtitle-36">
            <name>Subtitle 36</name>
            <enabled>TRUE</enabled>
            <duration>132</duration>
            <rate>
              <timebase>30</timebase>
              <ntsc>TRUE</ntsc>
            </rate>
            <start>4866</start>
            <end>4998</end>
            <in>0</in>
            <out>132</out>
            <effect>
              <name>Text</name>
              <effectid>Text</effectid>
              <effectcategory>Text</effectcategory>
              <effecttype>generator</effecttype>
              <mediatype>video</mediatype>
              <parameter>
                <parameterid>str</parameterid>
                <name>Text</name>
                <value>天文学者たちは 奇妙な事実に 気づいていました</value>
              </parameter>
            </effect>
          </generatoritem>
          <generatoritem id="subtitle-37">
            <name>Subtitle 37</name>
            <enabled>TRUE</enabled>
            <duration>132</duration>
            <rate>
              <timebase>30</timebase>
              <ntsc>TRUE</ntsc>
            </rate>
            <start>4998</start>
            <end>5130</end>
            <in>0</in>
            <out>132</out>
            <effect>
              <name>Text</name>
              <effectid>Text</effectid>
              <effectcategory>Text</effectcategory>
              <effecttype>generator</effecttype>
              <mediatype>video</mediatype>
              <parameter>
                <parameterid>str</parameterid>
                <name>Text</name>
                <value>銀河は 見える星の重さだけでは バラバラに飛び散ってしまうはずです</value>
              </parameter>
            </effect>
          </generatoritem>
          <generatoritem id="subtitle-38">
            <name>Subtitle 38</name>
            <enabled>TRUE</enabled>
            <duration>132</duration>
            <rate>
              <timebase>30</timebase>
              <ntsc>TRUE</ntsc>
            </rate>
            <start>5130</start>
            <end>5262</end>
            <in>0</in>
            <out>132</out>
            <effect>
              <name>Text</name>
              <effectid>Text</effectid>
              <effectcategory>Text</effectcategory>
              <effecttype>generator</effecttype>
              <mediatype>video</mediatype>
              <parameter>
                <parameterid>str</parameterid>
                <name>Text</name>
                <value>なのに なぜ形を保っているのか？</value>
              </parameter>
            </effect>
          </generatoritem>
          <generatoritem id="subtitle-39">
            <name>Subtitle 39</name>
            <enabled>TRUE</enabled>
            <duration>111</duration>
            <rate>
              <timebase>30</timebase>
              <ntsc>TRUE</ntsc>
            </rate>
            <start>5272</start>
            <end>5383</end>
            <in>0</in>
            <out>111</out>
            <effect>
              <name>Text</name>
              <effectid>Text</effectid>
              <effectcategory>Text</effectcategory>
              <effecttype>generator</effecttype>
              <mediatype>video</mediatype>
              <parameter>
                <parameterid>str</parameterid>
                <name>Text</name>
                <value>答えは「暗黒物質」</value>
              </parameter>
            </effect>
          </generatoritem>
          <generatoritem id="subtitle-40">
            <name>Subtitle 40</name>
            <enabled>TRUE</enabled>
            <duration>111</duration>
            <rate>
              <timebase>30</timebase>
              <ntsc>TRUE</ntsc>
            </rate>
            <start>5383</start>
            <end>5494</end>
            <in>0</in>
            <out>111</out>
            <effect>
              <name>Text</name>
              <effectid>Text</effectid>
              <effectcategory>Text</effectcategory>
              <effecttype>generator</effecttype>
              <mediatype>video</mediatype>
              <parameter>
                <parameterid>str</parameterid>
                <name>Text</name>
                <value>光を発せず 観測もできない</value>
              </parameter>
            </effect>
          </generatoritem>
          <generatoritem id="subtitle-41">
            <name>Subtitle 41</name>
            <enabled>TRUE</enabled>
            <duration>111</duration>
            <rate>
              <timebase>30</timebase>
              <ntsc>TRUE</ntsc>
            </rate>
            <start>5494</start>
            <end>5605</end>
            <in>0</in>
            <out>111</out>
            <effect>
              <name>Text</name>
              <effectid>Text</effectid>
              <effectcategory>Text</effectcategory>
              <effecttype>generator</effecttype>
              <mediatype>video</mediatype>
              <parameter>
                <parameterid>str</parameterid>
                <name>Text</name>
                <value>銀河という構造を繋ぎ止めている—— 見えない重力源</value>
              </parameter>
            </effect>
          </generatoritem>
          <generatoritem id="subtitle-42">
            <name>Subtitle 42</name>
            <enabled>TRUE</enabled>
            <duration>111</duration>
            <rate>
              <timebase>30</timebase>
              <ntsc>TRUE</ntsc>
            </rate>
            <start>5605</start>
            <end>5716</end>
            <in>0</in>
            <out>111</out>
            <effect>
              <name>Text</name>
              <effectid>Text</effectid>
              <effectcategory>Text</effectcategory>
              <effecttype>generator</effecttype>
              <mediatype>video</mediatype>
              <parameter>
                <parameterid>str</parameterid>
                <name>Text</name>
                <value>20世紀フランスの哲学者 エマニュエル・レヴィナスは</value>
              </parameter>
            </effect>
          </generatoritem>
          <generatoritem id="subtitle-43">
            <name>Subtitle 43</name>
            <enabled>TRUE</enabled>
            <duration>132</duration>
            <rate>
              <timebase>30</timebase>
              <ntsc>TRUE</ntsc>
            </rate>
            <start>5726</start>
            <end>5858</end>
            <in>0</in>
            <out>132</out>
            <effect>
              <name>Text</name>
              <effectid>Text</effectid>
              <effectcategory>Text</effectcategory>
              <effecttype>generator</effecttype>
              <mediatype>video</mediatype>
              <parameter>
                <parameterid>str</parameterid>
                <name>Text</name>
                <value>返信がない時間 それは「無」ではありません</value>
              </parameter>
            </effect>
          </generatoritem>
          <generatoritem id="subtitle-44">
            <name>Subtitle 44</name>
            <enabled>TRUE</enabled>
            <duration>133</duration>
            <rate>
              <timebase>30</timebase>
              <ntsc>TRUE</ntsc>
            </rate>
            <start>5858</start>
            <end>5991</end>
            <in>0</in>
            <out>133</out>
            <effect>
              <name>Text</name>
              <effectid>Text</effectid>
              <effectcategory>Text</effectcategory>
              <effecttype>generator</effecttype>
              <mediatype>video</mediatype>
              <parameter>
                <parameterid>str</parameterid>
                <name>Text</name>
                <value>相手の中で あなたの言葉が 咀嚼されている時間かもしれない</value>
              </parameter>
            </effect>
          </generatoritem>
          <generatoritem id="subtitle-45">
            <name>Subtitle 45</name>
            <enabled>TRUE</enabled>
            <duration>95</duration>
            <rate>
              <timebase>30</timebase>
              <ntsc>TRUE</ntsc>
            </rate>
            <start>6001</start>
            <end>6096</end>
            <in>0</in>
            <out>95</out>
            <effect>
              <name>Text</name>
              <effectid>Text</effectid>
              <effectcategory>Text</effectcategory>
              <effecttype>generator</effecttype>
              <mediatype>video</mediatype>
              <parameter>
                <parameterid>str</parameterid>
                <name>Text</name>
                <value>私たちが送受信するテキストは 関係性のほんの一部——</value>
              </parameter>
            </effect>
          </generatoritem>
          <generatoritem id="subtitle-46">
            <name>Subtitle 46</name>
            <enabled>TRUE</enabled>
            <duration>96</duration>
            <rate>
              <timebase>30</timebase>
              <ntsc>TRUE</ntsc>
            </rate>
            <start>6096</start>
            <end>6192</end>
            <in>0</in>
            <out>96</out>
            <effect>
              <name>Text</name>
              <effectid>Text</effectid>
              <effectcategory>Text</effectcategory>
              <effecttype>generator</effecttype>
              <mediatype>video</mediatype>
              <parameter>
                <parameterid>str</parameterid>
                <name>Text</name>
                <value>宇宙でいえば 光を発する星々にすぎない</value>
              </parameter>
            </effect>
          </generatoritem>
          <generatoritem id="subtitle-47">
            <name>Subtitle 47</name>
            <enabled>TRUE</enabled>
            <duration>95</duration>
            <rate>
              <timebase>30</timebase>
              <ntsc>TRUE</ntsc>
            </rate>
            <start>6192</start>
            <end>6287</end>
            <in>0</in>
            <out>95</out>
            <effect>
              <name>Text</name>
              <effectid>Text</effectid>
              <effectcategory>Text</effectcategory>
              <effecttype>generator</effecttype>
              <mediatype>video</mediatype>
              <parameter>
                <parameterid>str</parameterid>
                <name>Text</name>
                <value>テキストメッセージには「顔」がない</value>
              </parameter>
            </effect>
          </generatoritem>
          <generatoritem id="subtitle-48">
            <name>Subtitle 48</name>
            <enabled>TRUE</enabled>
            <duration>103</duration>
            <rate>
              <timebase>30</timebase>
              <ntsc>TRUE</ntsc>
            </rate>
            <start>6297</start>
            <end>6400</end>
            <in>0</in>
            <out>103</out>
            <effect>
              <name>Text</name>
              <effectid>Text</effectid>
              <effectcategory>Text</effectcategory>
              <effecttype>generator</effecttype>
              <mediatype>video</mediatype>
              <parameter>
                <parameterid>str</parameterid>
                <name>Text</name>
                <value>見えないからといって 「無い」わけではない</value>
              </parameter>
            </effect>
          </generatoritem>
          <generatoritem id="subtitle-49">
            <name>Subtitle 49</name>
            <enabled>TRUE</enabled>
            <duration>104</duration>
            <rate>
              <timebase>30</timebase>
              <ntsc>TRUE</ntsc>
            </rate>
            <start>6400</start>
            <end>6504</end>
            <in>0</in>
            <out>104</out>
            <effect>
              <name>Text</name>
              <effectid>Text</effectid>
              <effectcategory>Text</effectcategory>
              <effecttype>generator</effecttype>
              <mediatype>video</mediatype>
              <parameter>
                <parameterid>str</parameterid>
                <name>Text</name>
                <value>むしろ 見えない時間こそが</value>
              </parameter>
            </effect>
          </generatoritem>
          <generatoritem id="subtitle-50">
            <name>Subtitle 50</name>
            <enabled>TRUE</enabled>
            <duration>103</duration>
            <rate>
              <timebase>30</timebase>
              <ntsc>TRUE</ntsc>
            </rate>
            <start>6504</start>
            <end>6607</end>
            <in>0</in>
            <out>103</out>
            <effect>
              <name>Text</name>
              <effectid>Text</effectid>
              <effectcategory>Text</effectcategory>
              <effecttype>generator</effecttype>
              <mediatype>video</mediatype>
              <parameter>
                <parameterid>str</parameterid>
                <name>Text</name>
                <value>関係という銀河を 崩壊させずに保っているのかもしれません</value>
              </parameter>
            </effect>
          </generatoritem>
          <generatoritem id="subtitle-51">
            <name>Subtitle 51</name>
            <enabled>TRUE</enabled>
            <duration>190</duration>
            <rate>
              <timebase>30</timebase>
              <ntsc>TRUE</ntsc>
            </rate>
            <start>6617</start>
            <end>6807</end>
            <in>0</in>
            <out>190</out>
            <effect>
              <name>Text</name>
              <effectid>Text</effectid>
              <effectcategory>Text</effectcategory>
              <effecttype>generator</effecttype>
              <mediatype>video</mediatype>
              <parameter>
                <parameterid>str</parameterid>
                <name>Text</name>
                <value>しかし なぜ私たちは その「見えない時間」に不安を感じるのでしょうか</value>
              </parameter>
            </effect>
          </generatoritem>
          <generatoritem id="subtitle-52">
            <name>Subtitle 52</name>
            <enabled>TRUE</enabled>
            <duration>96</duration>
            <rate>
              <timebase>30</timebase>
              <ntsc>TRUE</ntsc>
            </rate>
            <start>6817</start>
            <end>6913</end>
            <in>0</in>
            <out>96</out>
            <effect>
              <name>Text</name>
              <effectid>Text</effectid>
              <effectcategory>Text</effectcategory>
              <effecttype>generator</effecttype>
              <mediatype>video</mediatype>
              <parameter>
                <parameterid>str</parameterid>
                <name>Text</name>
                <value>他者との関係について深く考えました</value>
              </parameter>
            </effect>
          </generatoritem>
          <generatoritem id="subtitle-53">
            <name>Subtitle 53</name>
            <enabled>TRUE</enabled>
            <duration>95</duration>
            <rate>
              <timebase>30</timebase>
              <ntsc>TRUE</ntsc>
            </rate>
            <start>6913</start>
            <end>7008</end>
            <in>0</in>
            <out>95</out>
            <effect>
              <name>Text</name>
              <effectid>Text</effectid>
              <effectcategory>Text</effectcategory>
              <effecttype>generator</effecttype>
              <mediatype>video</mediatype>
              <parameter>
                <parameterid>str</parameterid>
                <name>Text</name>
                <value>顔と顔を合わせること</value>
              </parameter>
            </effect>
          </generatoritem>
          <generatoritem id="subtitle-54">
            <name>Subtitle 54</name>
            <enabled>TRUE</enabled>
            <duration>96</duration>
            <rate>
              <timebase>30</timebase>
              <ntsc>TRUE</ntsc>
            </rate>
            <start>7008</start>
            <end>7104</end>
            <in>0</in>
            <out>96</out>
            <effect>
              <name>Text</name>
              <effectid>Text</effectid>
              <effectcategory>Text</effectcategory>
              <effecttype>generator</effecttype>
              <mediatype>video</mediatype>
              <parameter>
                <parameterid>str</parameterid>
                <name>Text</name>
                <value>それは単なる情報交換ではない</value>
              </parameter>
            </effect>
          </generatoritem>
          <generatoritem id="subtitle-55">
            <name>Subtitle 55</name>
            <enabled>TRUE</enabled>
            <duration>96</duration>
            <rate>
              <timebase>30</timebase>
              <ntsc>TRUE</ntsc>
            </rate>
            <start>7104</start>
            <end>7200</end>
            <in>0</in>
            <out>96</out>
            <effect>
              <name>Text</name>
              <effectid>Text</effectid>
              <effectcategory>Text</effectcategory>
              <effecttype>generator</effecttype>
              <mediatype>video</mediatype>
              <parameter>
                <parameterid>str</parameterid>
                <name>Text</name>
                <value>相手の存在そのものと出会うこと</value>
              </parameter>
            </effect>
          </generatoritem>
          <generatoritem id="subtitle-56">
            <name>Subtitle 56</name>
            <enabled>TRUE</enabled>
            <duration>95</duration>
            <rate>
              <timebase>30</timebase>
              <ntsc>TRUE</ntsc>
            </rate>
            <start>7200</start>
            <end>7295</end>
            <in>0</in>
            <out>95</out>
            <effect>
              <name>Text</name>
              <effectid>Text</effectid>
              <effectcategory>Text</effectcategory>
              <effecttype>generator</effecttype>
              <mediatype>video</mediatype>
              <parameter>
                <parameterid>str</parameterid>
                <name>Text</name>
                <value>ヴィトゲンシュタインは 後年こう書いています</value>
              </parameter>
            </effect>
          </generatoritem>
          <generatoritem id="subtitle-57">
            <name>Subtitle 57</name>
            <enabled>TRUE</enabled>
            <duration>92</duration>
            <rate>
              <timebase>30</timebase>
              <ntsc>TRUE</ntsc>
            </rate>
            <start>7305</start>
            <end>7397</end>
            <in>0</in>
            <out>92</out>
            <effect>
              <name>Text</name>
              <effectid>Text</effectid>
              <effectcategory>Text</effectcategory>
              <effecttype>generator</effecttype>
              <mediatype>video</mediatype>
              <parameter>
                <parameterid>str</parameterid>
                <name>Text</name>
                <value>私たちは 顔のない言葉を送り合っている</value>
              </parameter>
            </effect>
          </generatoritem>
          <generatoritem id="subtitle-58">
            <name>Subtitle 58</name>
            <enabled>TRUE</enabled>
            <duration>91</duration>
            <rate>
              <timebase>30</timebase>
              <ntsc>TRUE</ntsc>
            </rate>
            <start>7397</start>
            <end>7488</end>
            <in>0</in>
            <out>91</out>
            <effect>
              <name>Text</name>
              <effectid>Text</effectid>
              <effectcategory>Text</effectcategory>
              <effecttype>generator</effecttype>
              <mediatype>video</mediatype>
              <parameter>
                <parameterid>str</parameterid>
                <name>Text</name>
                <value>相手がどんな表情で どんな息づかいで</value>
              </parameter>
            </effect>
          </generatoritem>
          <generatoritem id="subtitle-59">
            <name>Subtitle 59</name>
            <enabled>TRUE</enabled>
            <duration>92</duration>
            <rate>
              <timebase>30</timebase>
              <ntsc>TRUE</ntsc>
            </rate>
            <start>7488</start>
            <end>7580</end>
            <in>0</in>
            <out>92</out>
            <effect>
              <name>Text</name>
              <effectid>Text</effectid>
              <effectcategory>Text</effectcategory>
              <effecttype>generator</effecttype>
              <mediatype>video</mediatype>
              <parameter>
                <parameterid>str</parameterid>
                <name>Text</name>
                <value>その言葉を受け取ったのか それが見えない</value>
              </parameter>
            </effect>
          </generatoritem>
          <generatoritem id="subtitle-60">
            <name>Subtitle 60</name>
            <enabled>TRUE</enabled>
            <duration>92</duration>
            <rate>
              <timebase>30</timebase>
              <ntsc>TRUE</ntsc>
            </rate>
            <start>7580</start>
            <end>7672</end>
            <in>0</in>
            <out>92</out>
            <effect>
              <name>Text</name>
              <effectid>Text</effectid>
              <effectcategory>Text</effectcategory>
              <effecttype>generator</effecttype>
              <mediatype>video</mediatype>
              <parameter>
                <parameterid>str</parameterid>
                <name>Text</name>
                <value>だから不安になる</value>
              </parameter>
            </effect>
          </generatoritem>
          <generatoritem id="subtitle-61">
            <name>Subtitle 61</name>
            <enabled>TRUE</enabled>
            <duration>91</duration>
            <rate>
              <timebase>30</timebase>
              <ntsc>TRUE</ntsc>
            </rate>
            <start>7672</start>
            <end>7763</end>
            <in>0</in>
            <out>91</out>
            <effect>
              <name>Text</name>
              <effectid>Text</effectid>
              <effectcategory>Text</effectcategory>
              <effecttype>generator</effecttype>
              <mediatype>video</mediatype>
              <parameter>
                <parameterid>str</parameterid>
                <name>Text</name>
                <value>正解(相手の心理)は見えない だから 状況全体を見る</value>
              </parameter>
            </effect>
          </generatoritem>
          <generatoritem id="subtitle-62">
            <name>Subtitle 62</name>
            <enabled>TRUE</enabled>
            <duration>73</duration>
            <rate>
              <timebase>30</timebase>
              <ntsc>TRUE</ntsc>
            </rate>
            <start>7773</start>
            <end>7846</end>
            <in>0</in>
            <out>73</out>
            <effect>
              <name>Text</name>
              <effectid>Text</effectid>
              <effectcategory>Text</effectcategory>
              <effecttype>generator</effecttype>
              <mediatype>video</mediatype>
              <parameter>
                <parameterid>str</parameterid>
                <name>Text</name>
                <value>そして 相手を完全に理解できると思うこと——</value>
              </parameter>
            </effect>
          </generatoritem>
          <generatoritem id="subtitle-63">
            <name>Subtitle 63</name>
            <enabled>TRUE</enabled>
            <duration>72</duration>
            <rate>
              <timebase>30</timebase>
              <ntsc>TRUE</ntsc>
            </rate>
            <start>7846</start>
            <end>7918</end>
            <in>0</in>
            <out>72</out>
            <effect>
              <name>Text</name>
              <effectid>Text</effectid>
              <effectcategory>Text</effectcategory>
              <effecttype>generator</effecttype>
              <mediatype>video</mediatype>
              <parameter>
                <parameterid>str</parameterid>
                <name>Text</name>
                <value>それ自体が ある種の傲慢なのかもしれません</value>
              </parameter>
            </effect>
          </generatoritem>
          <generatoritem id="subtitle-64">
            <name>Subtitle 64</name>
            <enabled>TRUE</enabled>
            <duration>72</duration>
            <rate>
              <timebase>30</timebase>
              <ntsc>TRUE</ntsc>
            </rate>
            <start>7918</start>
            <end>7990</end>
            <in>0</in>
            <out>72</out>
            <effect>
              <name>Text</name>
              <effectid>Text</effectid>
              <effectcategory>Text</effectcategory>
              <effecttype>generator</effecttype>
              <mediatype>video</mediatype>
              <parameter>
                <parameterid>str</parameterid>
                <name>Text</name>
                <value>同じ「既読スルー」でも その意味は状況によって全く違う</value>
              </parameter>
            </effect>
          </generatoritem>
          <generatoritem id="subtitle-65">
            <name>Subtitle 65</name>
            <enabled>TRUE</enabled>
            <duration>81</duration>
            <rate>
              <timebase>30</timebase>
              <ntsc>TRUE</ntsc>
            </rate>
            <start>8000</start>
            <end>8081</end>
            <in>0</in>
            <out>81</out>
            <effect>
              <name>Text</name>
              <effectid>Text</effectid>
              <effectcategory>Text</effectcategory>
              <effecttype>generator</effecttype>
              <mediatype>video</mediatype>
              <parameter>
                <parameterid>str</parameterid>
                <name>Text</name>
                <value>他者の心の中は 覗けない</value>
              </parameter>
            </effect>
          </generatoritem>
          <generatoritem id="subtitle-66">
            <name>Subtitle 66</name>
            <enabled>TRUE</enabled>
            <duration>80</duration>
            <rate>
              <timebase>30</timebase>
              <ntsc>TRUE</ntsc>
            </rate>
            <start>8081</start>
            <end>8161</end>
            <in>0</in>
            <out>80</out>
            <effect>
              <name>Text</name>
              <effectid>Text</effectid>
              <effectcategory>Text</effectcategory>
              <effecttype>generator</effecttype>
              <mediatype>video</mediatype>
              <parameter>
                <parameterid>str</parameterid>
                <name>Text</name>
                <value>だからこそ 私たちは「外側」から 推測するしかありません</value>
              </parameter>
            </effect>
          </generatoritem>
          <generatoritem id="subtitle-67">
            <name>Subtitle 67</name>
            <enabled>TRUE</enabled>
            <duration>80</duration>
            <rate>
              <timebase>30</timebase>
              <ntsc>TRUE</ntsc>
            </rate>
            <start>8161</start>
            <end>8241</end>
            <in>0</in>
            <out>80</out>
            <effect>
              <name>Text</name>
              <effectid>Text</effectid>
              <effectcategory>Text</effectcategory>
              <effecttype>generator</effecttype>
              <mediatype>video</mediatype>
              <parameter>
                <parameterid>str</parameterid>
                <name>Text</name>
                <value>沈黙もまた 一つの「文脈」という メッセージです</value>
              </parameter>
            </effect>
          </generatoritem>
          <generatoritem id="subtitle-68">
            <name>Subtitle 68</name>
            <enabled>TRUE</enabled>
            <duration>94</duration>
            <rate>
              <timebase>30</timebase>
              <ntsc>TRUE</ntsc>
            </rate>
            <start>8251</start>
            <end>8345</end>
            <in>0</in>
            <out>94</out>
            <effect>
              <name>Text</name>
              <effectid>Text</effectid>
              <effectcategory>Text</effectcategory>
              <effecttype>generator</effecttype>
              <mediatype>video</mediatype>
              <parameter>
                <parameterid>str</parameterid>
                <name>Text</name>
                <value>既読スルーを「拒絶」と解釈する人ほど 不安傾向が高いという研究があります</value>
              </parameter>
            </effect>
          </generatoritem>
          <generatoritem id="subtitle-69">
            <name>Subtitle 69</name>
            <enabled>TRUE</enabled>
            <duration>119</duration>
            <rate>
              <timebase>30</timebase>
              <ntsc>TRUE</ntsc>
            </rate>
            <start>8355</start>
            <end>8474</end>
            <in>0</in>
            <out>119</out>
            <effect>
              <name>Text</name>
              <effectid>Text</effectid>
              <effectcategory>Text</effectcategory>
              <effecttype>generator</effecttype>
              <mediatype>video</mediatype>
              <parameter>
                <parameterid>str</parameterid>
                <name>Text</name>
                <value>「言葉の意味とは 言語におけるその使用である」</value>
              </parameter>
            </effect>
          </generatoritem>
          <generatoritem id="subtitle-70">
            <name>Subtitle 70</name>
            <enabled>TRUE</enabled>
            <duration>243</duration>
            <rate>
              <timebase>30</timebase>
              <ntsc>TRUE</ntsc>
            </rate>
            <start>8484</start>
            <end>8727</end>
            <in>0</in>
            <out>243</out>
            <effect>
              <name>Text</name>
              <effectid>Text</effectid>
              <effectcategory>Text</effectcategory>
              <effecttype>generator</effecttype>
              <mediatype>video</mediatype>
              <parameter>
                <parameterid>str</parameterid>
                <name>Text</name>
                <value>忙しくて返信できなかっただけかもしれない</value>
              </parameter>
            </effect>
          </generatoritem>
          <generatoritem id="subtitle-71">
            <name>Subtitle 71</name>
            <enabled>TRUE</enabled>
            <duration>243</duration>
            <rate>
              <timebase>30</timebase>
              <ntsc>TRUE</ntsc>
            </rate>
            <start>8727</start>
            <end>8970</end>
            <in>0</in>
            <out>243</out>
            <effect>
              <name>Text</name>
              <effectid>Text</effectid>
              <effectcategory>Text</effectcategory>
              <effecttype>generator</effecttype>
              <mediatype>video</mediatype>
              <parameter>
                <parameterid>str</parameterid>
                <name>Text</name>
                <value>返事を慎重に考えているのかもしれない</value>
              </parameter>
            </effect>
          </generatoritem>
          <generatoritem id="subtitle-72">
            <name>Subtitle 72</name>
            <enabled>TRUE</enabled>
            <duration>244</duration>
            <rate>
              <timebase>30</timebase>
              <ntsc>TRUE</ntsc>
            </rate>
            <start>8970</start>
            <end>9214</end>
            <in>0</in>
            <out>244</out>
            <effect>
              <name>Text</name>
              <effectid>Text</effectid>
              <effectcategory>Text</effectcategory>
              <effecttype>generator</effecttype>
              <mediatype>video</mediatype>
              <parameter>
                <parameterid>str</parameterid>
                <name>Text</name>
                <value>心に余裕がなく 言葉が出てこないのかもしれない</value>
              </parameter>
            </effect>
          </generatoritem>
          <generatoritem id="subtitle-73">
            <name>Subtitle 73</name>
            <enabled>TRUE</enabled>
            <duration>230</duration>
            <rate>
              <timebase>30</timebase>
              <ntsc>TRUE</ntsc>
            </rate>
            <start>9224</start>
            <end>9454</end>
            <in>0</in>
            <out>230</out>
            <effect>
              <name>Text</name>
              <effectid>Text</effectid>
              <effectcategory>Text</effectcategory>
              <effecttype>generator</effecttype>
              <mediatype>video</mediatype>
              <parameter>
                <parameterid>str</parameterid>
                <name>Text</name>
                <value>興味深いことに</value>
              </parameter>
            </effect>
          </generatoritem>
          <generatoritem id="subtitle-74">
            <name>Subtitle 74</name>
            <enabled>TRUE</enabled>
            <duration>231</duration>
            <rate>
              <timebase>30</timebase>
              <ntsc>TRUE</ntsc>
            </rate>
            <start>9454</start>
            <end>9685</end>
            <in>0</in>
            <out>231</out>
            <effect>
              <name>Text</name>
              <effectid>Text</effectid>
              <effectcategory>Text</effectcategory>
              <effecttype>generator</effecttype>
              <mediatype>video</mediatype>
              <parameter>
                <parameterid>str</parameterid>
                <name>Text</name>
                <value>逆に「相手にも事情がある」と 考えられる人は 関係性が長続きする</value>
              </parameter>
            </effect>
          </generatoritem>
          <generatoritem id="subtitle-75">
            <name>Subtitle 75</name>
            <enabled>TRUE</enabled>
            <duration>231</duration>
            <rate>
              <timebase>30</timebase>
              <ntsc>TRUE</ntsc>
            </rate>
            <start>9685</start>
            <end>9916</end>
            <in>0</in>
            <out>231</out>
            <effect>
              <name>Text</name>
              <effectid>Text</effectid>
              <effectcategory>Text</effectcategory>
              <effecttype>generator</effecttype>
              <mediatype>video</mediatype>
              <parameter>
                <parameterid>str</parameterid>
                <name>Text</name>
                <value>つまり 沈黙をどう「読む」かは</value>
              </parameter>
            </effect>
          </generatoritem>
          <generatoritem id="subtitle-76">
            <name>Subtitle 76</name>
            <enabled>TRUE</enabled>
            <duration>230</duration>
            <rate>
              <timebase>30</timebase>
              <ntsc>TRUE</ntsc>
            </rate>
            <start>9916</start>
            <end>10146</end>
            <in>0</in>
            <out>230</out>
            <effect>
              <name>Text</name>
              <effectid>Text</effectid>
              <effectcategory>Text</effectcategory>
              <effecttype>generator</effecttype>
              <mediatype>video</mediatype>
              <parameter>
                <parameterid>str</parameterid>
                <name>Text</name>
                <value>相手ではなく 自分の心の状態を 映し出している</value>
              </parameter>
            </effect>
          </generatoritem>
          <generatoritem id="subtitle-77">
            <name>Subtitle 77</name>
            <enabled>TRUE</enabled>
            <duration>245</duration>
            <rate>
              <timebase>30</timebase>
              <ntsc>TRUE</ntsc>
            </rate>
            <start>10156</start>
            <end>10401</end>
            <in>0</in>
            <out>245</out>
            <effect>
              <name>Text</name>
              <effectid>Text</effectid>
              <effectcategory>Text</effectcategory>
              <effecttype>generator</effecttype>
              <mediatype>video</mediatype>
              <parameter>
                <parameterid>str</parameterid>
                <name>Text</name>
                <value>では 既読スルーされた側は どうすればいいのでしょうか</value>
              </parameter>
            </effect>
          </generatoritem>
          <generatoritem id="subtitle-78">
            <name>Subtitle 78</name>
            <enabled>TRUE</enabled>
            <duration>161</duration>
            <rate>
              <timebase>30</timebase>
              <ntsc>TRUE</ntsc>
            </rate>
            <start>10411</start>
            <end>10572</end>
            <in>0</in>
            <out>161</out>
            <effect>
              <name>Text</name>
              <effectid>Text</effectid>
              <effectcategory>Text</effectcategory>
              <effecttype>generator</effecttype>
              <mediatype>video</mediatype>
              <parameter>
                <parameterid>str</parameterid>
                <name>Text</name>
                <value>「葦原の瑞穂の国は 神ながら言挙げせぬ国」</value>
              </parameter>
            </effect>
          </generatoritem>
          <generatoritem id="subtitle-79">
            <name>Subtitle 79</name>
            <enabled>TRUE</enabled>
            <duration>137</duration>
            <rate>
              <timebase>30</timebase>
              <ntsc>TRUE</ntsc>
            </rate>
            <start>10582</start>
            <end>10719</end>
            <in>0</in>
            <out>137</out>
            <effect>
              <name>Text</name>
              <effectid>Text</effectid>
              <effectcategory>Text</effectcategory>
              <effecttype>generator</effecttype>
              <mediatype>video</mediatype>
              <parameter>
                <parameterid>str</parameterid>
                <name>Text</name>
                <value>「言挙げせず」—— 大切なことほど 軽々しく言葉にしない</value>
              </parameter>
            </effect>
          </generatoritem>
          <generatoritem id="subtitle-80">
            <name>Subtitle 80</name>
            <enabled>TRUE</enabled>
            <duration>138</duration>
            <rate>
              <timebase>30</timebase>
              <ntsc>TRUE</ntsc>
            </rate>
            <start>10719</start>
            <end>10857</end>
            <in>0</in>
            <out>138</out>
            <effect>
              <name>Text</name>
              <effectid>Text</effectid>
              <effectcategory>Text</effectcategory>
              <effecttype>generator</effecttype>
              <mediatype>video</mediatype>
              <parameter>
                <parameterid>str</parameterid>
                <name>Text</name>
                <value>古代の日本人は 言葉には霊力が宿ると信じていました</value>
              </parameter>
            </effect>
          </generatoritem>
          <generatoritem id="subtitle-81">
            <name>Subtitle 81</name>
            <enabled>TRUE</enabled>
            <duration>137</duration>
            <rate>
              <timebase>30</timebase>
              <ntsc>TRUE</ntsc>
            </rate>
            <start>10857</start>
            <end>10994</end>
            <in>0</in>
            <out>137</out>
            <effect>
              <name>Text</name>
              <effectid>Text</effectid>
              <effectcategory>Text</effectcategory>
              <effecttype>generator</effecttype>
              <mediatype>video</mediatype>
              <parameter>
                <parameterid>str</parameterid>
                <name>Text</name>
                <value>だからこそ むやみに言葉を発することを慎んだ</value>
              </parameter>
            </effect>
          </generatoritem>
          <generatoritem id="subtitle-82">
            <name>Subtitle 82</name>
            <enabled>TRUE</enabled>
            <duration>138</duration>
            <rate>
              <timebase>30</timebase>
              <ntsc>TRUE</ntsc>
            </rate>
            <start>10994</start>
            <end>11132</end>
            <in>0</in>
            <out>138</out>
            <effect>
              <name>Text</name>
              <effectid>Text</effectid>
              <effectcategory>Text</effectcategory>
              <effecttype>generator</effecttype>
              <mediatype>video</mediatype>
              <parameter>
                <parameterid>str</parameterid>
                <name>Text</name>
                <value>沈黙は 無視ではない</value>
              </parameter>
            </effect>
          </generatoritem>
          <generatoritem id="subtitle-83">
            <name>Subtitle 83</name>
            <enabled>TRUE</enabled>
            <duration>138</duration>
            <rate>
              <timebase>30</timebase>
              <ntsc>TRUE</ntsc>
            </rate>
            <start>11132</start>
            <end>11270</end>
            <in>0</in>
            <out>138</out>
            <effect>
              <name>Text</name>
              <effectid>Text</effectid>
              <effectcategory>Text</effectcategory>
              <effecttype>generator</effecttype>
              <mediatype>video</mediatype>
              <parameter>
                <parameterid>str</parameterid>
                <name>Text</name>
                <value>言葉にすることで壊れてしまう何かを 守っているのかもしれない</value>
              </parameter>
            </effect>
          </generatoritem>
          <generatoritem id="subtitle-84">
            <name>Subtitle 84</name>
            <enabled>TRUE</enabled>
            <duration>137</duration>
            <rate>
              <timebase>30</timebase>
              <ntsc>TRUE</ntsc>
            </rate>
            <start>11270</start>
            <end>11407</end>
            <in>0</in>
            <out>137</out>
            <effect>
              <name>Text</name>
              <effectid>Text</effectid>
              <effectcategory>Text</effectcategory>
              <effecttype>generator</effecttype>
              <mediatype>video</mediatype>
              <parameter>
                <parameterid>str</parameterid>
                <name>Text</name>
                <value>スマホを置き 「宙ぶらりんの状態」を許容してみる</value>
              </parameter>
            </effect>
          </generatoritem>
          <generatoritem id="subtitle-85">
            <name>Subtitle 85</name>
            <enabled>TRUE</enabled>
            <duration>174</duration>
            <rate>
              <timebase>30</timebase>
              <ntsc>TRUE</ntsc>
            </rate>
            <start>11417</start>
            <end>11591</end>
            <in>0</in>
            <out>174</out>
            <effect>
              <name>Text</name>
              <effectid>Text</effectid>
              <effectcategory>Text</effectcategory>
              <effecttype>generator</effecttype>
              <mediatype>video</mediatype>
              <parameter>
                <parameterid>str</parameterid>
                <name>Text</name>
                <value>即座の返信を求めることは</value>
              </parameter>
            </effect>
          </generatoritem>
          <generatoritem id="subtitle-86">
            <name>Subtitle 86</name>
            <enabled>TRUE</enabled>
            <duration>174</duration>
            <rate>
              <timebase>30</timebase>
              <ntsc>TRUE</ntsc>
            </rate>
            <start>11591</start>
            <end>11765</end>
            <in>0</in>
            <out>174</out>
            <effect>
              <name>Text</name>
              <effectid>Text</effectid>
              <effectcategory>Text</effectcategory>
              <effecttype>generator</effecttype>
              <mediatype>video</mediatype>
              <parameter>
                <parameterid>str</parameterid>
                <name>Text</name>
                <value>相手の「言挙げせぬ時間」を 奪うことかもしれません</value>
              </parameter>
            </effect>
          </generatoritem>
          <generatoritem id="subtitle-87">
            <name>Subtitle 87</name>
            <enabled>TRUE</enabled>
            <duration>173</duration>
            <rate>
              <timebase>30</timebase>
              <ntsc>TRUE</ntsc>
            </rate>
            <start>11765</start>
            <end>11938</end>
            <in>0</in>
            <out>173</out>
            <effect>
              <name>Text</name>
              <effectid>Text</effectid>
              <effectcategory>Text</effectcategory>
              <effecttype>generator</effecttype>
              <mediatype>video</mediatype>
              <parameter>
                <parameterid>str</parameterid>
                <name>Text</name>
                <value>その空白こそが 相手という「他者」が存在している証</value>
              </parameter>
            </effect>
          </generatoritem>
          <generatoritem id="subtitle-88">
            <name>Subtitle 88</name>
            <enabled>TRUE</enabled>
            <duration>121</duration>
            <rate>
              <timebase>30</timebase>
              <ntsc>TRUE</ntsc>
            </rate>
            <start>11948</start>
            <end>12069</end>
            <in>0</in>
            <out>121</out>
            <effect>
              <name>Text</name>
              <effectid>Text</effectid>
              <effectcategory>Text</effectcategory>
              <effecttype>generator</effecttype>
              <mediatype>video</mediatype>
              <parameter>
                <parameterid>str</parameterid>
                <name>Text</name>
                <value>次の月曜日 あの提案メールへの返信は まだ来ていない</value>
              </parameter>
            </effect>
          </generatoritem>
          <generatoritem id="subtitle-89">
            <name>Subtitle 89</name>
            <enabled>TRUE</enabled>
            <duration>122</duration>
            <rate>
              <timebase>30</timebase>
              <ntsc>TRUE</ntsc>
            </rate>
            <start>12069</start>
            <end>12191</end>
            <in>0</in>
            <out>122</out>
            <effect>
              <name>Text</name>
              <effectid>Text</effectid>
              <effectcategory>Text</effectcategory>
              <effecttype>generator</effecttype>
              <mediatype>video</mediatype>
              <parameter>
                <parameterid>str</parameterid>
                <name>Text</name>
                <value>でも 少し落ち着いて考えてみる</value>
              </parameter>
            </effect>
          </generatoritem>
          <generatoritem id="subtitle-90">
            <name>Subtitle 90</name>
            <enabled>TRUE</enabled>
            <duration>130</duration>
            <rate>
              <timebase>30</timebase>
              <ntsc>TRUE</ntsc>
            </rate>
            <start>12201</start>
            <end>12331</end>
            <in>0</in>
            <out>130</out>
            <effect>
              <name>Text</name>
              <effectid>Text</effectid>
              <effectcategory>Text</effectcategory>
              <effecttype>generator</effecttype>
              <mediatype>video</mediatype>
              <parameter>
                <parameterid>str</parameterid>
                <name>Text</name>
                <value>私の言葉が 相手の中で何かを動かしている</value>
              </parameter>
            </effect>
          </generatoritem>
          <generatoritem id="subtitle-91">
            <name>Subtitle 91</name>
            <enabled>TRUE</enabled>
            <duration>131</duration>
            <rate>
              <timebase>30</timebase>
              <ntsc>TRUE</ntsc>
            </rate>
            <start>12331</start>
            <end>12462</end>
            <in>0</in>
            <out>131</out>
            <effect>
              <name>Text</name>
              <effectid>Text</effectid>
              <effectcategory>Text</effectcategory>
              <effecttype>generator</effecttype>
              <mediatype>video</mediatype>
              <parameter>
                <parameterid>str</parameterid>
                <name>Text</name>
                <value>その過程には 時間がかかることもある</value>
              </parameter>
            </effect>
          </generatoritem>
          <generatoritem id="subtitle-92">
            <name>Subtitle 92</name>
            <enabled>TRUE</enabled>
            <duration>130</duration>
            <rate>
              <timebase>30</timebase>
              <ntsc>TRUE</ntsc>
            </rate>
            <start>12462</start>
            <end>12592</end>
            <in>0</in>
            <out>130</out>
            <effect>
              <name>Text</name>
              <effectid>Text</effectid>
              <effectcategory>Text</effectcategory>
              <effecttype>generator</effecttype>
              <mediatype>video</mediatype>
              <parameter>
                <parameterid>str</parameterid>
                <name>Text</name>
                <value>暗黒物質のように 見えないけれど確かに存在する何かが</value>
              </parameter>
            </effect>
          </generatoritem>
          <generatoritem id="subtitle-93">
            <name>Subtitle 93</name>
            <enabled>TRUE</enabled>
            <duration>131</duration>
            <rate>
              <timebase>30</timebase>
              <ntsc>TRUE</ntsc>
            </rate>
            <start>12592</start>
            <end>12723</end>
            <in>0</in>
            <out>131</out>
            <effect>
              <name>Text</name>
              <effectid>Text</effectid>
              <effectcategory>Text</effectcategory>
              <effecttype>generator</effecttype>
              <mediatype>video</mediatype>
              <parameter>
                <parameterid>str</parameterid>
                <name>Text</name>
                <value>私たちの関係を繋いでいる</value>
              </parameter>
            </effect>
          </generatoritem>
          <generatoritem id="subtitle-94">
            <name>Subtitle 94</name>
            <enabled>TRUE</enabled>
            <duration>99</duration>
            <rate>
              <timebase>30</timebase>
              <ntsc>TRUE</ntsc>
            </rate>
            <start>12733</start>
            <end>12832</end>
            <in>0</in>
            <out>99</out>
            <effect>
              <name>Text</name>
              <effectid>Text</effectid>
              <effectcategory>Text</effectcategory>
              <effecttype>generator</effecttype>
              <mediatype>video</mediatype>
              <parameter>
                <parameterid>str</parameterid>
                <name>Text</name>
                <value>もし本当に必要なら 顔を見て話せばいい</value>
              </parameter>
            </effect>
          </generatoritem>
          <generatoritem id="subtitle-95">
            <name>Subtitle 95</name>
            <enabled>TRUE</enabled>
            <duration>100</duration>
            <rate>
              <timebase>30</timebase>
              <ntsc>TRUE</ntsc>
            </rate>
            <start>12832</start>
            <end>12932</end>
            <in>0</in>
            <out>100</out>
            <effect>
              <name>Text</name>
              <effectid>Text</effectid>
              <effectcategory>Text</effectcategory>
              <effecttype>generator</effecttype>
              <mediatype>video</mediatype>
              <parameter>
                <parameterid>str</parameterid>
                <name>Text</name>
                <value>でもそれは 沈黙を「解消する」ためではなく</value>
              </parameter>
            </effect>
          </generatoritem>
          <generatoritem id="subtitle-96">
            <name>Subtitle 96</name>
            <enabled>TRUE</enabled>
            <duration>99</duration>
            <rate>
              <timebase>30</timebase>
              <ntsc>TRUE</ntsc>
            </rate>
            <start>12932</start>
            <end>13031</end>
            <in>0</in>
            <out>99</out>
            <effect>
              <name>Text</name>
              <effectid>Text</effectid>
              <effectcategory>Text</effectcategory>
              <effecttype>generator</effecttype>
              <mediatype>video</mediatype>
              <parameter>
                <parameterid>str</parameterid>
                <name>Text</name>
                <value>「その先」へ進むため</value>
              </parameter>
            </effect>
          </generatoritem>
          <generatoritem id="subtitle-97">
            <name>Subtitle 97</name>
            <enabled>TRUE</enabled>
            <duration>94</duration>
            <rate>
              <timebase>30</timebase>
              <ntsc>TRUE</ntsc>
            </rate>
            <start>13041</start>
            <end>13135</end>
            <in>0</in>
            <out>94</out>
            <effect>
              <name>Text</name>
              <effectid>Text</effectid>
              <effectcategory>Text</effectcategory>
              <effecttype>generator</effecttype>
              <mediatype>video</mediatype>
              <parameter>
                <parameterid>str</parameterid>
                <name>Text</name>
                <value>既読スルーは 終わりではなく</value>
              </parameter>
            </effect>
          </generatoritem>
          <generatoritem id="subtitle-98">
            <name>Subtitle 98</name>
            <enabled>TRUE</enabled>
            <duration>94</duration>
            <rate>
              <timebase>30</timebase>
              <ntsc>TRUE</ntsc>
            </rate>
            <start>13135</start>
            <end>13229</end>
            <in>0</in>
            <out>94</out>
            <effect>
              <name>Text</name>
              <effectid>Text</effectid>
              <effectcategory>Text</effectcategory>
              <effecttype>generator</effecttype>
              <mediatype>video</mediatype>
              <parameter>
                <parameterid>str</parameterid>
                <name>Text</name>
                <value>対話の途中にいる証拠なのかもしれません</value>
              </parameter>
            </effect>
          </generatoritem>
          <generatoritem id="subtitle-99">
            <name>Subtitle 99</name>
            <enabled>TRUE</enabled>
            <duration>106</duration>
            <rate>
              <timebase>30</timebase>
              <ntsc>TRUE</ntsc>
            </rate>
            <start>13239</start>
            <end>13345</end>
            <in>0</in>
            <out>106</out>
            <effect>
              <name>Text</name>
              <effectid>Text</effectid>
              <effectcategory>Text</effectcategory>
              <effecttype>generator</effecttype>
              <mediatype>video</mediatype>
              <parameter>
                <parameterid>str</parameterid>
                <name>Text</name>
                <value>夜空を見上げると オリオン座が輝いています</value>
              </parameter>
            </effect>
          </generatoritem>
          <generatoritem id="subtitle-100">
            <name>Subtitle 100</name>
            <enabled>TRUE</enabled>
            <duration>106</duration>
            <rate>
              <timebase>30</timebase>
              <ntsc>TRUE</ntsc>
            </rate>
            <start>13345</start>
            <end>13451</end>
            <in>0</in>
            <out>106</out>
            <effect>
              <name>Text</name>
              <effectid>Text</effectid>
              <effectcategory>Text</effectcategory>
              <effecttype>generator</effecttype>
              <mediatype>video</mediatype>
              <parameter>
                <parameterid>str</parameterid>
                <name>Text</name>
                <value>そして宇宙は 見えない暗黒物質によって</value>
              </parameter>
            </effect>
          </generatoritem>
          <generatoritem id="subtitle-101">
            <name>Subtitle 101</name>
            <enabled>TRUE</enabled>
            <duration>106</duration>
            <rate>
              <timebase>30</timebase>
              <ntsc>TRUE</ntsc>
            </rate>
            <start>13451</start>
            <end>13557</end>
            <in>0</in>
            <out>106</out>
            <effect>
              <name>Text</name>
              <effectid>Text</effectid>
              <effectcategory>Text</effectcategory>
              <effecttype>generator</effecttype>
              <mediatype>video</mediatype>
              <parameter>
                <parameterid>str</parameterid>
                <name>Text</name>
                <value>静かに形を保っている</value>
              </parameter>
            </effect>
          </generatoritem>
          <generatoritem id="subtitle-102">
            <name>Subtitle 102</name>
            <enabled>TRUE</enabled>
            <duration>154</duration>
            <rate>
              <timebase>30</timebase>
              <ntsc>TRUE</ntsc>
            </rate>
            <start>13567</start>
            <end>13721</end>
            <in>0</in>
            <out>154</out>
            <effect>
              <name>Text</name>
              <effectid>Text</effectid>
              <effectcategory>Text</effectcategory>
              <effecttype>generator</effecttype>
              <mediatype>video</mediatype>
              <parameter>
                <parameterid>str</parameterid>
                <name>Text</name>
                <value>知識の星座は 見る人によって違う物語を紡ぎます</value>
              </parameter>
            </effect>
          </generatoritem>
          <generatoritem id="subtitle-103">
            <name>Subtitle 103</name>
            <enabled>TRUE</enabled>
            <duration>114</duration>
            <rate>
              <timebase>30</timebase>
              <ntsc>TRUE</ntsc>
            </rate>
            <start>13731</start>
            <end>13845</end>
            <in>0</in>
            <out>114</out>
            <effect>
              <name>Text</name>
              <effectid>Text</effectid>
              <effectcategory>Text</effectcategory>
              <effecttype>generator</effecttype>
              <mediatype>video</mediatype>
              <parameter>
                <parameterid>str</parameterid>
                <name>Text</name>
                <value>既読スルーの向こう側で 誰かがまだ言葉を探している</value>
              </parameter>
            </effect>
          </generatoritem>
          <generatoritem id="subtitle-104">
            <name>Subtitle 104</name>
            <enabled>TRUE</enabled>
            <duration>115</duration>
            <rate>
              <timebase>30</timebase>
              <ntsc>TRUE</ntsc>
            </rate>
            <start>13845</start>
            <end>13960</end>
            <in>0</in>
            <out>115</out>
            <effect>
              <name>Text</name>
              <effectid>Text</effectid>
              <effectcategory>Text</effectcategory>
              <effecttype>generator</effecttype>
              <mediatype>video</mediatype>
              <parameter>
                <parameterid>str</parameterid>
                <name>Text</name>
                <value>その沈黙に耳を澄ませること——</value>
              </parameter>
            </effect>
          </generatoritem>
          <generatoritem id="subtitle-105">
            <name>Subtitle 105</name>
            <enabled>TRUE</enabled>
            <duration>114</duration>
            <rate>
              <timebase>30</timebase>
              <ntsc>TRUE</ntsc>
            </rate>
            <start>13960</start>
            <end>14074</end>
            <in>0</in>
            <out>114</out>
            <effect>
              <name>Text</name>
              <effectid>Text</effectid>
              <effectcategory>Text</effectcategory>
              <effecttype>generator</effecttype>
              <mediatype>video</mediatype>
              <parameter>
                <parameterid>str</parameterid>
                <name>Text</name>
                <value>それもまた ひとつの対話なのです</value>
              </parameter>
            </effect>
          </generatoritem>
        </track>
      </video>
      <audio>
        <track>
          <clipitem id="clipitem-1">
            <name>OrionEp16_001.mp3</name>
            <enabled>TRUE</enabled>
            <duration>283</duration>
            <rate>
              <timebase>30</timebase>
              <ntsc>TRUE</ntsc>
            </rate>
            <start>0</start>
            <end>283</end>
            <in>0</in>
            <out>227215</out>
            <file id="file-1">
              <name>OrionEp16_001.mp3</name>
              <pathurl>file:///Users/delaxstudio/src/delax-ops/ops/media/orion/projects/OrionEp16/output/audio/OrionEp16_001.mp3</pathurl>
              <rate>
                <timebase>24000</timebase>
                <ntsc>FALSE</ntsc>
              </rate>
              <media>
                <audio>
                  <channelcount>1</channelcount>
                  <samplecharacteristics>
                    <samplerate>24000</samplerate>
                    <samplesize>16</samplesize>
                  </samplecharacteristics>
                </audio>
              </media>
            </file>
            <sourcetrack>
              <mediatype>audio</mediatype>
              <trackindex>1</trackindex>
            </sourcetrack>
            <comments/>
          </clipitem>
          <clipitem id="clipitem-2">
            <name>OrionEp16_002.mp3</name>
            <enabled>TRUE</enabled>
            <duration>293</duration>
            <rate>
              <timebase>30</timebase>
              <ntsc>TRUE</ntsc>
            </rate>
            <start>293</start>
            <end>586</end>
            <in>0</in>
            <out>234338</out>
            <file id="file-2">
              <name>OrionEp16_002.mp3</name>
              <pathurl>file:///Users/delaxstudio/src/delax-ops/ops/media/orion/projects/OrionEp16/output/audio/OrionEp16_002.mp3</pathurl>
              <rate>
                <timebase>24000</timebase>
                <ntsc>FALSE</ntsc>
              </rate>
              <media>
                <audio>
                  <channelcount>1</channelcount>
                  <samplecharacteristics>
                    <samplerate>24000</samplerate>
                    <samplesize>16</samplesize>
                  </samplecharacteristics>
                </audio>
              </media>
            </file>
            <sourcetrack>
              <mediatype>audio</mediatype>
              <trackindex>1</trackindex>
            </sourcetrack>
            <comments/>
          </clipitem>
          <clipitem id="clipitem-3">
            <name>OrionEp16_003.mp3</name>
            <enabled>TRUE</enabled>
            <duration>197</duration>
            <rate>
              <timebase>30</timebase>
              <ntsc>TRUE</ntsc>
            </rate>
            <start>596</start>
            <end>793</end>
            <in>0</in>
            <out>157702</out>
            <file id="file-3">
              <name>OrionEp16_003.mp3</name>
              <pathurl>file:///Users/delaxstudio/src/delax-ops/ops/media/orion/projects/OrionEp16/output/audio/OrionEp16_003.mp3</pathurl>
              <rate>
                <timebase>24000</timebase>
                <ntsc>FALSE</ntsc>
              </rate>
              <media>
                <audio>
                  <channelcount>1</channelcount>
                  <samplecharacteristics>
                    <samplerate>24000</samplerate>
                    <samplesize>16</samplesize>
                  </samplecharacteristics>
                </audio>
              </media>
            </file>
            <sourcetrack>
              <mediatype>audio</mediatype>
              <trackindex>1</trackindex>
            </sourcetrack>
            <comments/>
          </clipitem>
          <clipitem id="clipitem-4">
            <name>OrionEp16_004.mp3</name>
            <enabled>TRUE</enabled>
            <duration>187</duration>
            <rate>
              <timebase>30</timebase>
              <ntsc>TRUE</ntsc>
            </rate>
            <start>803</start>
            <end>990</end>
            <in>0</in>
            <out>149558</out>
            <file id="file-4">
              <name>OrionEp16_004.mp3</name>
              <pathurl>file:///Users/delaxstudio/src/delax-ops/ops/media/orion/projects/OrionEp16/output/audio/OrionEp16_004.mp3</pathurl>
              <rate>
                <timebase>24000</timebase>
                <ntsc>FALSE</ntsc>
              </rate>
              <media>
                <audio>
                  <channelcount>1</channelcount>
                  <samplecharacteristics>
                    <samplerate>24000</samplerate>
                    <samplesize>16</samplesize>
                  </samplecharacteristics>
                </audio>
              </media>
            </file>
            <sourcetrack>
              <mediatype>audio</mediatype>
              <trackindex>1</trackindex>
            </sourcetrack>
            <comments/>
          </clipitem>
          <clipitem id="clipitem-5">
            <name>OrionEp16_005.mp3</name>
            <enabled>TRUE</enabled>
            <duration>222</duration>
            <rate>
              <timebase>30</timebase>
              <ntsc>TRUE</ntsc>
            </rate>
            <start>1000</start>
            <end>1222</end>
            <in>0</in>
            <out>178166</out>
            <file id="file-5">
              <name>OrionEp16_005.mp3</name>
              <pathurl>file:///Users/delaxstudio/src/delax-ops/ops/media/orion/projects/OrionEp16/output/audio/OrionEp16_005.mp3</pathurl>
              <rate>
                <timebase>24000</timebase>
                <ntsc>FALSE</ntsc>
              </rate>
              <media>
                <audio>
                  <channelcount>1</channelcount>
                  <samplecharacteristics>
                    <samplerate>24000</samplerate>
                    <samplesize>16</samplesize>
                  </samplecharacteristics>
                </audio>
              </media>
            </file>
            <sourcetrack>
              <mediatype>audio</mediatype>
              <trackindex>1</trackindex>
            </sourcetrack>
            <comments/>
          </clipitem>
          <clipitem id="clipitem-6">
            <name>OrionEp16_006.mp3</name>
            <enabled>TRUE</enabled>
            <duration>351</duration>
            <rate>
              <timebase>30</timebase>
              <ntsc>TRUE</ntsc>
            </rate>
            <start>1232</start>
            <end>1583</end>
            <in>0</in>
            <out>281241</out>
            <file id="file-6">
              <name>OrionEp16_006.mp3</name>
              <pathurl>file:///Users/delaxstudio/src/delax-ops/ops/media/orion/projects/OrionEp16/output/audio/OrionEp16_006.mp3</pathurl>
              <rate>
                <timebase>24000</timebase>
                <ntsc>FALSE</ntsc>
              </rate>
              <media>
                <audio>
                  <channelcount>1</channelcount>
                  <samplecharacteristics>
                    <samplerate>24000</samplerate>
                    <samplesize>16</samplesize>
                  </samplecharacteristics>
                </audio>
              </media>
            </file>
            <sourcetrack>
              <mediatype>audio</mediatype>
              <trackindex>1</trackindex>
            </sourcetrack>
            <comments/>
          </clipitem>
          <clipitem id="clipitem-7">
            <name>OrionEp16_007.mp3</name>
            <enabled>TRUE</enabled>
            <duration>420</duration>
            <rate>
              <timebase>30</timebase>
              <ntsc>TRUE</ntsc>
            </rate>
            <start>1593</start>
            <end>2013</end>
            <in>0</in>
            <out>336197</out>
            <file id="file-7">
              <name>OrionEp16_007.mp3</name>
              <pathurl>file:///Users/delaxstudio/src/delax-ops/ops/media/orion/projects/OrionEp16/output/audio/OrionEp16_007.mp3</pathurl>
              <rate>
                <timebase>24000</timebase>
                <ntsc>FALSE</ntsc>
              </rate>
              <media>
                <audio>
                  <channelcount>1</channelcount>
                  <samplecharacteristics>
                    <samplerate>24000</samplerate>
                    <samplesize>16</samplesize>
                  </samplecharacteristics>
                </audio>
              </media>
            </file>
            <sourcetrack>
              <mediatype>audio</mediatype>
              <trackindex>1</trackindex>
            </sourcetrack>
            <comments/>
          </clipitem>
          <clipitem id="clipitem-8">
            <name>OrionEp16_008.mp3</name>
            <enabled>TRUE</enabled>
            <duration>122</duration>
            <rate>
              <timebase>30</timebase>
              <ntsc>TRUE</ntsc>
            </rate>
            <start>2023</start>
            <end>2145</end>
            <in>0</in>
            <out>97878</out>
            <file id="file-8">
              <name>OrionEp16_008.mp3</name>
              <pathurl>file:///Users/delaxstudio/src/delax-ops/ops/media/orion/projects/OrionEp16/output/audio/OrionEp16_008.mp3</pathurl>
              <rate>
                <timebase>24000</timebase>
                <ntsc>FALSE</ntsc>
              </rate>
              <media>
                <audio>
                  <channelcount>1</channelcount>
                  <samplecharacteristics>
                    <samplerate>24000</samplerate>
                    <samplesize>16</samplesize>
                  </samplecharacteristics>
                </audio>
              </media>
            </file>
            <sourcetrack>
              <mediatype>audio</mediatype>
              <trackindex>1</trackindex>
            </sourcetrack>
            <comments/>
          </clipitem>
          <clipitem id="clipitem-9">
            <name>OrionEp16_009.mp3</name>
            <enabled>TRUE</enabled>
            <duration>102</duration>
            <rate>
              <timebase>30</timebase>
              <ntsc>TRUE</ntsc>
            </rate>
            <start>2155</start>
            <end>2257</end>
            <in>0</in>
            <out>81839</out>
            <file id="file-9">
              <name>OrionEp16_009.mp3</name>
              <pathurl>file:///Users/delaxstudio/src/delax-ops/ops/media/orion/projects/OrionEp16/output/audio/OrionEp16_009.mp3</pathurl>
              <rate>
                <timebase>24000</timebase>
                <ntsc>FALSE</ntsc>
              </rate>
              <media>
                <audio>
                  <channelcount>1</channelcount>
                  <samplecharacteristics>
                    <samplerate>24000</samplerate>
                    <samplesize>16</samplesize>
                  </samplecharacteristics>
                </audio>
              </media>
            </file>
            <sourcetrack>
              <mediatype>audio</mediatype>
              <trackindex>1</trackindex>
            </sourcetrack>
            <comments/>
          </clipitem>
          <clipitem id="clipitem-10">
            <name>OrionEp16_010.mp3</name>
            <enabled>TRUE</enabled>
            <duration>184</duration>
            <rate>
              <timebase>30</timebase>
              <ntsc>TRUE</ntsc>
            </rate>
            <start>2267</start>
            <end>2451</end>
            <in>0</in>
            <out>146719</out>
            <file id="file-10">
              <name>OrionEp16_010.mp3</name>
              <pathurl>file:///Users/delaxstudio/src/delax-ops/ops/media/orion/projects/OrionEp16/output/audio/OrionEp16_010.mp3</pathurl>
              <rate>
                <timebase>24000</timebase>
                <ntsc>FALSE</ntsc>
              </rate>
              <media>
                <audio>
                  <channelcount>1</channelcount>
                  <samplecharacteristics>
                    <samplerate>24000</samplerate>
                    <samplesize>16</samplesize>
                  </samplecharacteristics>
                </audio>
              </media>
            </file>
            <sourcetrack>
              <mediatype>audio</mediatype>
              <trackindex>1</trackindex>
            </sourcetrack>
            <comments/>
          </clipitem>
          <clipitem id="clipitem-11">
            <name>OrionEp16_011.mp3</name>
            <enabled>TRUE</enabled>
            <duration>239</duration>
            <rate>
              <timebase>30</timebase>
              <ntsc>TRUE</ntsc>
            </rate>
            <start>2461</start>
            <end>2700</end>
            <in>0</in>
            <out>191486</out>
            <file id="file-11">
              <name>OrionEp16_011.mp3</name>
              <pathurl>file:///Users/delaxstudio/src/delax-ops/ops/media/orion/projects/OrionEp16/output/audio/OrionEp16_011.mp3</pathurl>
              <rate>
                <timebase>24000</timebase>
                <ntsc>FALSE</ntsc>
              </rate>
              <media>
                <audio>
                  <channelcount>1</channelcount>
                  <samplecharacteristics>
                    <samplerate>24000</samplerate>
                    <samplesize>16</samplesize>
                  </samplecharacteristics>
                </audio>
              </media>
            </file>
            <sourcetrack>
              <mediatype>audio</mediatype>
              <trackindex>1</trackindex>
            </sourcetrack>
            <comments/>
          </clipitem>
          <clipitem id="clipitem-12">
            <name>OrionEp16_012.mp3</name>
            <enabled>TRUE</enabled>
            <duration>246</duration>
            <rate>
              <timebase>30</timebase>
              <ntsc>TRUE</ntsc>
            </rate>
            <start>2710</start>
            <end>2956</end>
            <in>0</in>
            <out>197399</out>
            <file id="file-12">
              <name>OrionEp16_012.mp3</name>
              <pathurl>file:///Users/delaxstudio/src/delax-ops/ops/media/orion/projects/OrionEp16/output/audio/OrionEp16_012.mp3</pathurl>
              <rate>
                <timebase>24000</timebase>
                <ntsc>FALSE</ntsc>
              </rate>
              <media>
                <audio>
                  <channelcount>1</channelcount>
                  <samplecharacteristics>
                    <samplerate>24000</samplerate>
                    <samplesize>16</samplesize>
                  </samplecharacteristics>
                </audio>
              </media>
            </file>
            <sourcetrack>
              <mediatype>audio</mediatype>
              <trackindex>1</trackindex>
            </sourcetrack>
            <comments/>
          </clipitem>
          <clipitem id="clipitem-13">
            <name>OrionEp16_013.mp3</name>
            <enabled>TRUE</enabled>
            <duration>158</duration>
            <rate>
              <timebase>30</timebase>
              <ntsc>TRUE</ntsc>
            </rate>
            <start>2966</start>
            <end>3124</end>
            <in>0</in>
            <out>126309</out>
            <file id="file-13">
              <name>OrionEp16_013.mp3</name>
              <pathurl>file:///Users/delaxstudio/src/delax-ops/ops/media/orion/projects/OrionEp16/output/audio/OrionEp16_013.mp3</pathurl>
              <rate>
                <timebase>24000</timebase>
                <ntsc>FALSE</ntsc>
              </rate>
              <media>
                <audio>
                  <channelcount>1</channelcount>
                  <samplecharacteristics>
                    <samplerate>24000</samplerate>
                    <samplesize>16</samplesize>
                  </samplecharacteristics>
                </audio>
              </media>
            </file>
            <sourcetrack>
              <mediatype>audio</mediatype>
              <trackindex>1</trackindex>
            </sourcetrack>
            <comments/>
          </clipitem>
          <clipitem id="clipitem-14">
            <name>OrionEp16_014.mp3</name>
            <enabled>TRUE</enabled>
            <duration>267</duration>
            <rate>
              <timebase>30</timebase>
              <ntsc>TRUE</ntsc>
            </rate>
            <start>3134</start>
            <end>3401</end>
            <in>0</in>
            <out>213614</out>
            <file id="file-14">
              <name>OrionEp16_014.mp3</name>
              <pathurl>file:///Users/delaxstudio/src/delax-ops/ops/media/orion/projects/OrionEp16/output/audio/OrionEp16_014.mp3</pathurl>
              <rate>
                <timebase>24000</timebase>
                <ntsc>FALSE</ntsc>
              </rate>
              <media>
                <audio>
                  <channelcount>1</channelcount>
                  <samplecharacteristics>
                    <samplerate>24000</samplerate>
                    <samplesize>16</samplesize>
                  </samplecharacteristics>
                </audio>
              </media>
            </file>
            <sourcetrack>
              <mediatype>audio</mediatype>
              <trackindex>1</trackindex>
            </sourcetrack>
            <comments/>
          </clipitem>
          <clipitem id="clipitem-15">
            <name>OrionEp16_015.mp3</name>
            <enabled>TRUE</enabled>
            <duration>417</duration>
            <rate>
              <timebase>30</timebase>
              <ntsc>TRUE</ntsc>
            </rate>
            <start>3411</start>
            <end>3828</end>
            <in>0</in>
            <out>334337</out>
            <file id="file-15">
              <name>OrionEp16_015.mp3</name>
              <pathurl>file:///Users/delaxstudio/src/delax-ops/ops/media/orion/projects/OrionEp16/output/audio/OrionEp16_015.mp3</pathurl>
              <rate>
                <timebase>24000</timebase>
                <ntsc>FALSE</ntsc>
              </rate>
              <media>
                <audio>
                  <channelcount>1</channelcount>
                  <samplecharacteristics>
                    <samplerate>24000</samplerate>
                    <samplesize>16</samplesize>
                  </samplecharacteristics>
                </audio>
              </media>
            </file>
            <sourcetrack>
              <mediatype>audio</mediatype>
              <trackindex>1</trackindex>
            </sourcetrack>
            <comments/>
          </clipitem>
          <clipitem id="clipitem-16">
            <name>OrionEp16_016.mp3</name>
            <enabled>TRUE</enabled>
            <duration>117</duration>
            <rate>
              <timebase>30</timebase>
              <ntsc>TRUE</ntsc>
            </rate>
            <start>3838</start>
            <end>3955</end>
            <in>0</in>
            <out>93404</out>
            <file id="file-16">
              <name>OrionEp16_016.mp3</name>
              <pathurl>file:///Users/delaxstudio/src/delax-ops/ops/media/orion/projects/OrionEp16/output/audio/OrionEp16_016.mp3</pathurl>
              <rate>
                <timebase>24000</timebase>
                <ntsc>FALSE</ntsc>
              </rate>
              <media>
                <audio>
                  <channelcount>1</channelcount>
                  <samplecharacteristics>
                    <samplerate>24000</samplerate>
                    <samplesize>16</samplesize>
                  </samplecharacteristics>
                </audio>
              </media>
            </file>
            <sourcetrack>
              <mediatype>audio</mediatype>
              <trackindex>1</trackindex>
            </sourcetrack>
            <comments/>
          </clipitem>
          <clipitem id="clipitem-17">
            <name>OrionEp16_017.mp3</name>
            <enabled>TRUE</enabled>
            <duration>377</duration>
            <rate>
              <timebase>30</timebase>
              <ntsc>TRUE</ntsc>
            </rate>
            <start>3965</start>
            <end>4342</end>
            <in>0</in>
            <out>301653</out>
            <file id="file-17">
              <name>OrionEp16_017.mp3</name>
              <pathurl>file:///Users/delaxstudio/src/delax-ops/ops/media/orion/projects/OrionEp16/output/audio/OrionEp16_017.mp3</pathurl>
              <rate>
                <timebase>24000</timebase>
                <ntsc>FALSE</ntsc>
              </rate>
              <media>
                <audio>
                  <channelcount>1</channelcount>
                  <samplecharacteristics>
                    <samplerate>24000</samplerate>
                    <samplesize>16</samplesize>
                  </samplecharacteristics>
                </audio>
              </media>
            </file>
            <sourcetrack>
              <mediatype>audio</mediatype>
              <trackindex>1</trackindex>
            </sourcetrack>
            <comments/>
          </clipitem>
          <clipitem id="clipitem-18">
            <name>OrionEp16_018.mp3</name>
            <enabled>TRUE</enabled>
            <duration>400</duration>
            <rate>
              <timebase>30</timebase>
              <ntsc>TRUE</ntsc>
            </rate>
            <start>4352</start>
            <end>4752</end>
            <in>0</in>
            <out>320879</out>
            <file id="file-18">
              <name>OrionEp16_018.mp3</name>
              <pathurl>file:///Users/delaxstudio/src/delax-ops/ops/media/orion/projects/OrionEp16/output/audio/OrionEp16_018.mp3</pathurl>
              <rate>
                <timebase>24000</timebase>
                <ntsc>FALSE</ntsc>
              </rate>
              <media>
                <audio>
                  <channelcount>1</channelcount>
                  <samplecharacteristics>
                    <samplerate>24000</samplerate>
                    <samplesize>16</samplesize>
                  </samplecharacteristics>
                </audio>
              </media>
            </file>
            <sourcetrack>
              <mediatype>audio</mediatype>
              <trackindex>1</trackindex>
            </sourcetrack>
            <comments/>
          </clipitem>
          <clipitem id="clipitem-19">
            <name>OrionEp16_019.mp3</name>
            <enabled>TRUE</enabled>
            <duration>94</duration>
            <rate>
              <timebase>30</timebase>
              <ntsc>TRUE</ntsc>
            </rate>
            <start>4762</start>
            <end>4856</end>
            <in>0</in>
            <out>74693</out>
            <file id="file-19">
              <name>OrionEp16_019.mp3</name>
              <pathurl>file:///Users/delaxstudio/src/delax-ops/ops/media/orion/projects/OrionEp16/output/audio/OrionEp16_019.mp3</pathurl>
              <rate>
                <timebase>24000</timebase>
                <ntsc>FALSE</ntsc>
              </rate>
              <media>
                <audio>
                  <channelcount>1</channelcount>
                  <samplecharacteristics>
                    <samplerate>24000</samplerate>
                    <samplesize>16</samplesize>
                  </samplecharacteristics>
                </audio>
              </media>
            </file>
            <sourcetrack>
              <mediatype>audio</mediatype>
              <trackindex>1</trackindex>
            </sourcetrack>
            <comments/>
          </clipitem>
          <clipitem id="clipitem-20">
            <name>OrionEp16_020.mp3</name>
            <enabled>TRUE</enabled>
            <duration>396</duration>
            <rate>
              <timebase>30</timebase>
              <ntsc>TRUE</ntsc>
            </rate>
            <start>4866</start>
            <end>5262</end>
            <in>0</in>
            <out>317600</out>
            <file id="file-20">
              <name>OrionEp16_020.mp3</name>
              <pathurl>file:///Users/delaxstudio/src/delax-ops/ops/media/orion/projects/OrionEp16/output/audio/OrionEp16_020.mp3</pathurl>
              <rate>
                <timebase>24000</timebase>
                <ntsc>FALSE</ntsc>
              </rate>
              <media>
                <audio>
                  <channelcount>1</channelcount>
                  <samplecharacteristics>
                    <samplerate>24000</samplerate>
                    <samplesize>16</samplesize>
                  </samplecharacteristics>
                </audio>
              </media>
            </file>
            <sourcetrack>
              <mediatype>audio</mediatype>
              <trackindex>1</trackindex>
            </sourcetrack>
            <comments/>
          </clipitem>
          <clipitem id="clipitem-21">
            <name>OrionEp16_021.mp3</name>
            <enabled>TRUE</enabled>
            <duration>444</duration>
            <rate>
              <timebase>30</timebase>
              <ntsc>TRUE</ntsc>
            </rate>
            <start>5272</start>
            <end>5716</end>
            <in>0</in>
            <out>355467</out>
            <file id="file-21">
              <name>OrionEp16_021.mp3</name>
              <pathurl>file:///Users/delaxstudio/src/delax-ops/ops/media/orion/projects/OrionEp16/output/audio/OrionEp16_021.mp3</pathurl>
              <rate>
                <timebase>24000</timebase>
                <ntsc>FALSE</ntsc>
              </rate>
              <media>
                <audio>
                  <channelcount>1</channelcount>
                  <samplecharacteristics>
                    <samplerate>24000</samplerate>
                    <samplesize>16</samplesize>
                  </samplecharacteristics>
                </audio>
              </media>
            </file>
            <sourcetrack>
              <mediatype>audio</mediatype>
              <trackindex>1</trackindex>
            </sourcetrack>
            <comments/>
          </clipitem>
          <clipitem id="clipitem-22">
            <name>OrionEp16_022.mp3</name>
            <enabled>TRUE</enabled>
            <duration>265</duration>
            <rate>
              <timebase>30</timebase>
              <ntsc>TRUE</ntsc>
            </rate>
            <start>5726</start>
            <end>5991</end>
            <in>0</in>
            <out>211808</out>
            <file id="file-22">
              <name>OrionEp16_022.mp3</name>
              <pathurl>file:///Users/delaxstudio/src/delax-ops/ops/media/orion/projects/OrionEp16/output/audio/OrionEp16_022.mp3</pathurl>
              <rate>
                <timebase>24000</timebase>
                <ntsc>FALSE</ntsc>
              </rate>
              <media>
                <audio>
                  <channelcount>1</channelcount>
                  <samplecharacteristics>
                    <samplerate>24000</samplerate>
                    <samplesize>16</samplesize>
                  </samplecharacteristics>
                </audio>
              </media>
            </file>
            <sourcetrack>
              <mediatype>audio</mediatype>
              <trackindex>1</trackindex>
            </sourcetrack>
            <comments/>
          </clipitem>
          <clipitem id="clipitem-23">
            <name>OrionEp16_023.mp3</name>
            <enabled>TRUE</enabled>
            <duration>286</duration>
            <rate>
              <timebase>30</timebase>
              <ntsc>TRUE</ntsc>
            </rate>
            <start>6001</start>
            <end>6287</end>
            <in>0</in>
            <out>229597</out>
            <file id="file-23">
              <name>OrionEp16_023.mp3</name>
              <pathurl>file:///Users/delaxstudio/src/delax-ops/ops/media/orion/projects/OrionEp16/output/audio/OrionEp16_023.mp3</pathurl>
              <rate>
                <timebase>24000</timebase>
                <ntsc>FALSE</ntsc>
              </rate>
              <media>
                <audio>
                  <channelcount>1</channelcount>
                  <samplecharacteristics>
                    <samplerate>24000</samplerate>
                    <samplesize>16</samplesize>
                  </samplecharacteristics>
                </audio>
              </media>
            </file>
            <sourcetrack>
              <mediatype>audio</mediatype>
              <trackindex>1</trackindex>
            </sourcetrack>
            <comments/>
          </clipitem>
          <clipitem id="clipitem-24">
            <name>OrionEp16_024.mp3</name>
            <enabled>TRUE</enabled>
            <duration>310</duration>
            <rate>
              <timebase>30</timebase>
              <ntsc>TRUE</ntsc>
            </rate>
            <start>6297</start>
            <end>6607</end>
            <in>0</in>
            <out>247759</out>
            <file id="file-24">
              <name>OrionEp16_024.mp3</name>
              <pathurl>file:///Users/delaxstudio/src/delax-ops/ops/media/orion/projects/OrionEp16/output/audio/OrionEp16_024.mp3</pathurl>
              <rate>
                <timebase>24000</timebase>
                <ntsc>FALSE</ntsc>
              </rate>
              <media>
                <audio>
                  <channelcount>1</channelcount>
                  <samplecharacteristics>
                    <samplerate>24000</samplerate>
                    <samplesize>16</samplesize>
                  </samplecharacteristics>
                </audio>
              </media>
            </file>
            <sourcetrack>
              <mediatype>audio</mediatype>
              <trackindex>1</trackindex>
            </sourcetrack>
            <comments/>
          </clipitem>
          <clipitem id="clipitem-25">
            <name>OrionEp16_025.mp3</name>
            <enabled>TRUE</enabled>
            <duration>190</duration>
            <rate>
              <timebase>30</timebase>
              <ntsc>TRUE</ntsc>
            </rate>
            <start>6617</start>
            <end>6807</end>
            <in>0</in>
            <out>152507</out>
            <file id="file-25">
              <name>OrionEp16_025.mp3</name>
              <pathurl>file:///Users/delaxstudio/src/delax-ops/ops/media/orion/projects/OrionEp16/output/audio/OrionEp16_025.mp3</pathurl>
              <rate>
                <timebase>24000</timebase>
                <ntsc>FALSE</ntsc>
              </rate>
              <media>
                <audio>
                  <channelcount>1</channelcount>
                  <samplecharacteristics>
                    <samplerate>24000</samplerate>
                    <samplesize>16</samplesize>
                  </samplecharacteristics>
                </audio>
              </media>
            </file>
            <sourcetrack>
              <mediatype>audio</mediatype>
              <trackindex>1</trackindex>
            </sourcetrack>
            <comments/>
          </clipitem>
          <clipitem id="clipitem-26">
            <name>OrionEp16_026.mp3</name>
            <enabled>TRUE</enabled>
            <duration>478</duration>
            <rate>
              <timebase>30</timebase>
              <ntsc>TRUE</ntsc>
            </rate>
            <start>6817</start>
            <end>7295</end>
            <in>0</in>
            <out>382778</out>
            <file id="file-26">
              <name>OrionEp16_026.mp3</name>
              <pathurl>file:///Users/delaxstudio/src/delax-ops/ops/media/orion/projects/OrionEp16/output/audio/OrionEp16_026.mp3</pathurl>
              <rate>
                <timebase>24000</timebase>
                <ntsc>FALSE</ntsc>
              </rate>
              <media>
                <audio>
                  <channelcount>1</channelcount>
                  <samplecharacteristics>
                    <samplerate>24000</samplerate>
                    <samplesize>16</samplesize>
                  </samplecharacteristics>
                </audio>
              </media>
            </file>
            <sourcetrack>
              <mediatype>audio</mediatype>
              <trackindex>1</trackindex>
            </sourcetrack>
            <comments/>
          </clipitem>
          <clipitem id="clipitem-27">
            <name>OrionEp16_027.mp3</name>
            <enabled>TRUE</enabled>
            <duration>458</duration>
            <rate>
              <timebase>30</timebase>
              <ntsc>TRUE</ntsc>
            </rate>
            <start>7305</start>
            <end>7763</end>
            <in>0</in>
            <out>366771</out>
            <file id="file-27">
              <name>OrionEp16_027.mp3</name>
              <pathurl>file:///Users/delaxstudio/src/delax-ops/ops/media/orion/projects/OrionEp16/output/audio/OrionEp16_027.mp3</pathurl>
              <rate>
                <timebase>24000</timebase>
                <ntsc>FALSE</ntsc>
              </rate>
              <media>
                <audio>
                  <channelcount>1</channelcount>
                  <samplecharacteristics>
                    <samplerate>24000</samplerate>
                    <samplesize>16</samplesize>
                  </samplecharacteristics>
                </audio>
              </media>
            </file>
            <sourcetrack>
              <mediatype>audio</mediatype>
              <trackindex>1</trackindex>
            </sourcetrack>
            <comments/>
          </clipitem>
          <clipitem id="clipitem-28">
            <name>OrionEp16_028.mp3</name>
            <enabled>TRUE</enabled>
            <duration>218</duration>
            <rate>
              <timebase>30</timebase>
              <ntsc>TRUE</ntsc>
            </rate>
            <start>7773</start>
            <end>7991</end>
            <in>0</in>
            <out>174068</out>
            <file id="file-28">
              <name>OrionEp16_028.mp3</name>
              <pathurl>file:///Users/delaxstudio/src/delax-ops/ops/media/orion/projects/OrionEp16/output/audio/OrionEp16_028.mp3</pathurl>
              <rate>
                <timebase>24000</timebase>
                <ntsc>FALSE</ntsc>
              </rate>
              <media>
                <audio>
                  <channelcount>1</channelcount>
                  <samplecharacteristics>
                    <samplerate>24000</samplerate>
                    <samplesize>16</samplesize>
                  </samplecharacteristics>
                </audio>
              </media>
            </file>
            <sourcetrack>
              <mediatype>audio</mediatype>
              <trackindex>1</trackindex>
            </sourcetrack>
            <comments/>
          </clipitem>
          <clipitem id="clipitem-29">
            <name>OrionEp16_029.mp3</name>
            <enabled>TRUE</enabled>
            <duration>240</duration>
            <rate>
              <timebase>30</timebase>
              <ntsc>TRUE</ntsc>
            </rate>
            <start>8001</start>
            <end>8241</end>
            <in>0</in>
            <out>192594</out>
            <file id="file-29">
              <name>OrionEp16_029.mp3</name>
              <pathurl>file:///Users/delaxstudio/src/delax-ops/ops/media/orion/projects/OrionEp16/output/audio/OrionEp16_029.mp3</pathurl>
              <rate>
                <timebase>24000</timebase>
                <ntsc>FALSE</ntsc>
              </rate>
              <media>
                <audio>
                  <channelcount>1</channelcount>
                  <samplecharacteristics>
                    <samplerate>24000</samplerate>
                    <samplesize>16</samplesize>
                  </samplecharacteristics>
                </audio>
              </media>
            </file>
            <sourcetrack>
              <mediatype>audio</mediatype>
              <trackindex>1</trackindex>
            </sourcetrack>
            <comments/>
          </clipitem>
          <clipitem id="clipitem-30">
            <name>OrionEp16_030.mp3</name>
            <enabled>TRUE</enabled>
            <duration>94</duration>
            <rate>
              <timebase>30</timebase>
              <ntsc>TRUE</ntsc>
            </rate>
            <start>8251</start>
            <end>8345</end>
            <in>0</in>
            <out>75021</out>
            <file id="file-30">
              <name>OrionEp16_030.mp3</name>
              <pathurl>file:///Users/delaxstudio/src/delax-ops/ops/media/orion/projects/OrionEp16/output/audio/OrionEp16_030.mp3</pathurl>
              <rate>
                <timebase>24000</timebase>
                <ntsc>FALSE</ntsc>
              </rate>
              <media>
                <audio>
                  <channelcount>1</channelcount>
                  <samplecharacteristics>
                    <samplerate>24000</samplerate>
                    <samplesize>16</samplesize>
                  </samplecharacteristics>
                </audio>
              </media>
            </file>
            <sourcetrack>
              <mediatype>audio</mediatype>
              <trackindex>1</trackindex>
            </sourcetrack>
            <comments/>
          </clipitem>
          <clipitem id="clipitem-31">
            <name>OrionEp16_031.mp3</name>
            <enabled>TRUE</enabled>
            <duration>119</duration>
            <rate>
              <timebase>30</timebase>
              <ntsc>TRUE</ntsc>
            </rate>
            <start>8355</start>
            <end>8474</end>
            <in>0</in>
            <out>95674</out>
            <file id="file-31">
              <name>OrionEp16_031.mp3</name>
              <pathurl>file:///Users/delaxstudio/src/delax-ops/ops/media/orion/projects/OrionEp16/output/audio/OrionEp16_031.mp3</pathurl>
              <rate>
                <timebase>24000</timebase>
                <ntsc>FALSE</ntsc>
              </rate>
              <media>
                <audio>
                  <channelcount>1</channelcount>
                  <samplecharacteristics>
                    <samplerate>24000</samplerate>
                    <samplesize>16</samplesize>
                  </samplecharacteristics>
                </audio>
              </media>
            </file>
            <sourcetrack>
              <mediatype>audio</mediatype>
              <trackindex>1</trackindex>
            </sourcetrack>
            <comments/>
          </clipitem>
          <clipitem id="clipitem-32">
            <name>OrionEp16_032.mp3</name>
            <enabled>TRUE</enabled>
            <duration>730</duration>
            <rate>
              <timebase>30</timebase>
              <ntsc>TRUE</ntsc>
            </rate>
            <start>8484</start>
            <end>9214</end>
            <in>0</in>
            <out>584143</out>
            <file id="file-32">
              <name>OrionEp16_032.mp3</name>
              <pathurl>file:///Users/delaxstudio/src/delax-ops/ops/media/orion/projects/OrionEp16/output/audio/OrionEp16_032.mp3</pathurl>
              <rate>
                <timebase>24000</timebase>
                <ntsc>FALSE</ntsc>
              </rate>
              <media>
                <audio>
                  <channelcount>1</channelcount>
                  <samplecharacteristics>
                    <samplerate>24000</samplerate>
                    <samplesize>16</samplesize>
                  </samplecharacteristics>
                </audio>
              </media>
            </file>
            <sourcetrack>
              <mediatype>audio</mediatype>
              <trackindex>1</trackindex>
            </sourcetrack>
            <comments/>
          </clipitem>
          <clipitem id="clipitem-33">
            <name>OrionEp16_033.mp3</name>
            <enabled>TRUE</enabled>
            <duration>922</duration>
            <rate>
              <timebase>30</timebase>
              <ntsc>TRUE</ntsc>
            </rate>
            <start>9224</start>
            <end>10146</end>
            <in>0</in>
            <out>738962</out>
            <file id="file-33">
              <name>OrionEp16_033.mp3</name>
              <pathurl>file:///Users/delaxstudio/src/delax-ops/ops/media/orion/projects/OrionEp16/output/audio/OrionEp16_033.mp3</pathurl>
              <rate>
                <timebase>24000</timebase>
                <ntsc>FALSE</ntsc>
              </rate>
              <media>
                <audio>
                  <channelcount>1</channelcount>
                  <samplecharacteristics>
                    <samplerate>24000</samplerate>
                    <samplesize>16</samplesize>
                  </samplecharacteristics>
                </audio>
              </media>
            </file>
            <sourcetrack>
              <mediatype>audio</mediatype>
              <trackindex>1</trackindex>
            </sourcetrack>
            <comments/>
          </clipitem>
          <clipitem id="clipitem-34">
            <name>OrionEp16_034.mp3</name>
            <enabled>TRUE</enabled>
            <duration>245</duration>
            <rate>
              <timebase>30</timebase>
              <ntsc>TRUE</ntsc>
            </rate>
            <start>10156</start>
            <end>10401</end>
            <in>0</in>
            <out>196170</out>
            <file id="file-34">
              <name>OrionEp16_034.mp3</name>
              <pathurl>file:///Users/delaxstudio/src/delax-ops/ops/media/orion/projects/OrionEp16/output/audio/OrionEp16_034.mp3</pathurl>
              <rate>
                <timebase>24000</timebase>
                <ntsc>FALSE</ntsc>
              </rate>
              <media>
                <audio>
                  <channelcount>1</channelcount>
                  <samplecharacteristics>
                    <samplerate>24000</samplerate>
                    <samplesize>16</samplesize>
                  </samplecharacteristics>
                </audio>
              </media>
            </file>
            <sourcetrack>
              <mediatype>audio</mediatype>
              <trackindex>1</trackindex>
            </sourcetrack>
            <comments/>
          </clipitem>
          <clipitem id="clipitem-35">
            <name>OrionEp16_035.mp3</name>
            <enabled>TRUE</enabled>
            <duration>161</duration>
            <rate>
              <timebase>30</timebase>
              <ntsc>TRUE</ntsc>
            </rate>
            <start>10411</start>
            <end>10572</end>
            <in>0</in>
            <out>128355</out>
            <file id="file-35">
              <name>OrionEp16_035.mp3</name>
              <pathurl>file:///Users/delaxstudio/src/delax-ops/ops/media/orion/projects/OrionEp16/output/audio/OrionEp16_035.mp3</pathurl>
              <rate>
                <timebase>24000</timebase>
                <ntsc>FALSE</ntsc>
              </rate>
              <media>
                <audio>
                  <channelcount>1</channelcount>
                  <samplecharacteristics>
                    <samplerate>24000</samplerate>
                    <samplesize>16</samplesize>
                  </samplecharacteristics>
                </audio>
              </media>
            </file>
            <sourcetrack>
              <mediatype>audio</mediatype>
              <trackindex>1</trackindex>
            </sourcetrack>
            <comments/>
          </clipitem>
          <clipitem id="clipitem-36">
            <name>OrionEp16_036.mp3</name>
            <enabled>TRUE</enabled>
            <duration>825</duration>
            <rate>
              <timebase>30</timebase>
              <ntsc>TRUE</ntsc>
            </rate>
            <start>10582</start>
            <end>11407</end>
            <in>0</in>
            <out>661104</out>
            <file id="file-36">
              <name>OrionEp16_036.mp3</name>
              <pathurl>file:///Users/delaxstudio/src/delax-ops/ops/media/orion/projects/OrionEp16/output/audio/OrionEp16_036.mp3</pathurl>
              <rate>
                <timebase>24000</timebase>
                <ntsc>FALSE</ntsc>
              </rate>
              <media>
                <audio>
                  <channelcount>1</channelcount>
                  <samplecharacteristics>
                    <samplerate>24000</samplerate>
                    <samplesize>16</samplesize>
                  </samplecharacteristics>
                </audio>
              </media>
            </file>
            <sourcetrack>
              <mediatype>audio</mediatype>
              <trackindex>1</trackindex>
            </sourcetrack>
            <comments/>
          </clipitem>
          <clipitem id="clipitem-37">
            <name>OrionEp16_037.mp3</name>
            <enabled>TRUE</enabled>
            <duration>521</duration>
            <rate>
              <timebase>30</timebase>
              <ntsc>TRUE</ntsc>
            </rate>
            <start>11417</start>
            <end>11938</end>
            <in>0</in>
            <out>417230</out>
            <file id="file-37">
              <name>OrionEp16_037.mp3</name>
              <pathurl>file:///Users/delaxstudio/src/delax-ops/ops/media/orion/projects/OrionEp16/output/audio/OrionEp16_037.mp3</pathurl>
              <rate>
                <timebase>24000</timebase>
                <ntsc>FALSE</ntsc>
              </rate>
              <media>
                <audio>
                  <channelcount>1</channelcount>
                  <samplecharacteristics>
                    <samplerate>24000</samplerate>
                    <samplesize>16</samplesize>
                  </samplecharacteristics>
                </audio>
              </media>
            </file>
            <sourcetrack>
              <mediatype>audio</mediatype>
              <trackindex>1</trackindex>
            </sourcetrack>
            <comments/>
          </clipitem>
          <clipitem id="clipitem-38">
            <name>OrionEp16_038.mp3</name>
            <enabled>TRUE</enabled>
            <duration>243</duration>
            <rate>
              <timebase>30</timebase>
              <ntsc>TRUE</ntsc>
            </rate>
            <start>11948</start>
            <end>12191</end>
            <in>0</in>
            <out>194067</out>
            <file id="file-38">
              <name>OrionEp16_038.mp3</name>
              <pathurl>file:///Users/delaxstudio/src/delax-ops/ops/media/orion/projects/OrionEp16/output/audio/OrionEp16_038.mp3</pathurl>
              <rate>
                <timebase>24000</timebase>
                <ntsc>FALSE</ntsc>
              </rate>
              <media>
                <audio>
                  <channelcount>1</channelcount>
                  <samplecharacteristics>
                    <samplerate>24000</samplerate>
                    <samplesize>16</samplesize>
                  </samplecharacteristics>
                </audio>
              </media>
            </file>
            <sourcetrack>
              <mediatype>audio</mediatype>
              <trackindex>1</trackindex>
            </sourcetrack>
            <comments/>
          </clipitem>
          <clipitem id="clipitem-39">
            <name>OrionEp16_039.mp3</name>
            <enabled>TRUE</enabled>
            <duration>522</duration>
            <rate>
              <timebase>30</timebase>
              <ntsc>TRUE</ntsc>
            </rate>
            <start>12201</start>
            <end>12723</end>
            <in>0</in>
            <out>418354</out>
            <file id="file-39">
              <name>OrionEp16_039.mp3</name>
              <pathurl>file:///Users/delaxstudio/src/delax-ops/ops/media/orion/projects/OrionEp16/output/audio/OrionEp16_039.mp3</pathurl>
              <rate>
                <timebase>24000</timebase>
                <ntsc>FALSE</ntsc>
              </rate>
              <media>
                <audio>
                  <channelcount>1</channelcount>
                  <samplecharacteristics>
                    <samplerate>24000</samplerate>
                    <samplesize>16</samplesize>
                  </samplecharacteristics>
                </audio>
              </media>
            </file>
            <sourcetrack>
              <mediatype>audio</mediatype>
              <trackindex>1</trackindex>
            </sourcetrack>
            <comments/>
          </clipitem>
          <clipitem id="clipitem-40">
            <name>OrionEp16_040.mp3</name>
            <enabled>TRUE</enabled>
            <duration>298</duration>
            <rate>
              <timebase>30</timebase>
              <ntsc>TRUE</ntsc>
            </rate>
            <start>12733</start>
            <end>13031</end>
            <in>0</in>
            <out>238927</out>
            <file id="file-40">
              <name>OrionEp16_040.mp3</name>
              <pathurl>file:///Users/delaxstudio/src/delax-ops/ops/media/orion/projects/OrionEp16/output/audio/OrionEp16_040.mp3</pathurl>
              <rate>
                <timebase>24000</timebase>
                <ntsc>FALSE</ntsc>
              </rate>
              <media>
                <audio>
                  <channelcount>1</channelcount>
                  <samplecharacteristics>
                    <samplerate>24000</samplerate>
                    <samplesize>16</samplesize>
                  </samplecharacteristics>
                </audio>
              </media>
            </file>
            <sourcetrack>
              <mediatype>audio</mediatype>
              <trackindex>1</trackindex>
            </sourcetrack>
            <comments/>
          </clipitem>
          <clipitem id="clipitem-41">
            <name>OrionEp16_041.mp3</name>
            <enabled>TRUE</enabled>
            <duration>188</duration>
            <rate>
              <timebase>30</timebase>
              <ntsc>TRUE</ntsc>
            </rate>
            <start>13041</start>
            <end>13229</end>
            <in>0</in>
            <out>150471</out>
            <file id="file-41">
              <name>OrionEp16_041.mp3</name>
              <pathurl>file:///Users/delaxstudio/src/delax-ops/ops/media/orion/projects/OrionEp16/output/audio/OrionEp16_041.mp3</pathurl>
              <rate>
                <timebase>24000</timebase>
                <ntsc>FALSE</ntsc>
              </rate>
              <media>
                <audio>
                  <channelcount>1</channelcount>
                  <samplecharacteristics>
                    <samplerate>24000</samplerate>
                    <samplesize>16</samplesize>
                  </samplecharacteristics>
                </audio>
              </media>
            </file>
            <sourcetrack>
              <mediatype>audio</mediatype>
              <trackindex>1</trackindex>
            </sourcetrack>
            <comments/>
          </clipitem>
          <clipitem id="clipitem-42">
            <name>OrionEp16_042.mp3</name>
            <enabled>TRUE</enabled>
            <duration>318</duration>
            <rate>
              <timebase>30</timebase>
              <ntsc>TRUE</ntsc>
            </rate>
            <start>13239</start>
            <end>13557</end>
            <in>0</in>
            <out>254579</out>
            <file id="file-42">
              <name>OrionEp16_042.mp3</name>
              <pathurl>file:///Users/delaxstudio/src/delax-ops/ops/media/orion/projects/OrionEp16/output/audio/OrionEp16_042.mp3</pathurl>
              <rate>
                <timebase>24000</timebase>
                <ntsc>FALSE</ntsc>
              </rate>
              <media>
                <audio>
                  <channelcount>1</channelcount>
                  <samplecharacteristics>
                    <samplerate>24000</samplerate>
                    <samplesize>16</samplesize>
                  </samplecharacteristics>
                </audio>
              </media>
            </file>
            <sourcetrack>
              <mediatype>audio</mediatype>
              <trackindex>1</trackindex>
            </sourcetrack>
            <comments/>
          </clipitem>
          <clipitem id="clipitem-43">
            <name>OrionEp16_043.mp3</name>
            <enabled>TRUE</enabled>
            <duration>154</duration>
            <rate>
              <timebase>30</timebase>
              <ntsc>TRUE</ntsc>
            </rate>
            <start>13567</start>
            <end>13721</end>
            <in>0</in>
            <out>123393</out>
            <file id="file-43">
              <name>OrionEp16_043.mp3</name>
              <pathurl>file:///Users/delaxstudio/src/delax-ops/ops/media/orion/projects/OrionEp16/output/audio/OrionEp16_043.mp3</pathurl>
              <rate>
                <timebase>24000</timebase>
                <ntsc>FALSE</ntsc>
              </rate>
              <media>
                <audio>
                  <channelcount>1</channelcount>
                  <samplecharacteristics>
                    <samplerate>24000</samplerate>
                    <samplesize>16</samplesize>
                  </samplecharacteristics>
                </audio>
              </media>
            </file>
            <sourcetrack>
              <mediatype>audio</mediatype>
              <trackindex>1</trackindex>
            </sourcetrack>
            <comments/>
          </clipitem>
          <clipitem id="clipitem-44">
            <name>OrionEp16_044.mp3</name>
            <enabled>TRUE</enabled>
            <duration>343</duration>
            <rate>
              <timebase>30</timebase>
              <ntsc>TRUE</ntsc>
            </rate>
            <start>13731</start>
            <end>14074</end>
            <in>0</in>
            <out>274329</out>
            <file id="file-44">
              <name>OrionEp16_044.mp3</name>
              <pathurl>file:///Users/delaxstudio/src/delax-ops/ops/media/orion/projects/OrionEp16/output/audio/OrionEp16_044.mp3</pathurl>
              <rate>
                <timebase>24000</timebase>
                <ntsc>FALSE</ntsc>
              </rate>
              <media>
                <audio>
                  <channelcount>1</channelcount>
                  <samplecharacteristics>
                    <samplerate>24000</samplerate>
                    <samplesize>16</samplesize>
                  </samplecharacteristics>
                </audio>
              </media>
            </file>
            <sourcetrack>
              <mediatype>audio</mediatype>
              <trackindex>1</trackindex>
            </sourcetrack>
            <comments/>
          </clipitem>
        </track>
      </audio>
    </media>
  </sequence>
</xmeml>
