<?xml version="1.0" ?>
<xmeml version="4">
  <sequence>
    <uuid>OrionEp27_timeline</uuid>
    <duration>12745</duration>
    <name>OrionEp27_timeline</name>
    <rate>
      <timebase>30</timebase>
      <ntsc>TRUE</ntsc>
    </rate>
    <media>
      <video>
        <format/>
      </video>
      <audio>
        <track>
          <clipitem id="clipitem-1">
            <name>OrionEp27_001.mp3</name>
            <enabled>TRUE</enabled>
            <duration>175</duration>
            <rate>
              <timebase>30</timebase>
              <ntsc>TRUE</ntsc>
            </rate>
            <start>0</start>
            <end>175</end>
            <in>0</in>
            <out>140627</out>
            <file id="file-1">
              <name>OrionEp27_001.mp3</name>
              <pathurl>file:///Users/delaxstudio/src/delax-ops/ops/media/orion/projects/OrionEp27/output/audio/OrionEp27_001.mp3</pathurl>
              <rate>
                <timebase>24000</timebase>
                <ntsc>FALSE</ntsc>
              </rate>
              <media>
                <audio>
                  <channelcount>1</channelcount>
                  <samplecharacteristics>
                    <samplerate>24000</samplerate>
                    <samplesize>16</samplesize>
                  </samplecharacteristics>
                </audio>
              </media>
            </file>
            <sourcetrack>
              <mediatype>audio</mediatype>
              <trackindex>1</trackindex>
            </sourcetrack>
            <comments/>
          </clipitem>
          <clipitem id="clipitem-2">
            <name>OrionEp27_002.mp3</name>
            <enabled>TRUE</enabled>
            <duration>129</duration>
            <rate>
              <timebase>30</timebase>
              <ntsc>TRUE</ntsc>
            </rate>
            <start>185</start>
            <end>314</end>
            <in>0</in>
            <out>103312</out>
            <file id="file-2">
              <name>OrionEp27_002.mp3</name>
              <pathurl>file:///Users/delaxstudio/src/delax-ops/ops/media/orion/projects/OrionEp27/output/audio/OrionEp27_002.mp3</pathurl>
              <rate>
                <timebase>24000</timebase>
                <ntsc>FALSE</ntsc>
              </rate>
              <media>
                <audio>
                  <channelcount>1</channelcount>
                  <samplecharacteristics>
                    <samplerate>24000</samplerate>
                    <samplesize>16</samplesize>
                  </samplecharacteristics>
                </audio>
              </media>
            </file>
            <sourcetrack>
              <mediatype>audio</mediatype>
              <trackindex>1</trackindex>
            </sourcetrack>
            <comments/>
          </clipitem>
          <clipitem id="clipitem-3">
            <name>OrionEp27_003.mp3</name>
            <enabled>TRUE</enabled>
            <duration>246</duration>
            <rate>
              <timebase>30</timebase>
              <ntsc>TRUE</ntsc>
            </rate>
            <start>324</start>
            <end>570</end>
            <in>0</in>
            <out>197039</out>
            <file id="file-3">
              <name>OrionEp27_003.mp3</name>
              <pathurl>file:///Users/delaxstudio/src/delax-ops/ops/media/orion/projects/OrionEp27/output/audio/OrionEp27_003.mp3</pathurl>
              <rate>
                <timebase>24000</timebase>
                <ntsc>FALSE</ntsc>
              </rate>
              <media>
                <audio>
                  <channelcount>1</channelcount>
                  <samplecharacteristics>
                    <samplerate>24000</samplerate>
                    <samplesize>16</samplesize>
                  </samplecharacteristics>
                </audio>
              </media>
            </file>
            <sourcetrack>
              <mediatype>audio</mediatype>
              <trackindex>1</trackindex>
            </sourcetrack>
            <comments/>
          </clipitem>
          <clipitem id="clipitem-4">
            <name>OrionEp27_004.mp3</name>
            <enabled>TRUE</enabled>
            <duration>194</duration>
            <rate>
              <timebase>30</timebase>
              <ntsc>TRUE</ntsc>
            </rate>
            <start>580</start>
            <end>774</end>
            <in>0</in>
            <out>154823</out>
            <file id="file-4">
              <name>OrionEp27_004.mp3</name>
              <pathurl>file:///Users/delaxstudio/src/delax-ops/ops/media/orion/projects/OrionEp27/output/audio/OrionEp27_004.mp3</pathurl>
              <rate>
                <timebase>24000</timebase>
                <ntsc>FALSE</ntsc>
              </rate>
              <media>
                <audio>
                  <channelcount>1</channelcount>
                  <samplecharacteristics>
                    <samplerate>24000</samplerate>
                    <samplesize>16</samplesize>
                  </samplecharacteristics>
                </audio>
              </media>
            </file>
            <sourcetrack>
              <mediatype>audio</mediatype>
              <trackindex>1</trackindex>
            </sourcetrack>
            <comments/>
          </clipitem>
          <clipitem id="clipitem-5">
            <name>OrionEp27_005.mp3</name>
            <enabled>TRUE</enabled>
            <duration>194</duration>
            <rate>
              <timebase>30</timebase>
              <ntsc>TRUE</ntsc>
            </rate>
            <start>784</start>
            <end>978</end>
            <in>0</in>
            <out>155783</out>
            <file id="file-5">
              <name>OrionEp27_005.mp3</name>
              <pathurl>file:///Users/delaxstudio/src/delax-ops/ops/media/orion/projects/OrionEp27/output/audio/OrionEp27_005.mp3</pathurl>
              <rate>
                <timebase>24000</timebase>
                <ntsc>FALSE</ntsc>
              </rate>
              <media>
                <audio>
                  <channelcount>1</channelcount>
                  <samplecharacteristics>
                    <samplerate>24000</samplerate>
                    <samplesize>16</samplesize>
                  </samplecharacteristics>
                </audio>
              </media>
            </file>
            <sourcetrack>
              <mediatype>audio</mediatype>
              <trackindex>1</trackindex>
            </sourcetrack>
            <comments/>
          </clipitem>
          <clipitem id="clipitem-6">
            <name>OrionEp27_006.mp3</name>
            <enabled>TRUE</enabled>
            <duration>223</duration>
            <rate>
              <timebase>30</timebase>
              <ntsc>TRUE</ntsc>
            </rate>
            <start>988</start>
            <end>1211</end>
            <in>0</in>
            <out>178823</out>
            <file id="file-6">
              <name>OrionEp27_006.mp3</name>
              <pathurl>file:///Users/delaxstudio/src/delax-ops/ops/media/orion/projects/OrionEp27/output/audio/OrionEp27_006.mp3</pathurl>
              <rate>
                <timebase>24000</timebase>
                <ntsc>FALSE</ntsc>
              </rate>
              <media>
                <audio>
                  <channelcount>1</channelcount>
                  <samplecharacteristics>
                    <samplerate>24000</samplerate>
                    <samplesize>16</samplesize>
                  </samplecharacteristics>
                </audio>
              </media>
            </file>
            <sourcetrack>
              <mediatype>audio</mediatype>
              <trackindex>1</trackindex>
            </sourcetrack>
            <comments/>
          </clipitem>
          <clipitem id="clipitem-7">
            <name>OrionEp27_007.mp3</name>
            <enabled>TRUE</enabled>
            <duration>255</duration>
            <rate>
              <timebase>30</timebase>
              <ntsc>TRUE</ntsc>
            </rate>
            <start>1221</start>
            <end>1476</end>
            <in>0</in>
            <out>203783</out>
            <file id="file-7">
              <name>OrionEp27_007.mp3</name>
              <pathurl>file:///Users/delaxstudio/src/delax-ops/ops/media/orion/projects/OrionEp27/output/audio/OrionEp27_007.mp3</pathurl>
              <rate>
                <timebase>24000</timebase>
                <ntsc>FALSE</ntsc>
              </rate>
              <media>
                <audio>
                  <channelcount>1</channelcount>
                  <samplecharacteristics>
                    <samplerate>24000</samplerate>
                    <samplesize>16</samplesize>
                  </samplecharacteristics>
                </audio>
              </media>
            </file>
            <sourcetrack>
              <mediatype>audio</mediatype>
              <trackindex>1</trackindex>
            </sourcetrack>
            <comments/>
          </clipitem>
          <clipitem id="clipitem-8">
            <name>OrionEp27_008.mp3</name>
            <enabled>TRUE</enabled>
            <duration>187</duration>
            <rate>
              <timebase>30</timebase>
              <ntsc>TRUE</ntsc>
            </rate>
            <start>1486</start>
            <end>1673</end>
            <in>0</in>
            <out>150023</out>
            <file id="file-8">
              <name>OrionEp27_008.mp3</name>
              <pathurl>file:///Users/delaxstudio/src/delax-ops/ops/media/orion/projects/OrionEp27/output/audio/OrionEp27_008.mp3</pathurl>
              <rate>
                <timebase>24000</timebase>
                <ntsc>FALSE</ntsc>
              </rate>
              <media>
                <audio>
                  <channelcount>1</channelcount>
                  <samplecharacteristics>
                    <samplerate>24000</samplerate>
                    <samplesize>16</samplesize>
                  </samplecharacteristics>
                </audio>
              </media>
            </file>
            <sourcetrack>
              <mediatype>audio</mediatype>
              <trackindex>1</trackindex>
            </sourcetrack>
            <comments/>
          </clipitem>
          <clipitem id="clipitem-9">
            <name>OrionEp27_009.mp3</name>
            <enabled>TRUE</enabled>
            <duration>231</duration>
            <rate>
              <timebase>30</timebase>
              <ntsc>TRUE</ntsc>
            </rate>
            <start>1683</start>
            <end>1914</end>
            <in>0</in>
            <out>184583</out>
            <file id="file-9">
              <name>OrionEp27_009.mp3</name>
              <pathurl>file:///Users/delaxstudio/src/delax-ops/ops/media/orion/projects/OrionEp27/output/audio/OrionEp27_009.mp3</pathurl>
              <rate>
                <timebase>24000</timebase>
                <ntsc>FALSE</ntsc>
              </rate>
              <media>
                <audio>
                  <channelcount>1</channelcount>
                  <samplecharacteristics>
                    <samplerate>24000</samplerate>
                    <samplesize>16</samplesize>
                  </samplecharacteristics>
                </audio>
              </media>
            </file>
            <sourcetrack>
              <mediatype>audio</mediatype>
              <trackindex>1</trackindex>
            </sourcetrack>
            <comments/>
          </clipitem>
          <clipitem id="clipitem-10">
            <name>OrionEp27_010.mp3</name>
            <enabled>TRUE</enabled>
            <duration>171</duration>
            <rate>
              <timebase>30</timebase>
              <ntsc>TRUE</ntsc>
            </rate>
            <start>1924</start>
            <end>2095</end>
            <in>0</in>
            <out>137543</out>
            <file id="file-10">
              <name>OrionEp27_010.mp3</name>
              <pathurl>file:///Users/delaxstudio/src/delax-ops/ops/media/orion/projects/OrionEp27/output/audio/OrionEp27_010.mp3</pathurl>
              <rate>
                <timebase>24000</timebase>
                <ntsc>FALSE</ntsc>
              </rate>
              <media>
                <audio>
                  <channelcount>1</channelcount>
                  <samplecharacteristics>
                    <samplerate>24000</samplerate>
                    <samplesize>16</samplesize>
                  </samplecharacteristics>
                </audio>
              </media>
            </file>
            <sourcetrack>
              <mediatype>audio</mediatype>
              <trackindex>1</trackindex>
            </sourcetrack>
            <comments/>
          </clipitem>
          <clipitem id="clipitem-11">
            <name>OrionEp27_011.mp3</name>
            <enabled>TRUE</enabled>
            <duration>135</duration>
            <rate>
              <timebase>30</timebase>
              <ntsc>TRUE</ntsc>
            </rate>
            <start>2105</start>
            <end>2240</end>
            <in>0</in>
            <out>107783</out>
            <file id="file-11">
              <name>OrionEp27_011.mp3</name>
              <pathurl>file:///Users/delaxstudio/src/delax-ops/ops/media/orion/projects/OrionEp27/output/audio/OrionEp27_011.mp3</pathurl>
              <rate>
                <timebase>24000</timebase>
                <ntsc>FALSE</ntsc>
              </rate>
              <media>
                <audio>
                  <channelcount>1</channelcount>
                  <samplecharacteristics>
                    <samplerate>24000</samplerate>
                    <samplesize>16</samplesize>
                  </samplecharacteristics>
                </audio>
              </media>
            </file>
            <sourcetrack>
              <mediatype>audio</mediatype>
              <trackindex>1</trackindex>
            </sourcetrack>
            <comments/>
          </clipitem>
          <clipitem id="clipitem-12">
            <name>OrionEp27_012.mp3</name>
            <enabled>TRUE</enabled>
            <duration>157</duration>
            <rate>
              <timebase>30</timebase>
              <ntsc>TRUE</ntsc>
            </rate>
            <start>2250</start>
            <end>2407</end>
            <in>0</in>
            <out>126023</out>
            <file id="file-12">
              <name>OrionEp27_012.mp3</name>
              <pathurl>file:///Users/delaxstudio/src/delax-ops/ops/media/orion/projects/OrionEp27/output/audio/OrionEp27_012.mp3</pathurl>
              <rate>
                <timebase>24000</timebase>
                <ntsc>FALSE</ntsc>
              </rate>
              <media>
                <audio>
                  <channelcount>1</channelcount>
                  <samplecharacteristics>
                    <samplerate>24000</samplerate>
                    <samplesize>16</samplesize>
                  </samplecharacteristics>
                </audio>
              </media>
            </file>
            <sourcetrack>
              <mediatype>audio</mediatype>
              <trackindex>1</trackindex>
            </sourcetrack>
            <comments/>
          </clipitem>
          <clipitem id="clipitem-13">
            <name>OrionEp27_013.mp3</name>
            <enabled>TRUE</enabled>
            <duration>177</duration>
            <rate>
              <timebase>30</timebase>
              <ntsc>TRUE</ntsc>
            </rate>
            <start>2417</start>
            <end>2594</end>
            <in>0</in>
            <out>141383</out>
            <file id="file-13">
              <name>OrionEp27_013.mp3</name>
              <pathurl>file:///Users/delaxstudio/src/delax-ops/ops/media/orion/projects/OrionEp27/output/audio/OrionEp27_013.mp3</pathurl>
              <rate>
                <timebase>24000</timebase>
                <ntsc>FALSE</ntsc>
              </rate>
              <media>
                <audio>
                  <channelcount>1</channelcount>
                  <samplecharacteristics>
                    <samplerate>24000</samplerate>
                    <samplesize>16</samplesize>
                  </samplecharacteristics>
                </audio>
              </media>
            </file>
            <sourcetrack>
              <mediatype>audio</mediatype>
              <trackindex>1</trackindex>
            </sourcetrack>
            <comments/>
          </clipitem>
          <clipitem id="clipitem-14">
            <name>OrionEp27_014.mp3</name>
            <enabled>TRUE</enabled>
            <duration>102</duration>
            <rate>
              <timebase>30</timebase>
              <ntsc>TRUE</ntsc>
            </rate>
            <start>2604</start>
            <end>2706</end>
            <in>0</in>
            <out>81863</out>
            <file id="file-14">
              <name>OrionEp27_014.mp3</name>
              <pathurl>file:///Users/delaxstudio/src/delax-ops/ops/media/orion/projects/OrionEp27/output/audio/OrionEp27_014.mp3</pathurl>
              <rate>
                <timebase>24000</timebase>
                <ntsc>FALSE</ntsc>
              </rate>
              <media>
                <audio>
                  <channelcount>1</channelcount>
                  <samplecharacteristics>
                    <samplerate>24000</samplerate>
                    <samplesize>16</samplesize>
                  </samplecharacteristics>
                </audio>
              </media>
            </file>
            <sourcetrack>
              <mediatype>audio</mediatype>
              <trackindex>1</trackindex>
            </sourcetrack>
            <comments/>
          </clipitem>
          <clipitem id="clipitem-15">
            <name>OrionEp27_015.mp3</name>
            <enabled>TRUE</enabled>
            <duration>152</duration>
            <rate>
              <timebase>30</timebase>
              <ntsc>TRUE</ntsc>
            </rate>
            <start>2716</start>
            <end>2868</end>
            <in>0</in>
            <out>121223</out>
            <file id="file-15">
              <name>OrionEp27_015.mp3</name>
              <pathurl>file:///Users/delaxstudio/src/delax-ops/ops/media/orion/projects/OrionEp27/output/audio/OrionEp27_015.mp3</pathurl>
              <rate>
                <timebase>24000</timebase>
                <ntsc>FALSE</ntsc>
              </rate>
              <media>
                <audio>
                  <channelcount>1</channelcount>
                  <samplecharacteristics>
                    <samplerate>24000</samplerate>
                    <samplesize>16</samplesize>
                  </samplecharacteristics>
                </audio>
              </media>
            </file>
            <sourcetrack>
              <mediatype>audio</mediatype>
              <trackindex>1</trackindex>
            </sourcetrack>
            <comments/>
          </clipitem>
          <clipitem id="clipitem-16">
            <name>OrionEp27_016.mp3</name>
            <enabled>TRUE</enabled>
            <duration>181</duration>
            <rate>
              <timebase>30</timebase>
              <ntsc>TRUE</ntsc>
            </rate>
            <start>2878</start>
            <end>3059</end>
            <in>0</in>
            <out>145223</out>
            <file id="file-16">
              <name>OrionEp27_016.mp3</name>
              <pathurl>file:///Users/delaxstudio/src/delax-ops/ops/media/orion/projects/OrionEp27/output/audio/OrionEp27_016.mp3</pathurl>
              <rate>
                <timebase>24000</timebase>
                <ntsc>FALSE</ntsc>
              </rate>
              <media>
                <audio>
                  <channelcount>1</channelcount>
                  <samplecharacteristics>
                    <samplerate>24000</samplerate>
                    <samplesize>16</samplesize>
                  </samplecharacteristics>
                </audio>
              </media>
            </file>
            <sourcetrack>
              <mediatype>audio</mediatype>
              <trackindex>1</trackindex>
            </sourcetrack>
            <comments/>
          </clipitem>
          <clipitem id="clipitem-17">
            <name>OrionEp27_017.mp3</name>
            <enabled>TRUE</enabled>
            <duration>244</duration>
            <rate>
              <timebase>30</timebase>
              <ntsc>TRUE</ntsc>
            </rate>
            <start>3069</start>
            <end>3313</end>
            <in>0</in>
            <out>195143</out>
            <file id="file-17">
              <name>OrionEp27_017.mp3</name>
              <pathurl>file:///Users/delaxstudio/src/delax-ops/ops/media/orion/projects/OrionEp27/output/audio/OrionEp27_017.mp3</pathurl>
              <rate>
                <timebase>24000</timebase>
                <ntsc>FALSE</ntsc>
              </rate>
              <media>
                <audio>
                  <channelcount>1</channelcount>
                  <samplecharacteristics>
                    <samplerate>24000</samplerate>
                    <samplesize>16</samplesize>
                  </samplecharacteristics>
                </audio>
              </media>
            </file>
            <sourcetrack>
              <mediatype>audio</mediatype>
              <trackindex>1</trackindex>
            </sourcetrack>
            <comments/>
          </clipitem>
          <clipitem id="clipitem-18">
            <name>OrionEp27_018.mp3</name>
            <enabled>TRUE</enabled>
            <duration>183</duration>
            <rate>
              <timebase>30</timebase>
              <ntsc>TRUE</ntsc>
            </rate>
            <start>3323</start>
            <end>3506</end>
            <in>0</in>
            <out>147143</out>
            <file id="file-18">
              <name>OrionEp27_018.mp3</name>
              <pathurl>file:///Users/delaxstudio/src/delax-ops/ops/media/orion/projects/OrionEp27/output/audio/OrionEp27_018.mp3</pathurl>
              <rate>
                <timebase>24000</timebase>
                <ntsc>FALSE</ntsc>
              </rate>
              <media>
                <audio>
                  <channelcount>1</channelcount>
                  <samplecharacteristics>
                    <samplerate>24000</samplerate>
                    <samplesize>16</samplesize>
                  </samplecharacteristics>
                </audio>
              </media>
            </file>
            <sourcetrack>
              <mediatype>audio</mediatype>
              <trackindex>1</trackindex>
            </sourcetrack>
            <comments/>
          </clipitem>
          <clipitem id="clipitem-19">
            <name>OrionEp27_019.mp3</name>
            <enabled>TRUE</enabled>
            <duration>204</duration>
            <rate>
              <timebase>30</timebase>
              <ntsc>TRUE</ntsc>
            </rate>
            <start>3516</start>
            <end>3720</end>
            <in>0</in>
            <out>163463</out>
            <file id="file-19">
              <name>OrionEp27_019.mp3</name>
              <pathurl>file:///Users/delaxstudio/src/delax-ops/ops/media/orion/projects/OrionEp27/output/audio/OrionEp27_019.mp3</pathurl>
              <rate>
                <timebase>24000</timebase>
                <ntsc>FALSE</ntsc>
              </rate>
              <media>
                <audio>
                  <channelcount>1</channelcount>
                  <samplecharacteristics>
                    <samplerate>24000</samplerate>
                    <samplesize>16</samplesize>
                  </samplecharacteristics>
                </audio>
              </media>
            </file>
            <sourcetrack>
              <mediatype>audio</mediatype>
              <trackindex>1</trackindex>
            </sourcetrack>
            <comments/>
          </clipitem>
          <clipitem id="clipitem-20">
            <name>OrionEp27_020.mp3</name>
            <enabled>TRUE</enabled>
            <duration>788</duration>
            <rate>
              <timebase>30</timebase>
              <ntsc>TRUE</ntsc>
            </rate>
            <start>3730</start>
            <end>4518</end>
            <in>0</in>
            <out>630983</out>
            <file id="file-20">
              <name>OrionEp27_020.mp3</name>
              <pathurl>file:///Users/delaxstudio/src/delax-ops/ops/media/orion/projects/OrionEp27/output/audio/OrionEp27_020.mp3</pathurl>
              <rate>
                <timebase>24000</timebase>
                <ntsc>FALSE</ntsc>
              </rate>
              <media>
                <audio>
                  <channelcount>1</channelcount>
                  <samplecharacteristics>
                    <samplerate>24000</samplerate>
                    <samplesize>16</samplesize>
                  </samplecharacteristics>
                </audio>
              </media>
            </file>
            <sourcetrack>
              <mediatype>audio</mediatype>
              <trackindex>1</trackindex>
            </sourcetrack>
            <comments/>
          </clipitem>
          <clipitem id="clipitem-21">
            <name>OrionEp27_021.mp3</name>
            <enabled>TRUE</enabled>
            <duration>128</duration>
            <rate>
              <timebase>30</timebase>
              <ntsc>TRUE</ntsc>
            </rate>
            <start>4528</start>
            <end>4656</end>
            <in>0</in>
            <out>102023</out>
            <file id="file-21">
              <name>OrionEp27_021.mp3</name>
              <pathurl>file:///Users/delaxstudio/src/delax-ops/ops/media/orion/projects/OrionEp27/output/audio/OrionEp27_021.mp3</pathurl>
              <rate>
                <timebase>24000</timebase>
                <ntsc>FALSE</ntsc>
              </rate>
              <media>
                <audio>
                  <channelcount>1</channelcount>
                  <samplecharacteristics>
                    <samplerate>24000</samplerate>
                    <samplesize>16</samplesize>
                  </samplecharacteristics>
                </audio>
              </media>
            </file>
            <sourcetrack>
              <mediatype>audio</mediatype>
              <trackindex>1</trackindex>
            </sourcetrack>
            <comments/>
          </clipitem>
          <clipitem id="clipitem-22">
            <name>OrionEp27_022.mp3</name>
            <enabled>TRUE</enabled>
            <duration>281</duration>
            <rate>
              <timebase>30</timebase>
              <ntsc>TRUE</ntsc>
            </rate>
            <start>4666</start>
            <end>4947</end>
            <in>0</in>
            <out>224903</out>
            <file id="file-22">
              <name>OrionEp27_022.mp3</name>
              <pathurl>file:///Users/delaxstudio/src/delax-ops/ops/media/orion/projects/OrionEp27/output/audio/OrionEp27_022.mp3</pathurl>
              <rate>
                <timebase>24000</timebase>
                <ntsc>FALSE</ntsc>
              </rate>
              <media>
                <audio>
                  <channelcount>1</channelcount>
                  <samplecharacteristics>
                    <samplerate>24000</samplerate>
                    <samplesize>16</samplesize>
                  </samplecharacteristics>
                </audio>
              </media>
            </file>
            <sourcetrack>
              <mediatype>audio</mediatype>
              <trackindex>1</trackindex>
            </sourcetrack>
            <comments/>
          </clipitem>
          <clipitem id="clipitem-23">
            <name>OrionEp27_023.mp3</name>
            <enabled>TRUE</enabled>
            <duration>227</duration>
            <rate>
              <timebase>30</timebase>
              <ntsc>TRUE</ntsc>
            </rate>
            <start>4957</start>
            <end>5184</end>
            <in>0</in>
            <out>181703</out>
            <file id="file-23">
              <name>OrionEp27_023.mp3</name>
              <pathurl>file:///Users/delaxstudio/src/delax-ops/ops/media/orion/projects/OrionEp27/output/audio/OrionEp27_023.mp3</pathurl>
              <rate>
                <timebase>24000</timebase>
                <ntsc>FALSE</ntsc>
              </rate>
              <media>
                <audio>
                  <channelcount>1</channelcount>
                  <samplecharacteristics>
                    <samplerate>24000</samplerate>
                    <samplesize>16</samplesize>
                  </samplecharacteristics>
                </audio>
              </media>
            </file>
            <sourcetrack>
              <mediatype>audio</mediatype>
              <trackindex>1</trackindex>
            </sourcetrack>
            <comments/>
          </clipitem>
          <clipitem id="clipitem-24">
            <name>OrionEp27_024.mp3</name>
            <enabled>TRUE</enabled>
            <duration>367</duration>
            <rate>
              <timebase>30</timebase>
              <ntsc>TRUE</ntsc>
            </rate>
            <start>5194</start>
            <end>5561</end>
            <in>0</in>
            <out>294023</out>
            <file id="file-24">
              <name>OrionEp27_024.mp3</name>
              <pathurl>file:///Users/delaxstudio/src/delax-ops/ops/media/orion/projects/OrionEp27/output/audio/OrionEp27_024.mp3</pathurl>
              <rate>
                <timebase>24000</timebase>
                <ntsc>FALSE</ntsc>
              </rate>
              <media>
                <audio>
                  <channelcount>1</channelcount>
                  <samplecharacteristics>
                    <samplerate>24000</samplerate>
                    <samplesize>16</samplesize>
                  </samplecharacteristics>
                </audio>
              </media>
            </file>
            <sourcetrack>
              <mediatype>audio</mediatype>
              <trackindex>1</trackindex>
            </sourcetrack>
            <comments/>
          </clipitem>
          <clipitem id="clipitem-25">
            <name>OrionEp27_025.mp3</name>
            <enabled>TRUE</enabled>
            <duration>464</duration>
            <rate>
              <timebase>30</timebase>
              <ntsc>TRUE</ntsc>
            </rate>
            <start>5571</start>
            <end>6035</end>
            <in>0</in>
            <out>371783</out>
            <file id="file-25">
              <name>OrionEp27_025.mp3</name>
              <pathurl>file:///Users/delaxstudio/src/delax-ops/ops/media/orion/projects/OrionEp27/output/audio/OrionEp27_025.mp3</pathurl>
              <rate>
                <timebase>24000</timebase>
                <ntsc>FALSE</ntsc>
              </rate>
              <media>
                <audio>
                  <channelcount>1</channelcount>
                  <samplecharacteristics>
                    <samplerate>24000</samplerate>
                    <samplesize>16</samplesize>
                  </samplecharacteristics>
                </audio>
              </media>
            </file>
            <sourcetrack>
              <mediatype>audio</mediatype>
              <trackindex>1</trackindex>
            </sourcetrack>
            <comments/>
          </clipitem>
          <clipitem id="clipitem-26">
            <name>OrionEp27_026.mp3</name>
            <enabled>TRUE</enabled>
            <duration>246</duration>
            <rate>
              <timebase>30</timebase>
              <ntsc>TRUE</ntsc>
            </rate>
            <start>6045</start>
            <end>6291</end>
            <in>0</in>
            <out>197063</out>
            <file id="file-26">
              <name>OrionEp27_026.mp3</name>
              <pathurl>file:///Users/delaxstudio/src/delax-ops/ops/media/orion/projects/OrionEp27/output/audio/OrionEp27_026.mp3</pathurl>
              <rate>
                <timebase>24000</timebase>
                <ntsc>FALSE</ntsc>
              </rate>
              <media>
                <audio>
                  <channelcount>1</channelcount>
                  <samplecharacteristics>
                    <samplerate>24000</samplerate>
                    <samplesize>16</samplesize>
                  </samplecharacteristics>
                </audio>
              </media>
            </file>
            <sourcetrack>
              <mediatype>audio</mediatype>
              <trackindex>1</trackindex>
            </sourcetrack>
            <comments/>
          </clipitem>
          <clipitem id="clipitem-27">
            <name>OrionEp27_027.mp3</name>
            <enabled>TRUE</enabled>
            <duration>252</duration>
            <rate>
              <timebase>30</timebase>
              <ntsc>TRUE</ntsc>
            </rate>
            <start>6301</start>
            <end>6553</end>
            <in>0</in>
            <out>201863</out>
            <file id="file-27">
              <name>OrionEp27_027.mp3</name>
              <pathurl>file:///Users/delaxstudio/src/delax-ops/ops/media/orion/projects/OrionEp27/output/audio/OrionEp27_027.mp3</pathurl>
              <rate>
                <timebase>24000</timebase>
                <ntsc>FALSE</ntsc>
              </rate>
              <media>
                <audio>
                  <channelcount>1</channelcount>
                  <samplecharacteristics>
                    <samplerate>24000</samplerate>
                    <samplesize>16</samplesize>
                  </samplecharacteristics>
                </audio>
              </media>
            </file>
            <sourcetrack>
              <mediatype>audio</mediatype>
              <trackindex>1</trackindex>
            </sourcetrack>
            <comments/>
          </clipitem>
          <clipitem id="clipitem-28">
            <name>OrionEp27_028.mp3</name>
            <enabled>TRUE</enabled>
            <duration>159</duration>
            <rate>
              <timebase>30</timebase>
              <ntsc>TRUE</ntsc>
            </rate>
            <start>6563</start>
            <end>6722</end>
            <in>0</in>
            <out>126983</out>
            <file id="file-28">
              <name>OrionEp27_028.mp3</name>
              <pathurl>file:///Users/delaxstudio/src/delax-ops/ops/media/orion/projects/OrionEp27/output/audio/OrionEp27_028.mp3</pathurl>
              <rate>
                <timebase>24000</timebase>
                <ntsc>FALSE</ntsc>
              </rate>
              <media>
                <audio>
                  <channelcount>1</channelcount>
                  <samplecharacteristics>
                    <samplerate>24000</samplerate>
                    <samplesize>16</samplesize>
                  </samplecharacteristics>
                </audio>
              </media>
            </file>
            <sourcetrack>
              <mediatype>audio</mediatype>
              <trackindex>1</trackindex>
            </sourcetrack>
            <comments/>
          </clipitem>
          <clipitem id="clipitem-29">
            <name>OrionEp27_029.mp3</name>
            <enabled>TRUE</enabled>
            <duration>101</duration>
            <rate>
              <timebase>30</timebase>
              <ntsc>TRUE</ntsc>
            </rate>
            <start>6732</start>
            <end>6833</end>
            <in>0</in>
            <out>80903</out>
            <file id="file-29">
              <name>OrionEp27_029.mp3</name>
              <pathurl>file:///Users/delaxstudio/src/delax-ops/ops/media/orion/projects/OrionEp27/output/audio/OrionEp27_029.mp3</pathurl>
              <rate>
                <timebase>24000</timebase>
                <ntsc>FALSE</ntsc>
              </rate>
              <media>
                <audio>
                  <channelcount>1</channelcount>
                  <samplecharacteristics>
                    <samplerate>24000</samplerate>
                    <samplesize>16</samplesize>
                  </samplecharacteristics>
                </audio>
              </media>
            </file>
            <sourcetrack>
              <mediatype>audio</mediatype>
              <trackindex>1</trackindex>
            </sourcetrack>
            <comments/>
          </clipitem>
          <clipitem id="clipitem-30">
            <name>OrionEp27_030.mp3</name>
            <enabled>TRUE</enabled>
            <duration>439</duration>
            <rate>
              <timebase>30</timebase>
              <ntsc>TRUE</ntsc>
            </rate>
            <start>6843</start>
            <end>7282</end>
            <in>0</in>
            <out>351623</out>
            <file id="file-30">
              <name>OrionEp27_030.mp3</name>
              <pathurl>file:///Users/delaxstudio/src/delax-ops/ops/media/orion/projects/OrionEp27/output/audio/OrionEp27_030.mp3</pathurl>
              <rate>
                <timebase>24000</timebase>
                <ntsc>FALSE</ntsc>
              </rate>
              <media>
                <audio>
                  <channelcount>1</channelcount>
                  <samplecharacteristics>
                    <samplerate>24000</samplerate>
                    <samplesize>16</samplesize>
                  </samplecharacteristics>
                </audio>
              </media>
            </file>
            <sourcetrack>
              <mediatype>audio</mediatype>
              <trackindex>1</trackindex>
            </sourcetrack>
            <comments/>
          </clipitem>
          <clipitem id="clipitem-31">
            <name>OrionEp27_031.mp3</name>
            <enabled>TRUE</enabled>
            <duration>544</duration>
            <rate>
              <timebase>30</timebase>
              <ntsc>TRUE</ntsc>
            </rate>
            <start>7292</start>
            <end>7836</end>
            <in>0</in>
            <out>436103</out>
            <file id="file-31">
              <name>OrionEp27_031.mp3</name>
              <pathurl>file:///Users/delaxstudio/src/delax-ops/ops/media/orion/projects/OrionEp27/output/audio/OrionEp27_031.mp3</pathurl>
              <rate>
                <timebase>24000</timebase>
                <ntsc>FALSE</ntsc>
              </rate>
              <media>
                <audio>
                  <channelcount>1</channelcount>
                  <samplecharacteristics>
                    <samplerate>24000</samplerate>
                    <samplesize>16</samplesize>
                  </samplecharacteristics>
                </audio>
              </media>
            </file>
            <sourcetrack>
              <mediatype>audio</mediatype>
              <trackindex>1</trackindex>
            </sourcetrack>
            <comments/>
          </clipitem>
          <clipitem id="clipitem-32">
            <name>OrionEp27_032.mp3</name>
            <enabled>TRUE</enabled>
            <duration>242</duration>
            <rate>
              <timebase>30</timebase>
              <ntsc>TRUE</ntsc>
            </rate>
            <start>7846</start>
            <end>8088</end>
            <in>0</in>
            <out>193223</out>
            <file id="file-32">
              <name>OrionEp27_032.mp3</name>
              <pathurl>file:///Users/delaxstudio/src/delax-ops/ops/media/orion/projects/OrionEp27/output/audio/OrionEp27_032.mp3</pathurl>
              <rate>
                <timebase>24000</timebase>
                <ntsc>FALSE</ntsc>
              </rate>
              <media>
                <audio>
                  <channelcount>1</channelcount>
                  <samplecharacteristics>
                    <samplerate>24000</samplerate>
                    <samplesize>16</samplesize>
                  </samplecharacteristics>
                </audio>
              </media>
            </file>
            <sourcetrack>
              <mediatype>audio</mediatype>
              <trackindex>1</trackindex>
            </sourcetrack>
            <comments/>
          </clipitem>
          <clipitem id="clipitem-33">
            <name>OrionEp27_033.mp3</name>
            <enabled>TRUE</enabled>
            <duration>421</duration>
            <rate>
              <timebase>30</timebase>
              <ntsc>TRUE</ntsc>
            </rate>
            <start>8098</start>
            <end>8519</end>
            <in>0</in>
            <out>337223</out>
            <file id="file-33">
              <name>OrionEp27_033.mp3</name>
              <pathurl>file:///Users/delaxstudio/src/delax-ops/ops/media/orion/projects/OrionEp27/output/audio/OrionEp27_033.mp3</pathurl>
              <rate>
                <timebase>24000</timebase>
                <ntsc>FALSE</ntsc>
              </rate>
              <media>
                <audio>
                  <channelcount>1</channelcount>
                  <samplecharacteristics>
                    <samplerate>24000</samplerate>
                    <samplesize>16</samplesize>
                  </samplecharacteristics>
                </audio>
              </media>
            </file>
            <sourcetrack>
              <mediatype>audio</mediatype>
              <trackindex>1</trackindex>
            </sourcetrack>
            <comments/>
          </clipitem>
          <clipitem id="clipitem-34">
            <name>OrionEp27_034.mp3</name>
            <enabled>TRUE</enabled>
            <duration>275</duration>
            <rate>
              <timebase>30</timebase>
              <ntsc>TRUE</ntsc>
            </rate>
            <start>8529</start>
            <end>8804</end>
            <in>0</in>
            <out>220103</out>
            <file id="file-34">
              <name>OrionEp27_034.mp3</name>
              <pathurl>file:///Users/delaxstudio/src/delax-ops/ops/media/orion/projects/OrionEp27/output/audio/OrionEp27_034.mp3</pathurl>
              <rate>
                <timebase>24000</timebase>
                <ntsc>FALSE</ntsc>
              </rate>
              <media>
                <audio>
                  <channelcount>1</channelcount>
                  <samplecharacteristics>
                    <samplerate>24000</samplerate>
                    <samplesize>16</samplesize>
                  </samplecharacteristics>
                </audio>
              </media>
            </file>
            <sourcetrack>
              <mediatype>audio</mediatype>
              <trackindex>1</trackindex>
            </sourcetrack>
            <comments/>
          </clipitem>
          <clipitem id="clipitem-35">
            <name>OrionEp27_035.mp3</name>
            <enabled>TRUE</enabled>
            <duration>265</duration>
            <rate>
              <timebase>30</timebase>
              <ntsc>TRUE</ntsc>
            </rate>
            <start>8814</start>
            <end>9079</end>
            <in>0</in>
            <out>212423</out>
            <file id="file-35">
              <name>OrionEp27_035.mp3</name>
              <pathurl>file:///Users/delaxstudio/src/delax-ops/ops/media/orion/projects/OrionEp27/output/audio/OrionEp27_035.mp3</pathurl>
              <rate>
                <timebase>24000</timebase>
                <ntsc>FALSE</ntsc>
              </rate>
              <media>
                <audio>
                  <channelcount>1</channelcount>
                  <samplecharacteristics>
                    <samplerate>24000</samplerate>
                    <samplesize>16</samplesize>
                  </samplecharacteristics>
                </audio>
              </media>
            </file>
            <sourcetrack>
              <mediatype>audio</mediatype>
              <trackindex>1</trackindex>
            </sourcetrack>
            <comments/>
          </clipitem>
          <clipitem id="clipitem-36">
            <name>OrionEp27_036.mp3</name>
            <enabled>TRUE</enabled>
            <duration>434</duration>
            <rate>
              <timebase>30</timebase>
              <ntsc>TRUE</ntsc>
            </rate>
            <start>9089</start>
            <end>9523</end>
            <in>0</in>
            <out>347783</out>
            <file id="file-36">
              <name>OrionEp27_036.mp3</name>
              <pathurl>file:///Users/delaxstudio/src/delax-ops/ops/media/orion/projects/OrionEp27/output/audio/OrionEp27_036.mp3</pathurl>
              <rate>
                <timebase>24000</timebase>
                <ntsc>FALSE</ntsc>
              </rate>
              <media>
                <audio>
                  <channelcount>1</channelcount>
                  <samplecharacteristics>
                    <samplerate>24000</samplerate>
                    <samplesize>16</samplesize>
                  </samplecharacteristics>
                </audio>
              </media>
            </file>
            <sourcetrack>
              <mediatype>audio</mediatype>
              <trackindex>1</trackindex>
            </sourcetrack>
            <comments/>
          </clipitem>
          <clipitem id="clipitem-37">
            <name>OrionEp27_037.mp3</name>
            <enabled>TRUE</enabled>
            <duration>189</duration>
            <rate>
              <timebase>30</timebase>
              <ntsc>TRUE</ntsc>
            </rate>
            <start>9533</start>
            <end>9722</end>
            <in>0</in>
            <out>150983</out>
            <file id="file-37">
              <name>OrionEp27_037.mp3</name>
              <pathurl>file:///Users/delaxstudio/src/delax-ops/ops/media/orion/projects/OrionEp27/output/audio/OrionEp27_037.mp3</pathurl>
              <rate>
                <timebase>24000</timebase>
                <ntsc>FALSE</ntsc>
              </rate>
              <media>
                <audio>
                  <channelcount>1</channelcount>
                  <samplecharacteristics>
                    <samplerate>24000</samplerate>
                    <samplesize>16</samplesize>
                  </samplecharacteristics>
                </audio>
              </media>
            </file>
            <sourcetrack>
              <mediatype>audio</mediatype>
              <trackindex>1</trackindex>
            </sourcetrack>
            <comments/>
          </clipitem>
          <clipitem id="clipitem-38">
            <name>OrionEp27_038.mp3</name>
            <enabled>TRUE</enabled>
            <duration>48</duration>
            <rate>
              <timebase>30</timebase>
              <ntsc>TRUE</ntsc>
            </rate>
            <start>9732</start>
            <end>9780</end>
            <in>0</in>
            <out>38663</out>
            <file id="file-38">
              <name>OrionEp27_038.mp3</name>
              <pathurl>file:///Users/delaxstudio/src/delax-ops/ops/media/orion/projects/OrionEp27/output/audio/OrionEp27_038.mp3</pathurl>
              <rate>
                <timebase>24000</timebase>
                <ntsc>FALSE</ntsc>
              </rate>
              <media>
                <audio>
                  <channelcount>1</channelcount>
                  <samplecharacteristics>
                    <samplerate>24000</samplerate>
                    <samplesize>16</samplesize>
                  </samplecharacteristics>
                </audio>
              </media>
            </file>
            <sourcetrack>
              <mediatype>audio</mediatype>
              <trackindex>1</trackindex>
            </sourcetrack>
            <comments/>
          </clipitem>
          <clipitem id="clipitem-39">
            <name>OrionEp27_039.mp3</name>
            <enabled>TRUE</enabled>
            <duration>213</duration>
            <rate>
              <timebase>30</timebase>
              <ntsc>TRUE</ntsc>
            </rate>
            <start>9790</start>
            <end>10003</end>
            <in>0</in>
            <out>170183</out>
            <file id="file-39">
              <name>OrionEp27_039.mp3</name>
              <pathurl>file:///Users/delaxstudio/src/delax-ops/ops/media/orion/projects/OrionEp27/output/audio/OrionEp27_039.mp3</pathurl>
              <rate>
                <timebase>24000</timebase>
                <ntsc>FALSE</ntsc>
              </rate>
              <media>
                <audio>
                  <channelcount>1</channelcount>
                  <samplecharacteristics>
                    <samplerate>24000</samplerate>
                    <samplesize>16</samplesize>
                  </samplecharacteristics>
                </audio>
              </media>
            </file>
            <sourcetrack>
              <mediatype>audio</mediatype>
              <trackindex>1</trackindex>
            </sourcetrack>
            <comments/>
          </clipitem>
          <clipitem id="clipitem-40">
            <name>OrionEp27_040.mp3</name>
            <enabled>TRUE</enabled>
            <duration>350</duration>
            <rate>
              <timebase>30</timebase>
              <ntsc>TRUE</ntsc>
            </rate>
            <start>10013</start>
            <end>10363</end>
            <in>0</in>
            <out>280583</out>
            <file id="file-40">
              <name>OrionEp27_040.mp3</name>
              <pathurl>file:///Users/delaxstudio/src/delax-ops/ops/media/orion/projects/OrionEp27/output/audio/OrionEp27_040.mp3</pathurl>
              <rate>
                <timebase>24000</timebase>
                <ntsc>FALSE</ntsc>
              </rate>
              <media>
                <audio>
                  <channelcount>1</channelcount>
                  <samplecharacteristics>
                    <samplerate>24000</samplerate>
                    <samplesize>16</samplesize>
                  </samplecharacteristics>
                </audio>
              </media>
            </file>
            <sourcetrack>
              <mediatype>audio</mediatype>
              <trackindex>1</trackindex>
            </sourcetrack>
            <comments/>
          </clipitem>
          <clipitem id="clipitem-41">
            <name>OrionEp27_041.mp3</name>
            <enabled>TRUE</enabled>
            <duration>194</duration>
            <rate>
              <timebase>30</timebase>
              <ntsc>TRUE</ntsc>
            </rate>
            <start>10373</start>
            <end>10567</end>
            <in>0</in>
            <out>155783</out>
            <file id="file-41">
              <name>OrionEp27_041.mp3</name>
              <pathurl>file:///Users/delaxstudio/src/delax-ops/ops/media/orion/projects/OrionEp27/output/audio/OrionEp27_041.mp3</pathurl>
              <rate>
                <timebase>24000</timebase>
                <ntsc>FALSE</ntsc>
              </rate>
              <media>
                <audio>
                  <channelcount>1</channelcount>
                  <samplecharacteristics>
                    <samplerate>24000</samplerate>
                    <samplesize>16</samplesize>
                  </samplecharacteristics>
                </audio>
              </media>
            </file>
            <sourcetrack>
              <mediatype>audio</mediatype>
              <trackindex>1</trackindex>
            </sourcetrack>
            <comments/>
          </clipitem>
          <clipitem id="clipitem-42">
            <name>OrionEp27_042.mp3</name>
            <enabled>TRUE</enabled>
            <duration>490</duration>
            <rate>
              <timebase>30</timebase>
              <ntsc>TRUE</ntsc>
            </rate>
            <start>10577</start>
            <end>11067</end>
            <in>0</in>
            <out>391943</out>
            <file id="file-42">
              <name>OrionEp27_042.mp3</name>
              <pathurl>file:///Users/delaxstudio/src/delax-ops/ops/media/orion/projects/OrionEp27/output/audio/OrionEp27_042.mp3</pathurl>
              <rate>
                <timebase>24000</timebase>
                <ntsc>FALSE</ntsc>
              </rate>
              <media>
                <audio>
                  <channelcount>1</channelcount>
                  <samplecharacteristics>
                    <samplerate>24000</samplerate>
                    <samplesize>16</samplesize>
                  </samplecharacteristics>
                </audio>
              </media>
            </file>
            <sourcetrack>
              <mediatype>audio</mediatype>
              <trackindex>1</trackindex>
            </sourcetrack>
            <comments/>
          </clipitem>
          <clipitem id="clipitem-43">
            <name>OrionEp27_043.mp3</name>
            <enabled>TRUE</enabled>
            <duration>139</duration>
            <rate>
              <timebase>30</timebase>
              <ntsc>TRUE</ntsc>
            </rate>
            <start>11077</start>
            <end>11216</end>
            <in>0</in>
            <out>111623</out>
            <file id="file-43">
              <name>OrionEp27_043.mp3</name>
              <pathurl>file:///Users/delaxstudio/src/delax-ops/ops/media/orion/projects/OrionEp27/output/audio/OrionEp27_043.mp3</pathurl>
              <rate>
                <timebase>24000</timebase>
                <ntsc>FALSE</ntsc>
              </rate>
              <media>
                <audio>
                  <channelcount>1</channelcount>
                  <samplecharacteristics>
                    <samplerate>24000</samplerate>
                    <samplesize>16</samplesize>
                  </samplecharacteristics>
                </audio>
              </media>
            </file>
            <sourcetrack>
              <mediatype>audio</mediatype>
              <trackindex>1</trackindex>
            </sourcetrack>
            <comments/>
          </clipitem>
          <clipitem id="clipitem-44">
            <name>OrionEp27_044.mp3</name>
            <enabled>TRUE</enabled>
            <duration>318</duration>
            <rate>
              <timebase>30</timebase>
              <ntsc>TRUE</ntsc>
            </rate>
            <start>11226</start>
            <end>11544</end>
            <in>0</in>
            <out>254663</out>
            <file id="file-44">
              <name>OrionEp27_044.mp3</name>
              <pathurl>file:///Users/delaxstudio/src/delax-ops/ops/media/orion/projects/OrionEp27/output/audio/OrionEp27_044.mp3</pathurl>
              <rate>
                <timebase>24000</timebase>
                <ntsc>FALSE</ntsc>
              </rate>
              <media>
                <audio>
                  <channelcount>1</channelcount>
                  <samplecharacteristics>
                    <samplerate>24000</samplerate>
                    <samplesize>16</samplesize>
                  </samplecharacteristics>
                </audio>
              </media>
            </file>
            <sourcetrack>
              <mediatype>audio</mediatype>
              <trackindex>1</trackindex>
            </sourcetrack>
            <comments/>
          </clipitem>
          <clipitem id="clipitem-45">
            <name>OrionEp27_045.mp3</name>
            <enabled>TRUE</enabled>
            <duration>183</duration>
            <rate>
              <timebase>30</timebase>
              <ntsc>TRUE</ntsc>
            </rate>
            <start>11554</start>
            <end>11737</end>
            <in>0</in>
            <out>146183</out>
            <file id="file-45">
              <name>OrionEp27_045.mp3</name>
              <pathurl>file:///Users/delaxstudio/src/delax-ops/ops/media/orion/projects/OrionEp27/output/audio/OrionEp27_045.mp3</pathurl>
              <rate>
                <timebase>24000</timebase>
                <ntsc>FALSE</ntsc>
              </rate>
              <media>
                <audio>
                  <channelcount>1</channelcount>
                  <samplecharacteristics>
                    <samplerate>24000</samplerate>
                    <samplesize>16</samplesize>
                  </samplecharacteristics>
                </audio>
              </media>
            </file>
            <sourcetrack>
              <mediatype>audio</mediatype>
              <trackindex>1</trackindex>
            </sourcetrack>
            <comments/>
          </clipitem>
          <clipitem id="clipitem-46">
            <name>OrionEp27_046.mp3</name>
            <enabled>TRUE</enabled>
            <duration>494</duration>
            <rate>
              <timebase>30</timebase>
              <ntsc>TRUE</ntsc>
            </rate>
            <start>11747</start>
            <end>12241</end>
            <in>0</in>
            <out>395783</out>
            <file id="file-46">
              <name>OrionEp27_046.mp3</name>
              <pathurl>file:///Users/delaxstudio/src/delax-ops/ops/media/orion/projects/OrionEp27/output/audio/OrionEp27_046.mp3</pathurl>
              <rate>
                <timebase>24000</timebase>
                <ntsc>FALSE</ntsc>
              </rate>
              <media>
                <audio>
                  <channelcount>1</channelcount>
                  <samplecharacteristics>
                    <samplerate>24000</samplerate>
                    <samplesize>16</samplesize>
                  </samplecharacteristics>
                </audio>
              </media>
            </file>
            <sourcetrack>
              <mediatype>audio</mediatype>
              <trackindex>1</trackindex>
            </sourcetrack>
            <comments/>
          </clipitem>
          <clipitem id="clipitem-47">
            <name>OrionEp27_047.mp3</name>
            <enabled>TRUE</enabled>
            <duration>145</duration>
            <rate>
              <timebase>30</timebase>
              <ntsc>TRUE</ntsc>
            </rate>
            <start>12251</start>
            <end>12396</end>
            <in>0</in>
            <out>116423</out>
            <file id="file-47">
              <name>OrionEp27_047.mp3</name>
              <pathurl>file:///Users/delaxstudio/src/delax-ops/ops/media/orion/projects/OrionEp27/output/audio/OrionEp27_047.mp3</pathurl>
              <rate>
                <timebase>24000</timebase>
                <ntsc>FALSE</ntsc>
              </rate>
              <media>
                <audio>
                  <channelcount>1</channelcount>
                  <samplecharacteristics>
                    <samplerate>24000</samplerate>
                    <samplesize>16</samplesize>
                  </samplecharacteristics>
                </audio>
              </media>
            </file>
            <sourcetrack>
              <mediatype>audio</mediatype>
              <trackindex>1</trackindex>
            </sourcetrack>
            <comments/>
          </clipitem>
          <clipitem id="clipitem-48">
            <name>OrionEp27_048.mp3</name>
            <enabled>TRUE</enabled>
            <duration>339</duration>
            <rate>
              <timebase>30</timebase>
              <ntsc>TRUE</ntsc>
            </rate>
            <start>12406</start>
            <end>12745</end>
            <in>0</in>
            <out>270983</out>
            <file id="file-48">
              <name>OrionEp27_048.mp3</name>
              <pathurl>file:///Users/delaxstudio/src/delax-ops/ops/media/orion/projects/OrionEp27/output/audio/OrionEp27_048.mp3</pathurl>
              <rate>
                <timebase>24000</timebase>
                <ntsc>FALSE</ntsc>
              </rate>
              <media>
                <audio>
                  <channelcount>1</channelcount>
                  <samplecharacteristics>
                    <samplerate>24000</samplerate>
                    <samplesize>16</samplesize>
                  </samplecharacteristics>
                </audio>
              </media>
            </file>
            <sourcetrack>
              <mediatype>audio</mediatype>
              <trackindex>1</trackindex>
            </sourcetrack>
            <comments/>
          </clipitem>
        </track>
      </audio>
    </media>
  </sequence>
</xmeml>
