<?xml version="1.0" ?>
<xmeml version="4">
  <sequence>
    <uuid>OrionEp24_timeline</uuid>
    <duration>14528</duration>
    <name>OrionEp24_timeline</name>
    <rate>
      <timebase>30</timebase>
      <ntsc>TRUE</ntsc>
    </rate>
    <media>
      <video>
        <format/>
        <track>
          <generatoritem id="subtitle-1">
            <name>Subtitle 1</name>
            <enabled>TRUE</enabled>
            <duration>117</duration>
            <rate>
              <timebase>30</timebase>
              <ntsc>TRUE</ntsc>
            </rate>
            <start>0</start>
            <end>117</end>
            <in>0</in>
            <out>117</out>
            <effect>
              <name>Text</name>
              <effectid>Text</effectid>
              <effectcategory>Text</effectcategory>
              <effecttype>generator</effecttype>
              <mediatype>video</mediatype>
              <parameter>
                <parameterid>str</parameterid>
                <name>Text</name>
                <value>『来月から 地方の支店に異動してもらう』</value>
              </parameter>
            </effect>
          </generatoritem>
          <generatoritem id="subtitle-2">
            <name>Subtitle 2</name>
            <enabled>TRUE</enabled>
            <duration>117</duration>
            <rate>
              <timebase>30</timebase>
              <ntsc>TRUE</ntsc>
            </rate>
            <start>117</start>
            <end>234</end>
            <in>0</in>
            <out>117</out>
            <effect>
              <name>Text</name>
              <effectid>Text</effectid>
              <effectcategory>Text</effectcategory>
              <effecttype>generator</effecttype>
              <mediatype>video</mediatype>
              <parameter>
                <parameterid>str</parameterid>
                <name>Text</name>
                <value>その言葉を聞いた瞬間 頭が真っ白になった</value>
              </parameter>
            </effect>
          </generatoritem>
          <generatoritem id="subtitle-3">
            <name>Subtitle 3</name>
            <enabled>TRUE</enabled>
            <duration>149</duration>
            <rate>
              <timebase>30</timebase>
              <ntsc>TRUE</ntsc>
            </rate>
            <start>244</start>
            <end>393</end>
            <in>0</in>
            <out>149</out>
            <effect>
              <name>Text</name>
              <effectid>Text</effectid>
              <effectcategory>Text</effectcategory>
              <effecttype>generator</effecttype>
              <mediatype>video</mediatype>
              <parameter>
                <parameterid>str</parameterid>
                <name>Text</name>
                <value>希望していない異動 左遷としか思えない配置転換</value>
              </parameter>
            </effect>
          </generatoritem>
          <generatoritem id="subtitle-4">
            <name>Subtitle 4</name>
            <enabled>TRUE</enabled>
            <duration>88</duration>
            <rate>
              <timebase>30</timebase>
              <ntsc>TRUE</ntsc>
            </rate>
            <start>403</start>
            <end>491</end>
            <in>0</in>
            <out>88</out>
            <effect>
              <name>Text</name>
              <effectid>Text</effectid>
              <effectcategory>Text</effectcategory>
              <effecttype>generator</effecttype>
              <mediatype>video</mediatype>
              <parameter>
                <parameterid>str</parameterid>
                <name>Text</name>
                <value>自分は 何か間違ったのだろうか</value>
              </parameter>
            </effect>
          </generatoritem>
          <generatoritem id="subtitle-5">
            <name>Subtitle 5</name>
            <enabled>TRUE</enabled>
            <duration>205</duration>
            <rate>
              <timebase>30</timebase>
              <ntsc>TRUE</ntsc>
            </rate>
            <start>501</start>
            <end>706</end>
            <in>0</in>
            <out>205</out>
            <effect>
              <name>Text</name>
              <effectid>Text</effectid>
              <effectcategory>Text</effectcategory>
              <effecttype>generator</effecttype>
              <mediatype>video</mediatype>
              <parameter>
                <parameterid>str</parameterid>
                <name>Text</name>
                <value>ようこそ オリオンの会議室へ 今夜のテーマは『異動という名の流刑』</value>
              </parameter>
            </effect>
          </generatoritem>
          <generatoritem id="subtitle-6">
            <name>Subtitle 6</name>
            <enabled>TRUE</enabled>
            <duration>205</duration>
            <rate>
              <timebase>30</timebase>
              <ntsc>TRUE</ntsc>
            </rate>
            <start>716</start>
            <end>921</end>
            <in>0</in>
            <out>205</out>
            <effect>
              <name>Text</name>
              <effectid>Text</effectid>
              <effectcategory>Text</effectcategory>
              <effecttype>generator</effecttype>
              <mediatype>video</mediatype>
              <parameter>
                <parameterid>str</parameterid>
                <name>Text</name>
                <value>古今東西の叡智を星座のように結び 現代の悩みに新しい視座を見つける8分間</value>
              </parameter>
            </effect>
          </generatoritem>
          <generatoritem id="subtitle-7">
            <name>Subtitle 7</name>
            <enabled>TRUE</enabled>
            <duration>121</duration>
            <rate>
              <timebase>30</timebase>
              <ntsc>TRUE</ntsc>
            </rate>
            <start>931</start>
            <end>1052</end>
            <in>0</in>
            <out>121</out>
            <effect>
              <name>Text</name>
              <effectid>Text</effectid>
              <effectcategory>Text</effectcategory>
              <effecttype>generator</effecttype>
              <mediatype>video</mediatype>
              <parameter>
                <parameterid>str</parameterid>
                <name>Text</name>
                <value>今夜めぐる星々は——</value>
              </parameter>
            </effect>
          </generatoritem>
          <generatoritem id="subtitle-8">
            <name>Subtitle 8</name>
            <enabled>TRUE</enabled>
            <duration>121</duration>
            <rate>
              <timebase>30</timebase>
              <ntsc>TRUE</ntsc>
            </rate>
            <start>1052</start>
            <end>1173</end>
            <in>0</in>
            <out>121</out>
            <effect>
              <name>Text</name>
              <effectid>Text</effectid>
              <effectcategory>Text</effectcategory>
              <effecttype>generator</effecttype>
              <mediatype>video</mediatype>
              <parameter>
                <parameterid>str</parameterid>
                <name>Text</name>
                <value>『人生は苦痛と退屈の間を揺れる振り子だ』という洞察</value>
              </parameter>
            </effect>
          </generatoritem>
          <generatoritem id="subtitle-9">
            <name>Subtitle 9</name>
            <enabled>TRUE</enabled>
            <duration>122</duration>
            <rate>
              <timebase>30</timebase>
              <ntsc>TRUE</ntsc>
            </rate>
            <start>1173</start>
            <end>1295</end>
            <in>0</in>
            <out>122</out>
            <effect>
              <name>Text</name>
              <effectid>Text</effectid>
              <effectcategory>Text</effectcategory>
              <effecttype>generator</effecttype>
              <mediatype>video</mediatype>
              <parameter>
                <parameterid>str</parameterid>
                <name>Text</name>
                <value>極限状態で『意味』を問い続けた精神科医の記録</value>
              </parameter>
            </effect>
          </generatoritem>
          <generatoritem id="subtitle-10">
            <name>Subtitle 10</name>
            <enabled>TRUE</enabled>
            <duration>134</duration>
            <rate>
              <timebase>30</timebase>
              <ntsc>TRUE</ntsc>
            </rate>
            <start>1305</start>
            <end>1439</end>
            <in>0</in>
            <out>134</out>
            <effect>
              <name>Text</name>
              <effectid>Text</effectid>
              <effectcategory>Text</effectcategory>
              <effecttype>generator</effecttype>
              <mediatype>video</mediatype>
              <parameter>
                <parameterid>str</parameterid>
                <name>Text</name>
                <value>進化の『転用』という 予想外の飛躍</value>
              </parameter>
            </effect>
          </generatoritem>
          <generatoritem id="subtitle-11">
            <name>Subtitle 11</name>
            <enabled>TRUE</enabled>
            <duration>135</duration>
            <rate>
              <timebase>30</timebase>
              <ntsc>TRUE</ntsc>
            </rate>
            <start>1439</start>
            <end>1574</end>
            <in>0</in>
            <out>135</out>
            <effect>
              <name>Text</name>
              <effectid>Text</effectid>
              <effectcategory>Text</effectcategory>
              <effecttype>generator</effecttype>
              <mediatype>video</mediatype>
              <parameter>
                <parameterid>str</parameterid>
                <name>Text</name>
                <value>そして 『どこにいても主人となれ』という禅の教え</value>
              </parameter>
            </effect>
          </generatoritem>
          <generatoritem id="subtitle-12">
            <name>Subtitle 12</name>
            <enabled>TRUE</enabled>
            <duration>200</duration>
            <rate>
              <timebase>30</timebase>
              <ntsc>TRUE</ntsc>
            </rate>
            <start>1584</start>
            <end>1784</end>
            <in>0</in>
            <out>200</out>
            <effect>
              <name>Text</name>
              <effectid>Text</effectid>
              <effectcategory>Text</effectcategory>
              <effecttype>generator</effecttype>
              <mediatype>video</mediatype>
              <parameter>
                <parameterid>str</parameterid>
                <name>Text</name>
                <value>バラバラの星々が 『望まない場所』に立たされた時の 生き方を照らし始めます</value>
              </parameter>
            </effect>
          </generatoritem>
          <generatoritem id="subtitle-13">
            <name>Subtitle 13</name>
            <enabled>TRUE</enabled>
            <duration>106</duration>
            <rate>
              <timebase>30</timebase>
              <ntsc>TRUE</ntsc>
            </rate>
            <start>1794</start>
            <end>1900</end>
            <in>0</in>
            <out>106</out>
            <effect>
              <name>Text</name>
              <effectid>Text</effectid>
              <effectcategory>Text</effectcategory>
              <effecttype>generator</effecttype>
              <mediatype>video</mediatype>
              <parameter>
                <parameterid>str</parameterid>
                <name>Text</name>
                <value>金曜日の夕方 上司に呼ばれた</value>
              </parameter>
            </effect>
          </generatoritem>
          <generatoritem id="subtitle-14">
            <name>Subtitle 14</name>
            <enabled>TRUE</enabled>
            <duration>106</duration>
            <rate>
              <timebase>30</timebase>
              <ntsc>TRUE</ntsc>
            </rate>
            <start>1900</start>
            <end>2006</end>
            <in>0</in>
            <out>106</out>
            <effect>
              <name>Text</name>
              <effectid>Text</effectid>
              <effectcategory>Text</effectcategory>
              <effecttype>generator</effecttype>
              <mediatype>video</mediatype>
              <parameter>
                <parameterid>str</parameterid>
                <name>Text</name>
                <value>『来期から 九州の支店に行ってもらいたい』</value>
              </parameter>
            </effect>
          </generatoritem>
          <generatoritem id="subtitle-15">
            <name>Subtitle 15</name>
            <enabled>TRUE</enabled>
            <duration>72</duration>
            <rate>
              <timebase>30</timebase>
              <ntsc>TRUE</ntsc>
            </rate>
            <start>2016</start>
            <end>2088</end>
            <in>0</in>
            <out>72</out>
            <effect>
              <name>Text</name>
              <effectid>Text</effectid>
              <effectcategory>Text</effectcategory>
              <effecttype>generator</effecttype>
              <mediatype>video</mediatype>
              <parameter>
                <parameterid>str</parameterid>
                <name>Text</name>
                <value>九州 東京から遠く離れた場所</value>
              </parameter>
            </effect>
          </generatoritem>
          <generatoritem id="subtitle-16">
            <name>Subtitle 16</name>
            <enabled>TRUE</enabled>
            <duration>71</duration>
            <rate>
              <timebase>30</timebase>
              <ntsc>TRUE</ntsc>
            </rate>
            <start>2088</start>
            <end>2159</end>
            <in>0</in>
            <out>71</out>
            <effect>
              <name>Text</name>
              <effectid>Text</effectid>
              <effectcategory>Text</effectcategory>
              <effecttype>generator</effecttype>
              <mediatype>video</mediatype>
              <parameter>
                <parameterid>str</parameterid>
                <name>Text</name>
                <value>今まで築いてきた人脈 進めていたプロジェクト すべてがリセットされる</value>
              </parameter>
            </effect>
          </generatoritem>
          <generatoritem id="subtitle-17">
            <name>Subtitle 17</name>
            <enabled>TRUE</enabled>
            <duration>71</duration>
            <rate>
              <timebase>30</timebase>
              <ntsc>TRUE</ntsc>
            </rate>
            <start>2159</start>
            <end>2230</end>
            <in>0</in>
            <out>71</out>
            <effect>
              <name>Text</name>
              <effectid>Text</effectid>
              <effectcategory>Text</effectcategory>
              <effecttype>generator</effecttype>
              <mediatype>video</mediatype>
              <parameter>
                <parameterid>str</parameterid>
                <name>Text</name>
                <value>19世紀 フランクフルト</value>
              </parameter>
            </effect>
          </generatoritem>
          <generatoritem id="subtitle-18">
            <name>Subtitle 18</name>
            <enabled>TRUE</enabled>
            <duration>71</duration>
            <rate>
              <timebase>30</timebase>
              <ntsc>TRUE</ntsc>
            </rate>
            <start>2230</start>
            <end>2301</end>
            <in>0</in>
            <out>71</out>
            <effect>
              <name>Text</name>
              <effectid>Text</effectid>
              <effectcategory>Text</effectcategory>
              <effecttype>generator</effecttype>
              <mediatype>video</mediatype>
              <parameter>
                <parameterid>str</parameterid>
                <name>Text</name>
                <value>アルトゥール・ショーペンハウアーは 大学で講義を開いても学生が集まらず</value>
              </parameter>
            </effect>
          </generatoritem>
          <generatoritem id="subtitle-19">
            <name>Subtitle 19</name>
            <enabled>TRUE</enabled>
            <duration>119</duration>
            <rate>
              <timebase>30</timebase>
              <ntsc>TRUE</ntsc>
            </rate>
            <start>2311</start>
            <end>2430</end>
            <in>0</in>
            <out>119</out>
            <effect>
              <name>Text</name>
              <effectid>Text</effectid>
              <effectcategory>Text</effectcategory>
              <effecttype>generator</effecttype>
              <mediatype>video</mediatype>
              <parameter>
                <parameterid>str</parameterid>
                <name>Text</name>
                <value>『君の力が必要なんだ』と上司は言う</value>
              </parameter>
            </effect>
          </generatoritem>
          <generatoritem id="subtitle-20">
            <name>Subtitle 20</name>
            <enabled>TRUE</enabled>
            <duration>118</duration>
            <rate>
              <timebase>30</timebase>
              <ntsc>TRUE</ntsc>
            </rate>
            <start>2430</start>
            <end>2548</end>
            <in>0</in>
            <out>118</out>
            <effect>
              <name>Text</name>
              <effectid>Text</effectid>
              <effectcategory>Text</effectcategory>
              <effecttype>generator</effecttype>
              <mediatype>video</mediatype>
              <parameter>
                <parameterid>str</parameterid>
                <name>Text</name>
                <value>でも それが本当かどうか 分からない</value>
              </parameter>
            </effect>
          </generatoritem>
          <generatoritem id="subtitle-21">
            <name>Subtitle 21</name>
            <enabled>TRUE</enabled>
            <duration>118</duration>
            <rate>
              <timebase>30</timebase>
              <ntsc>TRUE</ntsc>
            </rate>
            <start>2548</start>
            <end>2666</end>
            <in>0</in>
            <out>118</out>
            <effect>
              <name>Text</name>
              <effectid>Text</effectid>
              <effectcategory>Text</effectcategory>
              <effecttype>generator</effecttype>
              <mediatype>video</mediatype>
              <parameter>
                <parameterid>str</parameterid>
                <name>Text</name>
                <value>誰かに押し出されたのか 自分の評価が低かったのか</value>
              </parameter>
            </effect>
          </generatoritem>
          <generatoritem id="subtitle-22">
            <name>Subtitle 22</name>
            <enabled>TRUE</enabled>
            <duration>81</duration>
            <rate>
              <timebase>30</timebase>
              <ntsc>TRUE</ntsc>
            </rate>
            <start>2676</start>
            <end>2757</end>
            <in>0</in>
            <out>81</out>
            <effect>
              <name>Text</name>
              <effectid>Text</effectid>
              <effectcategory>Text</effectcategory>
              <effecttype>generator</effecttype>
              <mediatype>video</mediatype>
              <parameter>
                <parameterid>str</parameterid>
                <name>Text</name>
                <value>週末 引っ越しの準備をしながら 何度も同じ問いが頭をよぎる</value>
              </parameter>
            </effect>
          </generatoritem>
          <generatoritem id="subtitle-23">
            <name>Subtitle 23</name>
            <enabled>TRUE</enabled>
            <duration>81</duration>
            <rate>
              <timebase>30</timebase>
              <ntsc>TRUE</ntsc>
            </rate>
            <start>2757</start>
            <end>2838</end>
            <in>0</in>
            <out>81</out>
            <effect>
              <name>Text</name>
              <effectid>Text</effectid>
              <effectcategory>Text</effectcategory>
              <effecttype>generator</effecttype>
              <mediatype>video</mediatype>
              <parameter>
                <parameterid>str</parameterid>
                <name>Text</name>
                <value>Das Leben schwingt also, gleich einem Pendel,</value>
              </parameter>
            </effect>
          </generatoritem>
          <generatoritem id="subtitle-24">
            <name>Subtitle 24</name>
            <enabled>TRUE</enabled>
            <duration>30</duration>
            <rate>
              <timebase>30</timebase>
              <ntsc>TRUE</ntsc>
            </rate>
            <start>2848</start>
            <end>2878</end>
            <in>0</in>
            <out>30</out>
            <effect>
              <name>Text</name>
              <effectid>Text</effectid>
              <effectcategory>Text</effectcategory>
              <effecttype>generator</effecttype>
              <mediatype>video</mediatype>
              <parameter>
                <parameterid>str</parameterid>
                <name>Text</name>
                <value>『なぜ 自分なのか』</value>
              </parameter>
            </effect>
          </generatoritem>
          <generatoritem id="subtitle-25">
            <name>Subtitle 25</name>
            <enabled>TRUE</enabled>
            <duration>30</duration>
            <rate>
              <timebase>30</timebase>
              <ntsc>TRUE</ntsc>
            </rate>
            <start>2878</start>
            <end>2908</end>
            <in>0</in>
            <out>30</out>
            <effect>
              <name>Text</name>
              <effectid>Text</effectid>
              <effectcategory>Text</effectcategory>
              <effecttype>generator</effecttype>
              <mediatype>video</mediatype>
              <parameter>
                <parameterid>str</parameterid>
                <name>Text</name>
                <value>hin und her, zwischen dem Schmerz und der Langenweile.</value>
              </parameter>
            </effect>
          </generatoritem>
          <generatoritem id="subtitle-26">
            <name>Subtitle 26</name>
            <enabled>TRUE</enabled>
            <duration>253</duration>
            <rate>
              <timebase>30</timebase>
              <ntsc>TRUE</ntsc>
            </rate>
            <start>3083</start>
            <end>3336</end>
            <in>0</in>
            <out>253</out>
            <effect>
              <name>Text</name>
              <effectid>Text</effectid>
              <effectcategory>Text</effectcategory>
              <effecttype>generator</effecttype>
              <mediatype>video</mediatype>
              <parameter>
                <parameterid>str</parameterid>
                <name>Text</name>
                <value>母親との確執で家を追い出され 孤独な日々を送っていました</value>
              </parameter>
            </effect>
          </generatoritem>
          <generatoritem id="subtitle-27">
            <name>Subtitle 27</name>
            <enabled>TRUE</enabled>
            <duration>55</duration>
            <rate>
              <timebase>30</timebase>
              <ntsc>TRUE</ntsc>
            </rate>
            <start>3346</start>
            <end>3401</end>
            <in>0</in>
            <out>55</out>
            <effect>
              <name>Text</name>
              <effectid>Text</effectid>
              <effectcategory>Text</effectcategory>
              <effecttype>generator</effecttype>
              <mediatype>video</mediatype>
              <parameter>
                <parameterid>str</parameterid>
                <name>Text</name>
                <value>世間から無視され続けた哲学者</value>
              </parameter>
            </effect>
          </generatoritem>
          <generatoritem id="subtitle-28">
            <name>Subtitle 28</name>
            <enabled>TRUE</enabled>
            <duration>56</duration>
            <rate>
              <timebase>30</timebase>
              <ntsc>TRUE</ntsc>
            </rate>
            <start>3401</start>
            <end>3457</end>
            <in>0</in>
            <out>56</out>
            <effect>
              <name>Text</name>
              <effectid>Text</effectid>
              <effectcategory>Text</effectcategory>
              <effecttype>generator</effecttype>
              <mediatype>video</mediatype>
              <parameter>
                <parameterid>str</parameterid>
                <name>Text</name>
                <value>その彼が 人生の本質を見抜きます</value>
              </parameter>
            </effect>
          </generatoritem>
          <generatoritem id="subtitle-29">
            <name>Subtitle 29</name>
            <enabled>TRUE</enabled>
            <duration>55</duration>
            <rate>
              <timebase>30</timebase>
              <ntsc>TRUE</ntsc>
            </rate>
            <start>3457</start>
            <end>3512</end>
            <in>0</in>
            <out>55</out>
            <effect>
              <name>Text</name>
              <effectid>Text</effectid>
              <effectcategory>Text</effectcategory>
              <effecttype>generator</effecttype>
              <mediatype>video</mediatype>
              <parameter>
                <parameterid>str</parameterid>
                <name>Text</name>
                <value>しかし もしその異動がなければ?</value>
              </parameter>
            </effect>
          </generatoritem>
          <generatoritem id="subtitle-30">
            <name>Subtitle 30</name>
            <enabled>TRUE</enabled>
            <duration>55</duration>
            <rate>
              <timebase>30</timebase>
              <ntsc>TRUE</ntsc>
            </rate>
            <start>3512</start>
            <end>3567</end>
            <in>0</in>
            <out>55</out>
            <effect>
              <name>Text</name>
              <effectid>Text</effectid>
              <effectcategory>Text</effectcategory>
              <effecttype>generator</effecttype>
              <mediatype>video</mediatype>
              <parameter>
                <parameterid>str</parameterid>
                <name>Text</name>
                <value>同じ場所で 同じ仕事を 何年も続ける</value>
              </parameter>
            </effect>
          </generatoritem>
          <generatoritem id="subtitle-31">
            <name>Subtitle 31</name>
            <enabled>TRUE</enabled>
            <duration>87</duration>
            <rate>
              <timebase>30</timebase>
              <ntsc>TRUE</ntsc>
            </rate>
            <start>3577</start>
            <end>3664</end>
            <in>0</in>
            <out>87</out>
            <effect>
              <name>Text</name>
              <effectid>Text</effectid>
              <effectcategory>Text</effectcategory>
              <effecttype>generator</effecttype>
              <mediatype>video</mediatype>
              <parameter>
                <parameterid>str</parameterid>
                <name>Text</name>
                <value>——『人生は振り子のように 苦痛と退屈の間を揺れ動く』</value>
              </parameter>
            </effect>
          </generatoritem>
          <generatoritem id="subtitle-32">
            <name>Subtitle 32</name>
            <enabled>TRUE</enabled>
            <duration>88</duration>
            <rate>
              <timebase>30</timebase>
              <ntsc>TRUE</ntsc>
            </rate>
            <start>3664</start>
            <end>3752</end>
            <in>0</in>
            <out>88</out>
            <effect>
              <name>Text</name>
              <effectid>Text</effectid>
              <effectcategory>Text</effectcategory>
              <effecttype>generator</effecttype>
              <mediatype>video</mediatype>
              <parameter>
                <parameterid>str</parameterid>
                <name>Text</name>
                <value>それは『退屈』という別の苦しみに 変わっていたかもしれません</value>
              </parameter>
            </effect>
          </generatoritem>
          <generatoritem id="subtitle-33">
            <name>Subtitle 33</name>
            <enabled>TRUE</enabled>
            <duration>122</duration>
            <rate>
              <timebase>30</timebase>
              <ntsc>TRUE</ntsc>
            </rate>
            <start>3762</start>
            <end>3884</end>
            <in>0</in>
            <out>122</out>
            <effect>
              <name>Text</name>
              <effectid>Text</effectid>
              <effectcategory>Text</effectcategory>
              <effecttype>generator</effecttype>
              <mediatype>video</mediatype>
              <parameter>
                <parameterid>str</parameterid>
                <name>Text</name>
                <value>欲望が満たされないと 苦痛</value>
              </parameter>
            </effect>
          </generatoritem>
          <generatoritem id="subtitle-34">
            <name>Subtitle 34</name>
            <enabled>TRUE</enabled>
            <duration>122</duration>
            <rate>
              <timebase>30</timebase>
              <ntsc>TRUE</ntsc>
            </rate>
            <start>3884</start>
            <end>4006</end>
            <in>0</in>
            <out>122</out>
            <effect>
              <name>Text</name>
              <effectid>Text</effectid>
              <effectcategory>Text</effectcategory>
              <effecttype>generator</effecttype>
              <mediatype>video</mediatype>
              <parameter>
                <parameterid>str</parameterid>
                <name>Text</name>
                <value>満たされると 退屈</value>
              </parameter>
            </effect>
          </generatoritem>
          <generatoritem id="subtitle-35">
            <name>Subtitle 35</name>
            <enabled>TRUE</enabled>
            <duration>123</duration>
            <rate>
              <timebase>30</timebase>
              <ntsc>TRUE</ntsc>
            </rate>
            <start>4006</start>
            <end>4129</end>
            <in>0</in>
            <out>123</out>
            <effect>
              <name>Text</name>
              <effectid>Text</effectid>
              <effectcategory>Text</effectcategory>
              <effecttype>generator</effecttype>
              <mediatype>video</mediatype>
              <parameter>
                <parameterid>str</parameterid>
                <name>Text</name>
                <value>人間は どちらかから逃れても もう一方に捕まってしまう</value>
              </parameter>
            </effect>
          </generatoritem>
          <generatoritem id="subtitle-36">
            <name>Subtitle 36</name>
            <enabled>TRUE</enabled>
            <duration>122</duration>
            <rate>
              <timebase>30</timebase>
              <ntsc>TRUE</ntsc>
            </rate>
            <start>4129</start>
            <end>4251</end>
            <in>0</in>
            <out>122</out>
            <effect>
              <name>Text</name>
              <effectid>Text</effectid>
              <effectcategory>Text</effectcategory>
              <effecttype>generator</effecttype>
              <mediatype>video</mediatype>
              <parameter>
                <parameterid>str</parameterid>
                <name>Text</name>
                <value>異動の辞令は『苦痛』です</value>
              </parameter>
            </effect>
          </generatoritem>
          <generatoritem id="subtitle-37">
            <name>Subtitle 37</name>
            <enabled>TRUE</enabled>
            <duration>122</duration>
            <rate>
              <timebase>30</timebase>
              <ntsc>TRUE</ntsc>
            </rate>
            <start>4251</start>
            <end>4373</end>
            <in>0</in>
            <out>122</out>
            <effect>
              <name>Text</name>
              <effectid>Text</effectid>
              <effectcategory>Text</effectcategory>
              <effecttype>generator</effecttype>
              <mediatype>video</mediatype>
              <parameter>
                <parameterid>str</parameterid>
                <name>Text</name>
                <value>望まない変化 慣れ親しんだ場所からの引き離し</value>
              </parameter>
            </effect>
          </generatoritem>
          <generatoritem id="subtitle-38">
            <name>Subtitle 38</name>
            <enabled>TRUE</enabled>
            <duration>123</duration>
            <rate>
              <timebase>30</timebase>
              <ntsc>TRUE</ntsc>
            </rate>
            <start>4373</start>
            <end>4496</end>
            <in>0</in>
            <out>123</out>
            <effect>
              <name>Text</name>
              <effectid>Text</effectid>
              <effectcategory>Text</effectcategory>
              <effecttype>generator</effecttype>
              <mediatype>video</mediatype>
              <parameter>
                <parameterid>str</parameterid>
                <name>Text</name>
                <value>1944年 アウシュヴィッツ</value>
              </parameter>
            </effect>
          </generatoritem>
          <generatoritem id="subtitle-39">
            <name>Subtitle 39</name>
            <enabled>TRUE</enabled>
            <duration>122</duration>
            <rate>
              <timebase>30</timebase>
              <ntsc>TRUE</ntsc>
            </rate>
            <start>4496</start>
            <end>4618</end>
            <in>0</in>
            <out>122</out>
            <effect>
              <name>Text</name>
              <effectid>Text</effectid>
              <effectcategory>Text</effectcategory>
              <effecttype>generator</effecttype>
              <mediatype>video</mediatype>
              <parameter>
                <parameterid>str</parameterid>
                <name>Text</name>
                <value>精神科医ヴィクトール・フランクルは 収容所の門をくぐりました</value>
              </parameter>
            </effect>
          </generatoritem>
          <generatoritem id="subtitle-40">
            <name>Subtitle 40</name>
            <enabled>TRUE</enabled>
            <duration>99</duration>
            <rate>
              <timebase>30</timebase>
              <ntsc>TRUE</ntsc>
            </rate>
            <start>4628</start>
            <end>4727</end>
            <in>0</in>
            <out>99</out>
            <effect>
              <name>Text</name>
              <effectid>Text</effectid>
              <effectcategory>Text</effectcategory>
              <effecttype>generator</effecttype>
              <mediatype>video</mediatype>
              <parameter>
                <parameterid>str</parameterid>
                <name>Text</name>
                <value>どこにいても 振り子は揺れる</value>
              </parameter>
            </effect>
          </generatoritem>
          <generatoritem id="subtitle-41">
            <name>Subtitle 41</name>
            <enabled>TRUE</enabled>
            <duration>99</duration>
            <rate>
              <timebase>30</timebase>
              <ntsc>TRUE</ntsc>
            </rate>
            <start>4727</start>
            <end>4826</end>
            <in>0</in>
            <out>99</out>
            <effect>
              <name>Text</name>
              <effectid>Text</effectid>
              <effectcategory>Text</effectcategory>
              <effecttype>generator</effecttype>
              <mediatype>video</mediatype>
              <parameter>
                <parameterid>str</parameterid>
                <name>Text</name>
                <value>ならば 『ここではないどこか』を夢見ても 仕方がない</value>
              </parameter>
            </effect>
          </generatoritem>
          <generatoritem id="subtitle-42">
            <name>Subtitle 42</name>
            <enabled>TRUE</enabled>
            <duration>104</duration>
            <rate>
              <timebase>30</timebase>
              <ntsc>TRUE</ntsc>
            </rate>
            <start>5109</start>
            <end>5213</end>
            <in>0</in>
            <out>104</out>
            <effect>
              <name>Text</name>
              <effectid>Text</effectid>
              <effectcategory>Text</effectcategory>
              <effecttype>generator</effecttype>
              <mediatype>video</mediatype>
              <parameter>
                <parameterid>str</parameterid>
                <name>Text</name>
                <value>妻 両親 兄弟—— 家族のほとんどを失うことになる場所です</value>
              </parameter>
            </effect>
          </generatoritem>
          <generatoritem id="subtitle-43">
            <name>Subtitle 43</name>
            <enabled>TRUE</enabled>
            <duration>103</duration>
            <rate>
              <timebase>30</timebase>
              <ntsc>TRUE</ntsc>
            </rate>
            <start>5213</start>
            <end>5316</end>
            <in>0</in>
            <out>103</out>
            <effect>
              <name>Text</name>
              <effectid>Text</effectid>
              <effectcategory>Text</effectcategory>
              <effecttype>generator</effecttype>
              <mediatype>video</mediatype>
              <parameter>
                <parameterid>str</parameterid>
                <name>Text</name>
                <value>Wer ein Warum zu leben hat, erträgt fast jedes Wie.</value>
              </parameter>
            </effect>
          </generatoritem>
          <generatoritem id="subtitle-44">
            <name>Subtitle 44</name>
            <enabled>TRUE</enabled>
            <duration>78</duration>
            <rate>
              <timebase>30</timebase>
              <ntsc>TRUE</ntsc>
            </rate>
            <start>5326</start>
            <end>5404</end>
            <in>0</in>
            <out>78</out>
            <effect>
              <name>Text</name>
              <effectid>Text</effectid>
              <effectcategory>Text</effectcategory>
              <effecttype>generator</effecttype>
              <mediatype>video</mediatype>
              <parameter>
                <parameterid>str</parameterid>
                <name>Text</name>
                <value>極限状態の中で 彼はある違いに気づきます</value>
              </parameter>
            </effect>
          </generatoritem>
          <generatoritem id="subtitle-45">
            <name>Subtitle 45</name>
            <enabled>TRUE</enabled>
            <duration>77</duration>
            <rate>
              <timebase>30</timebase>
              <ntsc>TRUE</ntsc>
            </rate>
            <start>5404</start>
            <end>5481</end>
            <in>0</in>
            <out>77</out>
            <effect>
              <name>Text</name>
              <effectid>Text</effectid>
              <effectcategory>Text</effectcategory>
              <effecttype>generator</effecttype>
              <mediatype>video</mediatype>
              <parameter>
                <parameterid>str</parameterid>
                <name>Text</name>
                <value>生き延びた人と そうでない人</value>
              </parameter>
            </effect>
          </generatoritem>
          <generatoritem id="subtitle-46">
            <name>Subtitle 46</name>
            <enabled>TRUE</enabled>
            <duration>77</duration>
            <rate>
              <timebase>30</timebase>
              <ntsc>TRUE</ntsc>
            </rate>
            <start>5481</start>
            <end>5558</end>
            <in>0</in>
            <out>77</out>
            <effect>
              <name>Text</name>
              <effectid>Text</effectid>
              <effectcategory>Text</effectcategory>
              <effecttype>generator</effecttype>
              <mediatype>video</mediatype>
              <parameter>
                <parameterid>str</parameterid>
                <name>Text</name>
                <value>その差は 体力ではなかった</value>
              </parameter>
            </effect>
          </generatoritem>
          <generatoritem id="subtitle-47">
            <name>Subtitle 47</name>
            <enabled>TRUE</enabled>
            <duration>77</duration>
            <rate>
              <timebase>30</timebase>
              <ntsc>TRUE</ntsc>
            </rate>
            <start>5558</start>
            <end>5635</end>
            <in>0</in>
            <out>77</out>
            <effect>
              <name>Text</name>
              <effectid>Text</effectid>
              <effectcategory>Text</effectcategory>
              <effecttype>generator</effecttype>
              <mediatype>video</mediatype>
              <parameter>
                <parameterid>str</parameterid>
                <name>Text</name>
                <value>しかし 人間の心が『意味』を求めるメカニズムは 同じです</value>
              </parameter>
            </effect>
          </generatoritem>
          <generatoritem id="subtitle-48">
            <name>Subtitle 48</name>
            <enabled>TRUE</enabled>
            <duration>155</duration>
            <rate>
              <timebase>30</timebase>
              <ntsc>TRUE</ntsc>
            </rate>
            <start>5645</start>
            <end>5800</end>
            <in>0</in>
            <out>155</out>
            <effect>
              <name>Text</name>
              <effectid>Text</effectid>
              <effectcategory>Text</effectcategory>
              <effecttype>generator</effecttype>
              <mediatype>video</mediatype>
              <parameter>
                <parameterid>str</parameterid>
                <name>Text</name>
                <value>——『生きる"なぜ"を持つ者は ほとんどあらゆる"いかに"に耐えられる』</value>
              </parameter>
            </effect>
          </generatoritem>
          <generatoritem id="subtitle-49">
            <name>Subtitle 49</name>
            <enabled>TRUE</enabled>
            <duration>114</duration>
            <rate>
              <timebase>30</timebase>
              <ntsc>TRUE</ntsc>
            </rate>
            <start>5810</start>
            <end>5924</end>
            <in>0</in>
            <out>114</out>
            <effect>
              <name>Text</name>
              <effectid>Text</effectid>
              <effectcategory>Text</effectcategory>
              <effecttype>generator</effecttype>
              <mediatype>video</mediatype>
              <parameter>
                <parameterid>str</parameterid>
                <name>Text</name>
                <value>フランクルはこれを『意味への意志』と呼びました</value>
              </parameter>
            </effect>
          </generatoritem>
          <generatoritem id="subtitle-50">
            <name>Subtitle 50</name>
            <enabled>TRUE</enabled>
            <duration>115</duration>
            <rate>
              <timebase>30</timebase>
              <ntsc>TRUE</ntsc>
            </rate>
            <start>5934</start>
            <end>6049</end>
            <in>0</in>
            <out>115</out>
            <effect>
              <name>Text</name>
              <effectid>Text</effectid>
              <effectcategory>Text</effectcategory>
              <effecttype>generator</effecttype>
              <mediatype>video</mediatype>
              <parameter>
                <parameterid>str</parameterid>
                <name>Text</name>
                <value>もちろん 収容所と現代の職場を 同列には語れません</value>
              </parameter>
            </effect>
          </generatoritem>
          <generatoritem id="subtitle-51">
            <name>Subtitle 51</name>
            <enabled>TRUE</enabled>
            <duration>115</duration>
            <rate>
              <timebase>30</timebase>
              <ntsc>TRUE</ntsc>
            </rate>
            <start>6049</start>
            <end>6164</end>
            <in>0</in>
            <out>115</out>
            <effect>
              <name>Text</name>
              <effectid>Text</effectid>
              <effectcategory>Text</effectcategory>
              <effecttype>generator</effecttype>
              <mediatype>video</mediatype>
              <parameter>
                <parameterid>str</parameterid>
                <name>Text</name>
                <value>異動先で 何の意味も見いだせなければ 日々は苦痛でしかない</value>
              </parameter>
            </effect>
          </generatoritem>
          <generatoritem id="subtitle-52">
            <name>Subtitle 52</name>
            <enabled>TRUE</enabled>
            <duration>116</duration>
            <rate>
              <timebase>30</timebase>
              <ntsc>TRUE</ntsc>
            </rate>
            <start>6164</start>
            <end>6280</end>
            <in>0</in>
            <out>116</out>
            <effect>
              <name>Text</name>
              <effectid>Text</effectid>
              <effectcategory>Text</effectcategory>
              <effecttype>generator</effecttype>
              <mediatype>video</mediatype>
              <parameter>
                <parameterid>str</parameterid>
                <name>Text</name>
                <value>しかし その場所で『自分だけの意味』を 見つけることができれば</value>
              </parameter>
            </effect>
          </generatoritem>
          <generatoritem id="subtitle-53">
            <name>Subtitle 53</name>
            <enabled>TRUE</enabled>
            <duration>115</duration>
            <rate>
              <timebase>30</timebase>
              <ntsc>TRUE</ntsc>
            </rate>
            <start>6280</start>
            <end>6395</end>
            <in>0</in>
            <out>115</out>
            <effect>
              <name>Text</name>
              <effectid>Text</effectid>
              <effectcategory>Text</effectcategory>
              <effecttype>generator</effecttype>
              <mediatype>video</mediatype>
              <parameter>
                <parameterid>str</parameterid>
                <name>Text</name>
                <value>同じ状況が全く違って見えてくる</value>
              </parameter>
            </effect>
          </generatoritem>
          <generatoritem id="subtitle-54">
            <name>Subtitle 54</name>
            <enabled>TRUE</enabled>
            <duration>115</duration>
            <rate>
              <timebase>30</timebase>
              <ntsc>TRUE</ntsc>
            </rate>
            <start>6395</start>
            <end>6510</end>
            <in>0</in>
            <out>115</out>
            <effect>
              <name>Text</name>
              <effectid>Text</effectid>
              <effectcategory>Text</effectcategory>
              <effecttype>generator</effecttype>
              <mediatype>video</mediatype>
              <parameter>
                <parameterid>str</parameterid>
                <name>Text</name>
                <value>1970年代 ハーバード大学</value>
              </parameter>
            </effect>
          </generatoritem>
          <generatoritem id="subtitle-55">
            <name>Subtitle 55</name>
            <enabled>TRUE</enabled>
            <duration>115</duration>
            <rate>
              <timebase>30</timebase>
              <ntsc>TRUE</ntsc>
            </rate>
            <start>6510</start>
            <end>6625</end>
            <in>0</in>
            <out>115</out>
            <effect>
              <name>Text</name>
              <effectid>Text</effectid>
              <effectcategory>Text</effectcategory>
              <effecttype>generator</effecttype>
              <mediatype>video</mediatype>
              <parameter>
                <parameterid>str</parameterid>
                <name>Text</name>
                <value>古生物学者スティーヴン・ジェイ・グールドは 進化論の『常識』に疑問を抱いていました</value>
              </parameter>
            </effect>
          </generatoritem>
          <generatoritem id="subtitle-56">
            <name>Subtitle 56</name>
            <enabled>TRUE</enabled>
            <duration>130</duration>
            <rate>
              <timebase>30</timebase>
              <ntsc>TRUE</ntsc>
            </rate>
            <start>6635</start>
            <end>6765</end>
            <in>0</in>
            <out>130</out>
            <effect>
              <name>Text</name>
              <effectid>Text</effectid>
              <effectcategory>Text</effectcategory>
              <effecttype>generator</effecttype>
              <mediatype>video</mediatype>
              <parameter>
                <parameterid>str</parameterid>
                <name>Text</name>
                <value>フランクルの問いは 私たちにも向けられています</value>
              </parameter>
            </effect>
          </generatoritem>
          <generatoritem id="subtitle-57">
            <name>Subtitle 57</name>
            <enabled>TRUE</enabled>
            <duration>130</duration>
            <rate>
              <timebase>30</timebase>
              <ntsc>TRUE</ntsc>
            </rate>
            <start>6765</start>
            <end>6895</end>
            <in>0</in>
            <out>130</out>
            <effect>
              <name>Text</name>
              <effectid>Text</effectid>
              <effectcategory>Text</effectcategory>
              <effecttype>generator</effecttype>
              <mediatype>video</mediatype>
              <parameter>
                <parameterid>str</parameterid>
                <name>Text</name>
                <value>『この状況に あなたは何の意味を見出すか』</value>
              </parameter>
            </effect>
          </generatoritem>
          <generatoritem id="subtitle-58">
            <name>Subtitle 58</name>
            <enabled>TRUE</enabled>
            <duration>309</duration>
            <rate>
              <timebase>30</timebase>
              <ntsc>TRUE</ntsc>
            </rate>
            <start>7101</start>
            <end>7410</end>
            <in>0</in>
            <out>309</out>
            <effect>
              <name>Text</name>
              <effectid>Text</effectid>
              <effectcategory>Text</effectcategory>
              <effecttype>generator</effecttype>
              <mediatype>video</mediatype>
              <parameter>
                <parameterid>str</parameterid>
                <name>Text</name>
                <value>すべての形質は 今の機能のために進化した—— 本当にそうだろうか?</value>
              </parameter>
            </effect>
          </generatoritem>
          <generatoritem id="subtitle-59">
            <name>Subtitle 59</name>
            <enabled>TRUE</enabled>
            <duration>90</duration>
            <rate>
              <timebase>30</timebase>
              <ntsc>TRUE</ntsc>
            </rate>
            <start>7420</start>
            <end>7510</end>
            <in>0</in>
            <out>90</out>
            <effect>
              <name>Text</name>
              <effectid>Text</effectid>
              <effectcategory>Text</effectcategory>
              <effecttype>generator</effecttype>
              <mediatype>video</mediatype>
              <parameter>
                <parameterid>str</parameterid>
                <name>Text</name>
                <value>彼は同僚のエリザベス・ヴルバとともに 新しい概念を提唱します</value>
              </parameter>
            </effect>
          </generatoritem>
          <generatoritem id="subtitle-60">
            <name>Subtitle 60</name>
            <enabled>TRUE</enabled>
            <duration>90</duration>
            <rate>
              <timebase>30</timebase>
              <ntsc>TRUE</ntsc>
            </rate>
            <start>7510</start>
            <end>7600</end>
            <in>0</in>
            <out>90</out>
            <effect>
              <name>Text</name>
              <effectid>Text</effectid>
              <effectcategory>Text</effectcategory>
              <effecttype>generator</effecttype>
              <mediatype>video</mediatype>
              <parameter>
                <parameterid>str</parameterid>
                <name>Text</name>
                <value>あなたが東京で培ったスキル</value>
              </parameter>
            </effect>
          </generatoritem>
          <generatoritem id="subtitle-61">
            <name>Subtitle 61</name>
            <enabled>TRUE</enabled>
            <duration>140</duration>
            <rate>
              <timebase>30</timebase>
              <ntsc>TRUE</ntsc>
            </rate>
            <start>7610</start>
            <end>7750</end>
            <in>0</in>
            <out>140</out>
            <effect>
              <name>Text</name>
              <effectid>Text</effectid>
              <effectcategory>Text</effectcategory>
              <effecttype>generator</effecttype>
              <mediatype>video</mediatype>
              <parameter>
                <parameterid>str</parameterid>
                <name>Text</name>
                <value>『Exaptation』——外適応</value>
              </parameter>
            </effect>
          </generatoritem>
          <generatoritem id="subtitle-62">
            <name>Subtitle 62</name>
            <enabled>TRUE</enabled>
            <duration>141</duration>
            <rate>
              <timebase>30</timebase>
              <ntsc>TRUE</ntsc>
            </rate>
            <start>7750</start>
            <end>7891</end>
            <in>0</in>
            <out>141</out>
            <effect>
              <name>Text</name>
              <effectid>Text</effectid>
              <effectcategory>Text</effectcategory>
              <effecttype>generator</effecttype>
              <mediatype>video</mediatype>
              <parameter>
                <parameterid>str</parameterid>
                <name>Text</name>
                <value>ある機能のために進化した形質が まったく別の機能に『転用』されること</value>
              </parameter>
            </effect>
          </generatoritem>
          <generatoritem id="subtitle-63">
            <name>Subtitle 63</name>
            <enabled>TRUE</enabled>
            <duration>138</duration>
            <rate>
              <timebase>30</timebase>
              <ntsc>TRUE</ntsc>
            </rate>
            <start>7901</start>
            <end>8039</end>
            <in>0</in>
            <out>138</out>
            <effect>
              <name>Text</name>
              <effectid>Text</effectid>
              <effectcategory>Text</effectcategory>
              <effecttype>generator</effecttype>
              <mediatype>video</mediatype>
              <parameter>
                <parameterid>str</parameterid>
                <name>Text</name>
                <value>たとえば 鳥の羽</value>
              </parameter>
            </effect>
          </generatoritem>
          <generatoritem id="subtitle-64">
            <name>Subtitle 64</name>
            <enabled>TRUE</enabled>
            <duration>139</duration>
            <rate>
              <timebase>30</timebase>
              <ntsc>TRUE</ntsc>
            </rate>
            <start>8039</start>
            <end>8178</end>
            <in>0</in>
            <out>139</out>
            <effect>
              <name>Text</name>
              <effectid>Text</effectid>
              <effectcategory>Text</effectcategory>
              <effecttype>generator</effecttype>
              <mediatype>video</mediatype>
              <parameter>
                <parameterid>str</parameterid>
                <name>Text</name>
                <value>もともとは体温調節のために進化したと 考えられています</value>
              </parameter>
            </effect>
          </generatoritem>
          <generatoritem id="subtitle-65">
            <name>Subtitle 65</name>
            <enabled>TRUE</enabled>
            <duration>138</duration>
            <rate>
              <timebase>30</timebase>
              <ntsc>TRUE</ntsc>
            </rate>
            <start>8178</start>
            <end>8316</end>
            <in>0</in>
            <out>138</out>
            <effect>
              <name>Text</name>
              <effectid>Text</effectid>
              <effectcategory>Text</effectcategory>
              <effecttype>generator</effecttype>
              <mediatype>video</mediatype>
              <parameter>
                <parameterid>str</parameterid>
                <name>Text</name>
                <value>それが後に 空を飛ぶという 全く別の機能に転用された</value>
              </parameter>
            </effect>
          </generatoritem>
          <generatoritem id="subtitle-66">
            <name>Subtitle 66</name>
            <enabled>TRUE</enabled>
            <duration>139</duration>
            <rate>
              <timebase>30</timebase>
              <ntsc>TRUE</ntsc>
            </rate>
            <start>8316</start>
            <end>8455</end>
            <in>0</in>
            <out>139</out>
            <effect>
              <name>Text</name>
              <effectid>Text</effectid>
              <effectcategory>Text</effectcategory>
              <effecttype>generator</effecttype>
              <mediatype>video</mediatype>
              <parameter>
                <parameterid>str</parameterid>
                <name>Text</name>
                <value>最初の『目的』と 最終的な『役割』は 違っていてもいい</value>
              </parameter>
            </effect>
          </generatoritem>
          <generatoritem id="subtitle-67">
            <name>Subtitle 67</name>
            <enabled>TRUE</enabled>
            <duration>171</duration>
            <rate>
              <timebase>30</timebase>
              <ntsc>TRUE</ntsc>
            </rate>
            <start>8465</start>
            <end>8636</end>
            <in>0</in>
            <out>171</out>
            <effect>
              <name>Text</name>
              <effectid>Text</effectid>
              <effectcategory>Text</effectcategory>
              <effecttype>generator</effecttype>
              <mediatype>video</mediatype>
              <parameter>
                <parameterid>str</parameterid>
                <name>Text</name>
                <value>それは 東京での仕事のためだけに 存在するのでしょうか</value>
              </parameter>
            </effect>
          </generatoritem>
          <generatoritem id="subtitle-68">
            <name>Subtitle 68</name>
            <enabled>TRUE</enabled>
            <duration>172</duration>
            <rate>
              <timebase>30</timebase>
              <ntsc>TRUE</ntsc>
            </rate>
            <start>8636</start>
            <end>8808</end>
            <in>0</in>
            <out>172</out>
            <effect>
              <name>Text</name>
              <effectid>Text</effectid>
              <effectcategory>Text</effectcategory>
              <effecttype>generator</effecttype>
              <mediatype>video</mediatype>
              <parameter>
                <parameterid>str</parameterid>
                <name>Text</name>
                <value>九州で『外適応』を起こすかもしれない</value>
              </parameter>
            </effect>
          </generatoritem>
          <generatoritem id="subtitle-69">
            <name>Subtitle 69</name>
            <enabled>TRUE</enabled>
            <duration>172</duration>
            <rate>
              <timebase>30</timebase>
              <ntsc>TRUE</ntsc>
            </rate>
            <start>8808</start>
            <end>8980</end>
            <in>0</in>
            <out>172</out>
            <effect>
              <name>Text</name>
              <effectid>Text</effectid>
              <effectcategory>Text</effectcategory>
              <effecttype>generator</effecttype>
              <mediatype>video</mediatype>
              <parameter>
                <parameterid>str</parameterid>
                <name>Text</name>
                <value>思いもよらなかった場所で 思いもよらなかった形で 花開く可能性がある</value>
              </parameter>
            </effect>
          </generatoritem>
          <generatoritem id="subtitle-70">
            <name>Subtitle 70</name>
            <enabled>TRUE</enabled>
            <duration>193</duration>
            <rate>
              <timebase>30</timebase>
              <ntsc>TRUE</ntsc>
            </rate>
            <start>8990</start>
            <end>9183</end>
            <in>0</in>
            <out>193</out>
            <effect>
              <name>Text</name>
              <effectid>Text</effectid>
              <effectcategory>Text</effectcategory>
              <effecttype>generator</effecttype>
              <mediatype>video</mediatype>
              <parameter>
                <parameterid>str</parameterid>
                <name>Text</name>
                <value>進化が『場所』を選ばないように 心もまた 場所に縛られる必要はありません</value>
              </parameter>
            </effect>
          </generatoritem>
          <generatoritem id="subtitle-71">
            <name>Subtitle 71</name>
            <enabled>TRUE</enabled>
            <duration>134</duration>
            <rate>
              <timebase>30</timebase>
              <ntsc>TRUE</ntsc>
            </rate>
            <start>9193</start>
            <end>9327</end>
            <in>0</in>
            <out>134</out>
            <effect>
              <name>Text</name>
              <effectid>Text</effectid>
              <effectcategory>Text</effectcategory>
              <effecttype>generator</effecttype>
              <mediatype>video</mediatype>
              <parameter>
                <parameterid>str</parameterid>
                <name>Text</name>
                <value>9世紀 中国・唐</value>
              </parameter>
            </effect>
          </generatoritem>
          <generatoritem id="subtitle-72">
            <name>Subtitle 72</name>
            <enabled>TRUE</enabled>
            <duration>135</duration>
            <rate>
              <timebase>30</timebase>
              <ntsc>TRUE</ntsc>
            </rate>
            <start>9327</start>
            <end>9462</end>
            <in>0</in>
            <out>135</out>
            <effect>
              <name>Text</name>
              <effectid>Text</effectid>
              <effectcategory>Text</effectcategory>
              <effecttype>generator</effecttype>
              <mediatype>video</mediatype>
              <parameter>
                <parameterid>str</parameterid>
                <name>Text</name>
                <value>禅僧・臨済義玄は 師のもとで三度問いを発し 三度棒で打たれました</value>
              </parameter>
            </effect>
          </generatoritem>
          <generatoritem id="subtitle-73">
            <name>Subtitle 73</name>
            <enabled>TRUE</enabled>
            <duration>134</duration>
            <rate>
              <timebase>30</timebase>
              <ntsc>TRUE</ntsc>
            </rate>
            <start>9462</start>
            <end>9596</end>
            <in>0</in>
            <out>134</out>
            <effect>
              <name>Text</name>
              <effectid>Text</effectid>
              <effectcategory>Text</effectcategory>
              <effecttype>generator</effecttype>
              <mediatype>video</mediatype>
              <parameter>
                <parameterid>str</parameterid>
                <name>Text</name>
                <value>答えを『外』に求めていたからです</value>
              </parameter>
            </effect>
          </generatoritem>
          <generatoritem id="subtitle-74">
            <name>Subtitle 74</name>
            <enabled>TRUE</enabled>
            <duration>142</duration>
            <rate>
              <timebase>30</timebase>
              <ntsc>TRUE</ntsc>
            </rate>
            <start>9606</start>
            <end>9748</end>
            <in>0</in>
            <out>142</out>
            <effect>
              <name>Text</name>
              <effectid>Text</effectid>
              <effectcategory>Text</effectcategory>
              <effecttype>generator</effecttype>
              <mediatype>video</mediatype>
              <parameter>
                <parameterid>str</parameterid>
                <name>Text</name>
                <value>その挫折の後 臨済は悟ります</value>
              </parameter>
            </effect>
          </generatoritem>
          <generatoritem id="subtitle-75">
            <name>Subtitle 75</name>
            <enabled>TRUE</enabled>
            <duration>143</duration>
            <rate>
              <timebase>30</timebase>
              <ntsc>TRUE</ntsc>
            </rate>
            <start>9748</start>
            <end>9891</end>
            <in>0</in>
            <out>143</out>
            <effect>
              <name>Text</name>
              <effectid>Text</effectid>
              <effectcategory>Text</effectcategory>
              <effecttype>generator</effecttype>
              <mediatype>video</mediatype>
              <parameter>
                <parameterid>str</parameterid>
                <name>Text</name>
                <value>答えは 場所や師の中にはない 自分の中にある</value>
              </parameter>
            </effect>
          </generatoritem>
          <generatoritem id="subtitle-76">
            <name>Subtitle 76</name>
            <enabled>TRUE</enabled>
            <duration>149</duration>
            <rate>
              <timebase>30</timebase>
              <ntsc>TRUE</ntsc>
            </rate>
            <start>9901</start>
            <end>10050</end>
            <in>0</in>
            <out>149</out>
            <effect>
              <name>Text</name>
              <effectid>Text</effectid>
              <effectcategory>Text</effectcategory>
              <effecttype>generator</effecttype>
              <mediatype>video</mediatype>
              <parameter>
                <parameterid>str</parameterid>
                <name>Text</name>
                <value>『随処作主 立処皆真』</value>
              </parameter>
            </effect>
          </generatoritem>
          <generatoritem id="subtitle-77">
            <name>Subtitle 77</name>
            <enabled>TRUE</enabled>
            <duration>150</duration>
            <rate>
              <timebase>30</timebase>
              <ntsc>TRUE</ntsc>
            </rate>
            <start>10050</start>
            <end>10200</end>
            <in>0</in>
            <out>150</out>
            <effect>
              <name>Text</name>
              <effectid>Text</effectid>
              <effectcategory>Text</effectcategory>
              <effecttype>generator</effecttype>
              <mediatype>video</mediatype>
              <parameter>
                <parameterid>str</parameterid>
                <name>Text</name>
                <value>——『どこにいようと主人となれ そうすれば 立つ場所すべてが真実の場所となる』</value>
              </parameter>
            </effect>
          </generatoritem>
          <generatoritem id="subtitle-78">
            <name>Subtitle 78</name>
            <enabled>TRUE</enabled>
            <duration>139</duration>
            <rate>
              <timebase>30</timebase>
              <ntsc>TRUE</ntsc>
            </rate>
            <start>10210</start>
            <end>10349</end>
            <in>0</in>
            <out>139</out>
            <effect>
              <name>Text</name>
              <effectid>Text</effectid>
              <effectcategory>Text</effectcategory>
              <effecttype>generator</effecttype>
              <mediatype>video</mediatype>
              <parameter>
                <parameterid>str</parameterid>
                <name>Text</name>
                <value>東京が良くて 地方が悪いわけではない</value>
              </parameter>
            </effect>
          </generatoritem>
          <generatoritem id="subtitle-79">
            <name>Subtitle 79</name>
            <enabled>TRUE</enabled>
            <duration>139</duration>
            <rate>
              <timebase>30</timebase>
              <ntsc>TRUE</ntsc>
            </rate>
            <start>10349</start>
            <end>10488</end>
            <in>0</in>
            <out>139</out>
            <effect>
              <name>Text</name>
              <effectid>Text</effectid>
              <effectcategory>Text</effectcategory>
              <effecttype>generator</effecttype>
              <mediatype>video</mediatype>
              <parameter>
                <parameterid>str</parameterid>
                <name>Text</name>
                <value>本社が良くて 支店が悪いわけでもない</value>
              </parameter>
            </effect>
          </generatoritem>
          <generatoritem id="subtitle-80">
            <name>Subtitle 80</name>
            <enabled>TRUE</enabled>
            <duration>138</duration>
            <rate>
              <timebase>30</timebase>
              <ntsc>TRUE</ntsc>
            </rate>
            <start>10488</start>
            <end>10626</end>
            <in>0</in>
            <out>138</out>
            <effect>
              <name>Text</name>
              <effectid>Text</effectid>
              <effectcategory>Text</effectcategory>
              <effecttype>generator</effecttype>
              <mediatype>video</mediatype>
              <parameter>
                <parameterid>str</parameterid>
                <name>Text</name>
                <value>問題は『どこにいるか』ではなく 『そこで主人として立てるかどうか』</value>
              </parameter>
            </effect>
          </generatoritem>
          <generatoritem id="subtitle-81">
            <name>Subtitle 81</name>
            <enabled>TRUE</enabled>
            <duration>139</duration>
            <rate>
              <timebase>30</timebase>
              <ntsc>TRUE</ntsc>
            </rate>
            <start>10626</start>
            <end>10765</end>
            <in>0</in>
            <out>139</out>
            <effect>
              <name>Text</name>
              <effectid>Text</effectid>
              <effectcategory>Text</effectcategory>
              <effecttype>generator</effecttype>
              <mediatype>video</mediatype>
              <parameter>
                <parameterid>str</parameterid>
                <name>Text</name>
                <value>異動先で『流されてきた』と感じるか 『ここが自分の場所だ』と決めるか</value>
              </parameter>
            </effect>
          </generatoritem>
          <generatoritem id="subtitle-82">
            <name>Subtitle 82</name>
            <enabled>TRUE</enabled>
            <duration>139</duration>
            <rate>
              <timebase>30</timebase>
              <ntsc>TRUE</ntsc>
            </rate>
            <start>10765</start>
            <end>10904</end>
            <in>0</in>
            <out>139</out>
            <effect>
              <name>Text</name>
              <effectid>Text</effectid>
              <effectcategory>Text</effectcategory>
              <effecttype>generator</effecttype>
              <mediatype>video</mediatype>
              <parameter>
                <parameterid>str</parameterid>
                <name>Text</name>
                <value>その違いは 状況ではなく あなたの態度の中にあります</value>
              </parameter>
            </effect>
          </generatoritem>
          <generatoritem id="subtitle-83">
            <name>Subtitle 83</name>
            <enabled>TRUE</enabled>
            <duration>89</duration>
            <rate>
              <timebase>30</timebase>
              <ntsc>TRUE</ntsc>
            </rate>
            <start>10914</start>
            <end>11003</end>
            <in>0</in>
            <out>89</out>
            <effect>
              <name>Text</name>
              <effectid>Text</effectid>
              <effectcategory>Text</effectcategory>
              <effecttype>generator</effecttype>
              <mediatype>video</mediatype>
              <parameter>
                <parameterid>str</parameterid>
                <name>Text</name>
                <value>望まない異動は 確かに辛い</value>
              </parameter>
            </effect>
          </generatoritem>
          <generatoritem id="subtitle-84">
            <name>Subtitle 84</name>
            <enabled>TRUE</enabled>
            <duration>90</duration>
            <rate>
              <timebase>30</timebase>
              <ntsc>TRUE</ntsc>
            </rate>
            <start>11003</start>
            <end>11093</end>
            <in>0</in>
            <out>90</out>
            <effect>
              <name>Text</name>
              <effectid>Text</effectid>
              <effectcategory>Text</effectcategory>
              <effecttype>generator</effecttype>
              <mediatype>video</mediatype>
              <parameter>
                <parameterid>str</parameterid>
                <name>Text</name>
                <value>でも 考えてみてください</value>
              </parameter>
            </effect>
          </generatoritem>
          <generatoritem id="subtitle-85">
            <name>Subtitle 85</name>
            <enabled>TRUE</enabled>
            <duration>90</duration>
            <rate>
              <timebase>30</timebase>
              <ntsc>TRUE</ntsc>
            </rate>
            <start>11093</start>
            <end>11183</end>
            <in>0</in>
            <out>90</out>
            <effect>
              <name>Text</name>
              <effectid>Text</effectid>
              <effectcategory>Text</effectcategory>
              <effecttype>generator</effecttype>
              <mediatype>video</mediatype>
              <parameter>
                <parameterid>str</parameterid>
                <name>Text</name>
                <value>『望んだ場所』にいれば 本当に幸せだったでしょうか</value>
              </parameter>
            </effect>
          </generatoritem>
          <generatoritem id="subtitle-86">
            <name>Subtitle 86</name>
            <enabled>TRUE</enabled>
            <duration>127</duration>
            <rate>
              <timebase>30</timebase>
              <ntsc>TRUE</ntsc>
            </rate>
            <start>11193</start>
            <end>11320</end>
            <in>0</in>
            <out>127</out>
            <effect>
              <name>Text</name>
              <effectid>Text</effectid>
              <effectcategory>Text</effectcategory>
              <effecttype>generator</effecttype>
              <mediatype>video</mediatype>
              <parameter>
                <parameterid>str</parameterid>
                <name>Text</name>
                <value>振り子は どこにいても揺れる</value>
              </parameter>
            </effect>
          </generatoritem>
          <generatoritem id="subtitle-87">
            <name>Subtitle 87</name>
            <enabled>TRUE</enabled>
            <duration>127</duration>
            <rate>
              <timebase>30</timebase>
              <ntsc>TRUE</ntsc>
            </rate>
            <start>11320</start>
            <end>11447</end>
            <in>0</in>
            <out>127</out>
            <effect>
              <name>Text</name>
              <effectid>Text</effectid>
              <effectcategory>Text</effectcategory>
              <effecttype>generator</effecttype>
              <mediatype>video</mediatype>
              <parameter>
                <parameterid>str</parameterid>
                <name>Text</name>
                <value>東京にいても 九州にいても 苦痛と退屈の間を行き来する</value>
              </parameter>
            </effect>
          </generatoritem>
          <generatoritem id="subtitle-88">
            <name>Subtitle 88</name>
            <enabled>TRUE</enabled>
            <duration>128</duration>
            <rate>
              <timebase>30</timebase>
              <ntsc>TRUE</ntsc>
            </rate>
            <start>11447</start>
            <end>11575</end>
            <in>0</in>
            <out>128</out>
            <effect>
              <name>Text</name>
              <effectid>Text</effectid>
              <effectcategory>Text</effectcategory>
              <effecttype>generator</effecttype>
              <mediatype>video</mediatype>
              <parameter>
                <parameterid>str</parameterid>
                <name>Text</name>
                <value>ならば 『場所』に救いを求めても仕方がない</value>
              </parameter>
            </effect>
          </generatoritem>
          <generatoritem id="subtitle-89">
            <name>Subtitle 89</name>
            <enabled>TRUE</enabled>
            <duration>209</duration>
            <rate>
              <timebase>30</timebase>
              <ntsc>TRUE</ntsc>
            </rate>
            <start>11585</start>
            <end>11794</end>
            <in>0</in>
            <out>209</out>
            <effect>
              <name>Text</name>
              <effectid>Text</effectid>
              <effectcategory>Text</effectcategory>
              <effecttype>generator</effecttype>
              <mediatype>video</mediatype>
              <parameter>
                <parameterid>str</parameterid>
                <name>Text</name>
                <value>救いがあるとすれば それは『意味』の中にある</value>
              </parameter>
            </effect>
          </generatoritem>
          <generatoritem id="subtitle-90">
            <name>Subtitle 90</name>
            <enabled>TRUE</enabled>
            <duration>209</duration>
            <rate>
              <timebase>30</timebase>
              <ntsc>TRUE</ntsc>
            </rate>
            <start>11794</start>
            <end>12003</end>
            <in>0</in>
            <out>209</out>
            <effect>
              <name>Text</name>
              <effectid>Text</effectid>
              <effectcategory>Text</effectcategory>
              <effecttype>generator</effecttype>
              <mediatype>video</mediatype>
              <parameter>
                <parameterid>str</parameterid>
                <name>Text</name>
                <value>そして意味は 与えられるものではなく 自分で見出すもの</value>
              </parameter>
            </effect>
          </generatoritem>
          <generatoritem id="subtitle-91">
            <name>Subtitle 91</name>
            <enabled>TRUE</enabled>
            <duration>209</duration>
            <rate>
              <timebase>30</timebase>
              <ntsc>TRUE</ntsc>
            </rate>
            <start>12003</start>
            <end>12212</end>
            <in>0</in>
            <out>209</out>
            <effect>
              <name>Text</name>
              <effectid>Text</effectid>
              <effectcategory>Text</effectcategory>
              <effecttype>generator</effecttype>
              <mediatype>video</mediatype>
              <parameter>
                <parameterid>str</parameterid>
                <name>Text</name>
                <value>羽が空を飛ぶためのものになったように</value>
              </parameter>
            </effect>
          </generatoritem>
          <generatoritem id="subtitle-92">
            <name>Subtitle 92</name>
            <enabled>TRUE</enabled>
            <duration>241</duration>
            <rate>
              <timebase>30</timebase>
              <ntsc>TRUE</ntsc>
            </rate>
            <start>12222</start>
            <end>12463</end>
            <in>0</in>
            <out>241</out>
            <effect>
              <name>Text</name>
              <effectid>Text</effectid>
              <effectcategory>Text</effectcategory>
              <effecttype>generator</effecttype>
              <mediatype>video</mediatype>
              <parameter>
                <parameterid>str</parameterid>
                <name>Text</name>
                <value>あなたのスキルは 予想外の場所で 予想外の進化を遂げるかもしれない</value>
              </parameter>
            </effect>
          </generatoritem>
          <generatoritem id="subtitle-93">
            <name>Subtitle 93</name>
            <enabled>TRUE</enabled>
            <duration>241</duration>
            <rate>
              <timebase>30</timebase>
              <ntsc>TRUE</ntsc>
            </rate>
            <start>12463</start>
            <end>12704</end>
            <in>0</in>
            <out>241</out>
            <effect>
              <name>Text</name>
              <effectid>Text</effectid>
              <effectcategory>Text</effectcategory>
              <effecttype>generator</effecttype>
              <mediatype>video</mediatype>
              <parameter>
                <parameterid>str</parameterid>
                <name>Text</name>
                <value>流刑地に送られた者が そこで王になることもある</value>
              </parameter>
            </effect>
          </generatoritem>
          <generatoritem id="subtitle-94">
            <name>Subtitle 94</name>
            <enabled>TRUE</enabled>
            <duration>60</duration>
            <rate>
              <timebase>30</timebase>
              <ntsc>TRUE</ntsc>
            </rate>
            <start>12714</start>
            <end>12774</end>
            <in>0</in>
            <out>60</out>
            <effect>
              <name>Text</name>
              <effectid>Text</effectid>
              <effectcategory>Text</effectcategory>
              <effecttype>generator</effecttype>
              <mediatype>video</mediatype>
              <parameter>
                <parameterid>str</parameterid>
                <name>Text</name>
                <value>ナポレオンはエルバ島から脱出して 再び皇帝に返り咲きました</value>
              </parameter>
            </effect>
          </generatoritem>
          <generatoritem id="subtitle-95">
            <name>Subtitle 95</name>
            <enabled>TRUE</enabled>
            <duration>61</duration>
            <rate>
              <timebase>30</timebase>
              <ntsc>TRUE</ntsc>
            </rate>
            <start>12774</start>
            <end>12835</end>
            <in>0</in>
            <out>61</out>
            <effect>
              <name>Text</name>
              <effectid>Text</effectid>
              <effectcategory>Text</effectcategory>
              <effecttype>generator</effecttype>
              <mediatype>video</mediatype>
              <parameter>
                <parameterid>str</parameterid>
                <name>Text</name>
                <value>ドストエフスキーはシベリア流刑から 『罪と罰』を生み出しました</value>
              </parameter>
            </effect>
          </generatoritem>
          <generatoritem id="subtitle-96">
            <name>Subtitle 96</name>
            <enabled>TRUE</enabled>
            <duration>60</duration>
            <rate>
              <timebase>30</timebase>
              <ntsc>TRUE</ntsc>
            </rate>
            <start>12835</start>
            <end>12895</end>
            <in>0</in>
            <out>60</out>
            <effect>
              <name>Text</name>
              <effectid>Text</effectid>
              <effectcategory>Text</effectcategory>
              <effecttype>generator</effecttype>
              <mediatype>video</mediatype>
              <parameter>
                <parameterid>str</parameterid>
                <name>Text</name>
                <value>来月 あなたは新しい場所に立っている</value>
              </parameter>
            </effect>
          </generatoritem>
          <generatoritem id="subtitle-97">
            <name>Subtitle 97</name>
            <enabled>TRUE</enabled>
            <duration>60</duration>
            <rate>
              <timebase>30</timebase>
              <ntsc>TRUE</ntsc>
            </rate>
            <start>12895</start>
            <end>12955</end>
            <in>0</in>
            <out>60</out>
            <effect>
              <name>Text</name>
              <effectid>Text</effectid>
              <effectcategory>Text</effectcategory>
              <effecttype>generator</effecttype>
              <mediatype>video</mediatype>
              <parameter>
                <parameterid>str</parameterid>
                <name>Text</name>
                <value>知らない土地 知らない人々 知らない仕事</value>
              </parameter>
            </effect>
          </generatoritem>
          <generatoritem id="subtitle-98">
            <name>Subtitle 98</name>
            <enabled>TRUE</enabled>
            <duration>83</duration>
            <rate>
              <timebase>30</timebase>
              <ntsc>TRUE</ntsc>
            </rate>
            <start>12965</start>
            <end>13048</end>
            <in>0</in>
            <out>83</out>
            <effect>
              <name>Text</name>
              <effectid>Text</effectid>
              <effectcategory>Text</effectcategory>
              <effecttype>generator</effecttype>
              <mediatype>video</mediatype>
              <parameter>
                <parameterid>str</parameterid>
                <name>Text</name>
                <value>最初は 流刑地に見えるかもしれません</value>
              </parameter>
            </effect>
          </generatoritem>
          <generatoritem id="subtitle-99">
            <name>Subtitle 99</name>
            <enabled>TRUE</enabled>
            <duration>84</duration>
            <rate>
              <timebase>30</timebase>
              <ntsc>TRUE</ntsc>
            </rate>
            <start>13048</start>
            <end>13132</end>
            <in>0</in>
            <out>84</out>
            <effect>
              <name>Text</name>
              <effectid>Text</effectid>
              <effectcategory>Text</effectcategory>
              <effecttype>generator</effecttype>
              <mediatype>video</mediatype>
              <parameter>
                <parameterid>str</parameterid>
                <name>Text</name>
                <value>でも 思い出してください</value>
              </parameter>
            </effect>
          </generatoritem>
          <generatoritem id="subtitle-100">
            <name>Subtitle 100</name>
            <enabled>TRUE</enabled>
            <duration>110</duration>
            <rate>
              <timebase>30</timebase>
              <ntsc>TRUE</ntsc>
            </rate>
            <start>13142</start>
            <end>13252</end>
            <in>0</in>
            <out>110</out>
            <effect>
              <name>Text</name>
              <effectid>Text</effectid>
              <effectcategory>Text</effectcategory>
              <effecttype>generator</effecttype>
              <mediatype>video</mediatype>
              <parameter>
                <parameterid>str</parameterid>
                <name>Text</name>
                <value>どこにいようと 主人として立つことができる</value>
              </parameter>
            </effect>
          </generatoritem>
          <generatoritem id="subtitle-101">
            <name>Subtitle 101</name>
            <enabled>TRUE</enabled>
            <duration>141</duration>
            <rate>
              <timebase>30</timebase>
              <ntsc>TRUE</ntsc>
            </rate>
            <start>13262</start>
            <end>13403</end>
            <in>0</in>
            <out>141</out>
            <effect>
              <name>Text</name>
              <effectid>Text</effectid>
              <effectcategory>Text</effectcategory>
              <effecttype>generator</effecttype>
              <mediatype>video</mediatype>
              <parameter>
                <parameterid>str</parameterid>
                <name>Text</name>
                <value>異動は 流刑ではありません</value>
              </parameter>
            </effect>
          </generatoritem>
          <generatoritem id="subtitle-102">
            <name>Subtitle 102</name>
            <enabled>TRUE</enabled>
            <duration>142</duration>
            <rate>
              <timebase>30</timebase>
              <ntsc>TRUE</ntsc>
            </rate>
            <start>13403</start>
            <end>13545</end>
            <in>0</in>
            <out>142</out>
            <effect>
              <name>Text</name>
              <effectid>Text</effectid>
              <effectcategory>Text</effectcategory>
              <effecttype>generator</effecttype>
              <mediatype>video</mediatype>
              <parameter>
                <parameterid>str</parameterid>
                <name>Text</name>
                <value>それは 新しい土地で『主人』になるための 招待状なのかもしれない</value>
              </parameter>
            </effect>
          </generatoritem>
          <generatoritem id="subtitle-103">
            <name>Subtitle 103</name>
            <enabled>TRUE</enabled>
            <duration>163</duration>
            <rate>
              <timebase>30</timebase>
              <ntsc>TRUE</ntsc>
            </rate>
            <start>13555</start>
            <end>13718</end>
            <in>0</in>
            <out>163</out>
            <effect>
              <name>Text</name>
              <effectid>Text</effectid>
              <effectcategory>Text</effectcategory>
              <effecttype>generator</effecttype>
              <mediatype>video</mediatype>
              <parameter>
                <parameterid>str</parameterid>
                <name>Text</name>
                <value>夜空を見上げると オリオン座が輝いています</value>
              </parameter>
            </effect>
          </generatoritem>
          <generatoritem id="subtitle-104">
            <name>Subtitle 104</name>
            <enabled>TRUE</enabled>
            <duration>162</duration>
            <rate>
              <timebase>30</timebase>
              <ntsc>TRUE</ntsc>
            </rate>
            <start>13718</start>
            <end>13880</end>
            <in>0</in>
            <out>162</out>
            <effect>
              <name>Text</name>
              <effectid>Text</effectid>
              <effectcategory>Text</effectcategory>
              <effecttype>generator</effecttype>
              <mediatype>video</mediatype>
              <parameter>
                <parameterid>str</parameterid>
                <name>Text</name>
                <value>オリオンは 神話では傲慢さゆえに 天に追放された狩人</value>
              </parameter>
            </effect>
          </generatoritem>
          <generatoritem id="subtitle-105">
            <name>Subtitle 105</name>
            <enabled>TRUE</enabled>
            <duration>163</duration>
            <rate>
              <timebase>30</timebase>
              <ntsc>TRUE</ntsc>
            </rate>
            <start>13880</start>
            <end>14043</end>
            <in>0</in>
            <out>163</out>
            <effect>
              <name>Text</name>
              <effectid>Text</effectid>
              <effectcategory>Text</effectcategory>
              <effecttype>generator</effecttype>
              <mediatype>video</mediatype>
              <parameter>
                <parameterid>str</parameterid>
                <name>Text</name>
                <value>しかし今 彼は夜空で最も美しい星座として 輝いています</value>
              </parameter>
            </effect>
          </generatoritem>
          <generatoritem id="subtitle-106">
            <name>Subtitle 106</name>
            <enabled>TRUE</enabled>
            <duration>141</duration>
            <rate>
              <timebase>30</timebase>
              <ntsc>TRUE</ntsc>
            </rate>
            <start>14053</start>
            <end>14194</end>
            <in>0</in>
            <out>141</out>
            <effect>
              <name>Text</name>
              <effectid>Text</effectid>
              <effectcategory>Text</effectcategory>
              <effecttype>generator</effecttype>
              <mediatype>video</mediatype>
              <parameter>
                <parameterid>str</parameterid>
                <name>Text</name>
                <value>追放された場所が 輝きの舞台になった</value>
              </parameter>
            </effect>
          </generatoritem>
          <generatoritem id="subtitle-107">
            <name>Subtitle 107</name>
            <enabled>TRUE</enabled>
            <duration>140</duration>
            <rate>
              <timebase>30</timebase>
              <ntsc>TRUE</ntsc>
            </rate>
            <start>14194</start>
            <end>14334</end>
            <in>0</in>
            <out>140</out>
            <effect>
              <name>Text</name>
              <effectid>Text</effectid>
              <effectcategory>Text</effectcategory>
              <effecttype>generator</effecttype>
              <mediatype>video</mediatype>
              <parameter>
                <parameterid>str</parameterid>
                <name>Text</name>
                <value>知識の星座は 見る人によって違う物語を紡ぎます</value>
              </parameter>
            </effect>
          </generatoritem>
          <generatoritem id="subtitle-108">
            <name>Subtitle 108</name>
            <enabled>TRUE</enabled>
            <duration>184</duration>
            <rate>
              <timebase>30</timebase>
              <ntsc>TRUE</ntsc>
            </rate>
            <start>14344</start>
            <end>14528</end>
            <in>0</in>
            <out>184</out>
            <effect>
              <name>Text</name>
              <effectid>Text</effectid>
              <effectcategory>Text</effectcategory>
              <effecttype>generator</effecttype>
              <mediatype>video</mediatype>
              <parameter>
                <parameterid>str</parameterid>
                <name>Text</name>
                <value>今夜 あなたの『流刑地』が 新しい王国に変わりますように</value>
              </parameter>
            </effect>
          </generatoritem>
        </track>
      </video>
      <audio>
        <track>
          <clipitem id="clipitem-1">
            <name>OrionEp24_001.mp3</name>
            <enabled>TRUE</enabled>
            <duration>234</duration>
            <rate>
              <timebase>30</timebase>
              <ntsc>TRUE</ntsc>
            </rate>
            <start>0</start>
            <end>234</end>
            <in>0</in>
            <out>187729</out>
            <file id="file-1">
              <name>OrionEp24_001.mp3</name>
              <pathurl>file:///Users/delaxstudio/src/delax-ops/ops/media/orion/projects/OrionEp24/output/audio/OrionEp24_001.mp3</pathurl>
              <rate>
                <timebase>24000</timebase>
                <ntsc>FALSE</ntsc>
              </rate>
              <media>
                <audio>
                  <channelcount>1</channelcount>
                  <samplecharacteristics>
                    <samplerate>24000</samplerate>
                    <samplesize>16</samplesize>
                  </samplecharacteristics>
                </audio>
              </media>
            </file>
            <sourcetrack>
              <mediatype>audio</mediatype>
              <trackindex>1</trackindex>
            </sourcetrack>
            <comments/>
          </clipitem>
          <clipitem id="clipitem-2">
            <name>OrionEp24_002.mp3</name>
            <enabled>TRUE</enabled>
            <duration>149</duration>
            <rate>
              <timebase>30</timebase>
              <ntsc>TRUE</ntsc>
            </rate>
            <start>244</start>
            <end>393</end>
            <in>0</in>
            <out>119345</out>
            <file id="file-2">
              <name>OrionEp24_002.mp3</name>
              <pathurl>file:///Users/delaxstudio/src/delax-ops/ops/media/orion/projects/OrionEp24/output/audio/OrionEp24_002.mp3</pathurl>
              <rate>
                <timebase>24000</timebase>
                <ntsc>FALSE</ntsc>
              </rate>
              <media>
                <audio>
                  <channelcount>1</channelcount>
                  <samplecharacteristics>
                    <samplerate>24000</samplerate>
                    <samplesize>16</samplesize>
                  </samplecharacteristics>
                </audio>
              </media>
            </file>
            <sourcetrack>
              <mediatype>audio</mediatype>
              <trackindex>1</trackindex>
            </sourcetrack>
            <comments/>
          </clipitem>
          <clipitem id="clipitem-3">
            <name>OrionEp24_003.mp3</name>
            <enabled>TRUE</enabled>
            <duration>88</duration>
            <rate>
              <timebase>30</timebase>
              <ntsc>TRUE</ntsc>
            </rate>
            <start>403</start>
            <end>491</end>
            <in>0</in>
            <out>70346</out>
            <file id="file-3">
              <name>OrionEp24_003.mp3</name>
              <pathurl>file:///Users/delaxstudio/src/delax-ops/ops/media/orion/projects/OrionEp24/output/audio/OrionEp24_003.mp3</pathurl>
              <rate>
                <timebase>24000</timebase>
                <ntsc>FALSE</ntsc>
              </rate>
              <media>
                <audio>
                  <channelcount>1</channelcount>
                  <samplecharacteristics>
                    <samplerate>24000</samplerate>
                    <samplesize>16</samplesize>
                  </samplecharacteristics>
                </audio>
              </media>
            </file>
            <sourcetrack>
              <mediatype>audio</mediatype>
              <trackindex>1</trackindex>
            </sourcetrack>
            <comments/>
          </clipitem>
          <clipitem id="clipitem-4">
            <name>OrionEp24_004.mp3</name>
            <enabled>TRUE</enabled>
            <duration>205</duration>
            <rate>
              <timebase>30</timebase>
              <ntsc>TRUE</ntsc>
            </rate>
            <start>501</start>
            <end>706</end>
            <in>0</in>
            <out>164640</out>
            <file id="file-4">
              <name>OrionEp24_004.mp3</name>
              <pathurl>file:///Users/delaxstudio/src/delax-ops/ops/media/orion/projects/OrionEp24/output/audio/OrionEp24_004.mp3</pathurl>
              <rate>
                <timebase>24000</timebase>
                <ntsc>FALSE</ntsc>
              </rate>
              <media>
                <audio>
                  <channelcount>1</channelcount>
                  <samplecharacteristics>
                    <samplerate>24000</samplerate>
                    <samplesize>16</samplesize>
                  </samplecharacteristics>
                </audio>
              </media>
            </file>
            <sourcetrack>
              <mediatype>audio</mediatype>
              <trackindex>1</trackindex>
            </sourcetrack>
            <comments/>
          </clipitem>
          <clipitem id="clipitem-5">
            <name>OrionEp24_005.mp3</name>
            <enabled>TRUE</enabled>
            <duration>205</duration>
            <rate>
              <timebase>30</timebase>
              <ntsc>TRUE</ntsc>
            </rate>
            <start>716</start>
            <end>921</end>
            <in>0</in>
            <out>163990</out>
            <file id="file-5">
              <name>OrionEp24_005.mp3</name>
              <pathurl>file:///Users/delaxstudio/src/delax-ops/ops/media/orion/projects/OrionEp24/output/audio/OrionEp24_005.mp3</pathurl>
              <rate>
                <timebase>24000</timebase>
                <ntsc>FALSE</ntsc>
              </rate>
              <media>
                <audio>
                  <channelcount>1</channelcount>
                  <samplecharacteristics>
                    <samplerate>24000</samplerate>
                    <samplesize>16</samplesize>
                  </samplecharacteristics>
                </audio>
              </media>
            </file>
            <sourcetrack>
              <mediatype>audio</mediatype>
              <trackindex>1</trackindex>
            </sourcetrack>
            <comments/>
          </clipitem>
          <clipitem id="clipitem-6">
            <name>OrionEp24_006.mp3</name>
            <enabled>TRUE</enabled>
            <duration>364</duration>
            <rate>
              <timebase>30</timebase>
              <ntsc>TRUE</ntsc>
            </rate>
            <start>931</start>
            <end>1295</end>
            <in>0</in>
            <out>291076</out>
            <file id="file-6">
              <name>OrionEp24_006.mp3</name>
              <pathurl>file:///Users/delaxstudio/src/delax-ops/ops/media/orion/projects/OrionEp24/output/audio/OrionEp24_006.mp3</pathurl>
              <rate>
                <timebase>24000</timebase>
                <ntsc>FALSE</ntsc>
              </rate>
              <media>
                <audio>
                  <channelcount>1</channelcount>
                  <samplecharacteristics>
                    <samplerate>24000</samplerate>
                    <samplesize>16</samplesize>
                  </samplecharacteristics>
                </audio>
              </media>
            </file>
            <sourcetrack>
              <mediatype>audio</mediatype>
              <trackindex>1</trackindex>
            </sourcetrack>
            <comments/>
          </clipitem>
          <clipitem id="clipitem-7">
            <name>OrionEp24_007.mp3</name>
            <enabled>TRUE</enabled>
            <duration>269</duration>
            <rate>
              <timebase>30</timebase>
              <ntsc>TRUE</ntsc>
            </rate>
            <start>1305</start>
            <end>1574</end>
            <in>0</in>
            <out>215634</out>
            <file id="file-7">
              <name>OrionEp24_007.mp3</name>
              <pathurl>file:///Users/delaxstudio/src/delax-ops/ops/media/orion/projects/OrionEp24/output/audio/OrionEp24_007.mp3</pathurl>
              <rate>
                <timebase>24000</timebase>
                <ntsc>FALSE</ntsc>
              </rate>
              <media>
                <audio>
                  <channelcount>1</channelcount>
                  <samplecharacteristics>
                    <samplerate>24000</samplerate>
                    <samplesize>16</samplesize>
                  </samplecharacteristics>
                </audio>
              </media>
            </file>
            <sourcetrack>
              <mediatype>audio</mediatype>
              <trackindex>1</trackindex>
            </sourcetrack>
            <comments/>
          </clipitem>
          <clipitem id="clipitem-8">
            <name>OrionEp24_008.mp3</name>
            <enabled>TRUE</enabled>
            <duration>200</duration>
            <rate>
              <timebase>30</timebase>
              <ntsc>TRUE</ntsc>
            </rate>
            <start>1584</start>
            <end>1784</end>
            <in>0</in>
            <out>159918</out>
            <file id="file-8">
              <name>OrionEp24_008.mp3</name>
              <pathurl>file:///Users/delaxstudio/src/delax-ops/ops/media/orion/projects/OrionEp24/output/audio/OrionEp24_008.mp3</pathurl>
              <rate>
                <timebase>24000</timebase>
                <ntsc>FALSE</ntsc>
              </rate>
              <media>
                <audio>
                  <channelcount>1</channelcount>
                  <samplecharacteristics>
                    <samplerate>24000</samplerate>
                    <samplesize>16</samplesize>
                  </samplecharacteristics>
                </audio>
              </media>
            </file>
            <sourcetrack>
              <mediatype>audio</mediatype>
              <trackindex>1</trackindex>
            </sourcetrack>
            <comments/>
          </clipitem>
          <clipitem id="clipitem-9">
            <name>OrionEp24_009.mp3</name>
            <enabled>TRUE</enabled>
            <duration>212</duration>
            <rate>
              <timebase>30</timebase>
              <ntsc>TRUE</ntsc>
            </rate>
            <start>1794</start>
            <end>2006</end>
            <in>0</in>
            <out>170429</out>
            <file id="file-9">
              <name>OrionEp24_009.mp3</name>
              <pathurl>file:///Users/delaxstudio/src/delax-ops/ops/media/orion/projects/OrionEp24/output/audio/OrionEp24_009.mp3</pathurl>
              <rate>
                <timebase>24000</timebase>
                <ntsc>FALSE</ntsc>
              </rate>
              <media>
                <audio>
                  <channelcount>1</channelcount>
                  <samplecharacteristics>
                    <samplerate>24000</samplerate>
                    <samplesize>16</samplesize>
                  </samplecharacteristics>
                </audio>
              </media>
            </file>
            <sourcetrack>
              <mediatype>audio</mediatype>
              <trackindex>1</trackindex>
            </sourcetrack>
            <comments/>
          </clipitem>
          <clipitem id="clipitem-10">
            <name>OrionEp24_010.mp3</name>
            <enabled>TRUE</enabled>
            <duration>285</duration>
            <rate>
              <timebase>30</timebase>
              <ntsc>TRUE</ntsc>
            </rate>
            <start>2016</start>
            <end>2301</end>
            <in>0</in>
            <out>228248</out>
            <file id="file-10">
              <name>OrionEp24_010.mp3</name>
              <pathurl>file:///Users/delaxstudio/src/delax-ops/ops/media/orion/projects/OrionEp24/output/audio/OrionEp24_010.mp3</pathurl>
              <rate>
                <timebase>24000</timebase>
                <ntsc>FALSE</ntsc>
              </rate>
              <media>
                <audio>
                  <channelcount>1</channelcount>
                  <samplecharacteristics>
                    <samplerate>24000</samplerate>
                    <samplesize>16</samplesize>
                  </samplecharacteristics>
                </audio>
              </media>
            </file>
            <sourcetrack>
              <mediatype>audio</mediatype>
              <trackindex>1</trackindex>
            </sourcetrack>
            <comments/>
          </clipitem>
          <clipitem id="clipitem-11">
            <name>OrionEp24_011.mp3</name>
            <enabled>TRUE</enabled>
            <duration>355</duration>
            <rate>
              <timebase>30</timebase>
              <ntsc>TRUE</ntsc>
            </rate>
            <start>2311</start>
            <end>2666</end>
            <in>0</in>
            <out>283618</out>
            <file id="file-11">
              <name>OrionEp24_011.mp3</name>
              <pathurl>file:///Users/delaxstudio/src/delax-ops/ops/media/orion/projects/OrionEp24/output/audio/OrionEp24_011.mp3</pathurl>
              <rate>
                <timebase>24000</timebase>
                <ntsc>FALSE</ntsc>
              </rate>
              <media>
                <audio>
                  <channelcount>1</channelcount>
                  <samplecharacteristics>
                    <samplerate>24000</samplerate>
                    <samplesize>16</samplesize>
                  </samplecharacteristics>
                </audio>
              </media>
            </file>
            <sourcetrack>
              <mediatype>audio</mediatype>
              <trackindex>1</trackindex>
            </sourcetrack>
            <comments/>
          </clipitem>
          <clipitem id="clipitem-12">
            <name>OrionEp24_012.mp3</name>
            <enabled>TRUE</enabled>
            <duration>162</duration>
            <rate>
              <timebase>30</timebase>
              <ntsc>TRUE</ntsc>
            </rate>
            <start>2676</start>
            <end>2838</end>
            <in>0</in>
            <out>129882</out>
            <file id="file-12">
              <name>OrionEp24_012.mp3</name>
              <pathurl>file:///Users/delaxstudio/src/delax-ops/ops/media/orion/projects/OrionEp24/output/audio/OrionEp24_012.mp3</pathurl>
              <rate>
                <timebase>24000</timebase>
                <ntsc>FALSE</ntsc>
              </rate>
              <media>
                <audio>
                  <channelcount>1</channelcount>
                  <samplecharacteristics>
                    <samplerate>24000</samplerate>
                    <samplesize>16</samplesize>
                  </samplecharacteristics>
                </audio>
              </media>
            </file>
            <sourcetrack>
              <mediatype>audio</mediatype>
              <trackindex>1</trackindex>
            </sourcetrack>
            <comments/>
          </clipitem>
          <clipitem id="clipitem-13">
            <name>OrionEp24_013.mp3</name>
            <enabled>TRUE</enabled>
            <duration>60</duration>
            <rate>
              <timebase>30</timebase>
              <ntsc>TRUE</ntsc>
            </rate>
            <start>2848</start>
            <end>2908</end>
            <in>0</in>
            <out>47986</out>
            <file id="file-13">
              <name>OrionEp24_013.mp3</name>
              <pathurl>file:///Users/delaxstudio/src/delax-ops/ops/media/orion/projects/OrionEp24/output/audio/OrionEp24_013.mp3</pathurl>
              <rate>
                <timebase>24000</timebase>
                <ntsc>FALSE</ntsc>
              </rate>
              <media>
                <audio>
                  <channelcount>1</channelcount>
                  <samplecharacteristics>
                    <samplerate>24000</samplerate>
                    <samplesize>16</samplesize>
                  </samplecharacteristics>
                </audio>
              </media>
            </file>
            <sourcetrack>
              <mediatype>audio</mediatype>
              <trackindex>1</trackindex>
            </sourcetrack>
            <comments/>
          </clipitem>
          <clipitem id="clipitem-14">
            <name>OrionEp24_014.mp3</name>
            <enabled>TRUE</enabled>
            <duration>155</duration>
            <rate>
              <timebase>30</timebase>
              <ntsc>TRUE</ntsc>
            </rate>
            <start>2918</start>
            <end>3073</end>
            <in>0</in>
            <out>124513</out>
            <file id="file-14">
              <name>OrionEp24_014.mp3</name>
              <pathurl>file:///Users/delaxstudio/src/delax-ops/ops/media/orion/projects/OrionEp24/output/audio/OrionEp24_014.mp3</pathurl>
              <rate>
                <timebase>24000</timebase>
                <ntsc>FALSE</ntsc>
              </rate>
              <media>
                <audio>
                  <channelcount>1</channelcount>
                  <samplecharacteristics>
                    <samplerate>24000</samplerate>
                    <samplesize>16</samplesize>
                  </samplecharacteristics>
                </audio>
              </media>
            </file>
            <sourcetrack>
              <mediatype>audio</mediatype>
              <trackindex>1</trackindex>
            </sourcetrack>
            <comments/>
          </clipitem>
          <clipitem id="clipitem-15">
            <name>OrionEp24_015.mp3</name>
            <enabled>TRUE</enabled>
            <duration>253</duration>
            <rate>
              <timebase>30</timebase>
              <ntsc>TRUE</ntsc>
            </rate>
            <start>3083</start>
            <end>3336</end>
            <in>0</in>
            <out>202487</out>
            <file id="file-15">
              <name>OrionEp24_015.mp3</name>
              <pathurl>file:///Users/delaxstudio/src/delax-ops/ops/media/orion/projects/OrionEp24/output/audio/OrionEp24_015.mp3</pathurl>
              <rate>
                <timebase>24000</timebase>
                <ntsc>FALSE</ntsc>
              </rate>
              <media>
                <audio>
                  <channelcount>1</channelcount>
                  <samplecharacteristics>
                    <samplerate>24000</samplerate>
                    <samplesize>16</samplesize>
                  </samplecharacteristics>
                </audio>
              </media>
            </file>
            <sourcetrack>
              <mediatype>audio</mediatype>
              <trackindex>1</trackindex>
            </sourcetrack>
            <comments/>
          </clipitem>
          <clipitem id="clipitem-16">
            <name>OrionEp24_016.mp3</name>
            <enabled>TRUE</enabled>
            <duration>221</duration>
            <rate>
              <timebase>30</timebase>
              <ntsc>TRUE</ntsc>
            </rate>
            <start>3346</start>
            <end>3567</end>
            <in>0</in>
            <out>177153</out>
            <file id="file-16">
              <name>OrionEp24_016.mp3</name>
              <pathurl>file:///Users/delaxstudio/src/delax-ops/ops/media/orion/projects/OrionEp24/output/audio/OrionEp24_016.mp3</pathurl>
              <rate>
                <timebase>24000</timebase>
                <ntsc>FALSE</ntsc>
              </rate>
              <media>
                <audio>
                  <channelcount>1</channelcount>
                  <samplecharacteristics>
                    <samplerate>24000</samplerate>
                    <samplesize>16</samplesize>
                  </samplecharacteristics>
                </audio>
              </media>
            </file>
            <sourcetrack>
              <mediatype>audio</mediatype>
              <trackindex>1</trackindex>
            </sourcetrack>
            <comments/>
          </clipitem>
          <clipitem id="clipitem-17">
            <name>OrionEp24_017.mp3</name>
            <enabled>TRUE</enabled>
            <duration>175</duration>
            <rate>
              <timebase>30</timebase>
              <ntsc>TRUE</ntsc>
            </rate>
            <start>3577</start>
            <end>3752</end>
            <in>0</in>
            <out>139574</out>
            <file id="file-17">
              <name>OrionEp24_017.mp3</name>
              <pathurl>file:///Users/delaxstudio/src/delax-ops/ops/media/orion/projects/OrionEp24/output/audio/OrionEp24_017.mp3</pathurl>
              <rate>
                <timebase>24000</timebase>
                <ntsc>FALSE</ntsc>
              </rate>
              <media>
                <audio>
                  <channelcount>1</channelcount>
                  <samplecharacteristics>
                    <samplerate>24000</samplerate>
                    <samplesize>16</samplesize>
                  </samplecharacteristics>
                </audio>
              </media>
            </file>
            <sourcetrack>
              <mediatype>audio</mediatype>
              <trackindex>1</trackindex>
            </sourcetrack>
            <comments/>
          </clipitem>
          <clipitem id="clipitem-18">
            <name>OrionEp24_018.mp3</name>
            <enabled>TRUE</enabled>
            <duration>856</duration>
            <rate>
              <timebase>30</timebase>
              <ntsc>TRUE</ntsc>
            </rate>
            <start>3762</start>
            <end>4618</end>
            <in>0</in>
            <out>685881</out>
            <file id="file-18">
              <name>OrionEp24_018.mp3</name>
              <pathurl>file:///Users/delaxstudio/src/delax-ops/ops/media/orion/projects/OrionEp24/output/audio/OrionEp24_018.mp3</pathurl>
              <rate>
                <timebase>24000</timebase>
                <ntsc>FALSE</ntsc>
              </rate>
              <media>
                <audio>
                  <channelcount>1</channelcount>
                  <samplecharacteristics>
                    <samplerate>24000</samplerate>
                    <samplesize>16</samplesize>
                  </samplecharacteristics>
                </audio>
              </media>
            </file>
            <sourcetrack>
              <mediatype>audio</mediatype>
              <trackindex>1</trackindex>
            </sourcetrack>
            <comments/>
          </clipitem>
          <clipitem id="clipitem-19">
            <name>OrionEp24_019.mp3</name>
            <enabled>TRUE</enabled>
            <duration>198</duration>
            <rate>
              <timebase>30</timebase>
              <ntsc>TRUE</ntsc>
            </rate>
            <start>4628</start>
            <end>4826</end>
            <in>0</in>
            <out>158864</out>
            <file id="file-19">
              <name>OrionEp24_019.mp3</name>
              <pathurl>file:///Users/delaxstudio/src/delax-ops/ops/media/orion/projects/OrionEp24/output/audio/OrionEp24_019.mp3</pathurl>
              <rate>
                <timebase>24000</timebase>
                <ntsc>FALSE</ntsc>
              </rate>
              <media>
                <audio>
                  <channelcount>1</channelcount>
                  <samplecharacteristics>
                    <samplerate>24000</samplerate>
                    <samplesize>16</samplesize>
                  </samplecharacteristics>
                </audio>
              </media>
            </file>
            <sourcetrack>
              <mediatype>audio</mediatype>
              <trackindex>1</trackindex>
            </sourcetrack>
            <comments/>
          </clipitem>
          <clipitem id="clipitem-20">
            <name>OrionEp24_020.mp3</name>
            <enabled>TRUE</enabled>
            <duration>263</duration>
            <rate>
              <timebase>30</timebase>
              <ntsc>TRUE</ntsc>
            </rate>
            <start>4836</start>
            <end>5099</end>
            <in>0</in>
            <out>210032</out>
            <file id="file-20">
              <name>OrionEp24_020.mp3</name>
              <pathurl>file:///Users/delaxstudio/src/delax-ops/ops/media/orion/projects/OrionEp24/output/audio/OrionEp24_020.mp3</pathurl>
              <rate>
                <timebase>24000</timebase>
                <ntsc>FALSE</ntsc>
              </rate>
              <media>
                <audio>
                  <channelcount>1</channelcount>
                  <samplecharacteristics>
                    <samplerate>24000</samplerate>
                    <samplesize>16</samplesize>
                  </samplecharacteristics>
                </audio>
              </media>
            </file>
            <sourcetrack>
              <mediatype>audio</mediatype>
              <trackindex>1</trackindex>
            </sourcetrack>
            <comments/>
          </clipitem>
          <clipitem id="clipitem-21">
            <name>OrionEp24_021.mp3</name>
            <enabled>TRUE</enabled>
            <duration>207</duration>
            <rate>
              <timebase>30</timebase>
              <ntsc>TRUE</ntsc>
            </rate>
            <start>5109</start>
            <end>5316</end>
            <in>0</in>
            <out>166307</out>
            <file id="file-21">
              <name>OrionEp24_021.mp3</name>
              <pathurl>file:///Users/delaxstudio/src/delax-ops/ops/media/orion/projects/OrionEp24/output/audio/OrionEp24_021.mp3</pathurl>
              <rate>
                <timebase>24000</timebase>
                <ntsc>FALSE</ntsc>
              </rate>
              <media>
                <audio>
                  <channelcount>1</channelcount>
                  <samplecharacteristics>
                    <samplerate>24000</samplerate>
                    <samplesize>16</samplesize>
                  </samplecharacteristics>
                </audio>
              </media>
            </file>
            <sourcetrack>
              <mediatype>audio</mediatype>
              <trackindex>1</trackindex>
            </sourcetrack>
            <comments/>
          </clipitem>
          <clipitem id="clipitem-22">
            <name>OrionEp24_022.mp3</name>
            <enabled>TRUE</enabled>
            <duration>309</duration>
            <rate>
              <timebase>30</timebase>
              <ntsc>TRUE</ntsc>
            </rate>
            <start>5326</start>
            <end>5635</end>
            <in>0</in>
            <out>247363</out>
            <file id="file-22">
              <name>OrionEp24_022.mp3</name>
              <pathurl>file:///Users/delaxstudio/src/delax-ops/ops/media/orion/projects/OrionEp24/output/audio/OrionEp24_022.mp3</pathurl>
              <rate>
                <timebase>24000</timebase>
                <ntsc>FALSE</ntsc>
              </rate>
              <media>
                <audio>
                  <channelcount>1</channelcount>
                  <samplecharacteristics>
                    <samplerate>24000</samplerate>
                    <samplesize>16</samplesize>
                  </samplecharacteristics>
                </audio>
              </media>
            </file>
            <sourcetrack>
              <mediatype>audio</mediatype>
              <trackindex>1</trackindex>
            </sourcetrack>
            <comments/>
          </clipitem>
          <clipitem id="clipitem-23">
            <name>OrionEp24_023.mp3</name>
            <enabled>TRUE</enabled>
            <duration>155</duration>
            <rate>
              <timebase>30</timebase>
              <ntsc>TRUE</ntsc>
            </rate>
            <start>5645</start>
            <end>5800</end>
            <in>0</in>
            <out>123807</out>
            <file id="file-23">
              <name>OrionEp24_023.mp3</name>
              <pathurl>file:///Users/delaxstudio/src/delax-ops/ops/media/orion/projects/OrionEp24/output/audio/OrionEp24_023.mp3</pathurl>
              <rate>
                <timebase>24000</timebase>
                <ntsc>FALSE</ntsc>
              </rate>
              <media>
                <audio>
                  <channelcount>1</channelcount>
                  <samplecharacteristics>
                    <samplerate>24000</samplerate>
                    <samplesize>16</samplesize>
                  </samplecharacteristics>
                </audio>
              </media>
            </file>
            <sourcetrack>
              <mediatype>audio</mediatype>
              <trackindex>1</trackindex>
            </sourcetrack>
            <comments/>
          </clipitem>
          <clipitem id="clipitem-24">
            <name>OrionEp24_024.mp3</name>
            <enabled>TRUE</enabled>
            <duration>114</duration>
            <rate>
              <timebase>30</timebase>
              <ntsc>TRUE</ntsc>
            </rate>
            <start>5810</start>
            <end>5924</end>
            <in>0</in>
            <out>91476</out>
            <file id="file-24">
              <name>OrionEp24_024.mp3</name>
              <pathurl>file:///Users/delaxstudio/src/delax-ops/ops/media/orion/projects/OrionEp24/output/audio/OrionEp24_024.mp3</pathurl>
              <rate>
                <timebase>24000</timebase>
                <ntsc>FALSE</ntsc>
              </rate>
              <media>
                <audio>
                  <channelcount>1</channelcount>
                  <samplecharacteristics>
                    <samplerate>24000</samplerate>
                    <samplesize>16</samplesize>
                  </samplecharacteristics>
                </audio>
              </media>
            </file>
            <sourcetrack>
              <mediatype>audio</mediatype>
              <trackindex>1</trackindex>
            </sourcetrack>
            <comments/>
          </clipitem>
          <clipitem id="clipitem-25">
            <name>OrionEp24_025.mp3</name>
            <enabled>TRUE</enabled>
            <duration>691</duration>
            <rate>
              <timebase>30</timebase>
              <ntsc>TRUE</ntsc>
            </rate>
            <start>5934</start>
            <end>6625</end>
            <in>0</in>
            <out>553339</out>
            <file id="file-25">
              <name>OrionEp24_025.mp3</name>
              <pathurl>file:///Users/delaxstudio/src/delax-ops/ops/media/orion/projects/OrionEp24/output/audio/OrionEp24_025.mp3</pathurl>
              <rate>
                <timebase>24000</timebase>
                <ntsc>FALSE</ntsc>
              </rate>
              <media>
                <audio>
                  <channelcount>1</channelcount>
                  <samplecharacteristics>
                    <samplerate>24000</samplerate>
                    <samplesize>16</samplesize>
                  </samplecharacteristics>
                </audio>
              </media>
            </file>
            <sourcetrack>
              <mediatype>audio</mediatype>
              <trackindex>1</trackindex>
            </sourcetrack>
            <comments/>
          </clipitem>
          <clipitem id="clipitem-26">
            <name>OrionEp24_026.mp3</name>
            <enabled>TRUE</enabled>
            <duration>260</duration>
            <rate>
              <timebase>30</timebase>
              <ntsc>TRUE</ntsc>
            </rate>
            <start>6635</start>
            <end>6895</end>
            <in>0</in>
            <out>207847</out>
            <file id="file-26">
              <name>OrionEp24_026.mp3</name>
              <pathurl>file:///Users/delaxstudio/src/delax-ops/ops/media/orion/projects/OrionEp24/output/audio/OrionEp24_026.mp3</pathurl>
              <rate>
                <timebase>24000</timebase>
                <ntsc>FALSE</ntsc>
              </rate>
              <media>
                <audio>
                  <channelcount>1</channelcount>
                  <samplecharacteristics>
                    <samplerate>24000</samplerate>
                    <samplesize>16</samplesize>
                  </samplecharacteristics>
                </audio>
              </media>
            </file>
            <sourcetrack>
              <mediatype>audio</mediatype>
              <trackindex>1</trackindex>
            </sourcetrack>
            <comments/>
          </clipitem>
          <clipitem id="clipitem-27">
            <name>OrionEp24_027.mp3</name>
            <enabled>TRUE</enabled>
            <duration>186</duration>
            <rate>
              <timebase>30</timebase>
              <ntsc>TRUE</ntsc>
            </rate>
            <start>6905</start>
            <end>7091</end>
            <in>0</in>
            <out>149165</out>
            <file id="file-27">
              <name>OrionEp24_027.mp3</name>
              <pathurl>file:///Users/delaxstudio/src/delax-ops/ops/media/orion/projects/OrionEp24/output/audio/OrionEp24_027.mp3</pathurl>
              <rate>
                <timebase>24000</timebase>
                <ntsc>FALSE</ntsc>
              </rate>
              <media>
                <audio>
                  <channelcount>1</channelcount>
                  <samplecharacteristics>
                    <samplerate>24000</samplerate>
                    <samplesize>16</samplesize>
                  </samplecharacteristics>
                </audio>
              </media>
            </file>
            <sourcetrack>
              <mediatype>audio</mediatype>
              <trackindex>1</trackindex>
            </sourcetrack>
            <comments/>
          </clipitem>
          <clipitem id="clipitem-28">
            <name>OrionEp24_028.mp3</name>
            <enabled>TRUE</enabled>
            <duration>309</duration>
            <rate>
              <timebase>30</timebase>
              <ntsc>TRUE</ntsc>
            </rate>
            <start>7101</start>
            <end>7410</end>
            <in>0</in>
            <out>247437</out>
            <file id="file-28">
              <name>OrionEp24_028.mp3</name>
              <pathurl>file:///Users/delaxstudio/src/delax-ops/ops/media/orion/projects/OrionEp24/output/audio/OrionEp24_028.mp3</pathurl>
              <rate>
                <timebase>24000</timebase>
                <ntsc>FALSE</ntsc>
              </rate>
              <media>
                <audio>
                  <channelcount>1</channelcount>
                  <samplecharacteristics>
                    <samplerate>24000</samplerate>
                    <samplesize>16</samplesize>
                  </samplecharacteristics>
                </audio>
              </media>
            </file>
            <sourcetrack>
              <mediatype>audio</mediatype>
              <trackindex>1</trackindex>
            </sourcetrack>
            <comments/>
          </clipitem>
          <clipitem id="clipitem-29">
            <name>OrionEp24_029.mp3</name>
            <enabled>TRUE</enabled>
            <duration>180</duration>
            <rate>
              <timebase>30</timebase>
              <ntsc>TRUE</ntsc>
            </rate>
            <start>7420</start>
            <end>7600</end>
            <in>0</in>
            <out>143823</out>
            <file id="file-29">
              <name>OrionEp24_029.mp3</name>
              <pathurl>file:///Users/delaxstudio/src/delax-ops/ops/media/orion/projects/OrionEp24/output/audio/OrionEp24_029.mp3</pathurl>
              <rate>
                <timebase>24000</timebase>
                <ntsc>FALSE</ntsc>
              </rate>
              <media>
                <audio>
                  <channelcount>1</channelcount>
                  <samplecharacteristics>
                    <samplerate>24000</samplerate>
                    <samplesize>16</samplesize>
                  </samplecharacteristics>
                </audio>
              </media>
            </file>
            <sourcetrack>
              <mediatype>audio</mediatype>
              <trackindex>1</trackindex>
            </sourcetrack>
            <comments/>
          </clipitem>
          <clipitem id="clipitem-30">
            <name>OrionEp24_030.mp3</name>
            <enabled>TRUE</enabled>
            <duration>281</duration>
            <rate>
              <timebase>30</timebase>
              <ntsc>TRUE</ntsc>
            </rate>
            <start>7610</start>
            <end>7891</end>
            <in>0</in>
            <out>225079</out>
            <file id="file-30">
              <name>OrionEp24_030.mp3</name>
              <pathurl>file:///Users/delaxstudio/src/delax-ops/ops/media/orion/projects/OrionEp24/output/audio/OrionEp24_030.mp3</pathurl>
              <rate>
                <timebase>24000</timebase>
                <ntsc>FALSE</ntsc>
              </rate>
              <media>
                <audio>
                  <channelcount>1</channelcount>
                  <samplecharacteristics>
                    <samplerate>24000</samplerate>
                    <samplesize>16</samplesize>
                  </samplecharacteristics>
                </audio>
              </media>
            </file>
            <sourcetrack>
              <mediatype>audio</mediatype>
              <trackindex>1</trackindex>
            </sourcetrack>
            <comments/>
          </clipitem>
          <clipitem id="clipitem-31">
            <name>OrionEp24_031.mp3</name>
            <enabled>TRUE</enabled>
            <duration>554</duration>
            <rate>
              <timebase>30</timebase>
              <ntsc>TRUE</ntsc>
            </rate>
            <start>7901</start>
            <end>8455</end>
            <in>0</in>
            <out>443585</out>
            <file id="file-31">
              <name>OrionEp24_031.mp3</name>
              <pathurl>file:///Users/delaxstudio/src/delax-ops/ops/media/orion/projects/OrionEp24/output/audio/OrionEp24_031.mp3</pathurl>
              <rate>
                <timebase>24000</timebase>
                <ntsc>FALSE</ntsc>
              </rate>
              <media>
                <audio>
                  <channelcount>1</channelcount>
                  <samplecharacteristics>
                    <samplerate>24000</samplerate>
                    <samplesize>16</samplesize>
                  </samplecharacteristics>
                </audio>
              </media>
            </file>
            <sourcetrack>
              <mediatype>audio</mediatype>
              <trackindex>1</trackindex>
            </sourcetrack>
            <comments/>
          </clipitem>
          <clipitem id="clipitem-32">
            <name>OrionEp24_032.mp3</name>
            <enabled>TRUE</enabled>
            <duration>515</duration>
            <rate>
              <timebase>30</timebase>
              <ntsc>TRUE</ntsc>
            </rate>
            <start>8465</start>
            <end>8980</end>
            <in>0</in>
            <out>412866</out>
            <file id="file-32">
              <name>OrionEp24_032.mp3</name>
              <pathurl>file:///Users/delaxstudio/src/delax-ops/ops/media/orion/projects/OrionEp24/output/audio/OrionEp24_032.mp3</pathurl>
              <rate>
                <timebase>24000</timebase>
                <ntsc>FALSE</ntsc>
              </rate>
              <media>
                <audio>
                  <channelcount>1</channelcount>
                  <samplecharacteristics>
                    <samplerate>24000</samplerate>
                    <samplesize>16</samplesize>
                  </samplecharacteristics>
                </audio>
              </media>
            </file>
            <sourcetrack>
              <mediatype>audio</mediatype>
              <trackindex>1</trackindex>
            </sourcetrack>
            <comments/>
          </clipitem>
          <clipitem id="clipitem-33">
            <name>OrionEp24_033.mp3</name>
            <enabled>TRUE</enabled>
            <duration>193</duration>
            <rate>
              <timebase>30</timebase>
              <ntsc>TRUE</ntsc>
            </rate>
            <start>8990</start>
            <end>9183</end>
            <in>0</in>
            <out>154794</out>
            <file id="file-33">
              <name>OrionEp24_033.mp3</name>
              <pathurl>file:///Users/delaxstudio/src/delax-ops/ops/media/orion/projects/OrionEp24/output/audio/OrionEp24_033.mp3</pathurl>
              <rate>
                <timebase>24000</timebase>
                <ntsc>FALSE</ntsc>
              </rate>
              <media>
                <audio>
                  <channelcount>1</channelcount>
                  <samplecharacteristics>
                    <samplerate>24000</samplerate>
                    <samplesize>16</samplesize>
                  </samplecharacteristics>
                </audio>
              </media>
            </file>
            <sourcetrack>
              <mediatype>audio</mediatype>
              <trackindex>1</trackindex>
            </sourcetrack>
            <comments/>
          </clipitem>
          <clipitem id="clipitem-34">
            <name>OrionEp24_034.mp3</name>
            <enabled>TRUE</enabled>
            <duration>403</duration>
            <rate>
              <timebase>30</timebase>
              <ntsc>TRUE</ntsc>
            </rate>
            <start>9193</start>
            <end>9596</end>
            <in>0</in>
            <out>322031</out>
            <file id="file-34">
              <name>OrionEp24_034.mp3</name>
              <pathurl>file:///Users/delaxstudio/src/delax-ops/ops/media/orion/projects/OrionEp24/output/audio/OrionEp24_034.mp3</pathurl>
              <rate>
                <timebase>24000</timebase>
                <ntsc>FALSE</ntsc>
              </rate>
              <media>
                <audio>
                  <channelcount>1</channelcount>
                  <samplecharacteristics>
                    <samplerate>24000</samplerate>
                    <samplesize>16</samplesize>
                  </samplecharacteristics>
                </audio>
              </media>
            </file>
            <sourcetrack>
              <mediatype>audio</mediatype>
              <trackindex>1</trackindex>
            </sourcetrack>
            <comments/>
          </clipitem>
          <clipitem id="clipitem-35">
            <name>OrionEp24_035.mp3</name>
            <enabled>TRUE</enabled>
            <duration>285</duration>
            <rate>
              <timebase>30</timebase>
              <ntsc>TRUE</ntsc>
            </rate>
            <start>9606</start>
            <end>9891</end>
            <in>0</in>
            <out>228245</out>
            <file id="file-35">
              <name>OrionEp24_035.mp3</name>
              <pathurl>file:///Users/delaxstudio/src/delax-ops/ops/media/orion/projects/OrionEp24/output/audio/OrionEp24_035.mp3</pathurl>
              <rate>
                <timebase>24000</timebase>
                <ntsc>FALSE</ntsc>
              </rate>
              <media>
                <audio>
                  <channelcount>1</channelcount>
                  <samplecharacteristics>
                    <samplerate>24000</samplerate>
                    <samplesize>16</samplesize>
                  </samplecharacteristics>
                </audio>
              </media>
            </file>
            <sourcetrack>
              <mediatype>audio</mediatype>
              <trackindex>1</trackindex>
            </sourcetrack>
            <comments/>
          </clipitem>
          <clipitem id="clipitem-36">
            <name>OrionEp24_036.mp3</name>
            <enabled>TRUE</enabled>
            <duration>299</duration>
            <rate>
              <timebase>30</timebase>
              <ntsc>TRUE</ntsc>
            </rate>
            <start>9901</start>
            <end>10200</end>
            <in>0</in>
            <out>239783</out>
            <file id="file-36">
              <name>OrionEp24_036.mp3</name>
              <pathurl>file:///Users/delaxstudio/src/delax-ops/ops/media/orion/projects/OrionEp24/output/audio/OrionEp24_036.mp3</pathurl>
              <rate>
                <timebase>24000</timebase>
                <ntsc>FALSE</ntsc>
              </rate>
              <media>
                <audio>
                  <channelcount>1</channelcount>
                  <samplecharacteristics>
                    <samplerate>24000</samplerate>
                    <samplesize>16</samplesize>
                  </samplecharacteristics>
                </audio>
              </media>
            </file>
            <sourcetrack>
              <mediatype>audio</mediatype>
              <trackindex>1</trackindex>
            </sourcetrack>
            <comments/>
          </clipitem>
          <clipitem id="clipitem-37">
            <name>OrionEp24_037.mp3</name>
            <enabled>TRUE</enabled>
            <duration>694</duration>
            <rate>
              <timebase>30</timebase>
              <ntsc>TRUE</ntsc>
            </rate>
            <start>10210</start>
            <end>10904</end>
            <in>0</in>
            <out>555589</out>
            <file id="file-37">
              <name>OrionEp24_037.mp3</name>
              <pathurl>file:///Users/delaxstudio/src/delax-ops/ops/media/orion/projects/OrionEp24/output/audio/OrionEp24_037.mp3</pathurl>
              <rate>
                <timebase>24000</timebase>
                <ntsc>FALSE</ntsc>
              </rate>
              <media>
                <audio>
                  <channelcount>1</channelcount>
                  <samplecharacteristics>
                    <samplerate>24000</samplerate>
                    <samplesize>16</samplesize>
                  </samplecharacteristics>
                </audio>
              </media>
            </file>
            <sourcetrack>
              <mediatype>audio</mediatype>
              <trackindex>1</trackindex>
            </sourcetrack>
            <comments/>
          </clipitem>
          <clipitem id="clipitem-38">
            <name>OrionEp24_038.mp3</name>
            <enabled>TRUE</enabled>
            <duration>269</duration>
            <rate>
              <timebase>30</timebase>
              <ntsc>TRUE</ntsc>
            </rate>
            <start>10914</start>
            <end>11183</end>
            <in>0</in>
            <out>215285</out>
            <file id="file-38">
              <name>OrionEp24_038.mp3</name>
              <pathurl>file:///Users/delaxstudio/src/delax-ops/ops/media/orion/projects/OrionEp24/output/audio/OrionEp24_038.mp3</pathurl>
              <rate>
                <timebase>24000</timebase>
                <ntsc>FALSE</ntsc>
              </rate>
              <media>
                <audio>
                  <channelcount>1</channelcount>
                  <samplecharacteristics>
                    <samplerate>24000</samplerate>
                    <samplesize>16</samplesize>
                  </samplecharacteristics>
                </audio>
              </media>
            </file>
            <sourcetrack>
              <mediatype>audio</mediatype>
              <trackindex>1</trackindex>
            </sourcetrack>
            <comments/>
          </clipitem>
          <clipitem id="clipitem-39">
            <name>OrionEp24_039.mp3</name>
            <enabled>TRUE</enabled>
            <duration>382</duration>
            <rate>
              <timebase>30</timebase>
              <ntsc>TRUE</ntsc>
            </rate>
            <start>11193</start>
            <end>11575</end>
            <in>0</in>
            <out>306076</out>
            <file id="file-39">
              <name>OrionEp24_039.mp3</name>
              <pathurl>file:///Users/delaxstudio/src/delax-ops/ops/media/orion/projects/OrionEp24/output/audio/OrionEp24_039.mp3</pathurl>
              <rate>
                <timebase>24000</timebase>
                <ntsc>FALSE</ntsc>
              </rate>
              <media>
                <audio>
                  <channelcount>1</channelcount>
                  <samplecharacteristics>
                    <samplerate>24000</samplerate>
                    <samplesize>16</samplesize>
                  </samplecharacteristics>
                </audio>
              </media>
            </file>
            <sourcetrack>
              <mediatype>audio</mediatype>
              <trackindex>1</trackindex>
            </sourcetrack>
            <comments/>
          </clipitem>
          <clipitem id="clipitem-40">
            <name>OrionEp24_040.mp3</name>
            <enabled>TRUE</enabled>
            <duration>627</duration>
            <rate>
              <timebase>30</timebase>
              <ntsc>TRUE</ntsc>
            </rate>
            <start>11585</start>
            <end>12212</end>
            <in>0</in>
            <out>502178</out>
            <file id="file-40">
              <name>OrionEp24_040.mp3</name>
              <pathurl>file:///Users/delaxstudio/src/delax-ops/ops/media/orion/projects/OrionEp24/output/audio/OrionEp24_040.mp3</pathurl>
              <rate>
                <timebase>24000</timebase>
                <ntsc>FALSE</ntsc>
              </rate>
              <media>
                <audio>
                  <channelcount>1</channelcount>
                  <samplecharacteristics>
                    <samplerate>24000</samplerate>
                    <samplesize>16</samplesize>
                  </samplecharacteristics>
                </audio>
              </media>
            </file>
            <sourcetrack>
              <mediatype>audio</mediatype>
              <trackindex>1</trackindex>
            </sourcetrack>
            <comments/>
          </clipitem>
          <clipitem id="clipitem-41">
            <name>OrionEp24_041.mp3</name>
            <enabled>TRUE</enabled>
            <duration>482</duration>
            <rate>
              <timebase>30</timebase>
              <ntsc>TRUE</ntsc>
            </rate>
            <start>12222</start>
            <end>12704</end>
            <in>0</in>
            <out>386017</out>
            <file id="file-41">
              <name>OrionEp24_041.mp3</name>
              <pathurl>file:///Users/delaxstudio/src/delax-ops/ops/media/orion/projects/OrionEp24/output/audio/OrionEp24_041.mp3</pathurl>
              <rate>
                <timebase>24000</timebase>
                <ntsc>FALSE</ntsc>
              </rate>
              <media>
                <audio>
                  <channelcount>1</channelcount>
                  <samplecharacteristics>
                    <samplerate>24000</samplerate>
                    <samplesize>16</samplesize>
                  </samplecharacteristics>
                </audio>
              </media>
            </file>
            <sourcetrack>
              <mediatype>audio</mediatype>
              <trackindex>1</trackindex>
            </sourcetrack>
            <comments/>
          </clipitem>
          <clipitem id="clipitem-42">
            <name>OrionEp24_042.mp3</name>
            <enabled>TRUE</enabled>
            <duration>241</duration>
            <rate>
              <timebase>30</timebase>
              <ntsc>TRUE</ntsc>
            </rate>
            <start>12714</start>
            <end>12955</end>
            <in>0</in>
            <out>193090</out>
            <file id="file-42">
              <name>OrionEp24_042.mp3</name>
              <pathurl>file:///Users/delaxstudio/src/delax-ops/ops/media/orion/projects/OrionEp24/output/audio/OrionEp24_042.mp3</pathurl>
              <rate>
                <timebase>24000</timebase>
                <ntsc>FALSE</ntsc>
              </rate>
              <media>
                <audio>
                  <channelcount>1</channelcount>
                  <samplecharacteristics>
                    <samplerate>24000</samplerate>
                    <samplesize>16</samplesize>
                  </samplecharacteristics>
                </audio>
              </media>
            </file>
            <sourcetrack>
              <mediatype>audio</mediatype>
              <trackindex>1</trackindex>
            </sourcetrack>
            <comments/>
          </clipitem>
          <clipitem id="clipitem-43">
            <name>OrionEp24_043.mp3</name>
            <enabled>TRUE</enabled>
            <duration>167</duration>
            <rate>
              <timebase>30</timebase>
              <ntsc>TRUE</ntsc>
            </rate>
            <start>12965</start>
            <end>13132</end>
            <in>0</in>
            <out>133424</out>
            <file id="file-43">
              <name>OrionEp24_043.mp3</name>
              <pathurl>file:///Users/delaxstudio/src/delax-ops/ops/media/orion/projects/OrionEp24/output/audio/OrionEp24_043.mp3</pathurl>
              <rate>
                <timebase>24000</timebase>
                <ntsc>FALSE</ntsc>
              </rate>
              <media>
                <audio>
                  <channelcount>1</channelcount>
                  <samplecharacteristics>
                    <samplerate>24000</samplerate>
                    <samplesize>16</samplesize>
                  </samplecharacteristics>
                </audio>
              </media>
            </file>
            <sourcetrack>
              <mediatype>audio</mediatype>
              <trackindex>1</trackindex>
            </sourcetrack>
            <comments/>
          </clipitem>
          <clipitem id="clipitem-44">
            <name>OrionEp24_044.mp3</name>
            <enabled>TRUE</enabled>
            <duration>110</duration>
            <rate>
              <timebase>30</timebase>
              <ntsc>TRUE</ntsc>
            </rate>
            <start>13142</start>
            <end>13252</end>
            <in>0</in>
            <out>88294</out>
            <file id="file-44">
              <name>OrionEp24_044.mp3</name>
              <pathurl>file:///Users/delaxstudio/src/delax-ops/ops/media/orion/projects/OrionEp24/output/audio/OrionEp24_044.mp3</pathurl>
              <rate>
                <timebase>24000</timebase>
                <ntsc>FALSE</ntsc>
              </rate>
              <media>
                <audio>
                  <channelcount>1</channelcount>
                  <samplecharacteristics>
                    <samplerate>24000</samplerate>
                    <samplesize>16</samplesize>
                  </samplecharacteristics>
                </audio>
              </media>
            </file>
            <sourcetrack>
              <mediatype>audio</mediatype>
              <trackindex>1</trackindex>
            </sourcetrack>
            <comments/>
          </clipitem>
          <clipitem id="clipitem-45">
            <name>OrionEp24_045.mp3</name>
            <enabled>TRUE</enabled>
            <duration>283</duration>
            <rate>
              <timebase>30</timebase>
              <ntsc>TRUE</ntsc>
            </rate>
            <start>13262</start>
            <end>13545</end>
            <in>0</in>
            <out>226346</out>
            <file id="file-45">
              <name>OrionEp24_045.mp3</name>
              <pathurl>file:///Users/delaxstudio/src/delax-ops/ops/media/orion/projects/OrionEp24/output/audio/OrionEp24_045.mp3</pathurl>
              <rate>
                <timebase>24000</timebase>
                <ntsc>FALSE</ntsc>
              </rate>
              <media>
                <audio>
                  <channelcount>1</channelcount>
                  <samplecharacteristics>
                    <samplerate>24000</samplerate>
                    <samplesize>16</samplesize>
                  </samplecharacteristics>
                </audio>
              </media>
            </file>
            <sourcetrack>
              <mediatype>audio</mediatype>
              <trackindex>1</trackindex>
            </sourcetrack>
            <comments/>
          </clipitem>
          <clipitem id="clipitem-46">
            <name>OrionEp24_046.mp3</name>
            <enabled>TRUE</enabled>
            <duration>488</duration>
            <rate>
              <timebase>30</timebase>
              <ntsc>TRUE</ntsc>
            </rate>
            <start>13555</start>
            <end>14043</end>
            <in>0</in>
            <out>391303</out>
            <file id="file-46">
              <name>OrionEp24_046.mp3</name>
              <pathurl>file:///Users/delaxstudio/src/delax-ops/ops/media/orion/projects/OrionEp24/output/audio/OrionEp24_046.mp3</pathurl>
              <rate>
                <timebase>24000</timebase>
                <ntsc>FALSE</ntsc>
              </rate>
              <media>
                <audio>
                  <channelcount>1</channelcount>
                  <samplecharacteristics>
                    <samplerate>24000</samplerate>
                    <samplesize>16</samplesize>
                  </samplecharacteristics>
                </audio>
              </media>
            </file>
            <sourcetrack>
              <mediatype>audio</mediatype>
              <trackindex>1</trackindex>
            </sourcetrack>
            <comments/>
          </clipitem>
          <clipitem id="clipitem-47">
            <name>OrionEp24_047.mp3</name>
            <enabled>TRUE</enabled>
            <duration>281</duration>
            <rate>
              <timebase>30</timebase>
              <ntsc>TRUE</ntsc>
            </rate>
            <start>14053</start>
            <end>14334</end>
            <in>0</in>
            <out>224999</out>
            <file id="file-47">
              <name>OrionEp24_047.mp3</name>
              <pathurl>file:///Users/delaxstudio/src/delax-ops/ops/media/orion/projects/OrionEp24/output/audio/OrionEp24_047.mp3</pathurl>
              <rate>
                <timebase>24000</timebase>
                <ntsc>FALSE</ntsc>
              </rate>
              <media>
                <audio>
                  <channelcount>1</channelcount>
                  <samplecharacteristics>
                    <samplerate>24000</samplerate>
                    <samplesize>16</samplesize>
                  </samplecharacteristics>
                </audio>
              </media>
            </file>
            <sourcetrack>
              <mediatype>audio</mediatype>
              <trackindex>1</trackindex>
            </sourcetrack>
            <comments/>
          </clipitem>
          <clipitem id="clipitem-48">
            <name>OrionEp24_048.mp3</name>
            <enabled>TRUE</enabled>
            <duration>184</duration>
            <rate>
              <timebase>30</timebase>
              <ntsc>TRUE</ntsc>
            </rate>
            <start>14344</start>
            <end>14528</end>
            <in>0</in>
            <out>146875</out>
            <file id="file-48">
              <name>OrionEp24_048.mp3</name>
              <pathurl>file:///Users/delaxstudio/src/delax-ops/ops/media/orion/projects/OrionEp24/output/audio/OrionEp24_048.mp3</pathurl>
              <rate>
                <timebase>24000</timebase>
                <ntsc>FALSE</ntsc>
              </rate>
              <media>
                <audio>
                  <channelcount>1</channelcount>
                  <samplecharacteristics>
                    <samplerate>24000</samplerate>
                    <samplesize>16</samplesize>
                  </samplecharacteristics>
                </audio>
              </media>
            </file>
            <sourcetrack>
              <mediatype>audio</mediatype>
              <trackindex>1</trackindex>
            </sourcetrack>
            <comments/>
          </clipitem>
        </track>
      </audio>
    </media>
  </sequence>
</xmeml>
