<?xml version="1.0" ?>
<xmeml version="4">
  <sequence>
    <uuid>OrionEp20_timeline</uuid>
    <duration>13146</duration>
    <name>OrionEp20_timeline</name>
    <rate>
      <timebase>30</timebase>
      <ntsc>TRUE</ntsc>
    </rate>
    <media>
      <video>
        <format/>
        <track>
          <generatoritem id="subtitle-1">
            <name>Subtitle 1</name>
            <enabled>TRUE</enabled>
            <duration>173</duration>
            <rate>
              <timebase>30</timebase>
              <ntsc>TRUE</ntsc>
            </rate>
            <start>0</start>
            <end>173</end>
            <in>0</in>
            <out>173</out>
            <effect>
              <name>Text</name>
              <effectid>Text</effectid>
              <effectcategory>Text</effectcategory>
              <effecttype>generator</effecttype>
              <mediatype>video</mediatype>
              <parameter>
                <parameterid>str</parameterid>
                <name>Text</name>
                <value>通知が来るたびにスマホを見てしまう 『いいね』の数を何度も確認してしまう</value>
              </parameter>
            </effect>
          </generatoritem>
          <generatoritem id="subtitle-2">
            <name>Subtitle 2</name>
            <enabled>TRUE</enabled>
            <duration>232</duration>
            <rate>
              <timebase>30</timebase>
              <ntsc>TRUE</ntsc>
            </rate>
            <start>182</start>
            <end>414</end>
            <in>0</in>
            <out>232</out>
            <effect>
              <name>Text</name>
              <effectid>Text</effectid>
              <effectcategory>Text</effectcategory>
              <effecttype>generator</effecttype>
              <mediatype>video</mediatype>
              <parameter>
                <parameterid>str</parameterid>
                <name>Text</name>
                <value>私たちは『つながり』を求めているはずなのに なぜ『見られていないと不安』になるのでしょうか</value>
              </parameter>
            </effect>
          </generatoritem>
          <generatoritem id="subtitle-3">
            <name>Subtitle 3</name>
            <enabled>TRUE</enabled>
            <duration>88</duration>
            <rate>
              <timebase>30</timebase>
              <ntsc>TRUE</ntsc>
            </rate>
            <start>424</start>
            <end>512</end>
            <in>0</in>
            <out>88</out>
            <effect>
              <name>Text</name>
              <effectid>Text</effectid>
              <effectcategory>Text</effectcategory>
              <effecttype>generator</effecttype>
              <mediatype>video</mediatype>
              <parameter>
                <parameterid>str</parameterid>
                <name>Text</name>
                <value>ようこそ オリオンの会議室へ 今夜のテーマは『SNS疲れの処方箋』</value>
              </parameter>
            </effect>
          </generatoritem>
          <generatoritem id="subtitle-4">
            <name>Subtitle 4</name>
            <enabled>TRUE</enabled>
            <duration>89</duration>
            <rate>
              <timebase>30</timebase>
              <ntsc>TRUE</ntsc>
            </rate>
            <start>512</start>
            <end>601</end>
            <in>0</in>
            <out>89</out>
            <effect>
              <name>Text</name>
              <effectid>Text</effectid>
              <effectcategory>Text</effectcategory>
              <effecttype>generator</effecttype>
              <mediatype>video</mediatype>
              <parameter>
                <parameterid>str</parameterid>
                <name>Text</name>
                <value>スロットマシンと同じ脳の報酬回路</value>
              </parameter>
            </effect>
          </generatoritem>
          <generatoritem id="subtitle-5">
            <name>Subtitle 5</name>
            <enabled>TRUE</enabled>
            <duration>120</duration>
            <rate>
              <timebase>30</timebase>
              <ntsc>TRUE</ntsc>
            </rate>
            <start>611</start>
            <end>731</end>
            <in>0</in>
            <out>120</out>
            <effect>
              <name>Text</name>
              <effectid>Text</effectid>
              <effectcategory>Text</effectcategory>
              <effecttype>generator</effecttype>
              <mediatype>video</mediatype>
              <parameter>
                <parameterid>str</parameterid>
                <name>Text</name>
                <value>古今東西の叡智を星座のように結び 現代の悩みに新しい視座を見つける8分間</value>
              </parameter>
            </effect>
          </generatoritem>
          <generatoritem id="subtitle-6">
            <name>Subtitle 6</name>
            <enabled>TRUE</enabled>
            <duration>120</duration>
            <rate>
              <timebase>30</timebase>
              <ntsc>TRUE</ntsc>
            </rate>
            <start>731</start>
            <end>851</end>
            <in>0</in>
            <out>120</out>
            <effect>
              <name>Text</name>
              <effectid>Text</effectid>
              <effectcategory>Text</effectcategory>
              <effecttype>generator</effecttype>
              <mediatype>video</mediatype>
              <parameter>
                <parameterid>str</parameterid>
                <name>Text</name>
                <value>感覚を麻痺させるメディアの本質</value>
              </parameter>
            </effect>
          </generatoritem>
          <generatoritem id="subtitle-7">
            <name>Subtitle 7</name>
            <enabled>TRUE</enabled>
            <duration>166</duration>
            <rate>
              <timebase>30</timebase>
              <ntsc>TRUE</ntsc>
            </rate>
            <start>861</start>
            <end>1027</end>
            <in>0</in>
            <out>166</out>
            <effect>
              <name>Text</name>
              <effectid>Text</effectid>
              <effectcategory>Text</effectcategory>
              <effecttype>generator</effecttype>
              <mediatype>video</mediatype>
              <parameter>
                <parameterid>str</parameterid>
                <name>Text</name>
                <value>今夜めぐる星々は——</value>
              </parameter>
            </effect>
          </generatoritem>
          <generatoritem id="subtitle-8">
            <name>Subtitle 8</name>
            <enabled>TRUE</enabled>
            <duration>166</duration>
            <rate>
              <timebase>30</timebase>
              <ntsc>TRUE</ntsc>
            </rate>
            <start>1027</start>
            <end>1193</end>
            <in>0</in>
            <out>166</out>
            <effect>
              <name>Text</name>
              <effectid>Text</effectid>
              <effectcategory>Text</effectcategory>
              <effecttype>generator</effecttype>
              <mediatype>video</mediatype>
              <parameter>
                <parameterid>str</parameterid>
                <name>Text</name>
                <value>他者を『それ』として消費してしまう 関係性の構造</value>
              </parameter>
            </effect>
          </generatoritem>
          <generatoritem id="subtitle-9">
            <name>Subtitle 9</name>
            <enabled>TRUE</enabled>
            <duration>108</duration>
            <rate>
              <timebase>30</timebase>
              <ntsc>TRUE</ntsc>
            </rate>
            <start>1203</start>
            <end>1311</end>
            <in>0</in>
            <out>108</out>
            <effect>
              <name>Text</name>
              <effectid>Text</effectid>
              <effectcategory>Text</effectcategory>
              <effecttype>generator</effecttype>
              <mediatype>video</mediatype>
              <parameter>
                <parameterid>str</parameterid>
                <name>Text</name>
                <value>コントロールできるものとできないものの峻別</value>
              </parameter>
            </effect>
          </generatoritem>
          <generatoritem id="subtitle-10">
            <name>Subtitle 10</name>
            <enabled>TRUE</enabled>
            <duration>107</duration>
            <rate>
              <timebase>30</timebase>
              <ntsc>TRUE</ntsc>
            </rate>
            <start>1311</start>
            <end>1418</end>
            <in>0</in>
            <out>107</out>
            <effect>
              <name>Text</name>
              <effectid>Text</effectid>
              <effectcategory>Text</effectcategory>
              <effecttype>generator</effecttype>
              <mediatype>video</mediatype>
              <parameter>
                <parameterid>str</parameterid>
                <name>Text</name>
                <value>朝 目が覚める まだベッドの中</value>
              </parameter>
            </effect>
          </generatoritem>
          <generatoritem id="subtitle-11">
            <name>Subtitle 11</name>
            <enabled>TRUE</enabled>
            <duration>180</duration>
            <rate>
              <timebase>30</timebase>
              <ntsc>TRUE</ntsc>
            </rate>
            <start>1428</start>
            <end>1608</end>
            <in>0</in>
            <out>180</out>
            <effect>
              <name>Text</name>
              <effectid>Text</effectid>
              <effectcategory>Text</effectcategory>
              <effecttype>generator</effecttype>
              <mediatype>video</mediatype>
              <parameter>
                <parameterid>str</parameterid>
                <name>Text</name>
                <value>そして 誰の承認も必要としない 『今ここ』の発見</value>
              </parameter>
            </effect>
          </generatoritem>
          <generatoritem id="subtitle-12">
            <name>Subtitle 12</name>
            <enabled>TRUE</enabled>
            <duration>181</duration>
            <rate>
              <timebase>30</timebase>
              <ntsc>TRUE</ntsc>
            </rate>
            <start>1608</start>
            <end>1789</end>
            <in>0</in>
            <out>181</out>
            <effect>
              <name>Text</name>
              <effectid>Text</effectid>
              <effectcategory>Text</effectcategory>
              <effecttype>generator</effecttype>
              <mediatype>video</mediatype>
              <parameter>
                <parameterid>str</parameterid>
                <name>Text</name>
                <value>バラバラの星々が 『共有しない』という贅沢を照らし始めます</value>
              </parameter>
            </effect>
          </generatoritem>
          <generatoritem id="subtitle-13">
            <name>Subtitle 13</name>
            <enabled>TRUE</enabled>
            <duration>205</duration>
            <rate>
              <timebase>30</timebase>
              <ntsc>TRUE</ntsc>
            </rate>
            <start>1799</start>
            <end>2004</end>
            <in>0</in>
            <out>205</out>
            <effect>
              <name>Text</name>
              <effectid>Text</effectid>
              <effectcategory>Text</effectcategory>
              <effecttype>generator</effecttype>
              <mediatype>video</mediatype>
              <parameter>
                <parameterid>str</parameterid>
                <name>Text</name>
                <value>最初にすることは スマホを手に取ること</value>
              </parameter>
            </effect>
          </generatoritem>
          <generatoritem id="subtitle-14">
            <name>Subtitle 14</name>
            <enabled>TRUE</enabled>
            <duration>163</duration>
            <rate>
              <timebase>30</timebase>
              <ntsc>TRUE</ntsc>
            </rate>
            <start>2014</start>
            <end>2177</end>
            <in>0</in>
            <out>163</out>
            <effect>
              <name>Text</name>
              <effectid>Text</effectid>
              <effectcategory>Text</effectcategory>
              <effecttype>generator</effecttype>
              <mediatype>video</mediatype>
              <parameter>
                <parameterid>str</parameterid>
                <name>Text</name>
                <value>通知を確認する 昨夜の投稿に『いいね』がいくつついたか</value>
              </parameter>
            </effect>
          </generatoritem>
          <generatoritem id="subtitle-15">
            <name>Subtitle 15</name>
            <enabled>TRUE</enabled>
            <duration>164</duration>
            <rate>
              <timebase>30</timebase>
              <ntsc>TRUE</ntsc>
            </rate>
            <start>2177</start>
            <end>2341</end>
            <in>0</in>
            <out>164</out>
            <effect>
              <name>Text</name>
              <effectid>Text</effectid>
              <effectcategory>Text</effectcategory>
              <effecttype>generator</effecttype>
              <mediatype>video</mediatype>
              <parameter>
                <parameterid>str</parameterid>
                <name>Text</name>
                <value>23件 悪くない いや もっとつくと思っていた</value>
              </parameter>
            </effect>
          </generatoritem>
          <generatoritem id="subtitle-16">
            <name>Subtitle 16</name>
            <enabled>TRUE</enabled>
            <duration>107</duration>
            <rate>
              <timebase>30</timebase>
              <ntsc>TRUE</ntsc>
            </rate>
            <start>2351</start>
            <end>2458</end>
            <in>0</in>
            <out>107</out>
            <effect>
              <name>Text</name>
              <effectid>Text</effectid>
              <effectcategory>Text</effectcategory>
              <effecttype>generator</effecttype>
              <mediatype>video</mediatype>
              <parameter>
                <parameterid>str</parameterid>
                <name>Text</name>
                <value>誰がいいねしたか 一人ずつ確認する</value>
              </parameter>
            </effect>
          </generatoritem>
          <generatoritem id="subtitle-17">
            <name>Subtitle 17</name>
            <enabled>TRUE</enabled>
            <duration>106</duration>
            <rate>
              <timebase>30</timebase>
              <ntsc>TRUE</ntsc>
            </rate>
            <start>2458</start>
            <end>2564</end>
            <in>0</in>
            <out>106</out>
            <effect>
              <name>Text</name>
              <effectid>Text</effectid>
              <effectcategory>Text</effectcategory>
              <effecttype>generator</effecttype>
              <mediatype>video</mediatype>
              <parameter>
                <parameterid>str</parameterid>
                <name>Text</name>
                <value>あの人はしてくれた あの人はしてくれなかった</value>
              </parameter>
            </effect>
          </generatoritem>
          <generatoritem id="subtitle-18">
            <name>Subtitle 18</name>
            <enabled>TRUE</enabled>
            <duration>72</duration>
            <rate>
              <timebase>30</timebase>
              <ntsc>TRUE</ntsc>
            </rate>
            <start>2574</start>
            <end>2646</end>
            <in>0</in>
            <out>72</out>
            <effect>
              <name>Text</name>
              <effectid>Text</effectid>
              <effectcategory>Text</effectcategory>
              <effecttype>generator</effecttype>
              <mediatype>video</mediatype>
              <parameter>
                <parameterid>str</parameterid>
                <name>Text</name>
                <value>気づけば20分が経っている</value>
              </parameter>
            </effect>
          </generatoritem>
          <generatoritem id="subtitle-19">
            <name>Subtitle 19</name>
            <enabled>TRUE</enabled>
            <duration>55</duration>
            <rate>
              <timebase>30</timebase>
              <ntsc>TRUE</ntsc>
            </rate>
            <start>2656</start>
            <end>2711</end>
            <in>0</in>
            <out>55</out>
            <effect>
              <name>Text</name>
              <effectid>Text</effectid>
              <effectcategory>Text</effectcategory>
              <effecttype>generator</effecttype>
              <mediatype>video</mediatype>
              <parameter>
                <parameterid>str</parameterid>
                <name>Text</name>
                <value>疲れているのに スクロールを止められない</value>
              </parameter>
            </effect>
          </generatoritem>
          <generatoritem id="subtitle-20">
            <name>Subtitle 20</name>
            <enabled>TRUE</enabled>
            <duration>55</duration>
            <rate>
              <timebase>30</timebase>
              <ntsc>TRUE</ntsc>
            </rate>
            <start>2711</start>
            <end>2766</end>
            <in>0</in>
            <out>55</out>
            <effect>
              <name>Text</name>
              <effectid>Text</effectid>
              <effectcategory>Text</effectcategory>
              <effecttype>generator</effecttype>
              <mediatype>video</mediatype>
              <parameter>
                <parameterid>str</parameterid>
                <name>Text</name>
                <value>心理学者B・F・スキナーが発見した 最も消去されにくい学習パターンです</value>
              </parameter>
            </effect>
          </generatoritem>
          <generatoritem id="subtitle-21">
            <name>Subtitle 21</name>
            <enabled>TRUE</enabled>
            <duration>54</duration>
            <rate>
              <timebase>30</timebase>
              <ntsc>TRUE</ntsc>
            </rate>
            <start>2776</start>
            <end>2830</end>
            <in>0</in>
            <out>54</out>
            <effect>
              <name>Text</name>
              <effectid>Text</effectid>
              <effectcategory>Text</effectcategory>
              <effecttype>generator</effecttype>
              <mediatype>video</mediatype>
              <parameter>
                <parameterid>str</parameterid>
                <name>Text</name>
                <value>神経科学が ひとつの答えを示しています</value>
              </parameter>
            </effect>
          </generatoritem>
          <generatoritem id="subtitle-22">
            <name>Subtitle 22</name>
            <enabled>TRUE</enabled>
            <duration>54</duration>
            <rate>
              <timebase>30</timebase>
              <ntsc>TRUE</ntsc>
            </rate>
            <start>2830</start>
            <end>2884</end>
            <in>0</in>
            <out>54</out>
            <effect>
              <name>Text</name>
              <effectid>Text</effectid>
              <effectcategory>Text</effectcategory>
              <effecttype>generator</effecttype>
              <mediatype>video</mediatype>
              <parameter>
                <parameterid>str</parameterid>
                <name>Text</name>
                <value>スロットマシンと同じ原理</value>
              </parameter>
            </effect>
          </generatoritem>
          <generatoritem id="subtitle-23">
            <name>Subtitle 23</name>
            <enabled>TRUE</enabled>
            <duration>265</duration>
            <rate>
              <timebase>30</timebase>
              <ntsc>TRUE</ntsc>
            </rate>
            <start>2894</start>
            <end>3159</end>
            <in>0</in>
            <out>265</out>
            <effect>
              <name>Text</name>
              <effectid>Text</effectid>
              <effectcategory>Text</effectcategory>
              <effecttype>generator</effecttype>
              <mediatype>video</mediatype>
              <parameter>
                <parameterid>str</parameterid>
                <name>Text</name>
                <value>2016年 UCLAの研究チームが ティーンエイジャーの脳をfMRIでスキャンしました</value>
              </parameter>
            </effect>
          </generatoritem>
          <generatoritem id="subtitle-24">
            <name>Subtitle 24</name>
            <enabled>TRUE</enabled>
            <duration>96</duration>
            <rate>
              <timebase>30</timebase>
              <ntsc>TRUE</ntsc>
            </rate>
            <start>3169</start>
            <end>3265</end>
            <in>0</in>
            <out>96</out>
            <effect>
              <name>Text</name>
              <effectid>Text</effectid>
              <effectcategory>Text</effectcategory>
              <effecttype>generator</effecttype>
              <mediatype>video</mediatype>
              <parameter>
                <parameterid>str</parameterid>
                <name>Text</name>
                <value>自分の投稿に『いいね』が多くついているのを見た瞬間 側坐核——報酬系の中枢——が強く活性化した</value>
              </parameter>
            </effect>
          </generatoritem>
          <generatoritem id="subtitle-25">
            <name>Subtitle 25</name>
            <enabled>TRUE</enabled>
            <duration>97</duration>
            <rate>
              <timebase>30</timebase>
              <ntsc>TRUE</ntsc>
            </rate>
            <start>3265</start>
            <end>3362</end>
            <in>0</in>
            <out>97</out>
            <effect>
              <name>Text</name>
              <effectid>Text</effectid>
              <effectcategory>Text</effectcategory>
              <effecttype>generator</effecttype>
              <mediatype>video</mediatype>
              <parameter>
                <parameterid>str</parameterid>
                <name>Text</name>
                <value>これは金銭報酬を得たときと同じ反応です</value>
              </parameter>
            </effect>
          </generatoritem>
          <generatoritem id="subtitle-26">
            <name>Subtitle 26</name>
            <enabled>TRUE</enabled>
            <duration>96</duration>
            <rate>
              <timebase>30</timebase>
              <ntsc>TRUE</ntsc>
            </rate>
            <start>3362</start>
            <end>3458</end>
            <in>0</in>
            <out>96</out>
            <effect>
              <name>Text</name>
              <effectid>Text</effectid>
              <effectcategory>Text</effectcategory>
              <effecttype>generator</effecttype>
              <mediatype>video</mediatype>
              <parameter>
                <parameterid>str</parameterid>
                <name>Text</name>
                <value>20世紀初頭 ウィーン</value>
              </parameter>
            </effect>
          </generatoritem>
          <generatoritem id="subtitle-27">
            <name>Subtitle 27</name>
            <enabled>TRUE</enabled>
            <duration>97</duration>
            <rate>
              <timebase>30</timebase>
              <ntsc>TRUE</ntsc>
            </rate>
            <start>3458</start>
            <end>3555</end>
            <in>0</in>
            <out>97</out>
            <effect>
              <name>Text</name>
              <effectid>Text</effectid>
              <effectcategory>Text</effectcategory>
              <effecttype>generator</effecttype>
              <mediatype>video</mediatype>
              <parameter>
                <parameterid>str</parameterid>
                <name>Text</name>
                <value>宗教哲学者マルティン・ブーバーは ユダヤ教の伝統とヨーロッパ哲学の間で</value>
              </parameter>
            </effect>
          </generatoritem>
          <generatoritem id="subtitle-28">
            <name>Subtitle 28</name>
            <enabled>TRUE</enabled>
            <duration>214</duration>
            <rate>
              <timebase>30</timebase>
              <ntsc>TRUE</ntsc>
            </rate>
            <start>3565</start>
            <end>3779</end>
            <in>0</in>
            <out>214</out>
            <effect>
              <name>Text</name>
              <effectid>Text</effectid>
              <effectcategory>Text</effectcategory>
              <effecttype>generator</effecttype>
              <mediatype>video</mediatype>
              <parameter>
                <parameterid>str</parameterid>
                <name>Text</name>
                <value>さらに重要なのは SNSの通知が 『可変比率強化スケジュール』で設計されていること</value>
              </parameter>
            </effect>
          </generatoritem>
          <generatoritem id="subtitle-29">
            <name>Subtitle 29</name>
            <enabled>TRUE</enabled>
            <duration>215</duration>
            <rate>
              <timebase>30</timebase>
              <ntsc>TRUE</ntsc>
            </rate>
            <start>3779</start>
            <end>3994</end>
            <in>0</in>
            <out>215</out>
            <effect>
              <name>Text</name>
              <effectid>Text</effectid>
              <effectcategory>Text</effectcategory>
              <effecttype>generator</effecttype>
              <mediatype>video</mediatype>
              <parameter>
                <parameterid>str</parameterid>
                <name>Text</name>
                <value>Das Grundwort Ich-Du kann nur mit dem ganzen Wesen gesprochen werden.</value>
              </parameter>
            </effect>
          </generatoritem>
          <generatoritem id="subtitle-30">
            <name>Subtitle 30</name>
            <enabled>TRUE</enabled>
            <duration>134</duration>
            <rate>
              <timebase>30</timebase>
              <ntsc>TRUE</ntsc>
            </rate>
            <start>4004</start>
            <end>4138</end>
            <in>0</in>
            <out>134</out>
            <effect>
              <name>Text</name>
              <effectid>Text</effectid>
              <effectcategory>Text</effectcategory>
              <effecttype>generator</effecttype>
              <mediatype>video</mediatype>
              <parameter>
                <parameterid>str</parameterid>
                <name>Text</name>
                <value>いつ報酬が来るか分からない だから何度も確認してしまう</value>
              </parameter>
            </effect>
          </generatoritem>
          <generatoritem id="subtitle-31">
            <name>Subtitle 31</name>
            <enabled>TRUE</enabled>
            <duration>135</duration>
            <rate>
              <timebase>30</timebase>
              <ntsc>TRUE</ntsc>
            </rate>
            <start>4138</start>
            <end>4273</end>
            <in>0</in>
            <out>135</out>
            <effect>
              <name>Text</name>
              <effectid>Text</effectid>
              <effectcategory>Text</effectcategory>
              <effecttype>generator</effecttype>
              <mediatype>video</mediatype>
              <parameter>
                <parameterid>str</parameterid>
                <name>Text</name>
                <value>あなたの意志が弱いのではありません システムが そう設計されているのです</value>
              </parameter>
            </effect>
          </generatoritem>
          <generatoritem id="subtitle-32">
            <name>Subtitle 32</name>
            <enabled>TRUE</enabled>
            <duration>134</duration>
            <rate>
              <timebase>30</timebase>
              <ntsc>TRUE</ntsc>
            </rate>
            <start>4273</start>
            <end>4407</end>
            <in>0</in>
            <out>134</out>
            <effect>
              <name>Text</name>
              <effectid>Text</effectid>
              <effectcategory>Text</effectcategory>
              <effecttype>generator</effecttype>
              <mediatype>video</mediatype>
              <parameter>
                <parameterid>str</parameterid>
                <name>Text</name>
                <value>ブーバーは 人間関係を二つに分けました</value>
              </parameter>
            </effect>
          </generatoritem>
          <generatoritem id="subtitle-33">
            <name>Subtitle 33</name>
            <enabled>TRUE</enabled>
            <duration>49</duration>
            <rate>
              <timebase>30</timebase>
              <ntsc>TRUE</ntsc>
            </rate>
            <start>4417</start>
            <end>4466</end>
            <in>0</in>
            <out>49</out>
            <effect>
              <name>Text</name>
              <effectid>Text</effectid>
              <effectcategory>Text</effectcategory>
              <effecttype>generator</effecttype>
              <mediatype>video</mediatype>
              <parameter>
                <parameterid>str</parameterid>
                <name>Text</name>
                <value>しかし 問題はドーパミンだけではありません</value>
              </parameter>
            </effect>
          </generatoritem>
          <generatoritem id="subtitle-34">
            <name>Subtitle 34</name>
            <enabled>TRUE</enabled>
            <duration>49</duration>
            <rate>
              <timebase>30</timebase>
              <ntsc>TRUE</ntsc>
            </rate>
            <start>4466</start>
            <end>4515</end>
            <in>0</in>
            <out>49</out>
            <effect>
              <name>Text</name>
              <effectid>Text</effectid>
              <effectcategory>Text</effectcategory>
              <effecttype>generator</effecttype>
              <mediatype>video</mediatype>
              <parameter>
                <parameterid>str</parameterid>
                <name>Text</name>
                <value>『我とそれ Ich-Es』と『我と汝 Ich-Du』</value>
              </parameter>
            </effect>
          </generatoritem>
          <generatoritem id="subtitle-35">
            <name>Subtitle 35</name>
            <enabled>TRUE</enabled>
            <duration>181</duration>
            <rate>
              <timebase>30</timebase>
              <ntsc>TRUE</ntsc>
            </rate>
            <start>4525</start>
            <end>4706</end>
            <in>0</in>
            <out>181</out>
            <effect>
              <name>Text</name>
              <effectid>Text</effectid>
              <effectcategory>Text</effectcategory>
              <effecttype>generator</effecttype>
              <mediatype>video</mediatype>
              <parameter>
                <parameterid>str</parameterid>
                <name>Text</name>
                <value>SNSのタイムラインを見てください</value>
              </parameter>
            </effect>
          </generatoritem>
          <generatoritem id="subtitle-36">
            <name>Subtitle 36</name>
            <enabled>TRUE</enabled>
            <duration>207</duration>
            <rate>
              <timebase>30</timebase>
              <ntsc>TRUE</ntsc>
            </rate>
            <start>4716</start>
            <end>4923</end>
            <in>0</in>
            <out>207</out>
            <effect>
              <name>Text</name>
              <effectid>Text</effectid>
              <effectcategory>Text</effectcategory>
              <effecttype>generator</effecttype>
              <mediatype>video</mediatype>
              <parameter>
                <parameterid>str</parameterid>
                <name>Text</name>
                <value>人間関係の本質を問い続けていました</value>
              </parameter>
            </effect>
          </generatoritem>
          <generatoritem id="subtitle-37">
            <name>Subtitle 37</name>
            <enabled>TRUE</enabled>
            <duration>148</duration>
            <rate>
              <timebase>30</timebase>
              <ntsc>TRUE</ntsc>
            </rate>
            <start>4933</start>
            <end>5081</end>
            <in>0</in>
            <out>148</out>
            <effect>
              <name>Text</name>
              <effectid>Text</effectid>
              <effectcategory>Text</effectcategory>
              <effecttype>generator</effecttype>
              <mediatype>video</mediatype>
              <parameter>
                <parameterid>str</parameterid>
                <name>Text</name>
                <value>——『我と汝という根源語は 全存在をもってのみ語りうる』</value>
              </parameter>
            </effect>
          </generatoritem>
          <generatoritem id="subtitle-38">
            <name>Subtitle 38</name>
            <enabled>TRUE</enabled>
            <duration>170</duration>
            <rate>
              <timebase>30</timebase>
              <ntsc>TRUE</ntsc>
            </rate>
            <start>5091</start>
            <end>5261</end>
            <in>0</in>
            <out>170</out>
            <effect>
              <name>Text</name>
              <effectid>Text</effectid>
              <effectcategory>Text</effectcategory>
              <effecttype>generator</effecttype>
              <mediatype>video</mediatype>
              <parameter>
                <parameterid>str</parameterid>
                <name>Text</name>
                <value>『それ』として出会うとき 相手は利用や分析の対象になる</value>
              </parameter>
            </effect>
          </generatoritem>
          <generatoritem id="subtitle-39">
            <name>Subtitle 39</name>
            <enabled>TRUE</enabled>
            <duration>170</duration>
            <rate>
              <timebase>30</timebase>
              <ntsc>TRUE</ntsc>
            </rate>
            <start>5261</start>
            <end>5431</end>
            <in>0</in>
            <out>170</out>
            <effect>
              <name>Text</name>
              <effectid>Text</effectid>
              <effectcategory>Text</effectcategory>
              <effecttype>generator</effecttype>
              <mediatype>video</mediatype>
              <parameter>
                <parameterid>str</parameterid>
                <name>Text</name>
                <value>『汝』として出会うとき 相手は全人格として現れる</value>
              </parameter>
            </effect>
          </generatoritem>
          <generatoritem id="subtitle-40">
            <name>Subtitle 40</name>
            <enabled>TRUE</enabled>
            <duration>170</duration>
            <rate>
              <timebase>30</timebase>
              <ntsc>TRUE</ntsc>
            </rate>
            <start>5431</start>
            <end>5601</end>
            <in>0</in>
            <out>170</out>
            <effect>
              <name>Text</name>
              <effectid>Text</effectid>
              <effectcategory>Text</effectcategory>
              <effecttype>generator</effecttype>
              <mediatype>video</mediatype>
              <parameter>
                <parameterid>str</parameterid>
                <name>Text</name>
                <value>全員が互いを『コンテンツ』として消費し合っている</value>
              </parameter>
            </effect>
          </generatoritem>
          <generatoritem id="subtitle-41">
            <name>Subtitle 41</name>
            <enabled>TRUE</enabled>
            <duration>131</duration>
            <rate>
              <timebase>30</timebase>
              <ntsc>TRUE</ntsc>
            </rate>
            <start>5611</start>
            <end>5742</end>
            <in>0</in>
            <out>131</out>
            <effect>
              <name>Text</name>
              <effectid>Text</effectid>
              <effectcategory>Text</effectcategory>
              <effecttype>generator</effecttype>
              <mediatype>video</mediatype>
              <parameter>
                <parameterid>str</parameterid>
                <name>Text</name>
                <value>私たちは無意識に 友人の投稿を 『審査』していないでしょうか</value>
              </parameter>
            </effect>
          </generatoritem>
          <generatoritem id="subtitle-42">
            <name>Subtitle 42</name>
            <enabled>TRUE</enabled>
            <duration>131</duration>
            <rate>
              <timebase>30</timebase>
              <ntsc>TRUE</ntsc>
            </rate>
            <start>5742</start>
            <end>5873</end>
            <in>0</in>
            <out>131</out>
            <effect>
              <name>Text</name>
              <effectid>Text</effectid>
              <effectcategory>Text</effectcategory>
              <effecttype>generator</effecttype>
              <mediatype>video</mediatype>
              <parameter>
                <parameterid>str</parameterid>
                <name>Text</name>
                <value>『映えているか』『面白いか』『役に立つか』</value>
              </parameter>
            </effect>
          </generatoritem>
          <generatoritem id="subtitle-43">
            <name>Subtitle 43</name>
            <enabled>TRUE</enabled>
            <duration>130</duration>
            <rate>
              <timebase>30</timebase>
              <ntsc>TRUE</ntsc>
            </rate>
            <start>5873</start>
            <end>6003</end>
            <in>0</in>
            <out>130</out>
            <effect>
              <name>Text</name>
              <effectid>Text</effectid>
              <effectcategory>Text</effectcategory>
              <effecttype>generator</effecttype>
              <mediatype>video</mediatype>
              <parameter>
                <parameterid>str</parameterid>
                <name>Text</name>
                <value>逆も同じです 投稿する時の私たちは</value>
              </parameter>
            </effect>
          </generatoritem>
          <generatoritem id="subtitle-44">
            <name>Subtitle 44</name>
            <enabled>TRUE</enabled>
            <duration>131</duration>
            <rate>
              <timebase>30</timebase>
              <ntsc>TRUE</ntsc>
            </rate>
            <start>6003</start>
            <end>6134</end>
            <in>0</in>
            <out>131</out>
            <effect>
              <name>Text</name>
              <effectid>Text</effectid>
              <effectcategory>Text</effectcategory>
              <effecttype>generator</effecttype>
              <mediatype>video</mediatype>
              <parameter>
                <parameterid>str</parameterid>
                <name>Text</name>
                <value>他者を『いいねをくれる観客』として見ている</value>
              </parameter>
            </effect>
          </generatoritem>
          <generatoritem id="subtitle-45">
            <name>Subtitle 45</name>
            <enabled>TRUE</enabled>
            <duration>89</duration>
            <rate>
              <timebase>30</timebase>
              <ntsc>TRUE</ntsc>
            </rate>
            <start>6144</start>
            <end>6233</end>
            <in>0</in>
            <out>89</out>
            <effect>
              <name>Text</name>
              <effectid>Text</effectid>
              <effectcategory>Text</effectcategory>
              <effecttype>generator</effecttype>
              <mediatype>video</mediatype>
              <parameter>
                <parameterid>str</parameterid>
                <name>Text</name>
                <value>疲れるのは当然です</value>
              </parameter>
            </effect>
          </generatoritem>
          <generatoritem id="subtitle-46">
            <name>Subtitle 46</name>
            <enabled>TRUE</enabled>
            <duration>88</duration>
            <rate>
              <timebase>30</timebase>
              <ntsc>TRUE</ntsc>
            </rate>
            <start>6233</start>
            <end>6321</end>
            <in>0</in>
            <out>88</out>
            <effect>
              <name>Text</name>
              <effectid>Text</effectid>
              <effectcategory>Text</effectcategory>
              <effecttype>generator</effecttype>
              <mediatype>video</mediatype>
              <parameter>
                <parameterid>str</parameterid>
                <name>Text</name>
                <value>24時間 舞台の上で演じながら 同時に客席で審査員もやらされている</value>
              </parameter>
            </effect>
          </generatoritem>
          <generatoritem id="subtitle-47">
            <name>Subtitle 47</name>
            <enabled>TRUE</enabled>
            <duration>89</duration>
            <rate>
              <timebase>30</timebase>
              <ntsc>TRUE</ntsc>
            </rate>
            <start>6321</start>
            <end>6410</end>
            <in>0</in>
            <out>89</out>
            <effect>
              <name>Text</name>
              <effectid>Text</effectid>
              <effectcategory>Text</effectcategory>
              <effecttype>generator</effecttype>
              <mediatype>video</mediatype>
              <parameter>
                <parameterid>str</parameterid>
                <name>Text</name>
                <value>1960年代 カナダ</value>
              </parameter>
            </effect>
          </generatoritem>
          <generatoritem id="subtitle-48">
            <name>Subtitle 48</name>
            <enabled>TRUE</enabled>
            <duration>88</duration>
            <rate>
              <timebase>30</timebase>
              <ntsc>TRUE</ntsc>
            </rate>
            <start>6410</start>
            <end>6498</end>
            <in>0</in>
            <out>88</out>
            <effect>
              <name>Text</name>
              <effectid>Text</effectid>
              <effectcategory>Text</effectcategory>
              <effecttype>generator</effecttype>
              <mediatype>video</mediatype>
              <parameter>
                <parameterid>str</parameterid>
                <name>Text</name>
                <value>メディア論の巨人マーシャル・マクルーハンは テレビの時代に 恐ろしい洞察を残しています</value>
              </parameter>
            </effect>
          </generatoritem>
          <generatoritem id="subtitle-49">
            <name>Subtitle 49</name>
            <enabled>TRUE</enabled>
            <duration>31</duration>
            <rate>
              <timebase>30</timebase>
              <ntsc>TRUE</ntsc>
            </rate>
            <start>6508</start>
            <end>6539</end>
            <in>0</in>
            <out>31</out>
            <effect>
              <name>Text</name>
              <effectid>Text</effectid>
              <effectcategory>Text</effectcategory>
              <effecttype>generator</effecttype>
              <mediatype>video</mediatype>
              <parameter>
                <parameterid>str</parameterid>
                <name>Text</name>
                <value>では なぜその疲れから降りられないのか</value>
              </parameter>
            </effect>
          </generatoritem>
          <generatoritem id="subtitle-50">
            <name>Subtitle 50</name>
            <enabled>TRUE</enabled>
            <duration>32</duration>
            <rate>
              <timebase>30</timebase>
              <ntsc>TRUE</ntsc>
            </rate>
            <start>6539</start>
            <end>6571</end>
            <in>0</in>
            <out>32</out>
            <effect>
              <name>Text</name>
              <effectid>Text</effectid>
              <effectcategory>Text</effectcategory>
              <effecttype>generator</effecttype>
              <mediatype>video</mediatype>
              <parameter>
                <parameterid>str</parameterid>
                <name>Text</name>
                <value>The youth Narcissus mistook his own reflection in the water for another person.</value>
              </parameter>
            </effect>
          </generatoritem>
          <generatoritem id="subtitle-51">
            <name>Subtitle 51</name>
            <enabled>TRUE</enabled>
            <duration>31</duration>
            <rate>
              <timebase>30</timebase>
              <ntsc>TRUE</ntsc>
            </rate>
            <start>6571</start>
            <end>6602</end>
            <in>0</in>
            <out>31</out>
            <effect>
              <name>Text</name>
              <effectid>Text</effectid>
              <effectcategory>Text</effectcategory>
              <effecttype>generator</effecttype>
              <mediatype>video</mediatype>
              <parameter>
                <parameterid>str</parameterid>
                <name>Text</name>
                <value>This extension of himself by mirror numbed his perceptions.</value>
              </parameter>
            </effect>
          </generatoritem>
          <generatoritem id="subtitle-52">
            <name>Subtitle 52</name>
            <enabled>TRUE</enabled>
            <duration>258</duration>
            <rate>
              <timebase>30</timebase>
              <ntsc>TRUE</ntsc>
            </rate>
            <start>6612</start>
            <end>6870</end>
            <in>0</in>
            <out>258</out>
            <effect>
              <name>Text</name>
              <effectid>Text</effectid>
              <effectcategory>Text</effectcategory>
              <effecttype>generator</effecttype>
              <mediatype>video</mediatype>
              <parameter>
                <parameterid>str</parameterid>
                <name>Text</name>
                <value>——『若者ナルキッソスは 水面の自分を他者と見誤った</value>
              </parameter>
            </effect>
          </generatoritem>
          <generatoritem id="subtitle-53">
            <name>Subtitle 53</name>
            <enabled>TRUE</enabled>
            <duration>129</duration>
            <rate>
              <timebase>30</timebase>
              <ntsc>TRUE</ntsc>
            </rate>
            <start>6880</start>
            <end>7009</end>
            <in>0</in>
            <out>129</out>
            <effect>
              <name>Text</name>
              <effectid>Text</effectid>
              <effectcategory>Text</effectcategory>
              <effecttype>generator</effecttype>
              <mediatype>video</mediatype>
              <parameter>
                <parameterid>str</parameterid>
                <name>Text</name>
                <value>鏡による自己拡張が 彼の知覚を麻痺させたのだ』</value>
              </parameter>
            </effect>
          </generatoritem>
          <generatoritem id="subtitle-54">
            <name>Subtitle 54</name>
            <enabled>TRUE</enabled>
            <duration>129</duration>
            <rate>
              <timebase>30</timebase>
              <ntsc>TRUE</ntsc>
            </rate>
            <start>7009</start>
            <end>7138</end>
            <in>0</in>
            <out>129</out>
            <effect>
              <name>Text</name>
              <effectid>Text</effectid>
              <effectcategory>Text</effectcategory>
              <effecttype>generator</effecttype>
              <mediatype>video</mediatype>
              <parameter>
                <parameterid>str</parameterid>
                <name>Text</name>
                <value>マクルーハンは これを『ナルコシス 麻痺』と呼びました</value>
              </parameter>
            </effect>
          </generatoritem>
          <generatoritem id="subtitle-55">
            <name>Subtitle 55</name>
            <enabled>TRUE</enabled>
            <duration>172</duration>
            <rate>
              <timebase>30</timebase>
              <ntsc>TRUE</ntsc>
            </rate>
            <start>7148</start>
            <end>7320</end>
            <in>0</in>
            <out>172</out>
            <effect>
              <name>Text</name>
              <effectid>Text</effectid>
              <effectcategory>Text</effectcategory>
              <effecttype>generator</effecttype>
              <mediatype>video</mediatype>
              <parameter>
                <parameterid>str</parameterid>
                <name>Text</name>
                <value>テクノロジーによって身体が拡張されると その過剰な刺激から身を守るために</value>
              </parameter>
            </effect>
          </generatoritem>
          <generatoritem id="subtitle-56">
            <name>Subtitle 56</name>
            <enabled>TRUE</enabled>
            <duration>172</duration>
            <rate>
              <timebase>30</timebase>
              <ntsc>TRUE</ntsc>
            </rate>
            <start>7320</start>
            <end>7492</end>
            <in>0</in>
            <out>172</out>
            <effect>
              <name>Text</name>
              <effectid>Text</effectid>
              <effectcategory>Text</effectcategory>
              <effecttype>generator</effecttype>
              <mediatype>video</mediatype>
              <parameter>
                <parameterid>str</parameterid>
                <name>Text</name>
                <value>中枢神経は感覚を鈍らせる</value>
              </parameter>
            </effect>
          </generatoritem>
          <generatoritem id="subtitle-57">
            <name>Subtitle 57</name>
            <enabled>TRUE</enabled>
            <duration>126</duration>
            <rate>
              <timebase>30</timebase>
              <ntsc>TRUE</ntsc>
            </rate>
            <start>7502</start>
            <end>7628</end>
            <in>0</in>
            <out>126</out>
            <effect>
              <name>Text</name>
              <effectid>Text</effectid>
              <effectcategory>Text</effectcategory>
              <effecttype>generator</effecttype>
              <mediatype>video</mediatype>
              <parameter>
                <parameterid>str</parameterid>
                <name>Text</name>
                <value>私たちはスマホに『見とれている』のではない</value>
              </parameter>
            </effect>
          </generatoritem>
          <generatoritem id="subtitle-58">
            <name>Subtitle 58</name>
            <enabled>TRUE</enabled>
            <duration>126</duration>
            <rate>
              <timebase>30</timebase>
              <ntsc>TRUE</ntsc>
            </rate>
            <start>7628</start>
            <end>7754</end>
            <in>0</in>
            <out>126</out>
            <effect>
              <name>Text</name>
              <effectid>Text</effectid>
              <effectcategory>Text</effectcategory>
              <effecttype>generator</effecttype>
              <mediatype>video</mediatype>
              <parameter>
                <parameterid>str</parameterid>
                <name>Text</name>
                <value>現実の不安や孤独を感じないように タイムラインという情報の洪水を浴びて</value>
              </parameter>
            </effect>
          </generatoritem>
          <generatoritem id="subtitle-59">
            <name>Subtitle 59</name>
            <enabled>TRUE</enabled>
            <duration>126</duration>
            <rate>
              <timebase>30</timebase>
              <ntsc>TRUE</ntsc>
            </rate>
            <start>7754</start>
            <end>7880</end>
            <in>0</in>
            <out>126</out>
            <effect>
              <name>Text</name>
              <effectid>Text</effectid>
              <effectcategory>Text</effectcategory>
              <effecttype>generator</effecttype>
              <mediatype>video</mediatype>
              <parameter>
                <parameterid>str</parameterid>
                <name>Text</name>
                <value>感覚を『麻痺』させているのです</value>
              </parameter>
            </effect>
          </generatoritem>
          <generatoritem id="subtitle-60">
            <name>Subtitle 60</name>
            <enabled>TRUE</enabled>
            <duration>132</duration>
            <rate>
              <timebase>30</timebase>
              <ntsc>TRUE</ntsc>
            </rate>
            <start>7890</start>
            <end>8022</end>
            <in>0</in>
            <out>132</out>
            <effect>
              <name>Text</name>
              <effectid>Text</effectid>
              <effectcategory>Text</effectcategory>
              <effecttype>generator</effecttype>
              <mediatype>video</mediatype>
              <parameter>
                <parameterid>str</parameterid>
                <name>Text</name>
                <value>スクロールが止まらないのは 楽しいからではない</value>
              </parameter>
            </effect>
          </generatoritem>
          <generatoritem id="subtitle-61">
            <name>Subtitle 61</name>
            <enabled>TRUE</enabled>
            <duration>132</duration>
            <rate>
              <timebase>30</timebase>
              <ntsc>TRUE</ntsc>
            </rate>
            <start>8022</start>
            <end>8154</end>
            <in>0</in>
            <out>132</out>
            <effect>
              <name>Text</name>
              <effectid>Text</effectid>
              <effectcategory>Text</effectcategory>
              <effecttype>generator</effecttype>
              <mediatype>video</mediatype>
              <parameter>
                <parameterid>str</parameterid>
                <name>Text</name>
                <value>止めた瞬間に訪れる『静寂』が 怖いからです</value>
              </parameter>
            </effect>
          </generatoritem>
          <generatoritem id="subtitle-62">
            <name>Subtitle 62</name>
            <enabled>TRUE</enabled>
            <duration>59</duration>
            <rate>
              <timebase>30</timebase>
              <ntsc>TRUE</ntsc>
            </rate>
            <start>8164</start>
            <end>8223</end>
            <in>0</in>
            <out>59</out>
            <effect>
              <name>Text</name>
              <effectid>Text</effectid>
              <effectcategory>Text</effectcategory>
              <effecttype>generator</effecttype>
              <mediatype>video</mediatype>
              <parameter>
                <parameterid>str</parameterid>
                <name>Text</name>
                <value>では 本物の鎖につながれながら 魂だけは自由だった男の話をしましょう</value>
              </parameter>
            </effect>
          </generatoritem>
          <generatoritem id="subtitle-63">
            <name>Subtitle 63</name>
            <enabled>TRUE</enabled>
            <duration>59</duration>
            <rate>
              <timebase>30</timebase>
              <ntsc>TRUE</ntsc>
            </rate>
            <start>8223</start>
            <end>8282</end>
            <in>0</in>
            <out>59</out>
            <effect>
              <name>Text</name>
              <effectid>Text</effectid>
              <effectcategory>Text</effectcategory>
              <effecttype>generator</effecttype>
              <mediatype>video</mediatype>
              <parameter>
                <parameterid>str</parameterid>
                <name>Text</name>
                <value>紀元1世紀 ローマ帝国</value>
              </parameter>
            </effect>
          </generatoritem>
          <generatoritem id="subtitle-64">
            <name>Subtitle 64</name>
            <enabled>TRUE</enabled>
            <duration>59</duration>
            <rate>
              <timebase>30</timebase>
              <ntsc>TRUE</ntsc>
            </rate>
            <start>8282</start>
            <end>8341</end>
            <in>0</in>
            <out>59</out>
            <effect>
              <name>Text</name>
              <effectid>Text</effectid>
              <effectcategory>Text</effectcategory>
              <effecttype>generator</effecttype>
              <mediatype>video</mediatype>
              <parameter>
                <parameterid>str</parameterid>
                <name>Text</name>
                <value>しかし 鎖につながれた身でありながら 彼は『真の自由』を発見しました</value>
              </parameter>
            </effect>
          </generatoritem>
          <generatoritem id="subtitle-65">
            <name>Subtitle 65</name>
            <enabled>TRUE</enabled>
            <duration>446</duration>
            <rate>
              <timebase>30</timebase>
              <ntsc>TRUE</ntsc>
            </rate>
            <start>8351</start>
            <end>8797</end>
            <in>0</in>
            <out>446</out>
            <effect>
              <name>Text</name>
              <effectid>Text</effectid>
              <effectcategory>Text</effectcategory>
              <effecttype>generator</effecttype>
              <mediatype>video</mediatype>
              <parameter>
                <parameterid>str</parameterid>
                <name>Text</name>
                <value>哲学者エピクテトスは もともと奴隷でした</value>
              </parameter>
            </effect>
          </generatoritem>
          <generatoritem id="subtitle-66">
            <name>Subtitle 66</name>
            <enabled>TRUE</enabled>
            <duration>58</duration>
            <rate>
              <timebase>30</timebase>
              <ntsc>TRUE</ntsc>
            </rate>
            <start>8807</start>
            <end>8865</end>
            <in>0</in>
            <out>58</out>
            <effect>
              <name>Text</name>
              <effectid>Text</effectid>
              <effectcategory>Text</effectcategory>
              <effecttype>generator</effecttype>
              <mediatype>video</mediatype>
              <parameter>
                <parameterid>str</parameterid>
                <name>Text</name>
                <value>Ταράσσει τοὺς ἀνθρώπους οὐ τὰ πράγματα</value>
              </parameter>
            </effect>
          </generatoritem>
          <generatoritem id="subtitle-67">
            <name>Subtitle 67</name>
            <enabled>TRUE</enabled>
            <duration>58</duration>
            <rate>
              <timebase>30</timebase>
              <ntsc>TRUE</ntsc>
            </rate>
            <start>8865</start>
            <end>8923</end>
            <in>0</in>
            <out>58</out>
            <effect>
              <name>Text</name>
              <effectid>Text</effectid>
              <effectcategory>Text</effectcategory>
              <effecttype>generator</effecttype>
              <mediatype>video</mediatype>
              <parameter>
                <parameterid>str</parameterid>
                <name>Text</name>
                <value>ἀλλὰ τὰ περὶ τῶν πραγμάτων δόγματα.</value>
              </parameter>
            </effect>
          </generatoritem>
          <generatoritem id="subtitle-68">
            <name>Subtitle 68</name>
            <enabled>TRUE</enabled>
            <duration>58</duration>
            <rate>
              <timebase>30</timebase>
              <ntsc>TRUE</ntsc>
            </rate>
            <start>8923</start>
            <end>8981</end>
            <in>0</in>
            <out>58</out>
            <effect>
              <name>Text</name>
              <effectid>Text</effectid>
              <effectcategory>Text</effectcategory>
              <effecttype>generator</effecttype>
              <mediatype>video</mediatype>
              <parameter>
                <parameterid>str</parameterid>
                <name>Text</name>
                <value>——『人を乱すのは 物事そのものではなく 物事についての判断である』</value>
              </parameter>
            </effect>
          </generatoritem>
          <generatoritem id="subtitle-69">
            <name>Subtitle 69</name>
            <enabled>TRUE</enabled>
            <duration>164</duration>
            <rate>
              <timebase>30</timebase>
              <ntsc>TRUE</ntsc>
            </rate>
            <start>8991</start>
            <end>9155</end>
            <in>0</in>
            <out>164</out>
            <effect>
              <name>Text</name>
              <effectid>Text</effectid>
              <effectcategory>Text</effectcategory>
              <effecttype>generator</effecttype>
              <mediatype>video</mediatype>
              <parameter>
                <parameterid>str</parameterid>
                <name>Text</name>
                <value>『いいね』の数は あなたにはコントロールできません 他者がどう反応するかは 他者の領域です</value>
              </parameter>
            </effect>
          </generatoritem>
          <generatoritem id="subtitle-70">
            <name>Subtitle 70</name>
            <enabled>TRUE</enabled>
            <duration>165</duration>
            <rate>
              <timebase>30</timebase>
              <ntsc>TRUE</ntsc>
            </rate>
            <start>9155</start>
            <end>9320</end>
            <in>0</in>
            <out>165</out>
            <effect>
              <name>Text</name>
              <effectid>Text</effectid>
              <effectcategory>Text</effectcategory>
              <effecttype>generator</effecttype>
              <mediatype>video</mediatype>
              <parameter>
                <parameterid>str</parameterid>
                <name>Text</name>
                <value>しかし その数をどう『解釈』するかは あなたが決められる</value>
              </parameter>
            </effect>
          </generatoritem>
          <generatoritem id="subtitle-71">
            <name>Subtitle 71</name>
            <enabled>TRUE</enabled>
            <duration>147</duration>
            <rate>
              <timebase>30</timebase>
              <ntsc>TRUE</ntsc>
            </rate>
            <start>9330</start>
            <end>9477</end>
            <in>0</in>
            <out>147</out>
            <effect>
              <name>Text</name>
              <effectid>Text</effectid>
              <effectcategory>Text</effectcategory>
              <effecttype>generator</effecttype>
              <mediatype>video</mediatype>
              <parameter>
                <parameterid>str</parameterid>
                <name>Text</name>
                <value>エピクテトスは言います</value>
              </parameter>
            </effect>
          </generatoritem>
          <generatoritem id="subtitle-72">
            <name>Subtitle 72</name>
            <enabled>TRUE</enabled>
            <duration>148</duration>
            <rate>
              <timebase>30</timebase>
              <ntsc>TRUE</ntsc>
            </rate>
            <start>9477</start>
            <end>9625</end>
            <in>0</in>
            <out>148</out>
            <effect>
              <name>Text</name>
              <effectid>Text</effectid>
              <effectcategory>Text</effectcategory>
              <effecttype>generator</effecttype>
              <mediatype>video</mediatype>
              <parameter>
                <parameterid>str</parameterid>
                <name>Text</name>
                <value>コントロールできないものに心を乱されるな コントロールできるもの——自分の判断 自分の態度——だけに集中せよ と</value>
              </parameter>
            </effect>
          </generatoritem>
          <generatoritem id="subtitle-73">
            <name>Subtitle 73</name>
            <enabled>TRUE</enabled>
            <duration>149</duration>
            <rate>
              <timebase>30</timebase>
              <ntsc>TRUE</ntsc>
            </rate>
            <start>9635</start>
            <end>9784</end>
            <in>0</in>
            <out>149</out>
            <effect>
              <name>Text</name>
              <effectid>Text</effectid>
              <effectcategory>Text</effectcategory>
              <effecttype>generator</effecttype>
              <mediatype>video</mediatype>
              <parameter>
                <parameterid>str</parameterid>
                <name>Text</name>
                <value>奴隷だった彼が 皇帝よりも自由だったのは この区別を徹底したからです</value>
              </parameter>
            </effect>
          </generatoritem>
          <generatoritem id="subtitle-74">
            <name>Subtitle 74</name>
            <enabled>TRUE</enabled>
            <duration>149</duration>
            <rate>
              <timebase>30</timebase>
              <ntsc>TRUE</ntsc>
            </rate>
            <start>9784</start>
            <end>9933</end>
            <in>0</in>
            <out>149</out>
            <effect>
              <name>Text</name>
              <effectid>Text</effectid>
              <effectcategory>Text</effectcategory>
              <effecttype>generator</effecttype>
              <mediatype>video</mediatype>
              <parameter>
                <parameterid>str</parameterid>
                <name>Text</name>
                <value>私たちはスマホという見えない鎖に繋がれている</value>
              </parameter>
            </effect>
          </generatoritem>
          <generatoritem id="subtitle-75">
            <name>Subtitle 75</name>
            <enabled>TRUE</enabled>
            <duration>150</duration>
            <rate>
              <timebase>30</timebase>
              <ntsc>TRUE</ntsc>
            </rate>
            <start>9933</start>
            <end>10083</end>
            <in>0</in>
            <out>150</out>
            <effect>
              <name>Text</name>
              <effectid>Text</effectid>
              <effectcategory>Text</effectcategory>
              <effecttype>generator</effecttype>
              <mediatype>video</mediatype>
              <parameter>
                <parameterid>str</parameterid>
                <name>Text</name>
                <value>でも 心の自由は 誰にも奪えない</value>
              </parameter>
            </effect>
          </generatoritem>
          <generatoritem id="subtitle-76">
            <name>Subtitle 76</name>
            <enabled>TRUE</enabled>
            <duration>43</duration>
            <rate>
              <timebase>30</timebase>
              <ntsc>TRUE</ntsc>
            </rate>
            <start>10224</start>
            <end>10267</end>
            <in>0</in>
            <out>43</out>
            <effect>
              <name>Text</name>
              <effectid>Text</effectid>
              <effectcategory>Text</effectcategory>
              <effecttype>generator</effecttype>
              <mediatype>video</mediatype>
              <parameter>
                <parameterid>str</parameterid>
                <name>Text</name>
                <value>ベトナム出身の禅僧ティク・ナット・ハンは こう語りました</value>
              </parameter>
            </effect>
          </generatoritem>
          <generatoritem id="subtitle-77">
            <name>Subtitle 77</name>
            <enabled>TRUE</enabled>
            <duration>43</duration>
            <rate>
              <timebase>30</timebase>
              <ntsc>TRUE</ntsc>
            </rate>
            <start>10267</start>
            <end>10310</end>
            <in>0</in>
            <out>43</out>
            <effect>
              <name>Text</name>
              <effectid>Text</effectid>
              <effectcategory>Text</effectcategory>
              <effecttype>generator</effecttype>
              <mediatype>video</mediatype>
              <parameter>
                <parameterid>str</parameterid>
                <name>Text</name>
                <value>When you look at the flower, the flower is looking at you.</value>
              </parameter>
            </effect>
          </generatoritem>
          <generatoritem id="subtitle-78">
            <name>Subtitle 78</name>
            <enabled>TRUE</enabled>
            <duration>43</duration>
            <rate>
              <timebase>30</timebase>
              <ntsc>TRUE</ntsc>
            </rate>
            <start>10310</start>
            <end>10353</end>
            <in>0</in>
            <out>43</out>
            <effect>
              <name>Text</name>
              <effectid>Text</effectid>
              <effectcategory>Text</effectcategory>
              <effecttype>generator</effecttype>
              <mediatype>video</mediatype>
              <parameter>
                <parameterid>str</parameterid>
                <name>Text</name>
                <value>——『あなたが花を見るとき 花もまたあなたを見ている』</value>
              </parameter>
            </effect>
          </generatoritem>
          <generatoritem id="subtitle-79">
            <name>Subtitle 79</name>
            <enabled>TRUE</enabled>
            <duration>244</duration>
            <rate>
              <timebase>30</timebase>
              <ntsc>TRUE</ntsc>
            </rate>
            <start>10363</start>
            <end>10607</end>
            <in>0</in>
            <out>244</out>
            <effect>
              <name>Text</name>
              <effectid>Text</effectid>
              <effectcategory>Text</effectcategory>
              <effecttype>generator</effecttype>
              <mediatype>video</mediatype>
              <parameter>
                <parameterid>str</parameterid>
                <name>Text</name>
                <value>その体験は 誰かに『いいね』と言われなくても そこに存在しています</value>
              </parameter>
            </effect>
          </generatoritem>
          <generatoritem id="subtitle-80">
            <name>Subtitle 80</name>
            <enabled>TRUE</enabled>
            <duration>245</duration>
            <rate>
              <timebase>30</timebase>
              <ntsc>TRUE</ntsc>
            </rate>
            <start>10607</start>
            <end>10852</end>
            <in>0</in>
            <out>245</out>
            <effect>
              <name>Text</name>
              <effectid>Text</effectid>
              <effectcategory>Text</effectcategory>
              <effecttype>generator</effecttype>
              <mediatype>video</mediatype>
              <parameter>
                <parameterid>str</parameterid>
                <name>Text</name>
                <value>むしろ 写真を撮って共有しようとした瞬間 『私と花』の結びつきは切れ</value>
              </parameter>
            </effect>
          </generatoritem>
          <generatoritem id="subtitle-81">
            <name>Subtitle 81</name>
            <enabled>TRUE</enabled>
            <duration>98</duration>
            <rate>
              <timebase>30</timebase>
              <ntsc>TRUE</ntsc>
            </rate>
            <start>10862</start>
            <end>10960</end>
            <in>0</in>
            <out>98</out>
            <effect>
              <name>Text</name>
              <effectid>Text</effectid>
              <effectcategory>Text</effectcategory>
              <effecttype>generator</effecttype>
              <mediatype>video</mediatype>
              <parameter>
                <parameterid>str</parameterid>
                <name>Text</name>
                <value>『私とフォロワー』の関係にすり替わってしまう</value>
              </parameter>
            </effect>
          </generatoritem>
          <generatoritem id="subtitle-82">
            <name>Subtitle 82</name>
            <enabled>TRUE</enabled>
            <duration>98</duration>
            <rate>
              <timebase>30</timebase>
              <ntsc>TRUE</ntsc>
            </rate>
            <start>10960</start>
            <end>11058</end>
            <in>0</in>
            <out>98</out>
            <effect>
              <name>Text</name>
              <effectid>Text</effectid>
              <effectcategory>Text</effectcategory>
              <effecttype>generator</effecttype>
              <mediatype>video</mediatype>
              <parameter>
                <parameterid>str</parameterid>
                <name>Text</name>
                <value>ブーバーの言う『汝』と出会うためには まず一度 回線を切らなければなりません</value>
              </parameter>
            </effect>
          </generatoritem>
          <generatoritem id="subtitle-83">
            <name>Subtitle 83</name>
            <enabled>TRUE</enabled>
            <duration>146</duration>
            <rate>
              <timebase>30</timebase>
              <ntsc>TRUE</ntsc>
            </rate>
            <start>11068</start>
            <end>11214</end>
            <in>0</in>
            <out>146</out>
            <effect>
              <name>Text</name>
              <effectid>Text</effectid>
              <effectcategory>Text</effectcategory>
              <effecttype>generator</effecttype>
              <mediatype>video</mediatype>
              <parameter>
                <parameterid>str</parameterid>
                <name>Text</name>
                <value>シェアしないこと それは隠すことではありません</value>
              </parameter>
            </effect>
          </generatoritem>
          <generatoritem id="subtitle-84">
            <name>Subtitle 84</name>
            <enabled>TRUE</enabled>
            <duration>146</duration>
            <rate>
              <timebase>30</timebase>
              <ntsc>TRUE</ntsc>
            </rate>
            <start>11214</start>
            <end>11360</end>
            <in>0</in>
            <out>146</out>
            <effect>
              <name>Text</name>
              <effectid>Text</effectid>
              <effectcategory>Text</effectcategory>
              <effecttype>generator</effecttype>
              <mediatype>video</mediatype>
              <parameter>
                <parameterid>str</parameterid>
                <name>Text</name>
                <value>その体験を 他者の視線で汚さず 純粋なまま味わうこと</value>
              </parameter>
            </effect>
          </generatoritem>
          <generatoritem id="subtitle-85">
            <name>Subtitle 85</name>
            <enabled>TRUE</enabled>
            <duration>146</duration>
            <rate>
              <timebase>30</timebase>
              <ntsc>TRUE</ntsc>
            </rate>
            <start>11360</start>
            <end>11506</end>
            <in>0</in>
            <out>146</out>
            <effect>
              <name>Text</name>
              <effectid>Text</effectid>
              <effectcategory>Text</effectcategory>
              <effecttype>generator</effecttype>
              <mediatype>video</mediatype>
              <parameter>
                <parameterid>str</parameterid>
                <name>Text</name>
                <value>『今ここ』とは 誰の『いいね』も必要としない あなただけの聖域なのです</value>
              </parameter>
            </effect>
          </generatoritem>
          <generatoritem id="subtitle-86">
            <name>Subtitle 86</name>
            <enabled>TRUE</enabled>
            <duration>80</duration>
            <rate>
              <timebase>30</timebase>
              <ntsc>TRUE</ntsc>
            </rate>
            <start>11516</start>
            <end>11596</end>
            <in>0</in>
            <out>80</out>
            <effect>
              <name>Text</name>
              <effectid>Text</effectid>
              <effectcategory>Text</effectcategory>
              <effecttype>generator</effecttype>
              <mediatype>video</mediatype>
              <parameter>
                <parameterid>str</parameterid>
                <name>Text</name>
                <value>次の週末</value>
              </parameter>
            </effect>
          </generatoritem>
          <generatoritem id="subtitle-87">
            <name>Subtitle 87</name>
            <enabled>TRUE</enabled>
            <duration>79</duration>
            <rate>
              <timebase>30</timebase>
              <ntsc>TRUE</ntsc>
            </rate>
            <start>11596</start>
            <end>11675</end>
            <in>0</in>
            <out>79</out>
            <effect>
              <name>Text</name>
              <effectid>Text</effectid>
              <effectcategory>Text</effectcategory>
              <effecttype>generator</effecttype>
              <mediatype>video</mediatype>
              <parameter>
                <parameterid>str</parameterid>
                <name>Text</name>
                <value>旅先で 息を呑むような夕日に出会ったとする</value>
              </parameter>
            </effect>
          </generatoritem>
          <generatoritem id="subtitle-88">
            <name>Subtitle 88</name>
            <enabled>TRUE</enabled>
            <duration>93</duration>
            <rate>
              <timebase>30</timebase>
              <ntsc>TRUE</ntsc>
            </rate>
            <start>11685</start>
            <end>11778</end>
            <in>0</in>
            <out>93</out>
            <effect>
              <name>Text</name>
              <effectid>Text</effectid>
              <effectcategory>Text</effectcategory>
              <effecttype>generator</effecttype>
              <mediatype>video</mediatype>
              <parameter>
                <parameterid>str</parameterid>
                <name>Text</name>
                <value>いつもなら すぐにスマホを取り出すでしょう</value>
              </parameter>
            </effect>
          </generatoritem>
          <generatoritem id="subtitle-89">
            <name>Subtitle 89</name>
            <enabled>TRUE</enabled>
            <duration>94</duration>
            <rate>
              <timebase>30</timebase>
              <ntsc>TRUE</ntsc>
            </rate>
            <start>11778</start>
            <end>11872</end>
            <in>0</in>
            <out>94</out>
            <effect>
              <name>Text</name>
              <effectid>Text</effectid>
              <effectcategory>Text</effectcategory>
              <effecttype>generator</effecttype>
              <mediatype>video</mediatype>
              <parameter>
                <parameterid>str</parameterid>
                <name>Text</name>
                <value>でも 今回はあえて ポケットに入れたままにしてみる</value>
              </parameter>
            </effect>
          </generatoritem>
          <generatoritem id="subtitle-90">
            <name>Subtitle 90</name>
            <enabled>TRUE</enabled>
            <duration>241</duration>
            <rate>
              <timebase>30</timebase>
              <ntsc>TRUE</ntsc>
            </rate>
            <start>11882</start>
            <end>12123</end>
            <in>0</in>
            <out>241</out>
            <effect>
              <name>Text</name>
              <effectid>Text</effectid>
              <effectcategory>Text</effectcategory>
              <effecttype>generator</effecttype>
              <mediatype>video</mediatype>
              <parameter>
                <parameterid>str</parameterid>
                <name>Text</name>
                <value>『いいね』の数に変換せず そのまま私の心の中にだけ 溶かしていく</value>
              </parameter>
            </effect>
          </generatoritem>
          <generatoritem id="subtitle-91">
            <name>Subtitle 91</name>
            <enabled>TRUE</enabled>
            <duration>112</duration>
            <rate>
              <timebase>30</timebase>
              <ntsc>TRUE</ntsc>
            </rate>
            <start>12133</start>
            <end>12245</end>
            <in>0</in>
            <out>112</out>
            <effect>
              <name>Text</name>
              <effectid>Text</effectid>
              <effectcategory>Text</effectcategory>
              <effecttype>generator</effecttype>
              <mediatype>video</mediatype>
              <parameter>
                <parameterid>str</parameterid>
                <name>Text</name>
                <value>この感動は 誰ともシェアしない</value>
              </parameter>
            </effect>
          </generatoritem>
          <generatoritem id="subtitle-92">
            <name>Subtitle 92</name>
            <enabled>TRUE</enabled>
            <duration>112</duration>
            <rate>
              <timebase>30</timebase>
              <ntsc>TRUE</ntsc>
            </rate>
            <start>12245</start>
            <end>12357</end>
            <in>0</in>
            <out>112</out>
            <effect>
              <name>Text</name>
              <effectid>Text</effectid>
              <effectcategory>Text</effectcategory>
              <effecttype>generator</effecttype>
              <mediatype>video</mediatype>
              <parameter>
                <parameterid>str</parameterid>
                <name>Text</name>
                <value>ならば そこに心を預けるのをやめる</value>
              </parameter>
            </effect>
          </generatoritem>
          <generatoritem id="subtitle-93">
            <name>Subtitle 93</name>
            <enabled>TRUE</enabled>
            <duration>81</duration>
            <rate>
              <timebase>30</timebase>
              <ntsc>TRUE</ntsc>
            </rate>
            <start>12367</start>
            <end>12448</end>
            <in>0</in>
            <out>81</out>
            <effect>
              <name>Text</name>
              <effectid>Text</effectid>
              <effectcategory>Text</effectcategory>
              <effecttype>generator</effecttype>
              <mediatype>video</mediatype>
              <parameter>
                <parameterid>str</parameterid>
                <name>Text</name>
                <value>エピクテトスが言うように 他者の反応はコントロールできない</value>
              </parameter>
            </effect>
          </generatoritem>
          <generatoritem id="subtitle-94">
            <name>Subtitle 94</name>
            <enabled>TRUE</enabled>
            <duration>80</duration>
            <rate>
              <timebase>30</timebase>
              <ntsc>TRUE</ntsc>
            </rate>
            <start>12448</start>
            <end>12528</end>
            <in>0</in>
            <out>80</out>
            <effect>
              <name>Text</name>
              <effectid>Text</effectid>
              <effectcategory>Text</effectcategory>
              <effecttype>generator</effecttype>
              <mediatype>video</mediatype>
              <parameter>
                <parameterid>str</parameterid>
                <name>Text</name>
                <value>誰にも知られないその瞬間こそが 最も確かな『私』なのですから</value>
              </parameter>
            </effect>
          </generatoritem>
          <generatoritem id="subtitle-95">
            <name>Subtitle 95</name>
            <enabled>TRUE</enabled>
            <duration>128</duration>
            <rate>
              <timebase>30</timebase>
              <ntsc>TRUE</ntsc>
            </rate>
            <start>12538</start>
            <end>12666</end>
            <in>0</in>
            <out>128</out>
            <effect>
              <name>Text</name>
              <effectid>Text</effectid>
              <effectcategory>Text</effectcategory>
              <effecttype>generator</effecttype>
              <mediatype>video</mediatype>
              <parameter>
                <parameterid>str</parameterid>
                <name>Text</name>
                <value>夜空を見上げると オリオン座が輝いています</value>
              </parameter>
            </effect>
          </generatoritem>
          <generatoritem id="subtitle-96">
            <name>Subtitle 96</name>
            <enabled>TRUE</enabled>
            <duration>127</duration>
            <rate>
              <timebase>30</timebase>
              <ntsc>TRUE</ntsc>
            </rate>
            <start>12666</start>
            <end>12793</end>
            <in>0</in>
            <out>127</out>
            <effect>
              <name>Text</name>
              <effectid>Text</effectid>
              <effectcategory>Text</effectcategory>
              <effecttype>generator</effecttype>
              <mediatype>video</mediatype>
              <parameter>
                <parameterid>str</parameterid>
                <name>Text</name>
                <value>星々は 誰に見られていなくても そこで燃えています</value>
              </parameter>
            </effect>
          </generatoritem>
          <generatoritem id="subtitle-97">
            <name>Subtitle 97</name>
            <enabled>TRUE</enabled>
            <duration>120</duration>
            <rate>
              <timebase>30</timebase>
              <ntsc>TRUE</ntsc>
            </rate>
            <start>12803</start>
            <end>12923</end>
            <in>0</in>
            <out>120</out>
            <effect>
              <name>Text</name>
              <effectid>Text</effectid>
              <effectcategory>Text</effectcategory>
              <effecttype>generator</effecttype>
              <mediatype>video</mediatype>
              <parameter>
                <parameterid>str</parameterid>
                <name>Text</name>
                <value>存在は 承認の前にある</value>
              </parameter>
            </effect>
          </generatoritem>
          <generatoritem id="subtitle-98">
            <name>Subtitle 98</name>
            <enabled>TRUE</enabled>
            <duration>121</duration>
            <rate>
              <timebase>30</timebase>
              <ntsc>TRUE</ntsc>
            </rate>
            <start>12923</start>
            <end>13044</end>
            <in>0</in>
            <out>121</out>
            <effect>
              <name>Text</name>
              <effectid>Text</effectid>
              <effectcategory>Text</effectcategory>
              <effecttype>generator</effecttype>
              <mediatype>video</mediatype>
              <parameter>
                <parameterid>str</parameterid>
                <name>Text</name>
                <value>知識の星座は 見る人によって違う物語を紡ぎます</value>
              </parameter>
            </effect>
          </generatoritem>
          <generatoritem id="subtitle-99">
            <name>Subtitle 99</name>
            <enabled>TRUE</enabled>
            <duration>91</duration>
            <rate>
              <timebase>30</timebase>
              <ntsc>TRUE</ntsc>
            </rate>
            <start>13054</start>
            <end>13145</end>
            <in>0</in>
            <out>91</out>
            <effect>
              <name>Text</name>
              <effectid>Text</effectid>
              <effectcategory>Text</effectcategory>
              <effecttype>generator</effecttype>
              <mediatype>video</mediatype>
              <parameter>
                <parameterid>str</parameterid>
                <name>Text</name>
                <value>今夜は 何も投稿せずに眠りましょう</value>
              </parameter>
            </effect>
          </generatoritem>
        </track>
      </video>
      <audio>
        <track>
          <clipitem id="clipitem-1">
            <name>OrionEp20_001.mp3</name>
            <enabled>TRUE</enabled>
            <duration>173</duration>
            <rate>
              <timebase>30</timebase>
              <ntsc>TRUE</ntsc>
            </rate>
            <start>0</start>
            <end>173</end>
            <in>0</in>
            <out>138556</out>
            <file id="file-1">
              <name>OrionEp20_001.mp3</name>
              <pathurl>file:///Users/delaxstudio/src/delax-ops/ops/media/orion/projects/OrionEp20/output/audio/OrionEp20_001.mp3</pathurl>
              <rate>
                <timebase>24000</timebase>
                <ntsc>FALSE</ntsc>
              </rate>
              <media>
                <audio>
                  <channelcount>1</channelcount>
                  <samplecharacteristics>
                    <samplerate>24000</samplerate>
                    <samplesize>16</samplesize>
                  </samplecharacteristics>
                </audio>
              </media>
            </file>
            <sourcetrack>
              <mediatype>audio</mediatype>
              <trackindex>1</trackindex>
            </sourcetrack>
            <comments/>
          </clipitem>
          <clipitem id="clipitem-2">
            <name>OrionEp20_002.mp3</name>
            <enabled>TRUE</enabled>
            <duration>231</duration>
            <rate>
              <timebase>30</timebase>
              <ntsc>TRUE</ntsc>
            </rate>
            <start>183</start>
            <end>414</end>
            <in>0</in>
            <out>185409</out>
            <file id="file-2">
              <name>OrionEp20_002.mp3</name>
              <pathurl>file:///Users/delaxstudio/src/delax-ops/ops/media/orion/projects/OrionEp20/output/audio/OrionEp20_002.mp3</pathurl>
              <rate>
                <timebase>24000</timebase>
                <ntsc>FALSE</ntsc>
              </rate>
              <media>
                <audio>
                  <channelcount>1</channelcount>
                  <samplecharacteristics>
                    <samplerate>24000</samplerate>
                    <samplesize>16</samplesize>
                  </samplecharacteristics>
                </audio>
              </media>
            </file>
            <sourcetrack>
              <mediatype>audio</mediatype>
              <trackindex>1</trackindex>
            </sourcetrack>
            <comments/>
          </clipitem>
          <clipitem id="clipitem-3">
            <name>OrionEp20_003.mp3</name>
            <enabled>TRUE</enabled>
            <duration>177</duration>
            <rate>
              <timebase>30</timebase>
              <ntsc>TRUE</ntsc>
            </rate>
            <start>424</start>
            <end>601</end>
            <in>0</in>
            <out>141563</out>
            <file id="file-3">
              <name>OrionEp20_003.mp3</name>
              <pathurl>file:///Users/delaxstudio/src/delax-ops/ops/media/orion/projects/OrionEp20/output/audio/OrionEp20_003.mp3</pathurl>
              <rate>
                <timebase>24000</timebase>
                <ntsc>FALSE</ntsc>
              </rate>
              <media>
                <audio>
                  <channelcount>1</channelcount>
                  <samplecharacteristics>
                    <samplerate>24000</samplerate>
                    <samplesize>16</samplesize>
                  </samplecharacteristics>
                </audio>
              </media>
            </file>
            <sourcetrack>
              <mediatype>audio</mediatype>
              <trackindex>1</trackindex>
            </sourcetrack>
            <comments/>
          </clipitem>
          <clipitem id="clipitem-4">
            <name>OrionEp20_004.mp3</name>
            <enabled>TRUE</enabled>
            <duration>240</duration>
            <rate>
              <timebase>30</timebase>
              <ntsc>TRUE</ntsc>
            </rate>
            <start>611</start>
            <end>851</end>
            <in>0</in>
            <out>191980</out>
            <file id="file-4">
              <name>OrionEp20_004.mp3</name>
              <pathurl>file:///Users/delaxstudio/src/delax-ops/ops/media/orion/projects/OrionEp20/output/audio/OrionEp20_004.mp3</pathurl>
              <rate>
                <timebase>24000</timebase>
                <ntsc>FALSE</ntsc>
              </rate>
              <media>
                <audio>
                  <channelcount>1</channelcount>
                  <samplecharacteristics>
                    <samplerate>24000</samplerate>
                    <samplesize>16</samplesize>
                  </samplecharacteristics>
                </audio>
              </media>
            </file>
            <sourcetrack>
              <mediatype>audio</mediatype>
              <trackindex>1</trackindex>
            </sourcetrack>
            <comments/>
          </clipitem>
          <clipitem id="clipitem-5">
            <name>OrionEp20_005.mp3</name>
            <enabled>TRUE</enabled>
            <duration>332</duration>
            <rate>
              <timebase>30</timebase>
              <ntsc>TRUE</ntsc>
            </rate>
            <start>861</start>
            <end>1193</end>
            <in>0</in>
            <out>266494</out>
            <file id="file-5">
              <name>OrionEp20_005.mp3</name>
              <pathurl>file:///Users/delaxstudio/src/delax-ops/ops/media/orion/projects/OrionEp20/output/audio/OrionEp20_005.mp3</pathurl>
              <rate>
                <timebase>24000</timebase>
                <ntsc>FALSE</ntsc>
              </rate>
              <media>
                <audio>
                  <channelcount>1</channelcount>
                  <samplecharacteristics>
                    <samplerate>24000</samplerate>
                    <samplesize>16</samplesize>
                  </samplecharacteristics>
                </audio>
              </media>
            </file>
            <sourcetrack>
              <mediatype>audio</mediatype>
              <trackindex>1</trackindex>
            </sourcetrack>
            <comments/>
          </clipitem>
          <clipitem id="clipitem-6">
            <name>OrionEp20_006.mp3</name>
            <enabled>TRUE</enabled>
            <duration>215</duration>
            <rate>
              <timebase>30</timebase>
              <ntsc>TRUE</ntsc>
            </rate>
            <start>1203</start>
            <end>1418</end>
            <in>0</in>
            <out>171816</out>
            <file id="file-6">
              <name>OrionEp20_006.mp3</name>
              <pathurl>file:///Users/delaxstudio/src/delax-ops/ops/media/orion/projects/OrionEp20/output/audio/OrionEp20_006.mp3</pathurl>
              <rate>
                <timebase>24000</timebase>
                <ntsc>FALSE</ntsc>
              </rate>
              <media>
                <audio>
                  <channelcount>1</channelcount>
                  <samplecharacteristics>
                    <samplerate>24000</samplerate>
                    <samplesize>16</samplesize>
                  </samplecharacteristics>
                </audio>
              </media>
            </file>
            <sourcetrack>
              <mediatype>audio</mediatype>
              <trackindex>1</trackindex>
            </sourcetrack>
            <comments/>
          </clipitem>
          <clipitem id="clipitem-7">
            <name>OrionEp20_007.mp3</name>
            <enabled>TRUE</enabled>
            <duration>361</duration>
            <rate>
              <timebase>30</timebase>
              <ntsc>TRUE</ntsc>
            </rate>
            <start>1428</start>
            <end>1789</end>
            <in>0</in>
            <out>289143</out>
            <file id="file-7">
              <name>OrionEp20_007.mp3</name>
              <pathurl>file:///Users/delaxstudio/src/delax-ops/ops/media/orion/projects/OrionEp20/output/audio/OrionEp20_007.mp3</pathurl>
              <rate>
                <timebase>24000</timebase>
                <ntsc>FALSE</ntsc>
              </rate>
              <media>
                <audio>
                  <channelcount>1</channelcount>
                  <samplecharacteristics>
                    <samplerate>24000</samplerate>
                    <samplesize>16</samplesize>
                  </samplecharacteristics>
                </audio>
              </media>
            </file>
            <sourcetrack>
              <mediatype>audio</mediatype>
              <trackindex>1</trackindex>
            </sourcetrack>
            <comments/>
          </clipitem>
          <clipitem id="clipitem-8">
            <name>OrionEp20_008.mp3</name>
            <enabled>TRUE</enabled>
            <duration>205</duration>
            <rate>
              <timebase>30</timebase>
              <ntsc>TRUE</ntsc>
            </rate>
            <start>1799</start>
            <end>2004</end>
            <in>0</in>
            <out>163975</out>
            <file id="file-8">
              <name>OrionEp20_008.mp3</name>
              <pathurl>file:///Users/delaxstudio/src/delax-ops/ops/media/orion/projects/OrionEp20/output/audio/OrionEp20_008.mp3</pathurl>
              <rate>
                <timebase>24000</timebase>
                <ntsc>FALSE</ntsc>
              </rate>
              <media>
                <audio>
                  <channelcount>1</channelcount>
                  <samplecharacteristics>
                    <samplerate>24000</samplerate>
                    <samplesize>16</samplesize>
                  </samplecharacteristics>
                </audio>
              </media>
            </file>
            <sourcetrack>
              <mediatype>audio</mediatype>
              <trackindex>1</trackindex>
            </sourcetrack>
            <comments/>
          </clipitem>
          <clipitem id="clipitem-9">
            <name>OrionEp20_009.mp3</name>
            <enabled>TRUE</enabled>
            <duration>327</duration>
            <rate>
              <timebase>30</timebase>
              <ntsc>TRUE</ntsc>
            </rate>
            <start>2014</start>
            <end>2341</end>
            <in>0</in>
            <out>262261</out>
            <file id="file-9">
              <name>OrionEp20_009.mp3</name>
              <pathurl>file:///Users/delaxstudio/src/delax-ops/ops/media/orion/projects/OrionEp20/output/audio/OrionEp20_009.mp3</pathurl>
              <rate>
                <timebase>24000</timebase>
                <ntsc>FALSE</ntsc>
              </rate>
              <media>
                <audio>
                  <channelcount>1</channelcount>
                  <samplecharacteristics>
                    <samplerate>24000</samplerate>
                    <samplesize>16</samplesize>
                  </samplecharacteristics>
                </audio>
              </media>
            </file>
            <sourcetrack>
              <mediatype>audio</mediatype>
              <trackindex>1</trackindex>
            </sourcetrack>
            <comments/>
          </clipitem>
          <clipitem id="clipitem-10">
            <name>OrionEp20_010.mp3</name>
            <enabled>TRUE</enabled>
            <duration>213</duration>
            <rate>
              <timebase>30</timebase>
              <ntsc>TRUE</ntsc>
            </rate>
            <start>2351</start>
            <end>2564</end>
            <in>0</in>
            <out>170420</out>
            <file id="file-10">
              <name>OrionEp20_010.mp3</name>
              <pathurl>file:///Users/delaxstudio/src/delax-ops/ops/media/orion/projects/OrionEp20/output/audio/OrionEp20_010.mp3</pathurl>
              <rate>
                <timebase>24000</timebase>
                <ntsc>FALSE</ntsc>
              </rate>
              <media>
                <audio>
                  <channelcount>1</channelcount>
                  <samplecharacteristics>
                    <samplerate>24000</samplerate>
                    <samplesize>16</samplesize>
                  </samplecharacteristics>
                </audio>
              </media>
            </file>
            <sourcetrack>
              <mediatype>audio</mediatype>
              <trackindex>1</trackindex>
            </sourcetrack>
            <comments/>
          </clipitem>
          <clipitem id="clipitem-11">
            <name>OrionEp20_011.mp3</name>
            <enabled>TRUE</enabled>
            <duration>72</duration>
            <rate>
              <timebase>30</timebase>
              <ntsc>TRUE</ntsc>
            </rate>
            <start>2574</start>
            <end>2646</end>
            <in>0</in>
            <out>57326</out>
            <file id="file-11">
              <name>OrionEp20_011.mp3</name>
              <pathurl>file:///Users/delaxstudio/src/delax-ops/ops/media/orion/projects/OrionEp20/output/audio/OrionEp20_011.mp3</pathurl>
              <rate>
                <timebase>24000</timebase>
                <ntsc>FALSE</ntsc>
              </rate>
              <media>
                <audio>
                  <channelcount>1</channelcount>
                  <samplecharacteristics>
                    <samplerate>24000</samplerate>
                    <samplesize>16</samplesize>
                  </samplecharacteristics>
                </audio>
              </media>
            </file>
            <sourcetrack>
              <mediatype>audio</mediatype>
              <trackindex>1</trackindex>
            </sourcetrack>
            <comments/>
          </clipitem>
          <clipitem id="clipitem-12">
            <name>OrionEp20_012.mp3</name>
            <enabled>TRUE</enabled>
            <duration>110</duration>
            <rate>
              <timebase>30</timebase>
              <ntsc>TRUE</ntsc>
            </rate>
            <start>2656</start>
            <end>2766</end>
            <in>0</in>
            <out>88556</out>
            <file id="file-12">
              <name>OrionEp20_012.mp3</name>
              <pathurl>file:///Users/delaxstudio/src/delax-ops/ops/media/orion/projects/OrionEp20/output/audio/OrionEp20_012.mp3</pathurl>
              <rate>
                <timebase>24000</timebase>
                <ntsc>FALSE</ntsc>
              </rate>
              <media>
                <audio>
                  <channelcount>1</channelcount>
                  <samplecharacteristics>
                    <samplerate>24000</samplerate>
                    <samplesize>16</samplesize>
                  </samplecharacteristics>
                </audio>
              </media>
            </file>
            <sourcetrack>
              <mediatype>audio</mediatype>
              <trackindex>1</trackindex>
            </sourcetrack>
            <comments/>
          </clipitem>
          <clipitem id="clipitem-13">
            <name>OrionEp20_013.mp3</name>
            <enabled>TRUE</enabled>
            <duration>108</duration>
            <rate>
              <timebase>30</timebase>
              <ntsc>TRUE</ntsc>
            </rate>
            <start>2776</start>
            <end>2884</end>
            <in>0</in>
            <out>86113</out>
            <file id="file-13">
              <name>OrionEp20_013.mp3</name>
              <pathurl>file:///Users/delaxstudio/src/delax-ops/ops/media/orion/projects/OrionEp20/output/audio/OrionEp20_013.mp3</pathurl>
              <rate>
                <timebase>24000</timebase>
                <ntsc>FALSE</ntsc>
              </rate>
              <media>
                <audio>
                  <channelcount>1</channelcount>
                  <samplecharacteristics>
                    <samplerate>24000</samplerate>
                    <samplesize>16</samplesize>
                  </samplecharacteristics>
                </audio>
              </media>
            </file>
            <sourcetrack>
              <mediatype>audio</mediatype>
              <trackindex>1</trackindex>
            </sourcetrack>
            <comments/>
          </clipitem>
          <clipitem id="clipitem-14">
            <name>OrionEp20_014.mp3</name>
            <enabled>TRUE</enabled>
            <duration>265</duration>
            <rate>
              <timebase>30</timebase>
              <ntsc>TRUE</ntsc>
            </rate>
            <start>2894</start>
            <end>3159</end>
            <in>0</in>
            <out>212179</out>
            <file id="file-14">
              <name>OrionEp20_014.mp3</name>
              <pathurl>file:///Users/delaxstudio/src/delax-ops/ops/media/orion/projects/OrionEp20/output/audio/OrionEp20_014.mp3</pathurl>
              <rate>
                <timebase>24000</timebase>
                <ntsc>FALSE</ntsc>
              </rate>
              <media>
                <audio>
                  <channelcount>1</channelcount>
                  <samplecharacteristics>
                    <samplerate>24000</samplerate>
                    <samplesize>16</samplesize>
                  </samplecharacteristics>
                </audio>
              </media>
            </file>
            <sourcetrack>
              <mediatype>audio</mediatype>
              <trackindex>1</trackindex>
            </sourcetrack>
            <comments/>
          </clipitem>
          <clipitem id="clipitem-15">
            <name>OrionEp20_015.mp3</name>
            <enabled>TRUE</enabled>
            <duration>386</duration>
            <rate>
              <timebase>30</timebase>
              <ntsc>TRUE</ntsc>
            </rate>
            <start>3169</start>
            <end>3555</end>
            <in>0</in>
            <out>309122</out>
            <file id="file-15">
              <name>OrionEp20_015.mp3</name>
              <pathurl>file:///Users/delaxstudio/src/delax-ops/ops/media/orion/projects/OrionEp20/output/audio/OrionEp20_015.mp3</pathurl>
              <rate>
                <timebase>24000</timebase>
                <ntsc>FALSE</ntsc>
              </rate>
              <media>
                <audio>
                  <channelcount>1</channelcount>
                  <samplecharacteristics>
                    <samplerate>24000</samplerate>
                    <samplesize>16</samplesize>
                  </samplecharacteristics>
                </audio>
              </media>
            </file>
            <sourcetrack>
              <mediatype>audio</mediatype>
              <trackindex>1</trackindex>
            </sourcetrack>
            <comments/>
          </clipitem>
          <clipitem id="clipitem-16">
            <name>OrionEp20_016.mp3</name>
            <enabled>TRUE</enabled>
            <duration>429</duration>
            <rate>
              <timebase>30</timebase>
              <ntsc>TRUE</ntsc>
            </rate>
            <start>3565</start>
            <end>3994</end>
            <in>0</in>
            <out>343631</out>
            <file id="file-16">
              <name>OrionEp20_016.mp3</name>
              <pathurl>file:///Users/delaxstudio/src/delax-ops/ops/media/orion/projects/OrionEp20/output/audio/OrionEp20_016.mp3</pathurl>
              <rate>
                <timebase>24000</timebase>
                <ntsc>FALSE</ntsc>
              </rate>
              <media>
                <audio>
                  <channelcount>1</channelcount>
                  <samplecharacteristics>
                    <samplerate>24000</samplerate>
                    <samplesize>16</samplesize>
                  </samplecharacteristics>
                </audio>
              </media>
            </file>
            <sourcetrack>
              <mediatype>audio</mediatype>
              <trackindex>1</trackindex>
            </sourcetrack>
            <comments/>
          </clipitem>
          <clipitem id="clipitem-17">
            <name>OrionEp20_017.mp3</name>
            <enabled>TRUE</enabled>
            <duration>403</duration>
            <rate>
              <timebase>30</timebase>
              <ntsc>TRUE</ntsc>
            </rate>
            <start>4004</start>
            <end>4407</end>
            <in>0</in>
            <out>323062</out>
            <file id="file-17">
              <name>OrionEp20_017.mp3</name>
              <pathurl>file:///Users/delaxstudio/src/delax-ops/ops/media/orion/projects/OrionEp20/output/audio/OrionEp20_017.mp3</pathurl>
              <rate>
                <timebase>24000</timebase>
                <ntsc>FALSE</ntsc>
              </rate>
              <media>
                <audio>
                  <channelcount>1</channelcount>
                  <samplecharacteristics>
                    <samplerate>24000</samplerate>
                    <samplesize>16</samplesize>
                  </samplecharacteristics>
                </audio>
              </media>
            </file>
            <sourcetrack>
              <mediatype>audio</mediatype>
              <trackindex>1</trackindex>
            </sourcetrack>
            <comments/>
          </clipitem>
          <clipitem id="clipitem-18">
            <name>OrionEp20_018.mp3</name>
            <enabled>TRUE</enabled>
            <duration>98</duration>
            <rate>
              <timebase>30</timebase>
              <ntsc>TRUE</ntsc>
            </rate>
            <start>4417</start>
            <end>4515</end>
            <in>0</in>
            <out>78023</out>
            <file id="file-18">
              <name>OrionEp20_018.mp3</name>
              <pathurl>file:///Users/delaxstudio/src/delax-ops/ops/media/orion/projects/OrionEp20/output/audio/OrionEp20_018.mp3</pathurl>
              <rate>
                <timebase>24000</timebase>
                <ntsc>FALSE</ntsc>
              </rate>
              <media>
                <audio>
                  <channelcount>1</channelcount>
                  <samplecharacteristics>
                    <samplerate>24000</samplerate>
                    <samplesize>16</samplesize>
                  </samplecharacteristics>
                </audio>
              </media>
            </file>
            <sourcetrack>
              <mediatype>audio</mediatype>
              <trackindex>1</trackindex>
            </sourcetrack>
            <comments/>
          </clipitem>
          <clipitem id="clipitem-19">
            <name>OrionEp20_019.mp3</name>
            <enabled>TRUE</enabled>
            <duration>181</duration>
            <rate>
              <timebase>30</timebase>
              <ntsc>TRUE</ntsc>
            </rate>
            <start>4525</start>
            <end>4706</end>
            <in>0</in>
            <out>144887</out>
            <file id="file-19">
              <name>OrionEp20_019.mp3</name>
              <pathurl>file:///Users/delaxstudio/src/delax-ops/ops/media/orion/projects/OrionEp20/output/audio/OrionEp20_019.mp3</pathurl>
              <rate>
                <timebase>24000</timebase>
                <ntsc>FALSE</ntsc>
              </rate>
              <media>
                <audio>
                  <channelcount>1</channelcount>
                  <samplecharacteristics>
                    <samplerate>24000</samplerate>
                    <samplesize>16</samplesize>
                  </samplecharacteristics>
                </audio>
              </media>
            </file>
            <sourcetrack>
              <mediatype>audio</mediatype>
              <trackindex>1</trackindex>
            </sourcetrack>
            <comments/>
          </clipitem>
          <clipitem id="clipitem-20">
            <name>OrionEp20_020.mp3</name>
            <enabled>TRUE</enabled>
            <duration>207</duration>
            <rate>
              <timebase>30</timebase>
              <ntsc>TRUE</ntsc>
            </rate>
            <start>4716</start>
            <end>4923</end>
            <in>0</in>
            <out>166444</out>
            <file id="file-20">
              <name>OrionEp20_020.mp3</name>
              <pathurl>file:///Users/delaxstudio/src/delax-ops/ops/media/orion/projects/OrionEp20/output/audio/OrionEp20_020.mp3</pathurl>
              <rate>
                <timebase>24000</timebase>
                <ntsc>FALSE</ntsc>
              </rate>
              <media>
                <audio>
                  <channelcount>1</channelcount>
                  <samplecharacteristics>
                    <samplerate>24000</samplerate>
                    <samplesize>16</samplesize>
                  </samplecharacteristics>
                </audio>
              </media>
            </file>
            <sourcetrack>
              <mediatype>audio</mediatype>
              <trackindex>1</trackindex>
            </sourcetrack>
            <comments/>
          </clipitem>
          <clipitem id="clipitem-21">
            <name>OrionEp20_021.mp3</name>
            <enabled>TRUE</enabled>
            <duration>148</duration>
            <rate>
              <timebase>30</timebase>
              <ntsc>TRUE</ntsc>
            </rate>
            <start>4933</start>
            <end>5081</end>
            <in>0</in>
            <out>118343</out>
            <file id="file-21">
              <name>OrionEp20_021.mp3</name>
              <pathurl>file:///Users/delaxstudio/src/delax-ops/ops/media/orion/projects/OrionEp20/output/audio/OrionEp20_021.mp3</pathurl>
              <rate>
                <timebase>24000</timebase>
                <ntsc>FALSE</ntsc>
              </rate>
              <media>
                <audio>
                  <channelcount>1</channelcount>
                  <samplecharacteristics>
                    <samplerate>24000</samplerate>
                    <samplesize>16</samplesize>
                  </samplecharacteristics>
                </audio>
              </media>
            </file>
            <sourcetrack>
              <mediatype>audio</mediatype>
              <trackindex>1</trackindex>
            </sourcetrack>
            <comments/>
          </clipitem>
          <clipitem id="clipitem-22">
            <name>OrionEp20_022.mp3</name>
            <enabled>TRUE</enabled>
            <duration>510</duration>
            <rate>
              <timebase>30</timebase>
              <ntsc>TRUE</ntsc>
            </rate>
            <start>5091</start>
            <end>5601</end>
            <in>0</in>
            <out>408263</out>
            <file id="file-22">
              <name>OrionEp20_022.mp3</name>
              <pathurl>file:///Users/delaxstudio/src/delax-ops/ops/media/orion/projects/OrionEp20/output/audio/OrionEp20_022.mp3</pathurl>
              <rate>
                <timebase>24000</timebase>
                <ntsc>FALSE</ntsc>
              </rate>
              <media>
                <audio>
                  <channelcount>1</channelcount>
                  <samplecharacteristics>
                    <samplerate>24000</samplerate>
                    <samplesize>16</samplesize>
                  </samplecharacteristics>
                </audio>
              </media>
            </file>
            <sourcetrack>
              <mediatype>audio</mediatype>
              <trackindex>1</trackindex>
            </sourcetrack>
            <comments/>
          </clipitem>
          <clipitem id="clipitem-23">
            <name>OrionEp20_023.mp3</name>
            <enabled>TRUE</enabled>
            <duration>523</duration>
            <rate>
              <timebase>30</timebase>
              <ntsc>TRUE</ntsc>
            </rate>
            <start>5611</start>
            <end>6134</end>
            <in>0</in>
            <out>418823</out>
            <file id="file-23">
              <name>OrionEp20_023.mp3</name>
              <pathurl>file:///Users/delaxstudio/src/delax-ops/ops/media/orion/projects/OrionEp20/output/audio/OrionEp20_023.mp3</pathurl>
              <rate>
                <timebase>24000</timebase>
                <ntsc>FALSE</ntsc>
              </rate>
              <media>
                <audio>
                  <channelcount>1</channelcount>
                  <samplecharacteristics>
                    <samplerate>24000</samplerate>
                    <samplesize>16</samplesize>
                  </samplecharacteristics>
                </audio>
              </media>
            </file>
            <sourcetrack>
              <mediatype>audio</mediatype>
              <trackindex>1</trackindex>
            </sourcetrack>
            <comments/>
          </clipitem>
          <clipitem id="clipitem-24">
            <name>OrionEp20_024.mp3</name>
            <enabled>TRUE</enabled>
            <duration>354</duration>
            <rate>
              <timebase>30</timebase>
              <ntsc>TRUE</ntsc>
            </rate>
            <start>6144</start>
            <end>6498</end>
            <in>0</in>
            <out>283463</out>
            <file id="file-24">
              <name>OrionEp20_024.mp3</name>
              <pathurl>file:///Users/delaxstudio/src/delax-ops/ops/media/orion/projects/OrionEp20/output/audio/OrionEp20_024.mp3</pathurl>
              <rate>
                <timebase>24000</timebase>
                <ntsc>FALSE</ntsc>
              </rate>
              <media>
                <audio>
                  <channelcount>1</channelcount>
                  <samplecharacteristics>
                    <samplerate>24000</samplerate>
                    <samplesize>16</samplesize>
                  </samplecharacteristics>
                </audio>
              </media>
            </file>
            <sourcetrack>
              <mediatype>audio</mediatype>
              <trackindex>1</trackindex>
            </sourcetrack>
            <comments/>
          </clipitem>
          <clipitem id="clipitem-25">
            <name>OrionEp20_025.mp3</name>
            <enabled>TRUE</enabled>
            <duration>94</duration>
            <rate>
              <timebase>30</timebase>
              <ntsc>TRUE</ntsc>
            </rate>
            <start>6508</start>
            <end>6602</end>
            <in>0</in>
            <out>75143</out>
            <file id="file-25">
              <name>OrionEp20_025.mp3</name>
              <pathurl>file:///Users/delaxstudio/src/delax-ops/ops/media/orion/projects/OrionEp20/output/audio/OrionEp20_025.mp3</pathurl>
              <rate>
                <timebase>24000</timebase>
                <ntsc>FALSE</ntsc>
              </rate>
              <media>
                <audio>
                  <channelcount>1</channelcount>
                  <samplecharacteristics>
                    <samplerate>24000</samplerate>
                    <samplesize>16</samplesize>
                  </samplecharacteristics>
                </audio>
              </media>
            </file>
            <sourcetrack>
              <mediatype>audio</mediatype>
              <trackindex>1</trackindex>
            </sourcetrack>
            <comments/>
          </clipitem>
          <clipitem id="clipitem-26">
            <name>OrionEp20_026.mp3</name>
            <enabled>TRUE</enabled>
            <duration>258</duration>
            <rate>
              <timebase>30</timebase>
              <ntsc>TRUE</ntsc>
            </rate>
            <start>6612</start>
            <end>6870</end>
            <in>0</in>
            <out>206663</out>
            <file id="file-26">
              <name>OrionEp20_026.mp3</name>
              <pathurl>file:///Users/delaxstudio/src/delax-ops/ops/media/orion/projects/OrionEp20/output/audio/OrionEp20_026.mp3</pathurl>
              <rate>
                <timebase>24000</timebase>
                <ntsc>FALSE</ntsc>
              </rate>
              <media>
                <audio>
                  <channelcount>1</channelcount>
                  <samplecharacteristics>
                    <samplerate>24000</samplerate>
                    <samplesize>16</samplesize>
                  </samplecharacteristics>
                </audio>
              </media>
            </file>
            <sourcetrack>
              <mediatype>audio</mediatype>
              <trackindex>1</trackindex>
            </sourcetrack>
            <comments/>
          </clipitem>
          <clipitem id="clipitem-27">
            <name>OrionEp20_027.mp3</name>
            <enabled>TRUE</enabled>
            <duration>258</duration>
            <rate>
              <timebase>30</timebase>
              <ntsc>TRUE</ntsc>
            </rate>
            <start>6880</start>
            <end>7138</end>
            <in>0</in>
            <out>206663</out>
            <file id="file-27">
              <name>OrionEp20_027.mp3</name>
              <pathurl>file:///Users/delaxstudio/src/delax-ops/ops/media/orion/projects/OrionEp20/output/audio/OrionEp20_027.mp3</pathurl>
              <rate>
                <timebase>24000</timebase>
                <ntsc>FALSE</ntsc>
              </rate>
              <media>
                <audio>
                  <channelcount>1</channelcount>
                  <samplecharacteristics>
                    <samplerate>24000</samplerate>
                    <samplesize>16</samplesize>
                  </samplecharacteristics>
                </audio>
              </media>
            </file>
            <sourcetrack>
              <mediatype>audio</mediatype>
              <trackindex>1</trackindex>
            </sourcetrack>
            <comments/>
          </clipitem>
          <clipitem id="clipitem-28">
            <name>OrionEp20_028.mp3</name>
            <enabled>TRUE</enabled>
            <duration>344</duration>
            <rate>
              <timebase>30</timebase>
              <ntsc>TRUE</ntsc>
            </rate>
            <start>7148</start>
            <end>7492</end>
            <in>0</in>
            <out>275783</out>
            <file id="file-28">
              <name>OrionEp20_028.mp3</name>
              <pathurl>file:///Users/delaxstudio/src/delax-ops/ops/media/orion/projects/OrionEp20/output/audio/OrionEp20_028.mp3</pathurl>
              <rate>
                <timebase>24000</timebase>
                <ntsc>FALSE</ntsc>
              </rate>
              <media>
                <audio>
                  <channelcount>1</channelcount>
                  <samplecharacteristics>
                    <samplerate>24000</samplerate>
                    <samplesize>16</samplesize>
                  </samplecharacteristics>
                </audio>
              </media>
            </file>
            <sourcetrack>
              <mediatype>audio</mediatype>
              <trackindex>1</trackindex>
            </sourcetrack>
            <comments/>
          </clipitem>
          <clipitem id="clipitem-29">
            <name>OrionEp20_029.mp3</name>
            <enabled>TRUE</enabled>
            <duration>378</duration>
            <rate>
              <timebase>30</timebase>
              <ntsc>TRUE</ntsc>
            </rate>
            <start>7502</start>
            <end>7880</end>
            <in>0</in>
            <out>302663</out>
            <file id="file-29">
              <name>OrionEp20_029.mp3</name>
              <pathurl>file:///Users/delaxstudio/src/delax-ops/ops/media/orion/projects/OrionEp20/output/audio/OrionEp20_029.mp3</pathurl>
              <rate>
                <timebase>24000</timebase>
                <ntsc>FALSE</ntsc>
              </rate>
              <media>
                <audio>
                  <channelcount>1</channelcount>
                  <samplecharacteristics>
                    <samplerate>24000</samplerate>
                    <samplesize>16</samplesize>
                  </samplecharacteristics>
                </audio>
              </media>
            </file>
            <sourcetrack>
              <mediatype>audio</mediatype>
              <trackindex>1</trackindex>
            </sourcetrack>
            <comments/>
          </clipitem>
          <clipitem id="clipitem-30">
            <name>OrionEp20_030.mp3</name>
            <enabled>TRUE</enabled>
            <duration>264</duration>
            <rate>
              <timebase>30</timebase>
              <ntsc>TRUE</ntsc>
            </rate>
            <start>7890</start>
            <end>8154</end>
            <in>0</in>
            <out>211178</out>
            <file id="file-30">
              <name>OrionEp20_030.mp3</name>
              <pathurl>file:///Users/delaxstudio/src/delax-ops/ops/media/orion/projects/OrionEp20/output/audio/OrionEp20_030.mp3</pathurl>
              <rate>
                <timebase>24000</timebase>
                <ntsc>FALSE</ntsc>
              </rate>
              <media>
                <audio>
                  <channelcount>1</channelcount>
                  <samplecharacteristics>
                    <samplerate>24000</samplerate>
                    <samplesize>16</samplesize>
                  </samplecharacteristics>
                </audio>
              </media>
            </file>
            <sourcetrack>
              <mediatype>audio</mediatype>
              <trackindex>1</trackindex>
            </sourcetrack>
            <comments/>
          </clipitem>
          <clipitem id="clipitem-31">
            <name>OrionEp20_031.mp3</name>
            <enabled>TRUE</enabled>
            <duration>177</duration>
            <rate>
              <timebase>30</timebase>
              <ntsc>TRUE</ntsc>
            </rate>
            <start>8164</start>
            <end>8341</end>
            <in>0</in>
            <out>141383</out>
            <file id="file-31">
              <name>OrionEp20_031.mp3</name>
              <pathurl>file:///Users/delaxstudio/src/delax-ops/ops/media/orion/projects/OrionEp20/output/audio/OrionEp20_031.mp3</pathurl>
              <rate>
                <timebase>24000</timebase>
                <ntsc>FALSE</ntsc>
              </rate>
              <media>
                <audio>
                  <channelcount>1</channelcount>
                  <samplecharacteristics>
                    <samplerate>24000</samplerate>
                    <samplesize>16</samplesize>
                  </samplecharacteristics>
                </audio>
              </media>
            </file>
            <sourcetrack>
              <mediatype>audio</mediatype>
              <trackindex>1</trackindex>
            </sourcetrack>
            <comments/>
          </clipitem>
          <clipitem id="clipitem-32">
            <name>OrionEp20_032.mp3</name>
            <enabled>TRUE</enabled>
            <duration>446</duration>
            <rate>
              <timebase>30</timebase>
              <ntsc>TRUE</ntsc>
            </rate>
            <start>8351</start>
            <end>8797</end>
            <in>0</in>
            <out>357383</out>
            <file id="file-32">
              <name>OrionEp20_032.mp3</name>
              <pathurl>file:///Users/delaxstudio/src/delax-ops/ops/media/orion/projects/OrionEp20/output/audio/OrionEp20_032.mp3</pathurl>
              <rate>
                <timebase>24000</timebase>
                <ntsc>FALSE</ntsc>
              </rate>
              <media>
                <audio>
                  <channelcount>1</channelcount>
                  <samplecharacteristics>
                    <samplerate>24000</samplerate>
                    <samplesize>16</samplesize>
                  </samplecharacteristics>
                </audio>
              </media>
            </file>
            <sourcetrack>
              <mediatype>audio</mediatype>
              <trackindex>1</trackindex>
            </sourcetrack>
            <comments/>
          </clipitem>
          <clipitem id="clipitem-33">
            <name>OrionEp20_033.mp3</name>
            <enabled>TRUE</enabled>
            <duration>174</duration>
            <rate>
              <timebase>30</timebase>
              <ntsc>TRUE</ntsc>
            </rate>
            <start>8807</start>
            <end>8981</end>
            <in>0</in>
            <out>139463</out>
            <file id="file-33">
              <name>OrionEp20_033.mp3</name>
              <pathurl>file:///Users/delaxstudio/src/delax-ops/ops/media/orion/projects/OrionEp20/output/audio/OrionEp20_033.mp3</pathurl>
              <rate>
                <timebase>24000</timebase>
                <ntsc>FALSE</ntsc>
              </rate>
              <media>
                <audio>
                  <channelcount>1</channelcount>
                  <samplecharacteristics>
                    <samplerate>24000</samplerate>
                    <samplesize>16</samplesize>
                  </samplecharacteristics>
                </audio>
              </media>
            </file>
            <sourcetrack>
              <mediatype>audio</mediatype>
              <trackindex>1</trackindex>
            </sourcetrack>
            <comments/>
          </clipitem>
          <clipitem id="clipitem-34">
            <name>OrionEp20_034.mp3</name>
            <enabled>TRUE</enabled>
            <duration>329</duration>
            <rate>
              <timebase>30</timebase>
              <ntsc>TRUE</ntsc>
            </rate>
            <start>8991</start>
            <end>9320</end>
            <in>0</in>
            <out>263303</out>
            <file id="file-34">
              <name>OrionEp20_034.mp3</name>
              <pathurl>file:///Users/delaxstudio/src/delax-ops/ops/media/orion/projects/OrionEp20/output/audio/OrionEp20_034.mp3</pathurl>
              <rate>
                <timebase>24000</timebase>
                <ntsc>FALSE</ntsc>
              </rate>
              <media>
                <audio>
                  <channelcount>1</channelcount>
                  <samplecharacteristics>
                    <samplerate>24000</samplerate>
                    <samplesize>16</samplesize>
                  </samplecharacteristics>
                </audio>
              </media>
            </file>
            <sourcetrack>
              <mediatype>audio</mediatype>
              <trackindex>1</trackindex>
            </sourcetrack>
            <comments/>
          </clipitem>
          <clipitem id="clipitem-35">
            <name>OrionEp20_035.mp3</name>
            <enabled>TRUE</enabled>
            <duration>295</duration>
            <rate>
              <timebase>30</timebase>
              <ntsc>TRUE</ntsc>
            </rate>
            <start>9330</start>
            <end>9625</end>
            <in>0</in>
            <out>236423</out>
            <file id="file-35">
              <name>OrionEp20_035.mp3</name>
              <pathurl>file:///Users/delaxstudio/src/delax-ops/ops/media/orion/projects/OrionEp20/output/audio/OrionEp20_035.mp3</pathurl>
              <rate>
                <timebase>24000</timebase>
                <ntsc>FALSE</ntsc>
              </rate>
              <media>
                <audio>
                  <channelcount>1</channelcount>
                  <samplecharacteristics>
                    <samplerate>24000</samplerate>
                    <samplesize>16</samplesize>
                  </samplecharacteristics>
                </audio>
              </media>
            </file>
            <sourcetrack>
              <mediatype>audio</mediatype>
              <trackindex>1</trackindex>
            </sourcetrack>
            <comments/>
          </clipitem>
          <clipitem id="clipitem-36">
            <name>OrionEp20_036.mp3</name>
            <enabled>TRUE</enabled>
            <duration>448</duration>
            <rate>
              <timebase>30</timebase>
              <ntsc>TRUE</ntsc>
            </rate>
            <start>9635</start>
            <end>10083</end>
            <in>0</in>
            <out>358343</out>
            <file id="file-36">
              <name>OrionEp20_036.mp3</name>
              <pathurl>file:///Users/delaxstudio/src/delax-ops/ops/media/orion/projects/OrionEp20/output/audio/OrionEp20_036.mp3</pathurl>
              <rate>
                <timebase>24000</timebase>
                <ntsc>FALSE</ntsc>
              </rate>
              <media>
                <audio>
                  <channelcount>1</channelcount>
                  <samplecharacteristics>
                    <samplerate>24000</samplerate>
                    <samplesize>16</samplesize>
                  </samplecharacteristics>
                </audio>
              </media>
            </file>
            <sourcetrack>
              <mediatype>audio</mediatype>
              <trackindex>1</trackindex>
            </sourcetrack>
            <comments/>
          </clipitem>
          <clipitem id="clipitem-37">
            <name>OrionEp20_037.mp3</name>
            <enabled>TRUE</enabled>
            <duration>121</duration>
            <rate>
              <timebase>30</timebase>
              <ntsc>TRUE</ntsc>
            </rate>
            <start>10093</start>
            <end>10214</end>
            <in>0</in>
            <out>97223</out>
            <file id="file-37">
              <name>OrionEp20_037.mp3</name>
              <pathurl>file:///Users/delaxstudio/src/delax-ops/ops/media/orion/projects/OrionEp20/output/audio/OrionEp20_037.mp3</pathurl>
              <rate>
                <timebase>24000</timebase>
                <ntsc>FALSE</ntsc>
              </rate>
              <media>
                <audio>
                  <channelcount>1</channelcount>
                  <samplecharacteristics>
                    <samplerate>24000</samplerate>
                    <samplesize>16</samplesize>
                  </samplecharacteristics>
                </audio>
              </media>
            </file>
            <sourcetrack>
              <mediatype>audio</mediatype>
              <trackindex>1</trackindex>
            </sourcetrack>
            <comments/>
          </clipitem>
          <clipitem id="clipitem-38">
            <name>OrionEp20_038.mp3</name>
            <enabled>TRUE</enabled>
            <duration>129</duration>
            <rate>
              <timebase>30</timebase>
              <ntsc>TRUE</ntsc>
            </rate>
            <start>10224</start>
            <end>10353</end>
            <in>0</in>
            <out>102983</out>
            <file id="file-38">
              <name>OrionEp20_038.mp3</name>
              <pathurl>file:///Users/delaxstudio/src/delax-ops/ops/media/orion/projects/OrionEp20/output/audio/OrionEp20_038.mp3</pathurl>
              <rate>
                <timebase>24000</timebase>
                <ntsc>FALSE</ntsc>
              </rate>
              <media>
                <audio>
                  <channelcount>1</channelcount>
                  <samplecharacteristics>
                    <samplerate>24000</samplerate>
                    <samplesize>16</samplesize>
                  </samplecharacteristics>
                </audio>
              </media>
            </file>
            <sourcetrack>
              <mediatype>audio</mediatype>
              <trackindex>1</trackindex>
            </sourcetrack>
            <comments/>
          </clipitem>
          <clipitem id="clipitem-39">
            <name>OrionEp20_039.mp3</name>
            <enabled>TRUE</enabled>
            <duration>489</duration>
            <rate>
              <timebase>30</timebase>
              <ntsc>TRUE</ntsc>
            </rate>
            <start>10363</start>
            <end>10852</end>
            <in>0</in>
            <out>391943</out>
            <file id="file-39">
              <name>OrionEp20_039.mp3</name>
              <pathurl>file:///Users/delaxstudio/src/delax-ops/ops/media/orion/projects/OrionEp20/output/audio/OrionEp20_039.mp3</pathurl>
              <rate>
                <timebase>24000</timebase>
                <ntsc>FALSE</ntsc>
              </rate>
              <media>
                <audio>
                  <channelcount>1</channelcount>
                  <samplecharacteristics>
                    <samplerate>24000</samplerate>
                    <samplesize>16</samplesize>
                  </samplecharacteristics>
                </audio>
              </media>
            </file>
            <sourcetrack>
              <mediatype>audio</mediatype>
              <trackindex>1</trackindex>
            </sourcetrack>
            <comments/>
          </clipitem>
          <clipitem id="clipitem-40">
            <name>OrionEp20_040.mp3</name>
            <enabled>TRUE</enabled>
            <duration>196</duration>
            <rate>
              <timebase>30</timebase>
              <ntsc>TRUE</ntsc>
            </rate>
            <start>10862</start>
            <end>11058</end>
            <in>0</in>
            <out>156743</out>
            <file id="file-40">
              <name>OrionEp20_040.mp3</name>
              <pathurl>file:///Users/delaxstudio/src/delax-ops/ops/media/orion/projects/OrionEp20/output/audio/OrionEp20_040.mp3</pathurl>
              <rate>
                <timebase>24000</timebase>
                <ntsc>FALSE</ntsc>
              </rate>
              <media>
                <audio>
                  <channelcount>1</channelcount>
                  <samplecharacteristics>
                    <samplerate>24000</samplerate>
                    <samplesize>16</samplesize>
                  </samplecharacteristics>
                </audio>
              </media>
            </file>
            <sourcetrack>
              <mediatype>audio</mediatype>
              <trackindex>1</trackindex>
            </sourcetrack>
            <comments/>
          </clipitem>
          <clipitem id="clipitem-41">
            <name>OrionEp20_041.mp3</name>
            <enabled>TRUE</enabled>
            <duration>438</duration>
            <rate>
              <timebase>30</timebase>
              <ntsc>TRUE</ntsc>
            </rate>
            <start>11068</start>
            <end>11506</end>
            <in>0</in>
            <out>350663</out>
            <file id="file-41">
              <name>OrionEp20_041.mp3</name>
              <pathurl>file:///Users/delaxstudio/src/delax-ops/ops/media/orion/projects/OrionEp20/output/audio/OrionEp20_041.mp3</pathurl>
              <rate>
                <timebase>24000</timebase>
                <ntsc>FALSE</ntsc>
              </rate>
              <media>
                <audio>
                  <channelcount>1</channelcount>
                  <samplecharacteristics>
                    <samplerate>24000</samplerate>
                    <samplesize>16</samplesize>
                  </samplecharacteristics>
                </audio>
              </media>
            </file>
            <sourcetrack>
              <mediatype>audio</mediatype>
              <trackindex>1</trackindex>
            </sourcetrack>
            <comments/>
          </clipitem>
          <clipitem id="clipitem-42">
            <name>OrionEp20_042.mp3</name>
            <enabled>TRUE</enabled>
            <duration>159</duration>
            <rate>
              <timebase>30</timebase>
              <ntsc>TRUE</ntsc>
            </rate>
            <start>11516</start>
            <end>11675</end>
            <in>0</in>
            <out>127943</out>
            <file id="file-42">
              <name>OrionEp20_042.mp3</name>
              <pathurl>file:///Users/delaxstudio/src/delax-ops/ops/media/orion/projects/OrionEp20/output/audio/OrionEp20_042.mp3</pathurl>
              <rate>
                <timebase>24000</timebase>
                <ntsc>FALSE</ntsc>
              </rate>
              <media>
                <audio>
                  <channelcount>1</channelcount>
                  <samplecharacteristics>
                    <samplerate>24000</samplerate>
                    <samplesize>16</samplesize>
                  </samplecharacteristics>
                </audio>
              </media>
            </file>
            <sourcetrack>
              <mediatype>audio</mediatype>
              <trackindex>1</trackindex>
            </sourcetrack>
            <comments/>
          </clipitem>
          <clipitem id="clipitem-43">
            <name>OrionEp20_043.mp3</name>
            <enabled>TRUE</enabled>
            <duration>187</duration>
            <rate>
              <timebase>30</timebase>
              <ntsc>TRUE</ntsc>
            </rate>
            <start>11685</start>
            <end>11872</end>
            <in>0</in>
            <out>149063</out>
            <file id="file-43">
              <name>OrionEp20_043.mp3</name>
              <pathurl>file:///Users/delaxstudio/src/delax-ops/ops/media/orion/projects/OrionEp20/output/audio/OrionEp20_043.mp3</pathurl>
              <rate>
                <timebase>24000</timebase>
                <ntsc>FALSE</ntsc>
              </rate>
              <media>
                <audio>
                  <channelcount>1</channelcount>
                  <samplecharacteristics>
                    <samplerate>24000</samplerate>
                    <samplesize>16</samplesize>
                  </samplecharacteristics>
                </audio>
              </media>
            </file>
            <sourcetrack>
              <mediatype>audio</mediatype>
              <trackindex>1</trackindex>
            </sourcetrack>
            <comments/>
          </clipitem>
          <clipitem id="clipitem-44">
            <name>OrionEp20_044.mp3</name>
            <enabled>TRUE</enabled>
            <duration>241</duration>
            <rate>
              <timebase>30</timebase>
              <ntsc>TRUE</ntsc>
            </rate>
            <start>11882</start>
            <end>12123</end>
            <in>0</in>
            <out>193223</out>
            <file id="file-44">
              <name>OrionEp20_044.mp3</name>
              <pathurl>file:///Users/delaxstudio/src/delax-ops/ops/media/orion/projects/OrionEp20/output/audio/OrionEp20_044.mp3</pathurl>
              <rate>
                <timebase>24000</timebase>
                <ntsc>FALSE</ntsc>
              </rate>
              <media>
                <audio>
                  <channelcount>1</channelcount>
                  <samplecharacteristics>
                    <samplerate>24000</samplerate>
                    <samplesize>16</samplesize>
                  </samplecharacteristics>
                </audio>
              </media>
            </file>
            <sourcetrack>
              <mediatype>audio</mediatype>
              <trackindex>1</trackindex>
            </sourcetrack>
            <comments/>
          </clipitem>
          <clipitem id="clipitem-45">
            <name>OrionEp20_045.mp3</name>
            <enabled>TRUE</enabled>
            <duration>224</duration>
            <rate>
              <timebase>30</timebase>
              <ntsc>TRUE</ntsc>
            </rate>
            <start>12133</start>
            <end>12357</end>
            <in>0</in>
            <out>179783</out>
            <file id="file-45">
              <name>OrionEp20_045.mp3</name>
              <pathurl>file:///Users/delaxstudio/src/delax-ops/ops/media/orion/projects/OrionEp20/output/audio/OrionEp20_045.mp3</pathurl>
              <rate>
                <timebase>24000</timebase>
                <ntsc>FALSE</ntsc>
              </rate>
              <media>
                <audio>
                  <channelcount>1</channelcount>
                  <samplecharacteristics>
                    <samplerate>24000</samplerate>
                    <samplesize>16</samplesize>
                  </samplecharacteristics>
                </audio>
              </media>
            </file>
            <sourcetrack>
              <mediatype>audio</mediatype>
              <trackindex>1</trackindex>
            </sourcetrack>
            <comments/>
          </clipitem>
          <clipitem id="clipitem-46">
            <name>OrionEp20_046.mp3</name>
            <enabled>TRUE</enabled>
            <duration>161</duration>
            <rate>
              <timebase>30</timebase>
              <ntsc>TRUE</ntsc>
            </rate>
            <start>12367</start>
            <end>12528</end>
            <in>0</in>
            <out>128903</out>
            <file id="file-46">
              <name>OrionEp20_046.mp3</name>
              <pathurl>file:///Users/delaxstudio/src/delax-ops/ops/media/orion/projects/OrionEp20/output/audio/OrionEp20_046.mp3</pathurl>
              <rate>
                <timebase>24000</timebase>
                <ntsc>FALSE</ntsc>
              </rate>
              <media>
                <audio>
                  <channelcount>1</channelcount>
                  <samplecharacteristics>
                    <samplerate>24000</samplerate>
                    <samplesize>16</samplesize>
                  </samplecharacteristics>
                </audio>
              </media>
            </file>
            <sourcetrack>
              <mediatype>audio</mediatype>
              <trackindex>1</trackindex>
            </sourcetrack>
            <comments/>
          </clipitem>
          <clipitem id="clipitem-47">
            <name>OrionEp20_047.mp3</name>
            <enabled>TRUE</enabled>
            <duration>255</duration>
            <rate>
              <timebase>30</timebase>
              <ntsc>TRUE</ntsc>
            </rate>
            <start>12538</start>
            <end>12793</end>
            <in>0</in>
            <out>203783</out>
            <file id="file-47">
              <name>OrionEp20_047.mp3</name>
              <pathurl>file:///Users/delaxstudio/src/delax-ops/ops/media/orion/projects/OrionEp20/output/audio/OrionEp20_047.mp3</pathurl>
              <rate>
                <timebase>24000</timebase>
                <ntsc>FALSE</ntsc>
              </rate>
              <media>
                <audio>
                  <channelcount>1</channelcount>
                  <samplecharacteristics>
                    <samplerate>24000</samplerate>
                    <samplesize>16</samplesize>
                  </samplecharacteristics>
                </audio>
              </media>
            </file>
            <sourcetrack>
              <mediatype>audio</mediatype>
              <trackindex>1</trackindex>
            </sourcetrack>
            <comments/>
          </clipitem>
          <clipitem id="clipitem-48">
            <name>OrionEp20_048.mp3</name>
            <enabled>TRUE</enabled>
            <duration>241</duration>
            <rate>
              <timebase>30</timebase>
              <ntsc>TRUE</ntsc>
            </rate>
            <start>12803</start>
            <end>13044</end>
            <in>0</in>
            <out>193223</out>
            <file id="file-48">
              <name>OrionEp20_048.mp3</name>
              <pathurl>file:///Users/delaxstudio/src/delax-ops/ops/media/orion/projects/OrionEp20/output/audio/OrionEp20_048.mp3</pathurl>
              <rate>
                <timebase>24000</timebase>
                <ntsc>FALSE</ntsc>
              </rate>
              <media>
                <audio>
                  <channelcount>1</channelcount>
                  <samplecharacteristics>
                    <samplerate>24000</samplerate>
                    <samplesize>16</samplesize>
                  </samplecharacteristics>
                </audio>
              </media>
            </file>
            <sourcetrack>
              <mediatype>audio</mediatype>
              <trackindex>1</trackindex>
            </sourcetrack>
            <comments/>
          </clipitem>
          <clipitem id="clipitem-49">
            <name>OrionEp20_049.mp3</name>
            <enabled>TRUE</enabled>
            <duration>92</duration>
            <rate>
              <timebase>30</timebase>
              <ntsc>TRUE</ntsc>
            </rate>
            <start>13054</start>
            <end>13146</end>
            <in>0</in>
            <out>73223</out>
            <file id="file-49">
              <name>OrionEp20_049.mp3</name>
              <pathurl>file:///Users/delaxstudio/src/delax-ops/ops/media/orion/projects/OrionEp20/output/audio/OrionEp20_049.mp3</pathurl>
              <rate>
                <timebase>24000</timebase>
                <ntsc>FALSE</ntsc>
              </rate>
              <media>
                <audio>
                  <channelcount>1</channelcount>
                  <samplecharacteristics>
                    <samplerate>24000</samplerate>
                    <samplesize>16</samplesize>
                  </samplecharacteristics>
                </audio>
              </media>
            </file>
            <sourcetrack>
              <mediatype>audio</mediatype>
              <trackindex>1</trackindex>
            </sourcetrack>
            <comments/>
          </clipitem>
        </track>
      </audio>
    </media>
  </sequence>
</xmeml>
