<?xml version="1.0" ?>
<xmeml version="4">
  <sequence>
    <uuid>OrionS2_timeline</uuid>
    <duration>8280</duration>
    <name>OrionS2_timeline</name>
    <rate>
      <timebase>30</timebase>
      <ntsc>TRUE</ntsc>
    </rate>
    <media>
      <video>
        <format/>
      </video>
      <audio>
        <track>
          <clipitem id="clipitem-1">
            <name>OrionS2_001.mp3</name>
            <enabled>TRUE</enabled>
            <duration>135</duration>
            <rate>
              <timebase>30</timebase>
              <ntsc>TRUE</ntsc>
            </rate>
            <start>0</start>
            <end>135</end>
            <in>0</in>
            <out>108743</out>
            <file id="file-1">
              <name>OrionS2_001.mp3</name>
              <pathurl>file:///Users/delaxstudio/src/delax-ops/ops/media/orion/projects/OrionS2/output/audio/OrionS2_001.mp3</pathurl>
              <rate>
                <timebase>24000</timebase>
                <ntsc>FALSE</ntsc>
              </rate>
              <media>
                <audio>
                  <channelcount>1</channelcount>
                  <samplecharacteristics>
                    <samplerate>24000</samplerate>
                    <samplesize>16</samplesize>
                  </samplecharacteristics>
                </audio>
              </media>
            </file>
            <sourcetrack>
              <mediatype>audio</mediatype>
              <trackindex>1</trackindex>
            </sourcetrack>
            <comments/>
          </clipitem>
          <clipitem id="clipitem-2">
            <name>OrionS2_002.mp3</name>
            <enabled>TRUE</enabled>
            <duration>113</duration>
            <rate>
              <timebase>30</timebase>
              <ntsc>TRUE</ntsc>
            </rate>
            <start>135</start>
            <end>248</end>
            <in>0</in>
            <out>90503</out>
            <file id="file-2">
              <name>OrionS2_002.mp3</name>
              <pathurl>file:///Users/delaxstudio/src/delax-ops/ops/media/orion/projects/OrionS2/output/audio/OrionS2_002.mp3</pathurl>
              <rate>
                <timebase>24000</timebase>
                <ntsc>FALSE</ntsc>
              </rate>
              <media>
                <audio>
                  <channelcount>1</channelcount>
                  <samplecharacteristics>
                    <samplerate>24000</samplerate>
                    <samplesize>16</samplesize>
                  </samplecharacteristics>
                </audio>
              </media>
            </file>
            <sourcetrack>
              <mediatype>audio</mediatype>
              <trackindex>1</trackindex>
            </sourcetrack>
            <comments/>
          </clipitem>
          <clipitem id="clipitem-3">
            <name>OrionS2_003.mp3</name>
            <enabled>TRUE</enabled>
            <duration>103</duration>
            <rate>
              <timebase>30</timebase>
              <ntsc>TRUE</ntsc>
            </rate>
            <start>248</start>
            <end>351</end>
            <in>0</in>
            <out>81863</out>
            <file id="file-3">
              <name>OrionS2_003.mp3</name>
              <pathurl>file:///Users/delaxstudio/src/delax-ops/ops/media/orion/projects/OrionS2/output/audio/OrionS2_003.mp3</pathurl>
              <rate>
                <timebase>24000</timebase>
                <ntsc>FALSE</ntsc>
              </rate>
              <media>
                <audio>
                  <channelcount>1</channelcount>
                  <samplecharacteristics>
                    <samplerate>24000</samplerate>
                    <samplesize>16</samplesize>
                  </samplecharacteristics>
                </audio>
              </media>
            </file>
            <sourcetrack>
              <mediatype>audio</mediatype>
              <trackindex>1</trackindex>
            </sourcetrack>
            <comments/>
          </clipitem>
          <clipitem id="clipitem-4">
            <name>OrionS2_004.mp3</name>
            <enabled>TRUE</enabled>
            <duration>90</duration>
            <rate>
              <timebase>30</timebase>
              <ntsc>TRUE</ntsc>
            </rate>
            <start>351</start>
            <end>441</end>
            <in>0</in>
            <out>72263</out>
            <file id="file-4">
              <name>OrionS2_004.mp3</name>
              <pathurl>file:///Users/delaxstudio/src/delax-ops/ops/media/orion/projects/OrionS2/output/audio/OrionS2_004.mp3</pathurl>
              <rate>
                <timebase>24000</timebase>
                <ntsc>FALSE</ntsc>
              </rate>
              <media>
                <audio>
                  <channelcount>1</channelcount>
                  <samplecharacteristics>
                    <samplerate>24000</samplerate>
                    <samplesize>16</samplesize>
                  </samplecharacteristics>
                </audio>
              </media>
            </file>
            <sourcetrack>
              <mediatype>audio</mediatype>
              <trackindex>1</trackindex>
            </sourcetrack>
            <comments/>
          </clipitem>
          <clipitem id="clipitem-5">
            <name>OrionS2_005.mp3</name>
            <enabled>TRUE</enabled>
            <duration>88</duration>
            <rate>
              <timebase>30</timebase>
              <ntsc>TRUE</ntsc>
            </rate>
            <start>441</start>
            <end>529</end>
            <in>0</in>
            <out>70343</out>
            <file id="file-5">
              <name>OrionS2_005.mp3</name>
              <pathurl>file:///Users/delaxstudio/src/delax-ops/ops/media/orion/projects/OrionS2/output/audio/OrionS2_005.mp3</pathurl>
              <rate>
                <timebase>24000</timebase>
                <ntsc>FALSE</ntsc>
              </rate>
              <media>
                <audio>
                  <channelcount>1</channelcount>
                  <samplecharacteristics>
                    <samplerate>24000</samplerate>
                    <samplesize>16</samplesize>
                  </samplecharacteristics>
                </audio>
              </media>
            </file>
            <sourcetrack>
              <mediatype>audio</mediatype>
              <trackindex>1</trackindex>
            </sourcetrack>
            <comments/>
          </clipitem>
          <clipitem id="clipitem-6">
            <name>OrionS2_006.mp3</name>
            <enabled>TRUE</enabled>
            <duration>74</duration>
            <rate>
              <timebase>30</timebase>
              <ntsc>TRUE</ntsc>
            </rate>
            <start>529</start>
            <end>603</end>
            <in>0</in>
            <out>59783</out>
            <file id="file-6">
              <name>OrionS2_006.mp3</name>
              <pathurl>file:///Users/delaxstudio/src/delax-ops/ops/media/orion/projects/OrionS2/output/audio/OrionS2_006.mp3</pathurl>
              <rate>
                <timebase>24000</timebase>
                <ntsc>FALSE</ntsc>
              </rate>
              <media>
                <audio>
                  <channelcount>1</channelcount>
                  <samplecharacteristics>
                    <samplerate>24000</samplerate>
                    <samplesize>16</samplesize>
                  </samplecharacteristics>
                </audio>
              </media>
            </file>
            <sourcetrack>
              <mediatype>audio</mediatype>
              <trackindex>1</trackindex>
            </sourcetrack>
            <comments/>
          </clipitem>
          <clipitem id="clipitem-7">
            <name>OrionS2_007.mp3</name>
            <enabled>TRUE</enabled>
            <duration>80</duration>
            <rate>
              <timebase>30</timebase>
              <ntsc>TRUE</ntsc>
            </rate>
            <start>603</start>
            <end>683</end>
            <in>0</in>
            <out>63623</out>
            <file id="file-7">
              <name>OrionS2_007.mp3</name>
              <pathurl>file:///Users/delaxstudio/src/delax-ops/ops/media/orion/projects/OrionS2/output/audio/OrionS2_007.mp3</pathurl>
              <rate>
                <timebase>24000</timebase>
                <ntsc>FALSE</ntsc>
              </rate>
              <media>
                <audio>
                  <channelcount>1</channelcount>
                  <samplecharacteristics>
                    <samplerate>24000</samplerate>
                    <samplesize>16</samplesize>
                  </samplecharacteristics>
                </audio>
              </media>
            </file>
            <sourcetrack>
              <mediatype>audio</mediatype>
              <trackindex>1</trackindex>
            </sourcetrack>
            <comments/>
          </clipitem>
          <clipitem id="clipitem-8">
            <name>OrionS2_008.mp3</name>
            <enabled>TRUE</enabled>
            <duration>92</duration>
            <rate>
              <timebase>30</timebase>
              <ntsc>TRUE</ntsc>
            </rate>
            <start>683</start>
            <end>775</end>
            <in>0</in>
            <out>74183</out>
            <file id="file-8">
              <name>OrionS2_008.mp3</name>
              <pathurl>file:///Users/delaxstudio/src/delax-ops/ops/media/orion/projects/OrionS2/output/audio/OrionS2_008.mp3</pathurl>
              <rate>
                <timebase>24000</timebase>
                <ntsc>FALSE</ntsc>
              </rate>
              <media>
                <audio>
                  <channelcount>1</channelcount>
                  <samplecharacteristics>
                    <samplerate>24000</samplerate>
                    <samplesize>16</samplesize>
                  </samplecharacteristics>
                </audio>
              </media>
            </file>
            <sourcetrack>
              <mediatype>audio</mediatype>
              <trackindex>1</trackindex>
            </sourcetrack>
            <comments/>
          </clipitem>
          <clipitem id="clipitem-9">
            <name>OrionS2_009.mp3</name>
            <enabled>TRUE</enabled>
            <duration>112</duration>
            <rate>
              <timebase>30</timebase>
              <ntsc>TRUE</ntsc>
            </rate>
            <start>775</start>
            <end>887</end>
            <in>0</in>
            <out>89543</out>
            <file id="file-9">
              <name>OrionS2_009.mp3</name>
              <pathurl>file:///Users/delaxstudio/src/delax-ops/ops/media/orion/projects/OrionS2/output/audio/OrionS2_009.mp3</pathurl>
              <rate>
                <timebase>24000</timebase>
                <ntsc>FALSE</ntsc>
              </rate>
              <media>
                <audio>
                  <channelcount>1</channelcount>
                  <samplecharacteristics>
                    <samplerate>24000</samplerate>
                    <samplesize>16</samplesize>
                  </samplecharacteristics>
                </audio>
              </media>
            </file>
            <sourcetrack>
              <mediatype>audio</mediatype>
              <trackindex>1</trackindex>
            </sourcetrack>
            <comments/>
          </clipitem>
          <clipitem id="clipitem-10">
            <name>OrionS2_010.mp3</name>
            <enabled>TRUE</enabled>
            <duration>64</duration>
            <rate>
              <timebase>30</timebase>
              <ntsc>TRUE</ntsc>
            </rate>
            <start>887</start>
            <end>951</end>
            <in>0</in>
            <out>51143</out>
            <file id="file-10">
              <name>OrionS2_010.mp3</name>
              <pathurl>file:///Users/delaxstudio/src/delax-ops/ops/media/orion/projects/OrionS2/output/audio/OrionS2_010.mp3</pathurl>
              <rate>
                <timebase>24000</timebase>
                <ntsc>FALSE</ntsc>
              </rate>
              <media>
                <audio>
                  <channelcount>1</channelcount>
                  <samplecharacteristics>
                    <samplerate>24000</samplerate>
                    <samplesize>16</samplesize>
                  </samplecharacteristics>
                </audio>
              </media>
            </file>
            <sourcetrack>
              <mediatype>audio</mediatype>
              <trackindex>1</trackindex>
            </sourcetrack>
            <comments/>
          </clipitem>
          <clipitem id="clipitem-11">
            <name>OrionS2_011.mp3</name>
            <enabled>TRUE</enabled>
            <duration>132</duration>
            <rate>
              <timebase>30</timebase>
              <ntsc>TRUE</ntsc>
            </rate>
            <start>951</start>
            <end>1083</end>
            <in>0</in>
            <out>105863</out>
            <file id="file-11">
              <name>OrionS2_011.mp3</name>
              <pathurl>file:///Users/delaxstudio/src/delax-ops/ops/media/orion/projects/OrionS2/output/audio/OrionS2_011.mp3</pathurl>
              <rate>
                <timebase>24000</timebase>
                <ntsc>FALSE</ntsc>
              </rate>
              <media>
                <audio>
                  <channelcount>1</channelcount>
                  <samplecharacteristics>
                    <samplerate>24000</samplerate>
                    <samplesize>16</samplesize>
                  </samplecharacteristics>
                </audio>
              </media>
            </file>
            <sourcetrack>
              <mediatype>audio</mediatype>
              <trackindex>1</trackindex>
            </sourcetrack>
            <comments/>
          </clipitem>
          <clipitem id="clipitem-12">
            <name>OrionS2_012.mp3</name>
            <enabled>TRUE</enabled>
            <duration>162</duration>
            <rate>
              <timebase>30</timebase>
              <ntsc>TRUE</ntsc>
            </rate>
            <start>1083</start>
            <end>1245</end>
            <in>0</in>
            <out>129863</out>
            <file id="file-12">
              <name>OrionS2_012.mp3</name>
              <pathurl>file:///Users/delaxstudio/src/delax-ops/ops/media/orion/projects/OrionS2/output/audio/OrionS2_012.mp3</pathurl>
              <rate>
                <timebase>24000</timebase>
                <ntsc>FALSE</ntsc>
              </rate>
              <media>
                <audio>
                  <channelcount>1</channelcount>
                  <samplecharacteristics>
                    <samplerate>24000</samplerate>
                    <samplesize>16</samplesize>
                  </samplecharacteristics>
                </audio>
              </media>
            </file>
            <sourcetrack>
              <mediatype>audio</mediatype>
              <trackindex>1</trackindex>
            </sourcetrack>
            <comments/>
          </clipitem>
          <clipitem id="clipitem-13">
            <name>OrionS2_013.mp3</name>
            <enabled>TRUE</enabled>
            <duration>64</duration>
            <rate>
              <timebase>30</timebase>
              <ntsc>TRUE</ntsc>
            </rate>
            <start>1245</start>
            <end>1309</end>
            <in>0</in>
            <out>51143</out>
            <file id="file-13">
              <name>OrionS2_013.mp3</name>
              <pathurl>file:///Users/delaxstudio/src/delax-ops/ops/media/orion/projects/OrionS2/output/audio/OrionS2_013.mp3</pathurl>
              <rate>
                <timebase>24000</timebase>
                <ntsc>FALSE</ntsc>
              </rate>
              <media>
                <audio>
                  <channelcount>1</channelcount>
                  <samplecharacteristics>
                    <samplerate>24000</samplerate>
                    <samplesize>16</samplesize>
                  </samplecharacteristics>
                </audio>
              </media>
            </file>
            <sourcetrack>
              <mediatype>audio</mediatype>
              <trackindex>1</trackindex>
            </sourcetrack>
            <comments/>
          </clipitem>
          <clipitem id="clipitem-14">
            <name>OrionS2_014.mp3</name>
            <enabled>TRUE</enabled>
            <duration>94</duration>
            <rate>
              <timebase>30</timebase>
              <ntsc>TRUE</ntsc>
            </rate>
            <start>1309</start>
            <end>1403</end>
            <in>0</in>
            <out>75143</out>
            <file id="file-14">
              <name>OrionS2_014.mp3</name>
              <pathurl>file:///Users/delaxstudio/src/delax-ops/ops/media/orion/projects/OrionS2/output/audio/OrionS2_014.mp3</pathurl>
              <rate>
                <timebase>24000</timebase>
                <ntsc>FALSE</ntsc>
              </rate>
              <media>
                <audio>
                  <channelcount>1</channelcount>
                  <samplecharacteristics>
                    <samplerate>24000</samplerate>
                    <samplesize>16</samplesize>
                  </samplecharacteristics>
                </audio>
              </media>
            </file>
            <sourcetrack>
              <mediatype>audio</mediatype>
              <trackindex>1</trackindex>
            </sourcetrack>
            <comments/>
          </clipitem>
          <clipitem id="clipitem-15">
            <name>OrionS2_015.mp3</name>
            <enabled>TRUE</enabled>
            <duration>110</duration>
            <rate>
              <timebase>30</timebase>
              <ntsc>TRUE</ntsc>
            </rate>
            <start>1403</start>
            <end>1513</end>
            <in>0</in>
            <out>87623</out>
            <file id="file-15">
              <name>OrionS2_015.mp3</name>
              <pathurl>file:///Users/delaxstudio/src/delax-ops/ops/media/orion/projects/OrionS2/output/audio/OrionS2_015.mp3</pathurl>
              <rate>
                <timebase>24000</timebase>
                <ntsc>FALSE</ntsc>
              </rate>
              <media>
                <audio>
                  <channelcount>1</channelcount>
                  <samplecharacteristics>
                    <samplerate>24000</samplerate>
                    <samplesize>16</samplesize>
                  </samplecharacteristics>
                </audio>
              </media>
            </file>
            <sourcetrack>
              <mediatype>audio</mediatype>
              <trackindex>1</trackindex>
            </sourcetrack>
            <comments/>
          </clipitem>
          <clipitem id="clipitem-16">
            <name>OrionS2_016.mp3</name>
            <enabled>TRUE</enabled>
            <duration>85</duration>
            <rate>
              <timebase>30</timebase>
              <ntsc>TRUE</ntsc>
            </rate>
            <start>1513</start>
            <end>1598</end>
            <in>0</in>
            <out>68423</out>
            <file id="file-16">
              <name>OrionS2_016.mp3</name>
              <pathurl>file:///Users/delaxstudio/src/delax-ops/ops/media/orion/projects/OrionS2/output/audio/OrionS2_016.mp3</pathurl>
              <rate>
                <timebase>24000</timebase>
                <ntsc>FALSE</ntsc>
              </rate>
              <media>
                <audio>
                  <channelcount>1</channelcount>
                  <samplecharacteristics>
                    <samplerate>24000</samplerate>
                    <samplesize>16</samplesize>
                  </samplecharacteristics>
                </audio>
              </media>
            </file>
            <sourcetrack>
              <mediatype>audio</mediatype>
              <trackindex>1</trackindex>
            </sourcetrack>
            <comments/>
          </clipitem>
          <clipitem id="clipitem-17">
            <name>OrionS2_017.mp3</name>
            <enabled>TRUE</enabled>
            <duration>163</duration>
            <rate>
              <timebase>30</timebase>
              <ntsc>TRUE</ntsc>
            </rate>
            <start>1598</start>
            <end>1761</end>
            <in>0</in>
            <out>130823</out>
            <file id="file-17">
              <name>OrionS2_017.mp3</name>
              <pathurl>file:///Users/delaxstudio/src/delax-ops/ops/media/orion/projects/OrionS2/output/audio/OrionS2_017.mp3</pathurl>
              <rate>
                <timebase>24000</timebase>
                <ntsc>FALSE</ntsc>
              </rate>
              <media>
                <audio>
                  <channelcount>1</channelcount>
                  <samplecharacteristics>
                    <samplerate>24000</samplerate>
                    <samplesize>16</samplesize>
                  </samplecharacteristics>
                </audio>
              </media>
            </file>
            <sourcetrack>
              <mediatype>audio</mediatype>
              <trackindex>1</trackindex>
            </sourcetrack>
            <comments/>
          </clipitem>
          <clipitem id="clipitem-18">
            <name>OrionS2_018.mp3</name>
            <enabled>TRUE</enabled>
            <duration>125</duration>
            <rate>
              <timebase>30</timebase>
              <ntsc>TRUE</ntsc>
            </rate>
            <start>1761</start>
            <end>1886</end>
            <in>0</in>
            <out>100103</out>
            <file id="file-18">
              <name>OrionS2_018.mp3</name>
              <pathurl>file:///Users/delaxstudio/src/delax-ops/ops/media/orion/projects/OrionS2/output/audio/OrionS2_018.mp3</pathurl>
              <rate>
                <timebase>24000</timebase>
                <ntsc>FALSE</ntsc>
              </rate>
              <media>
                <audio>
                  <channelcount>1</channelcount>
                  <samplecharacteristics>
                    <samplerate>24000</samplerate>
                    <samplesize>16</samplesize>
                  </samplecharacteristics>
                </audio>
              </media>
            </file>
            <sourcetrack>
              <mediatype>audio</mediatype>
              <trackindex>1</trackindex>
            </sourcetrack>
            <comments/>
          </clipitem>
          <clipitem id="clipitem-19">
            <name>OrionS2_019.mp3</name>
            <enabled>TRUE</enabled>
            <duration>109</duration>
            <rate>
              <timebase>30</timebase>
              <ntsc>TRUE</ntsc>
            </rate>
            <start>1886</start>
            <end>1995</end>
            <in>0</in>
            <out>86663</out>
            <file id="file-19">
              <name>OrionS2_019.mp3</name>
              <pathurl>file:///Users/delaxstudio/src/delax-ops/ops/media/orion/projects/OrionS2/output/audio/OrionS2_019.mp3</pathurl>
              <rate>
                <timebase>24000</timebase>
                <ntsc>FALSE</ntsc>
              </rate>
              <media>
                <audio>
                  <channelcount>1</channelcount>
                  <samplecharacteristics>
                    <samplerate>24000</samplerate>
                    <samplesize>16</samplesize>
                  </samplecharacteristics>
                </audio>
              </media>
            </file>
            <sourcetrack>
              <mediatype>audio</mediatype>
              <trackindex>1</trackindex>
            </sourcetrack>
            <comments/>
          </clipitem>
          <clipitem id="clipitem-20">
            <name>OrionS2_020.mp3</name>
            <enabled>TRUE</enabled>
            <duration>43</duration>
            <rate>
              <timebase>30</timebase>
              <ntsc>TRUE</ntsc>
            </rate>
            <start>1995</start>
            <end>2038</end>
            <in>0</in>
            <out>34823</out>
            <file id="file-20">
              <name>OrionS2_020.mp3</name>
              <pathurl>file:///Users/delaxstudio/src/delax-ops/ops/media/orion/projects/OrionS2/output/audio/OrionS2_020.mp3</pathurl>
              <rate>
                <timebase>24000</timebase>
                <ntsc>FALSE</ntsc>
              </rate>
              <media>
                <audio>
                  <channelcount>1</channelcount>
                  <samplecharacteristics>
                    <samplerate>24000</samplerate>
                    <samplesize>16</samplesize>
                  </samplecharacteristics>
                </audio>
              </media>
            </file>
            <sourcetrack>
              <mediatype>audio</mediatype>
              <trackindex>1</trackindex>
            </sourcetrack>
            <comments/>
          </clipitem>
          <clipitem id="clipitem-21">
            <name>OrionS2_021.mp3</name>
            <enabled>TRUE</enabled>
            <duration>101</duration>
            <rate>
              <timebase>30</timebase>
              <ntsc>TRUE</ntsc>
            </rate>
            <start>2038</start>
            <end>2139</end>
            <in>0</in>
            <out>80903</out>
            <file id="file-21">
              <name>OrionS2_021.mp3</name>
              <pathurl>file:///Users/delaxstudio/src/delax-ops/ops/media/orion/projects/OrionS2/output/audio/OrionS2_021.mp3</pathurl>
              <rate>
                <timebase>24000</timebase>
                <ntsc>FALSE</ntsc>
              </rate>
              <media>
                <audio>
                  <channelcount>1</channelcount>
                  <samplecharacteristics>
                    <samplerate>24000</samplerate>
                    <samplesize>16</samplesize>
                  </samplecharacteristics>
                </audio>
              </media>
            </file>
            <sourcetrack>
              <mediatype>audio</mediatype>
              <trackindex>1</trackindex>
            </sourcetrack>
            <comments/>
          </clipitem>
          <clipitem id="clipitem-22">
            <name>OrionS2_022.mp3</name>
            <enabled>TRUE</enabled>
            <duration>115</duration>
            <rate>
              <timebase>30</timebase>
              <ntsc>TRUE</ntsc>
            </rate>
            <start>2139</start>
            <end>2254</end>
            <in>0</in>
            <out>92423</out>
            <file id="file-22">
              <name>OrionS2_022.mp3</name>
              <pathurl>file:///Users/delaxstudio/src/delax-ops/ops/media/orion/projects/OrionS2/output/audio/OrionS2_022.mp3</pathurl>
              <rate>
                <timebase>24000</timebase>
                <ntsc>FALSE</ntsc>
              </rate>
              <media>
                <audio>
                  <channelcount>1</channelcount>
                  <samplecharacteristics>
                    <samplerate>24000</samplerate>
                    <samplesize>16</samplesize>
                  </samplecharacteristics>
                </audio>
              </media>
            </file>
            <sourcetrack>
              <mediatype>audio</mediatype>
              <trackindex>1</trackindex>
            </sourcetrack>
            <comments/>
          </clipitem>
          <clipitem id="clipitem-23">
            <name>OrionS2_023.mp3</name>
            <enabled>TRUE</enabled>
            <duration>78</duration>
            <rate>
              <timebase>30</timebase>
              <ntsc>TRUE</ntsc>
            </rate>
            <start>2254</start>
            <end>2332</end>
            <in>0</in>
            <out>61703</out>
            <file id="file-23">
              <name>OrionS2_023.mp3</name>
              <pathurl>file:///Users/delaxstudio/src/delax-ops/ops/media/orion/projects/OrionS2/output/audio/OrionS2_023.mp3</pathurl>
              <rate>
                <timebase>24000</timebase>
                <ntsc>FALSE</ntsc>
              </rate>
              <media>
                <audio>
                  <channelcount>1</channelcount>
                  <samplecharacteristics>
                    <samplerate>24000</samplerate>
                    <samplesize>16</samplesize>
                  </samplecharacteristics>
                </audio>
              </media>
            </file>
            <sourcetrack>
              <mediatype>audio</mediatype>
              <trackindex>1</trackindex>
            </sourcetrack>
            <comments/>
          </clipitem>
          <clipitem id="clipitem-24">
            <name>OrionS2_024.mp3</name>
            <enabled>TRUE</enabled>
            <duration>105</duration>
            <rate>
              <timebase>30</timebase>
              <ntsc>TRUE</ntsc>
            </rate>
            <start>2332</start>
            <end>2437</end>
            <in>0</in>
            <out>84743</out>
            <file id="file-24">
              <name>OrionS2_024.mp3</name>
              <pathurl>file:///Users/delaxstudio/src/delax-ops/ops/media/orion/projects/OrionS2/output/audio/OrionS2_024.mp3</pathurl>
              <rate>
                <timebase>24000</timebase>
                <ntsc>FALSE</ntsc>
              </rate>
              <media>
                <audio>
                  <channelcount>1</channelcount>
                  <samplecharacteristics>
                    <samplerate>24000</samplerate>
                    <samplesize>16</samplesize>
                  </samplecharacteristics>
                </audio>
              </media>
            </file>
            <sourcetrack>
              <mediatype>audio</mediatype>
              <trackindex>1</trackindex>
            </sourcetrack>
            <comments/>
          </clipitem>
          <clipitem id="clipitem-25">
            <name>OrionS2_025.mp3</name>
            <enabled>TRUE</enabled>
            <duration>122</duration>
            <rate>
              <timebase>30</timebase>
              <ntsc>TRUE</ntsc>
            </rate>
            <start>2437</start>
            <end>2559</end>
            <in>0</in>
            <out>97223</out>
            <file id="file-25">
              <name>OrionS2_025.mp3</name>
              <pathurl>file:///Users/delaxstudio/src/delax-ops/ops/media/orion/projects/OrionS2/output/audio/OrionS2_025.mp3</pathurl>
              <rate>
                <timebase>24000</timebase>
                <ntsc>FALSE</ntsc>
              </rate>
              <media>
                <audio>
                  <channelcount>1</channelcount>
                  <samplecharacteristics>
                    <samplerate>24000</samplerate>
                    <samplesize>16</samplesize>
                  </samplecharacteristics>
                </audio>
              </media>
            </file>
            <sourcetrack>
              <mediatype>audio</mediatype>
              <trackindex>1</trackindex>
            </sourcetrack>
            <comments/>
          </clipitem>
          <clipitem id="clipitem-26">
            <name>OrionS2_026.mp3</name>
            <enabled>TRUE</enabled>
            <duration>151</duration>
            <rate>
              <timebase>30</timebase>
              <ntsc>TRUE</ntsc>
            </rate>
            <start>2559</start>
            <end>2710</end>
            <in>0</in>
            <out>121223</out>
            <file id="file-26">
              <name>OrionS2_026.mp3</name>
              <pathurl>file:///Users/delaxstudio/src/delax-ops/ops/media/orion/projects/OrionS2/output/audio/OrionS2_026.mp3</pathurl>
              <rate>
                <timebase>24000</timebase>
                <ntsc>FALSE</ntsc>
              </rate>
              <media>
                <audio>
                  <channelcount>1</channelcount>
                  <samplecharacteristics>
                    <samplerate>24000</samplerate>
                    <samplesize>16</samplesize>
                  </samplecharacteristics>
                </audio>
              </media>
            </file>
            <sourcetrack>
              <mediatype>audio</mediatype>
              <trackindex>1</trackindex>
            </sourcetrack>
            <comments/>
          </clipitem>
          <clipitem id="clipitem-27">
            <name>OrionS2_027.mp3</name>
            <enabled>TRUE</enabled>
            <duration>29</duration>
            <rate>
              <timebase>30</timebase>
              <ntsc>TRUE</ntsc>
            </rate>
            <start>2710</start>
            <end>2739</end>
            <in>0</in>
            <out>23303</out>
            <file id="file-27">
              <name>OrionS2_027.mp3</name>
              <pathurl>file:///Users/delaxstudio/src/delax-ops/ops/media/orion/projects/OrionS2/output/audio/OrionS2_027.mp3</pathurl>
              <rate>
                <timebase>24000</timebase>
                <ntsc>FALSE</ntsc>
              </rate>
              <media>
                <audio>
                  <channelcount>1</channelcount>
                  <samplecharacteristics>
                    <samplerate>24000</samplerate>
                    <samplesize>16</samplesize>
                  </samplecharacteristics>
                </audio>
              </media>
            </file>
            <sourcetrack>
              <mediatype>audio</mediatype>
              <trackindex>1</trackindex>
            </sourcetrack>
            <comments/>
          </clipitem>
          <clipitem id="clipitem-28">
            <name>OrionS2_028.mp3</name>
            <enabled>TRUE</enabled>
            <duration>95</duration>
            <rate>
              <timebase>30</timebase>
              <ntsc>TRUE</ntsc>
            </rate>
            <start>2739</start>
            <end>2834</end>
            <in>0</in>
            <out>76103</out>
            <file id="file-28">
              <name>OrionS2_028.mp3</name>
              <pathurl>file:///Users/delaxstudio/src/delax-ops/ops/media/orion/projects/OrionS2/output/audio/OrionS2_028.mp3</pathurl>
              <rate>
                <timebase>24000</timebase>
                <ntsc>FALSE</ntsc>
              </rate>
              <media>
                <audio>
                  <channelcount>1</channelcount>
                  <samplecharacteristics>
                    <samplerate>24000</samplerate>
                    <samplesize>16</samplesize>
                  </samplecharacteristics>
                </audio>
              </media>
            </file>
            <sourcetrack>
              <mediatype>audio</mediatype>
              <trackindex>1</trackindex>
            </sourcetrack>
            <comments/>
          </clipitem>
          <clipitem id="clipitem-29">
            <name>OrionS2_029.mp3</name>
            <enabled>TRUE</enabled>
            <duration>95</duration>
            <rate>
              <timebase>30</timebase>
              <ntsc>TRUE</ntsc>
            </rate>
            <start>2834</start>
            <end>2929</end>
            <in>0</in>
            <out>76103</out>
            <file id="file-29">
              <name>OrionS2_029.mp3</name>
              <pathurl>file:///Users/delaxstudio/src/delax-ops/ops/media/orion/projects/OrionS2/output/audio/OrionS2_029.mp3</pathurl>
              <rate>
                <timebase>24000</timebase>
                <ntsc>FALSE</ntsc>
              </rate>
              <media>
                <audio>
                  <channelcount>1</channelcount>
                  <samplecharacteristics>
                    <samplerate>24000</samplerate>
                    <samplesize>16</samplesize>
                  </samplecharacteristics>
                </audio>
              </media>
            </file>
            <sourcetrack>
              <mediatype>audio</mediatype>
              <trackindex>1</trackindex>
            </sourcetrack>
            <comments/>
          </clipitem>
          <clipitem id="clipitem-30">
            <name>OrionS2_030.mp3</name>
            <enabled>TRUE</enabled>
            <duration>143</duration>
            <rate>
              <timebase>30</timebase>
              <ntsc>TRUE</ntsc>
            </rate>
            <start>2929</start>
            <end>3072</end>
            <in>0</in>
            <out>114503</out>
            <file id="file-30">
              <name>OrionS2_030.mp3</name>
              <pathurl>file:///Users/delaxstudio/src/delax-ops/ops/media/orion/projects/OrionS2/output/audio/OrionS2_030.mp3</pathurl>
              <rate>
                <timebase>24000</timebase>
                <ntsc>FALSE</ntsc>
              </rate>
              <media>
                <audio>
                  <channelcount>1</channelcount>
                  <samplecharacteristics>
                    <samplerate>24000</samplerate>
                    <samplesize>16</samplesize>
                  </samplecharacteristics>
                </audio>
              </media>
            </file>
            <sourcetrack>
              <mediatype>audio</mediatype>
              <trackindex>1</trackindex>
            </sourcetrack>
            <comments/>
          </clipitem>
          <clipitem id="clipitem-31">
            <name>OrionS2_031.mp3</name>
            <enabled>TRUE</enabled>
            <duration>59</duration>
            <rate>
              <timebase>30</timebase>
              <ntsc>TRUE</ntsc>
            </rate>
            <start>3072</start>
            <end>3131</end>
            <in>0</in>
            <out>47303</out>
            <file id="file-31">
              <name>OrionS2_031.mp3</name>
              <pathurl>file:///Users/delaxstudio/src/delax-ops/ops/media/orion/projects/OrionS2/output/audio/OrionS2_031.mp3</pathurl>
              <rate>
                <timebase>24000</timebase>
                <ntsc>FALSE</ntsc>
              </rate>
              <media>
                <audio>
                  <channelcount>1</channelcount>
                  <samplecharacteristics>
                    <samplerate>24000</samplerate>
                    <samplesize>16</samplesize>
                  </samplecharacteristics>
                </audio>
              </media>
            </file>
            <sourcetrack>
              <mediatype>audio</mediatype>
              <trackindex>1</trackindex>
            </sourcetrack>
            <comments/>
          </clipitem>
          <clipitem id="clipitem-32">
            <name>OrionS2_032.mp3</name>
            <enabled>TRUE</enabled>
            <duration>91</duration>
            <rate>
              <timebase>30</timebase>
              <ntsc>TRUE</ntsc>
            </rate>
            <start>3131</start>
            <end>3222</end>
            <in>0</in>
            <out>72263</out>
            <file id="file-32">
              <name>OrionS2_032.mp3</name>
              <pathurl>file:///Users/delaxstudio/src/delax-ops/ops/media/orion/projects/OrionS2/output/audio/OrionS2_032.mp3</pathurl>
              <rate>
                <timebase>24000</timebase>
                <ntsc>FALSE</ntsc>
              </rate>
              <media>
                <audio>
                  <channelcount>1</channelcount>
                  <samplecharacteristics>
                    <samplerate>24000</samplerate>
                    <samplesize>16</samplesize>
                  </samplecharacteristics>
                </audio>
              </media>
            </file>
            <sourcetrack>
              <mediatype>audio</mediatype>
              <trackindex>1</trackindex>
            </sourcetrack>
            <comments/>
          </clipitem>
          <clipitem id="clipitem-33">
            <name>OrionS2_033.mp3</name>
            <enabled>TRUE</enabled>
            <duration>116</duration>
            <rate>
              <timebase>30</timebase>
              <ntsc>TRUE</ntsc>
            </rate>
            <start>3222</start>
            <end>3338</end>
            <in>0</in>
            <out>93383</out>
            <file id="file-33">
              <name>OrionS2_033.mp3</name>
              <pathurl>file:///Users/delaxstudio/src/delax-ops/ops/media/orion/projects/OrionS2/output/audio/OrionS2_033.mp3</pathurl>
              <rate>
                <timebase>24000</timebase>
                <ntsc>FALSE</ntsc>
              </rate>
              <media>
                <audio>
                  <channelcount>1</channelcount>
                  <samplecharacteristics>
                    <samplerate>24000</samplerate>
                    <samplesize>16</samplesize>
                  </samplecharacteristics>
                </audio>
              </media>
            </file>
            <sourcetrack>
              <mediatype>audio</mediatype>
              <trackindex>1</trackindex>
            </sourcetrack>
            <comments/>
          </clipitem>
          <clipitem id="clipitem-34">
            <name>OrionS2_034.mp3</name>
            <enabled>TRUE</enabled>
            <duration>92</duration>
            <rate>
              <timebase>30</timebase>
              <ntsc>TRUE</ntsc>
            </rate>
            <start>3338</start>
            <end>3430</end>
            <in>0</in>
            <out>73223</out>
            <file id="file-34">
              <name>OrionS2_034.mp3</name>
              <pathurl>file:///Users/delaxstudio/src/delax-ops/ops/media/orion/projects/OrionS2/output/audio/OrionS2_034.mp3</pathurl>
              <rate>
                <timebase>24000</timebase>
                <ntsc>FALSE</ntsc>
              </rate>
              <media>
                <audio>
                  <channelcount>1</channelcount>
                  <samplecharacteristics>
                    <samplerate>24000</samplerate>
                    <samplesize>16</samplesize>
                  </samplecharacteristics>
                </audio>
              </media>
            </file>
            <sourcetrack>
              <mediatype>audio</mediatype>
              <trackindex>1</trackindex>
            </sourcetrack>
            <comments/>
          </clipitem>
          <clipitem id="clipitem-35">
            <name>OrionS2_035.mp3</name>
            <enabled>TRUE</enabled>
            <duration>121</duration>
            <rate>
              <timebase>30</timebase>
              <ntsc>TRUE</ntsc>
            </rate>
            <start>3430</start>
            <end>3551</end>
            <in>0</in>
            <out>97223</out>
            <file id="file-35">
              <name>OrionS2_035.mp3</name>
              <pathurl>file:///Users/delaxstudio/src/delax-ops/ops/media/orion/projects/OrionS2/output/audio/OrionS2_035.mp3</pathurl>
              <rate>
                <timebase>24000</timebase>
                <ntsc>FALSE</ntsc>
              </rate>
              <media>
                <audio>
                  <channelcount>1</channelcount>
                  <samplecharacteristics>
                    <samplerate>24000</samplerate>
                    <samplesize>16</samplesize>
                  </samplecharacteristics>
                </audio>
              </media>
            </file>
            <sourcetrack>
              <mediatype>audio</mediatype>
              <trackindex>1</trackindex>
            </sourcetrack>
            <comments/>
          </clipitem>
          <clipitem id="clipitem-36">
            <name>OrionS2_036.mp3</name>
            <enabled>TRUE</enabled>
            <duration>78</duration>
            <rate>
              <timebase>30</timebase>
              <ntsc>TRUE</ntsc>
            </rate>
            <start>3551</start>
            <end>3629</end>
            <in>0</in>
            <out>62663</out>
            <file id="file-36">
              <name>OrionS2_036.mp3</name>
              <pathurl>file:///Users/delaxstudio/src/delax-ops/ops/media/orion/projects/OrionS2/output/audio/OrionS2_036.mp3</pathurl>
              <rate>
                <timebase>24000</timebase>
                <ntsc>FALSE</ntsc>
              </rate>
              <media>
                <audio>
                  <channelcount>1</channelcount>
                  <samplecharacteristics>
                    <samplerate>24000</samplerate>
                    <samplesize>16</samplesize>
                  </samplecharacteristics>
                </audio>
              </media>
            </file>
            <sourcetrack>
              <mediatype>audio</mediatype>
              <trackindex>1</trackindex>
            </sourcetrack>
            <comments/>
          </clipitem>
          <clipitem id="clipitem-37">
            <name>OrionS2_037.mp3</name>
            <enabled>TRUE</enabled>
            <duration>118</duration>
            <rate>
              <timebase>30</timebase>
              <ntsc>TRUE</ntsc>
            </rate>
            <start>3629</start>
            <end>3747</end>
            <in>0</in>
            <out>94343</out>
            <file id="file-37">
              <name>OrionS2_037.mp3</name>
              <pathurl>file:///Users/delaxstudio/src/delax-ops/ops/media/orion/projects/OrionS2/output/audio/OrionS2_037.mp3</pathurl>
              <rate>
                <timebase>24000</timebase>
                <ntsc>FALSE</ntsc>
              </rate>
              <media>
                <audio>
                  <channelcount>1</channelcount>
                  <samplecharacteristics>
                    <samplerate>24000</samplerate>
                    <samplesize>16</samplesize>
                  </samplecharacteristics>
                </audio>
              </media>
            </file>
            <sourcetrack>
              <mediatype>audio</mediatype>
              <trackindex>1</trackindex>
            </sourcetrack>
            <comments/>
          </clipitem>
          <clipitem id="clipitem-38">
            <name>OrionS2_038.mp3</name>
            <enabled>TRUE</enabled>
            <duration>105</duration>
            <rate>
              <timebase>30</timebase>
              <ntsc>TRUE</ntsc>
            </rate>
            <start>3747</start>
            <end>3852</end>
            <in>0</in>
            <out>83783</out>
            <file id="file-38">
              <name>OrionS2_038.mp3</name>
              <pathurl>file:///Users/delaxstudio/src/delax-ops/ops/media/orion/projects/OrionS2/output/audio/OrionS2_038.mp3</pathurl>
              <rate>
                <timebase>24000</timebase>
                <ntsc>FALSE</ntsc>
              </rate>
              <media>
                <audio>
                  <channelcount>1</channelcount>
                  <samplecharacteristics>
                    <samplerate>24000</samplerate>
                    <samplesize>16</samplesize>
                  </samplecharacteristics>
                </audio>
              </media>
            </file>
            <sourcetrack>
              <mediatype>audio</mediatype>
              <trackindex>1</trackindex>
            </sourcetrack>
            <comments/>
          </clipitem>
          <clipitem id="clipitem-39">
            <name>OrionS2_039.mp3</name>
            <enabled>TRUE</enabled>
            <duration>128</duration>
            <rate>
              <timebase>30</timebase>
              <ntsc>TRUE</ntsc>
            </rate>
            <start>3852</start>
            <end>3980</end>
            <in>0</in>
            <out>102983</out>
            <file id="file-39">
              <name>OrionS2_039.mp3</name>
              <pathurl>file:///Users/delaxstudio/src/delax-ops/ops/media/orion/projects/OrionS2/output/audio/OrionS2_039.mp3</pathurl>
              <rate>
                <timebase>24000</timebase>
                <ntsc>FALSE</ntsc>
              </rate>
              <media>
                <audio>
                  <channelcount>1</channelcount>
                  <samplecharacteristics>
                    <samplerate>24000</samplerate>
                    <samplesize>16</samplesize>
                  </samplecharacteristics>
                </audio>
              </media>
            </file>
            <sourcetrack>
              <mediatype>audio</mediatype>
              <trackindex>1</trackindex>
            </sourcetrack>
            <comments/>
          </clipitem>
          <clipitem id="clipitem-40">
            <name>OrionS2_040.mp3</name>
            <enabled>TRUE</enabled>
            <duration>77</duration>
            <rate>
              <timebase>30</timebase>
              <ntsc>TRUE</ntsc>
            </rate>
            <start>3980</start>
            <end>4057</end>
            <in>0</in>
            <out>61703</out>
            <file id="file-40">
              <name>OrionS2_040.mp3</name>
              <pathurl>file:///Users/delaxstudio/src/delax-ops/ops/media/orion/projects/OrionS2/output/audio/OrionS2_040.mp3</pathurl>
              <rate>
                <timebase>24000</timebase>
                <ntsc>FALSE</ntsc>
              </rate>
              <media>
                <audio>
                  <channelcount>1</channelcount>
                  <samplecharacteristics>
                    <samplerate>24000</samplerate>
                    <samplesize>16</samplesize>
                  </samplecharacteristics>
                </audio>
              </media>
            </file>
            <sourcetrack>
              <mediatype>audio</mediatype>
              <trackindex>1</trackindex>
            </sourcetrack>
            <comments/>
          </clipitem>
          <clipitem id="clipitem-41">
            <name>OrionS2_041.mp3</name>
            <enabled>TRUE</enabled>
            <duration>74</duration>
            <rate>
              <timebase>30</timebase>
              <ntsc>TRUE</ntsc>
            </rate>
            <start>4057</start>
            <end>4131</end>
            <in>0</in>
            <out>58823</out>
            <file id="file-41">
              <name>OrionS2_041.mp3</name>
              <pathurl>file:///Users/delaxstudio/src/delax-ops/ops/media/orion/projects/OrionS2/output/audio/OrionS2_041.mp3</pathurl>
              <rate>
                <timebase>24000</timebase>
                <ntsc>FALSE</ntsc>
              </rate>
              <media>
                <audio>
                  <channelcount>1</channelcount>
                  <samplecharacteristics>
                    <samplerate>24000</samplerate>
                    <samplesize>16</samplesize>
                  </samplecharacteristics>
                </audio>
              </media>
            </file>
            <sourcetrack>
              <mediatype>audio</mediatype>
              <trackindex>1</trackindex>
            </sourcetrack>
            <comments/>
          </clipitem>
          <clipitem id="clipitem-42">
            <name>OrionS2_042.mp3</name>
            <enabled>TRUE</enabled>
            <duration>108</duration>
            <rate>
              <timebase>30</timebase>
              <ntsc>TRUE</ntsc>
            </rate>
            <start>4131</start>
            <end>4239</end>
            <in>0</in>
            <out>86663</out>
            <file id="file-42">
              <name>OrionS2_042.mp3</name>
              <pathurl>file:///Users/delaxstudio/src/delax-ops/ops/media/orion/projects/OrionS2/output/audio/OrionS2_042.mp3</pathurl>
              <rate>
                <timebase>24000</timebase>
                <ntsc>FALSE</ntsc>
              </rate>
              <media>
                <audio>
                  <channelcount>1</channelcount>
                  <samplecharacteristics>
                    <samplerate>24000</samplerate>
                    <samplesize>16</samplesize>
                  </samplecharacteristics>
                </audio>
              </media>
            </file>
            <sourcetrack>
              <mediatype>audio</mediatype>
              <trackindex>1</trackindex>
            </sourcetrack>
            <comments/>
          </clipitem>
          <clipitem id="clipitem-43">
            <name>OrionS2_043.mp3</name>
            <enabled>TRUE</enabled>
            <duration>83</duration>
            <rate>
              <timebase>30</timebase>
              <ntsc>TRUE</ntsc>
            </rate>
            <start>4239</start>
            <end>4322</end>
            <in>0</in>
            <out>66503</out>
            <file id="file-43">
              <name>OrionS2_043.mp3</name>
              <pathurl>file:///Users/delaxstudio/src/delax-ops/ops/media/orion/projects/OrionS2/output/audio/OrionS2_043.mp3</pathurl>
              <rate>
                <timebase>24000</timebase>
                <ntsc>FALSE</ntsc>
              </rate>
              <media>
                <audio>
                  <channelcount>1</channelcount>
                  <samplecharacteristics>
                    <samplerate>24000</samplerate>
                    <samplesize>16</samplesize>
                  </samplecharacteristics>
                </audio>
              </media>
            </file>
            <sourcetrack>
              <mediatype>audio</mediatype>
              <trackindex>1</trackindex>
            </sourcetrack>
            <comments/>
          </clipitem>
          <clipitem id="clipitem-44">
            <name>OrionS2_044.mp3</name>
            <enabled>TRUE</enabled>
            <duration>108</duration>
            <rate>
              <timebase>30</timebase>
              <ntsc>TRUE</ntsc>
            </rate>
            <start>4322</start>
            <end>4430</end>
            <in>0</in>
            <out>86663</out>
            <file id="file-44">
              <name>OrionS2_044.mp3</name>
              <pathurl>file:///Users/delaxstudio/src/delax-ops/ops/media/orion/projects/OrionS2/output/audio/OrionS2_044.mp3</pathurl>
              <rate>
                <timebase>24000</timebase>
                <ntsc>FALSE</ntsc>
              </rate>
              <media>
                <audio>
                  <channelcount>1</channelcount>
                  <samplecharacteristics>
                    <samplerate>24000</samplerate>
                    <samplesize>16</samplesize>
                  </samplecharacteristics>
                </audio>
              </media>
            </file>
            <sourcetrack>
              <mediatype>audio</mediatype>
              <trackindex>1</trackindex>
            </sourcetrack>
            <comments/>
          </clipitem>
          <clipitem id="clipitem-45">
            <name>OrionS2_045.mp3</name>
            <enabled>TRUE</enabled>
            <duration>97</duration>
            <rate>
              <timebase>30</timebase>
              <ntsc>TRUE</ntsc>
            </rate>
            <start>4430</start>
            <end>4527</end>
            <in>0</in>
            <out>77063</out>
            <file id="file-45">
              <name>OrionS2_045.mp3</name>
              <pathurl>file:///Users/delaxstudio/src/delax-ops/ops/media/orion/projects/OrionS2/output/audio/OrionS2_045.mp3</pathurl>
              <rate>
                <timebase>24000</timebase>
                <ntsc>FALSE</ntsc>
              </rate>
              <media>
                <audio>
                  <channelcount>1</channelcount>
                  <samplecharacteristics>
                    <samplerate>24000</samplerate>
                    <samplesize>16</samplesize>
                  </samplecharacteristics>
                </audio>
              </media>
            </file>
            <sourcetrack>
              <mediatype>audio</mediatype>
              <trackindex>1</trackindex>
            </sourcetrack>
            <comments/>
          </clipitem>
          <clipitem id="clipitem-46">
            <name>OrionS2_046.mp3</name>
            <enabled>TRUE</enabled>
            <duration>71</duration>
            <rate>
              <timebase>30</timebase>
              <ntsc>TRUE</ntsc>
            </rate>
            <start>4527</start>
            <end>4598</end>
            <in>0</in>
            <out>56903</out>
            <file id="file-46">
              <name>OrionS2_046.mp3</name>
              <pathurl>file:///Users/delaxstudio/src/delax-ops/ops/media/orion/projects/OrionS2/output/audio/OrionS2_046.mp3</pathurl>
              <rate>
                <timebase>24000</timebase>
                <ntsc>FALSE</ntsc>
              </rate>
              <media>
                <audio>
                  <channelcount>1</channelcount>
                  <samplecharacteristics>
                    <samplerate>24000</samplerate>
                    <samplesize>16</samplesize>
                  </samplecharacteristics>
                </audio>
              </media>
            </file>
            <sourcetrack>
              <mediatype>audio</mediatype>
              <trackindex>1</trackindex>
            </sourcetrack>
            <comments/>
          </clipitem>
          <clipitem id="clipitem-47">
            <name>OrionS2_047.mp3</name>
            <enabled>TRUE</enabled>
            <duration>93</duration>
            <rate>
              <timebase>30</timebase>
              <ntsc>TRUE</ntsc>
            </rate>
            <start>4598</start>
            <end>4691</end>
            <in>0</in>
            <out>75143</out>
            <file id="file-47">
              <name>OrionS2_047.mp3</name>
              <pathurl>file:///Users/delaxstudio/src/delax-ops/ops/media/orion/projects/OrionS2/output/audio/OrionS2_047.mp3</pathurl>
              <rate>
                <timebase>24000</timebase>
                <ntsc>FALSE</ntsc>
              </rate>
              <media>
                <audio>
                  <channelcount>1</channelcount>
                  <samplecharacteristics>
                    <samplerate>24000</samplerate>
                    <samplesize>16</samplesize>
                  </samplecharacteristics>
                </audio>
              </media>
            </file>
            <sourcetrack>
              <mediatype>audio</mediatype>
              <trackindex>1</trackindex>
            </sourcetrack>
            <comments/>
          </clipitem>
          <clipitem id="clipitem-48">
            <name>OrionS2_048.mp3</name>
            <enabled>TRUE</enabled>
            <duration>60</duration>
            <rate>
              <timebase>30</timebase>
              <ntsc>TRUE</ntsc>
            </rate>
            <start>4691</start>
            <end>4751</end>
            <in>0</in>
            <out>47303</out>
            <file id="file-48">
              <name>OrionS2_048.mp3</name>
              <pathurl>file:///Users/delaxstudio/src/delax-ops/ops/media/orion/projects/OrionS2/output/audio/OrionS2_048.mp3</pathurl>
              <rate>
                <timebase>24000</timebase>
                <ntsc>FALSE</ntsc>
              </rate>
              <media>
                <audio>
                  <channelcount>1</channelcount>
                  <samplecharacteristics>
                    <samplerate>24000</samplerate>
                    <samplesize>16</samplesize>
                  </samplecharacteristics>
                </audio>
              </media>
            </file>
            <sourcetrack>
              <mediatype>audio</mediatype>
              <trackindex>1</trackindex>
            </sourcetrack>
            <comments/>
          </clipitem>
          <clipitem id="clipitem-49">
            <name>OrionS2_049.mp3</name>
            <enabled>TRUE</enabled>
            <duration>96</duration>
            <rate>
              <timebase>30</timebase>
              <ntsc>TRUE</ntsc>
            </rate>
            <start>4751</start>
            <end>4847</end>
            <in>0</in>
            <out>77063</out>
            <file id="file-49">
              <name>OrionS2_049.mp3</name>
              <pathurl>file:///Users/delaxstudio/src/delax-ops/ops/media/orion/projects/OrionS2/output/audio/OrionS2_049.mp3</pathurl>
              <rate>
                <timebase>24000</timebase>
                <ntsc>FALSE</ntsc>
              </rate>
              <media>
                <audio>
                  <channelcount>1</channelcount>
                  <samplecharacteristics>
                    <samplerate>24000</samplerate>
                    <samplesize>16</samplesize>
                  </samplecharacteristics>
                </audio>
              </media>
            </file>
            <sourcetrack>
              <mediatype>audio</mediatype>
              <trackindex>1</trackindex>
            </sourcetrack>
            <comments/>
          </clipitem>
          <clipitem id="clipitem-50">
            <name>OrionS2_050.mp3</name>
            <enabled>TRUE</enabled>
            <duration>119</duration>
            <rate>
              <timebase>30</timebase>
              <ntsc>TRUE</ntsc>
            </rate>
            <start>4847</start>
            <end>4966</end>
            <in>0</in>
            <out>95303</out>
            <file id="file-50">
              <name>OrionS2_050.mp3</name>
              <pathurl>file:///Users/delaxstudio/src/delax-ops/ops/media/orion/projects/OrionS2/output/audio/OrionS2_050.mp3</pathurl>
              <rate>
                <timebase>24000</timebase>
                <ntsc>FALSE</ntsc>
              </rate>
              <media>
                <audio>
                  <channelcount>1</channelcount>
                  <samplecharacteristics>
                    <samplerate>24000</samplerate>
                    <samplesize>16</samplesize>
                  </samplecharacteristics>
                </audio>
              </media>
            </file>
            <sourcetrack>
              <mediatype>audio</mediatype>
              <trackindex>1</trackindex>
            </sourcetrack>
            <comments/>
          </clipitem>
          <clipitem id="clipitem-51">
            <name>OrionS2_051.mp3</name>
            <enabled>TRUE</enabled>
            <duration>92</duration>
            <rate>
              <timebase>30</timebase>
              <ntsc>TRUE</ntsc>
            </rate>
            <start>4966</start>
            <end>5058</end>
            <in>0</in>
            <out>74183</out>
            <file id="file-51">
              <name>OrionS2_051.mp3</name>
              <pathurl>file:///Users/delaxstudio/src/delax-ops/ops/media/orion/projects/OrionS2/output/audio/OrionS2_051.mp3</pathurl>
              <rate>
                <timebase>24000</timebase>
                <ntsc>FALSE</ntsc>
              </rate>
              <media>
                <audio>
                  <channelcount>1</channelcount>
                  <samplecharacteristics>
                    <samplerate>24000</samplerate>
                    <samplesize>16</samplesize>
                  </samplecharacteristics>
                </audio>
              </media>
            </file>
            <sourcetrack>
              <mediatype>audio</mediatype>
              <trackindex>1</trackindex>
            </sourcetrack>
            <comments/>
          </clipitem>
          <clipitem id="clipitem-52">
            <name>OrionS2_052.mp3</name>
            <enabled>TRUE</enabled>
            <duration>59</duration>
            <rate>
              <timebase>30</timebase>
              <ntsc>TRUE</ntsc>
            </rate>
            <start>5058</start>
            <end>5117</end>
            <in>0</in>
            <out>47303</out>
            <file id="file-52">
              <name>OrionS2_052.mp3</name>
              <pathurl>file:///Users/delaxstudio/src/delax-ops/ops/media/orion/projects/OrionS2/output/audio/OrionS2_052.mp3</pathurl>
              <rate>
                <timebase>24000</timebase>
                <ntsc>FALSE</ntsc>
              </rate>
              <media>
                <audio>
                  <channelcount>1</channelcount>
                  <samplecharacteristics>
                    <samplerate>24000</samplerate>
                    <samplesize>16</samplesize>
                  </samplecharacteristics>
                </audio>
              </media>
            </file>
            <sourcetrack>
              <mediatype>audio</mediatype>
              <trackindex>1</trackindex>
            </sourcetrack>
            <comments/>
          </clipitem>
          <clipitem id="clipitem-53">
            <name>OrionS2_053.mp3</name>
            <enabled>TRUE</enabled>
            <duration>105</duration>
            <rate>
              <timebase>30</timebase>
              <ntsc>TRUE</ntsc>
            </rate>
            <start>5117</start>
            <end>5222</end>
            <in>0</in>
            <out>83783</out>
            <file id="file-53">
              <name>OrionS2_053.mp3</name>
              <pathurl>file:///Users/delaxstudio/src/delax-ops/ops/media/orion/projects/OrionS2/output/audio/OrionS2_053.mp3</pathurl>
              <rate>
                <timebase>24000</timebase>
                <ntsc>FALSE</ntsc>
              </rate>
              <media>
                <audio>
                  <channelcount>1</channelcount>
                  <samplecharacteristics>
                    <samplerate>24000</samplerate>
                    <samplesize>16</samplesize>
                  </samplecharacteristics>
                </audio>
              </media>
            </file>
            <sourcetrack>
              <mediatype>audio</mediatype>
              <trackindex>1</trackindex>
            </sourcetrack>
            <comments/>
          </clipitem>
          <clipitem id="clipitem-54">
            <name>OrionS2_054.mp3</name>
            <enabled>TRUE</enabled>
            <duration>124</duration>
            <rate>
              <timebase>30</timebase>
              <ntsc>TRUE</ntsc>
            </rate>
            <start>5222</start>
            <end>5346</end>
            <in>0</in>
            <out>99143</out>
            <file id="file-54">
              <name>OrionS2_054.mp3</name>
              <pathurl>file:///Users/delaxstudio/src/delax-ops/ops/media/orion/projects/OrionS2/output/audio/OrionS2_054.mp3</pathurl>
              <rate>
                <timebase>24000</timebase>
                <ntsc>FALSE</ntsc>
              </rate>
              <media>
                <audio>
                  <channelcount>1</channelcount>
                  <samplecharacteristics>
                    <samplerate>24000</samplerate>
                    <samplesize>16</samplesize>
                  </samplecharacteristics>
                </audio>
              </media>
            </file>
            <sourcetrack>
              <mediatype>audio</mediatype>
              <trackindex>1</trackindex>
            </sourcetrack>
            <comments/>
          </clipitem>
          <clipitem id="clipitem-55">
            <name>OrionS2_055.mp3</name>
            <enabled>TRUE</enabled>
            <duration>72</duration>
            <rate>
              <timebase>30</timebase>
              <ntsc>TRUE</ntsc>
            </rate>
            <start>5346</start>
            <end>5418</end>
            <in>0</in>
            <out>57863</out>
            <file id="file-55">
              <name>OrionS2_055.mp3</name>
              <pathurl>file:///Users/delaxstudio/src/delax-ops/ops/media/orion/projects/OrionS2/output/audio/OrionS2_055.mp3</pathurl>
              <rate>
                <timebase>24000</timebase>
                <ntsc>FALSE</ntsc>
              </rate>
              <media>
                <audio>
                  <channelcount>1</channelcount>
                  <samplecharacteristics>
                    <samplerate>24000</samplerate>
                    <samplesize>16</samplesize>
                  </samplecharacteristics>
                </audio>
              </media>
            </file>
            <sourcetrack>
              <mediatype>audio</mediatype>
              <trackindex>1</trackindex>
            </sourcetrack>
            <comments/>
          </clipitem>
          <clipitem id="clipitem-56">
            <name>OrionS2_056.mp3</name>
            <enabled>TRUE</enabled>
            <duration>62</duration>
            <rate>
              <timebase>30</timebase>
              <ntsc>TRUE</ntsc>
            </rate>
            <start>5418</start>
            <end>5480</end>
            <in>0</in>
            <out>49223</out>
            <file id="file-56">
              <name>OrionS2_056.mp3</name>
              <pathurl>file:///Users/delaxstudio/src/delax-ops/ops/media/orion/projects/OrionS2/output/audio/OrionS2_056.mp3</pathurl>
              <rate>
                <timebase>24000</timebase>
                <ntsc>FALSE</ntsc>
              </rate>
              <media>
                <audio>
                  <channelcount>1</channelcount>
                  <samplecharacteristics>
                    <samplerate>24000</samplerate>
                    <samplesize>16</samplesize>
                  </samplecharacteristics>
                </audio>
              </media>
            </file>
            <sourcetrack>
              <mediatype>audio</mediatype>
              <trackindex>1</trackindex>
            </sourcetrack>
            <comments/>
          </clipitem>
          <clipitem id="clipitem-57">
            <name>OrionS2_057.mp3</name>
            <enabled>TRUE</enabled>
            <duration>111</duration>
            <rate>
              <timebase>30</timebase>
              <ntsc>TRUE</ntsc>
            </rate>
            <start>5480</start>
            <end>5591</end>
            <in>0</in>
            <out>89543</out>
            <file id="file-57">
              <name>OrionS2_057.mp3</name>
              <pathurl>file:///Users/delaxstudio/src/delax-ops/ops/media/orion/projects/OrionS2/output/audio/OrionS2_057.mp3</pathurl>
              <rate>
                <timebase>24000</timebase>
                <ntsc>FALSE</ntsc>
              </rate>
              <media>
                <audio>
                  <channelcount>1</channelcount>
                  <samplecharacteristics>
                    <samplerate>24000</samplerate>
                    <samplesize>16</samplesize>
                  </samplecharacteristics>
                </audio>
              </media>
            </file>
            <sourcetrack>
              <mediatype>audio</mediatype>
              <trackindex>1</trackindex>
            </sourcetrack>
            <comments/>
          </clipitem>
          <clipitem id="clipitem-58">
            <name>OrionS2_058.mp3</name>
            <enabled>TRUE</enabled>
            <duration>83</duration>
            <rate>
              <timebase>30</timebase>
              <ntsc>TRUE</ntsc>
            </rate>
            <start>5591</start>
            <end>5674</end>
            <in>0</in>
            <out>66503</out>
            <file id="file-58">
              <name>OrionS2_058.mp3</name>
              <pathurl>file:///Users/delaxstudio/src/delax-ops/ops/media/orion/projects/OrionS2/output/audio/OrionS2_058.mp3</pathurl>
              <rate>
                <timebase>24000</timebase>
                <ntsc>FALSE</ntsc>
              </rate>
              <media>
                <audio>
                  <channelcount>1</channelcount>
                  <samplecharacteristics>
                    <samplerate>24000</samplerate>
                    <samplesize>16</samplesize>
                  </samplecharacteristics>
                </audio>
              </media>
            </file>
            <sourcetrack>
              <mediatype>audio</mediatype>
              <trackindex>1</trackindex>
            </sourcetrack>
            <comments/>
          </clipitem>
          <clipitem id="clipitem-60">
            <name>OrionS2_060.mp3</name>
            <enabled>TRUE</enabled>
            <duration>128</duration>
            <rate>
              <timebase>30</timebase>
              <ntsc>TRUE</ntsc>
            </rate>
            <start>5674</start>
            <end>5802</end>
            <in>0</in>
            <out>102023</out>
            <file id="file-60">
              <name>OrionS2_060.mp3</name>
              <pathurl>file:///Users/delaxstudio/src/delax-ops/ops/media/orion/projects/OrionS2/output/audio/OrionS2_060.mp3</pathurl>
              <rate>
                <timebase>24000</timebase>
                <ntsc>FALSE</ntsc>
              </rate>
              <media>
                <audio>
                  <channelcount>1</channelcount>
                  <samplecharacteristics>
                    <samplerate>24000</samplerate>
                    <samplesize>16</samplesize>
                  </samplecharacteristics>
                </audio>
              </media>
            </file>
            <sourcetrack>
              <mediatype>audio</mediatype>
              <trackindex>1</trackindex>
            </sourcetrack>
            <comments/>
          </clipitem>
          <clipitem id="clipitem-61">
            <name>OrionS2_061.mp3</name>
            <enabled>TRUE</enabled>
            <duration>81</duration>
            <rate>
              <timebase>30</timebase>
              <ntsc>TRUE</ntsc>
            </rate>
            <start>5802</start>
            <end>5883</end>
            <in>0</in>
            <out>64583</out>
            <file id="file-61">
              <name>OrionS2_061.mp3</name>
              <pathurl>file:///Users/delaxstudio/src/delax-ops/ops/media/orion/projects/OrionS2/output/audio/OrionS2_061.mp3</pathurl>
              <rate>
                <timebase>24000</timebase>
                <ntsc>FALSE</ntsc>
              </rate>
              <media>
                <audio>
                  <channelcount>1</channelcount>
                  <samplecharacteristics>
                    <samplerate>24000</samplerate>
                    <samplesize>16</samplesize>
                  </samplecharacteristics>
                </audio>
              </media>
            </file>
            <sourcetrack>
              <mediatype>audio</mediatype>
              <trackindex>1</trackindex>
            </sourcetrack>
            <comments/>
          </clipitem>
          <clipitem id="clipitem-62">
            <name>OrionS2_062.mp3</name>
            <enabled>TRUE</enabled>
            <duration>114</duration>
            <rate>
              <timebase>30</timebase>
              <ntsc>TRUE</ntsc>
            </rate>
            <start>5883</start>
            <end>5997</end>
            <in>0</in>
            <out>91463</out>
            <file id="file-62">
              <name>OrionS2_062.mp3</name>
              <pathurl>file:///Users/delaxstudio/src/delax-ops/ops/media/orion/projects/OrionS2/output/audio/OrionS2_062.mp3</pathurl>
              <rate>
                <timebase>24000</timebase>
                <ntsc>FALSE</ntsc>
              </rate>
              <media>
                <audio>
                  <channelcount>1</channelcount>
                  <samplecharacteristics>
                    <samplerate>24000</samplerate>
                    <samplesize>16</samplesize>
                  </samplecharacteristics>
                </audio>
              </media>
            </file>
            <sourcetrack>
              <mediatype>audio</mediatype>
              <trackindex>1</trackindex>
            </sourcetrack>
            <comments/>
          </clipitem>
          <clipitem id="clipitem-63">
            <name>OrionS2_063.mp3</name>
            <enabled>TRUE</enabled>
            <duration>122</duration>
            <rate>
              <timebase>30</timebase>
              <ntsc>TRUE</ntsc>
            </rate>
            <start>5997</start>
            <end>6119</end>
            <in>0</in>
            <out>98183</out>
            <file id="file-63">
              <name>OrionS2_063.mp3</name>
              <pathurl>file:///Users/delaxstudio/src/delax-ops/ops/media/orion/projects/OrionS2/output/audio/OrionS2_063.mp3</pathurl>
              <rate>
                <timebase>24000</timebase>
                <ntsc>FALSE</ntsc>
              </rate>
              <media>
                <audio>
                  <channelcount>1</channelcount>
                  <samplecharacteristics>
                    <samplerate>24000</samplerate>
                    <samplesize>16</samplesize>
                  </samplecharacteristics>
                </audio>
              </media>
            </file>
            <sourcetrack>
              <mediatype>audio</mediatype>
              <trackindex>1</trackindex>
            </sourcetrack>
            <comments/>
          </clipitem>
          <clipitem id="clipitem-64">
            <name>OrionS2_064.mp3</name>
            <enabled>TRUE</enabled>
            <duration>100</duration>
            <rate>
              <timebase>30</timebase>
              <ntsc>TRUE</ntsc>
            </rate>
            <start>6119</start>
            <end>6219</end>
            <in>0</in>
            <out>79943</out>
            <file id="file-64">
              <name>OrionS2_064.mp3</name>
              <pathurl>file:///Users/delaxstudio/src/delax-ops/ops/media/orion/projects/OrionS2/output/audio/OrionS2_064.mp3</pathurl>
              <rate>
                <timebase>24000</timebase>
                <ntsc>FALSE</ntsc>
              </rate>
              <media>
                <audio>
                  <channelcount>1</channelcount>
                  <samplecharacteristics>
                    <samplerate>24000</samplerate>
                    <samplesize>16</samplesize>
                  </samplecharacteristics>
                </audio>
              </media>
            </file>
            <sourcetrack>
              <mediatype>audio</mediatype>
              <trackindex>1</trackindex>
            </sourcetrack>
            <comments/>
          </clipitem>
          <clipitem id="clipitem-65">
            <name>OrionS2_065.mp3</name>
            <enabled>TRUE</enabled>
            <duration>59</duration>
            <rate>
              <timebase>30</timebase>
              <ntsc>TRUE</ntsc>
            </rate>
            <start>6219</start>
            <end>6278</end>
            <in>0</in>
            <out>47303</out>
            <file id="file-65">
              <name>OrionS2_065.mp3</name>
              <pathurl>file:///Users/delaxstudio/src/delax-ops/ops/media/orion/projects/OrionS2/output/audio/OrionS2_065.mp3</pathurl>
              <rate>
                <timebase>24000</timebase>
                <ntsc>FALSE</ntsc>
              </rate>
              <media>
                <audio>
                  <channelcount>1</channelcount>
                  <samplecharacteristics>
                    <samplerate>24000</samplerate>
                    <samplesize>16</samplesize>
                  </samplecharacteristics>
                </audio>
              </media>
            </file>
            <sourcetrack>
              <mediatype>audio</mediatype>
              <trackindex>1</trackindex>
            </sourcetrack>
            <comments/>
          </clipitem>
          <clipitem id="clipitem-66">
            <name>OrionS2_066.mp3</name>
            <enabled>TRUE</enabled>
            <duration>87</duration>
            <rate>
              <timebase>30</timebase>
              <ntsc>TRUE</ntsc>
            </rate>
            <start>6278</start>
            <end>6365</end>
            <in>0</in>
            <out>69383</out>
            <file id="file-66">
              <name>OrionS2_066.mp3</name>
              <pathurl>file:///Users/delaxstudio/src/delax-ops/ops/media/orion/projects/OrionS2/output/audio/OrionS2_066.mp3</pathurl>
              <rate>
                <timebase>24000</timebase>
                <ntsc>FALSE</ntsc>
              </rate>
              <media>
                <audio>
                  <channelcount>1</channelcount>
                  <samplecharacteristics>
                    <samplerate>24000</samplerate>
                    <samplesize>16</samplesize>
                  </samplecharacteristics>
                </audio>
              </media>
            </file>
            <sourcetrack>
              <mediatype>audio</mediatype>
              <trackindex>1</trackindex>
            </sourcetrack>
            <comments/>
          </clipitem>
          <clipitem id="clipitem-67">
            <name>OrionS2_067.mp3</name>
            <enabled>TRUE</enabled>
            <duration>77</duration>
            <rate>
              <timebase>30</timebase>
              <ntsc>TRUE</ntsc>
            </rate>
            <start>6365</start>
            <end>6442</end>
            <in>0</in>
            <out>61703</out>
            <file id="file-67">
              <name>OrionS2_067.mp3</name>
              <pathurl>file:///Users/delaxstudio/src/delax-ops/ops/media/orion/projects/OrionS2/output/audio/OrionS2_067.mp3</pathurl>
              <rate>
                <timebase>24000</timebase>
                <ntsc>FALSE</ntsc>
              </rate>
              <media>
                <audio>
                  <channelcount>1</channelcount>
                  <samplecharacteristics>
                    <samplerate>24000</samplerate>
                    <samplesize>16</samplesize>
                  </samplecharacteristics>
                </audio>
              </media>
            </file>
            <sourcetrack>
              <mediatype>audio</mediatype>
              <trackindex>1</trackindex>
            </sourcetrack>
            <comments/>
          </clipitem>
          <clipitem id="clipitem-68">
            <name>OrionS2_068.mp3</name>
            <enabled>TRUE</enabled>
            <duration>72</duration>
            <rate>
              <timebase>30</timebase>
              <ntsc>TRUE</ntsc>
            </rate>
            <start>6442</start>
            <end>6514</end>
            <in>0</in>
            <out>57863</out>
            <file id="file-68">
              <name>OrionS2_068.mp3</name>
              <pathurl>file:///Users/delaxstudio/src/delax-ops/ops/media/orion/projects/OrionS2/output/audio/OrionS2_068.mp3</pathurl>
              <rate>
                <timebase>24000</timebase>
                <ntsc>FALSE</ntsc>
              </rate>
              <media>
                <audio>
                  <channelcount>1</channelcount>
                  <samplecharacteristics>
                    <samplerate>24000</samplerate>
                    <samplesize>16</samplesize>
                  </samplecharacteristics>
                </audio>
              </media>
            </file>
            <sourcetrack>
              <mediatype>audio</mediatype>
              <trackindex>1</trackindex>
            </sourcetrack>
            <comments/>
          </clipitem>
          <clipitem id="clipitem-69">
            <name>OrionS2_069.mp3</name>
            <enabled>TRUE</enabled>
            <duration>111</duration>
            <rate>
              <timebase>30</timebase>
              <ntsc>TRUE</ntsc>
            </rate>
            <start>6514</start>
            <end>6625</end>
            <in>0</in>
            <out>88583</out>
            <file id="file-69">
              <name>OrionS2_069.mp3</name>
              <pathurl>file:///Users/delaxstudio/src/delax-ops/ops/media/orion/projects/OrionS2/output/audio/OrionS2_069.mp3</pathurl>
              <rate>
                <timebase>24000</timebase>
                <ntsc>FALSE</ntsc>
              </rate>
              <media>
                <audio>
                  <channelcount>1</channelcount>
                  <samplecharacteristics>
                    <samplerate>24000</samplerate>
                    <samplesize>16</samplesize>
                  </samplecharacteristics>
                </audio>
              </media>
            </file>
            <sourcetrack>
              <mediatype>audio</mediatype>
              <trackindex>1</trackindex>
            </sourcetrack>
            <comments/>
          </clipitem>
          <clipitem id="clipitem-70">
            <name>OrionS2_070.mp3</name>
            <enabled>TRUE</enabled>
            <duration>95</duration>
            <rate>
              <timebase>30</timebase>
              <ntsc>TRUE</ntsc>
            </rate>
            <start>6625</start>
            <end>6720</end>
            <in>0</in>
            <out>76103</out>
            <file id="file-70">
              <name>OrionS2_070.mp3</name>
              <pathurl>file:///Users/delaxstudio/src/delax-ops/ops/media/orion/projects/OrionS2/output/audio/OrionS2_070.mp3</pathurl>
              <rate>
                <timebase>24000</timebase>
                <ntsc>FALSE</ntsc>
              </rate>
              <media>
                <audio>
                  <channelcount>1</channelcount>
                  <samplecharacteristics>
                    <samplerate>24000</samplerate>
                    <samplesize>16</samplesize>
                  </samplecharacteristics>
                </audio>
              </media>
            </file>
            <sourcetrack>
              <mediatype>audio</mediatype>
              <trackindex>1</trackindex>
            </sourcetrack>
            <comments/>
          </clipitem>
          <clipitem id="clipitem-71">
            <name>OrionS2_071.mp3</name>
            <enabled>TRUE</enabled>
            <duration>110</duration>
            <rate>
              <timebase>30</timebase>
              <ntsc>TRUE</ntsc>
            </rate>
            <start>6720</start>
            <end>6830</end>
            <in>0</in>
            <out>88583</out>
            <file id="file-71">
              <name>OrionS2_071.mp3</name>
              <pathurl>file:///Users/delaxstudio/src/delax-ops/ops/media/orion/projects/OrionS2/output/audio/OrionS2_071.mp3</pathurl>
              <rate>
                <timebase>24000</timebase>
                <ntsc>FALSE</ntsc>
              </rate>
              <media>
                <audio>
                  <channelcount>1</channelcount>
                  <samplecharacteristics>
                    <samplerate>24000</samplerate>
                    <samplesize>16</samplesize>
                  </samplecharacteristics>
                </audio>
              </media>
            </file>
            <sourcetrack>
              <mediatype>audio</mediatype>
              <trackindex>1</trackindex>
            </sourcetrack>
            <comments/>
          </clipitem>
          <clipitem id="clipitem-72">
            <name>OrionS2_072.mp3</name>
            <enabled>TRUE</enabled>
            <duration>44</duration>
            <rate>
              <timebase>30</timebase>
              <ntsc>TRUE</ntsc>
            </rate>
            <start>6830</start>
            <end>6874</end>
            <in>0</in>
            <out>34823</out>
            <file id="file-72">
              <name>OrionS2_072.mp3</name>
              <pathurl>file:///Users/delaxstudio/src/delax-ops/ops/media/orion/projects/OrionS2/output/audio/OrionS2_072.mp3</pathurl>
              <rate>
                <timebase>24000</timebase>
                <ntsc>FALSE</ntsc>
              </rate>
              <media>
                <audio>
                  <channelcount>1</channelcount>
                  <samplecharacteristics>
                    <samplerate>24000</samplerate>
                    <samplesize>16</samplesize>
                  </samplecharacteristics>
                </audio>
              </media>
            </file>
            <sourcetrack>
              <mediatype>audio</mediatype>
              <trackindex>1</trackindex>
            </sourcetrack>
            <comments/>
          </clipitem>
          <clipitem id="clipitem-73">
            <name>OrionS2_073.mp3</name>
            <enabled>TRUE</enabled>
            <duration>109</duration>
            <rate>
              <timebase>30</timebase>
              <ntsc>TRUE</ntsc>
            </rate>
            <start>6874</start>
            <end>6983</end>
            <in>0</in>
            <out>87623</out>
            <file id="file-73">
              <name>OrionS2_073.mp3</name>
              <pathurl>file:///Users/delaxstudio/src/delax-ops/ops/media/orion/projects/OrionS2/output/audio/OrionS2_073.mp3</pathurl>
              <rate>
                <timebase>24000</timebase>
                <ntsc>FALSE</ntsc>
              </rate>
              <media>
                <audio>
                  <channelcount>1</channelcount>
                  <samplecharacteristics>
                    <samplerate>24000</samplerate>
                    <samplesize>16</samplesize>
                  </samplecharacteristics>
                </audio>
              </media>
            </file>
            <sourcetrack>
              <mediatype>audio</mediatype>
              <trackindex>1</trackindex>
            </sourcetrack>
            <comments/>
          </clipitem>
          <clipitem id="clipitem-74">
            <name>OrionS2_074.mp3</name>
            <enabled>TRUE</enabled>
            <duration>101</duration>
            <rate>
              <timebase>30</timebase>
              <ntsc>TRUE</ntsc>
            </rate>
            <start>6983</start>
            <end>7084</end>
            <in>0</in>
            <out>80903</out>
            <file id="file-74">
              <name>OrionS2_074.mp3</name>
              <pathurl>file:///Users/delaxstudio/src/delax-ops/ops/media/orion/projects/OrionS2/output/audio/OrionS2_074.mp3</pathurl>
              <rate>
                <timebase>24000</timebase>
                <ntsc>FALSE</ntsc>
              </rate>
              <media>
                <audio>
                  <channelcount>1</channelcount>
                  <samplecharacteristics>
                    <samplerate>24000</samplerate>
                    <samplesize>16</samplesize>
                  </samplecharacteristics>
                </audio>
              </media>
            </file>
            <sourcetrack>
              <mediatype>audio</mediatype>
              <trackindex>1</trackindex>
            </sourcetrack>
            <comments/>
          </clipitem>
          <clipitem id="clipitem-75">
            <name>OrionS2_075.mp3</name>
            <enabled>TRUE</enabled>
            <duration>89</duration>
            <rate>
              <timebase>30</timebase>
              <ntsc>TRUE</ntsc>
            </rate>
            <start>7084</start>
            <end>7173</end>
            <in>0</in>
            <out>71303</out>
            <file id="file-75">
              <name>OrionS2_075.mp3</name>
              <pathurl>file:///Users/delaxstudio/src/delax-ops/ops/media/orion/projects/OrionS2/output/audio/OrionS2_075.mp3</pathurl>
              <rate>
                <timebase>24000</timebase>
                <ntsc>FALSE</ntsc>
              </rate>
              <media>
                <audio>
                  <channelcount>1</channelcount>
                  <samplecharacteristics>
                    <samplerate>24000</samplerate>
                    <samplesize>16</samplesize>
                  </samplecharacteristics>
                </audio>
              </media>
            </file>
            <sourcetrack>
              <mediatype>audio</mediatype>
              <trackindex>1</trackindex>
            </sourcetrack>
            <comments/>
          </clipitem>
          <clipitem id="clipitem-76">
            <name>OrionS2_076.mp3</name>
            <enabled>TRUE</enabled>
            <duration>130</duration>
            <rate>
              <timebase>30</timebase>
              <ntsc>TRUE</ntsc>
            </rate>
            <start>7173</start>
            <end>7303</end>
            <in>0</in>
            <out>103943</out>
            <file id="file-76">
              <name>OrionS2_076.mp3</name>
              <pathurl>file:///Users/delaxstudio/src/delax-ops/ops/media/orion/projects/OrionS2/output/audio/OrionS2_076.mp3</pathurl>
              <rate>
                <timebase>24000</timebase>
                <ntsc>FALSE</ntsc>
              </rate>
              <media>
                <audio>
                  <channelcount>1</channelcount>
                  <samplecharacteristics>
                    <samplerate>24000</samplerate>
                    <samplesize>16</samplesize>
                  </samplecharacteristics>
                </audio>
              </media>
            </file>
            <sourcetrack>
              <mediatype>audio</mediatype>
              <trackindex>1</trackindex>
            </sourcetrack>
            <comments/>
          </clipitem>
          <clipitem id="clipitem-77">
            <name>OrionS2_077.mp3</name>
            <enabled>TRUE</enabled>
            <duration>80</duration>
            <rate>
              <timebase>30</timebase>
              <ntsc>TRUE</ntsc>
            </rate>
            <start>7303</start>
            <end>7383</end>
            <in>0</in>
            <out>63623</out>
            <file id="file-77">
              <name>OrionS2_077.mp3</name>
              <pathurl>file:///Users/delaxstudio/src/delax-ops/ops/media/orion/projects/OrionS2/output/audio/OrionS2_077.mp3</pathurl>
              <rate>
                <timebase>24000</timebase>
                <ntsc>FALSE</ntsc>
              </rate>
              <media>
                <audio>
                  <channelcount>1</channelcount>
                  <samplecharacteristics>
                    <samplerate>24000</samplerate>
                    <samplesize>16</samplesize>
                  </samplecharacteristics>
                </audio>
              </media>
            </file>
            <sourcetrack>
              <mediatype>audio</mediatype>
              <trackindex>1</trackindex>
            </sourcetrack>
            <comments/>
          </clipitem>
          <clipitem id="clipitem-78">
            <name>OrionS2_078.mp3</name>
            <enabled>TRUE</enabled>
            <duration>120</duration>
            <rate>
              <timebase>30</timebase>
              <ntsc>TRUE</ntsc>
            </rate>
            <start>7383</start>
            <end>7503</end>
            <in>0</in>
            <out>96263</out>
            <file id="file-78">
              <name>OrionS2_078.mp3</name>
              <pathurl>file:///Users/delaxstudio/src/delax-ops/ops/media/orion/projects/OrionS2/output/audio/OrionS2_078.mp3</pathurl>
              <rate>
                <timebase>24000</timebase>
                <ntsc>FALSE</ntsc>
              </rate>
              <media>
                <audio>
                  <channelcount>1</channelcount>
                  <samplecharacteristics>
                    <samplerate>24000</samplerate>
                    <samplesize>16</samplesize>
                  </samplecharacteristics>
                </audio>
              </media>
            </file>
            <sourcetrack>
              <mediatype>audio</mediatype>
              <trackindex>1</trackindex>
            </sourcetrack>
            <comments/>
          </clipitem>
          <clipitem id="clipitem-79">
            <name>OrionS2_079.mp3</name>
            <enabled>TRUE</enabled>
            <duration>48</duration>
            <rate>
              <timebase>30</timebase>
              <ntsc>TRUE</ntsc>
            </rate>
            <start>7503</start>
            <end>7551</end>
            <in>0</in>
            <out>38663</out>
            <file id="file-79">
              <name>OrionS2_079.mp3</name>
              <pathurl>file:///Users/delaxstudio/src/delax-ops/ops/media/orion/projects/OrionS2/output/audio/OrionS2_079.mp3</pathurl>
              <rate>
                <timebase>24000</timebase>
                <ntsc>FALSE</ntsc>
              </rate>
              <media>
                <audio>
                  <channelcount>1</channelcount>
                  <samplecharacteristics>
                    <samplerate>24000</samplerate>
                    <samplesize>16</samplesize>
                  </samplecharacteristics>
                </audio>
              </media>
            </file>
            <sourcetrack>
              <mediatype>audio</mediatype>
              <trackindex>1</trackindex>
            </sourcetrack>
            <comments/>
          </clipitem>
          <clipitem id="clipitem-80">
            <name>OrionS2_080.mp3</name>
            <enabled>TRUE</enabled>
            <duration>162</duration>
            <rate>
              <timebase>30</timebase>
              <ntsc>TRUE</ntsc>
            </rate>
            <start>7551</start>
            <end>7713</end>
            <in>0</in>
            <out>129863</out>
            <file id="file-80">
              <name>OrionS2_080.mp3</name>
              <pathurl>file:///Users/delaxstudio/src/delax-ops/ops/media/orion/projects/OrionS2/output/audio/OrionS2_080.mp3</pathurl>
              <rate>
                <timebase>24000</timebase>
                <ntsc>FALSE</ntsc>
              </rate>
              <media>
                <audio>
                  <channelcount>1</channelcount>
                  <samplecharacteristics>
                    <samplerate>24000</samplerate>
                    <samplesize>16</samplesize>
                  </samplecharacteristics>
                </audio>
              </media>
            </file>
            <sourcetrack>
              <mediatype>audio</mediatype>
              <trackindex>1</trackindex>
            </sourcetrack>
            <comments/>
          </clipitem>
          <clipitem id="clipitem-81">
            <name>OrionS2_081.mp3</name>
            <enabled>TRUE</enabled>
            <duration>50</duration>
            <rate>
              <timebase>30</timebase>
              <ntsc>TRUE</ntsc>
            </rate>
            <start>7713</start>
            <end>7763</end>
            <in>0</in>
            <out>39623</out>
            <file id="file-81">
              <name>OrionS2_081.mp3</name>
              <pathurl>file:///Users/delaxstudio/src/delax-ops/ops/media/orion/projects/OrionS2/output/audio/OrionS2_081.mp3</pathurl>
              <rate>
                <timebase>24000</timebase>
                <ntsc>FALSE</ntsc>
              </rate>
              <media>
                <audio>
                  <channelcount>1</channelcount>
                  <samplecharacteristics>
                    <samplerate>24000</samplerate>
                    <samplesize>16</samplesize>
                  </samplecharacteristics>
                </audio>
              </media>
            </file>
            <sourcetrack>
              <mediatype>audio</mediatype>
              <trackindex>1</trackindex>
            </sourcetrack>
            <comments/>
          </clipitem>
          <clipitem id="clipitem-82">
            <name>OrionS2_082.mp3</name>
            <enabled>TRUE</enabled>
            <duration>94</duration>
            <rate>
              <timebase>30</timebase>
              <ntsc>TRUE</ntsc>
            </rate>
            <start>7763</start>
            <end>7857</end>
            <in>0</in>
            <out>75143</out>
            <file id="file-82">
              <name>OrionS2_082.mp3</name>
              <pathurl>file:///Users/delaxstudio/src/delax-ops/ops/media/orion/projects/OrionS2/output/audio/OrionS2_082.mp3</pathurl>
              <rate>
                <timebase>24000</timebase>
                <ntsc>FALSE</ntsc>
              </rate>
              <media>
                <audio>
                  <channelcount>1</channelcount>
                  <samplecharacteristics>
                    <samplerate>24000</samplerate>
                    <samplesize>16</samplesize>
                  </samplecharacteristics>
                </audio>
              </media>
            </file>
            <sourcetrack>
              <mediatype>audio</mediatype>
              <trackindex>1</trackindex>
            </sourcetrack>
            <comments/>
          </clipitem>
          <clipitem id="clipitem-83">
            <name>OrionS2_083.mp3</name>
            <enabled>TRUE</enabled>
            <duration>91</duration>
            <rate>
              <timebase>30</timebase>
              <ntsc>TRUE</ntsc>
            </rate>
            <start>7857</start>
            <end>7948</end>
            <in>0</in>
            <out>73223</out>
            <file id="file-83">
              <name>OrionS2_083.mp3</name>
              <pathurl>file:///Users/delaxstudio/src/delax-ops/ops/media/orion/projects/OrionS2/output/audio/OrionS2_083.mp3</pathurl>
              <rate>
                <timebase>24000</timebase>
                <ntsc>FALSE</ntsc>
              </rate>
              <media>
                <audio>
                  <channelcount>1</channelcount>
                  <samplecharacteristics>
                    <samplerate>24000</samplerate>
                    <samplesize>16</samplesize>
                  </samplecharacteristics>
                </audio>
              </media>
            </file>
            <sourcetrack>
              <mediatype>audio</mediatype>
              <trackindex>1</trackindex>
            </sourcetrack>
            <comments/>
          </clipitem>
          <clipitem id="clipitem-84">
            <name>OrionS2_084.mp3</name>
            <enabled>TRUE</enabled>
            <duration>86</duration>
            <rate>
              <timebase>30</timebase>
              <ntsc>TRUE</ntsc>
            </rate>
            <start>7948</start>
            <end>8034</end>
            <in>0</in>
            <out>68423</out>
            <file id="file-84">
              <name>OrionS2_084.mp3</name>
              <pathurl>file:///Users/delaxstudio/src/delax-ops/ops/media/orion/projects/OrionS2/output/audio/OrionS2_084.mp3</pathurl>
              <rate>
                <timebase>24000</timebase>
                <ntsc>FALSE</ntsc>
              </rate>
              <media>
                <audio>
                  <channelcount>1</channelcount>
                  <samplecharacteristics>
                    <samplerate>24000</samplerate>
                    <samplesize>16</samplesize>
                  </samplecharacteristics>
                </audio>
              </media>
            </file>
            <sourcetrack>
              <mediatype>audio</mediatype>
              <trackindex>1</trackindex>
            </sourcetrack>
            <comments/>
          </clipitem>
          <clipitem id="clipitem-85">
            <name>OrionS2_085.mp3</name>
            <enabled>TRUE</enabled>
            <duration>113</duration>
            <rate>
              <timebase>30</timebase>
              <ntsc>TRUE</ntsc>
            </rate>
            <start>8034</start>
            <end>8147</end>
            <in>0</in>
            <out>90503</out>
            <file id="file-85">
              <name>OrionS2_085.mp3</name>
              <pathurl>file:///Users/delaxstudio/src/delax-ops/ops/media/orion/projects/OrionS2/output/audio/OrionS2_085.mp3</pathurl>
              <rate>
                <timebase>24000</timebase>
                <ntsc>FALSE</ntsc>
              </rate>
              <media>
                <audio>
                  <channelcount>1</channelcount>
                  <samplecharacteristics>
                    <samplerate>24000</samplerate>
                    <samplesize>16</samplesize>
                  </samplecharacteristics>
                </audio>
              </media>
            </file>
            <sourcetrack>
              <mediatype>audio</mediatype>
              <trackindex>1</trackindex>
            </sourcetrack>
            <comments/>
          </clipitem>
          <clipitem id="clipitem-86">
            <name>OrionS2_086.mp3</name>
            <enabled>TRUE</enabled>
            <duration>133</duration>
            <rate>
              <timebase>30</timebase>
              <ntsc>TRUE</ntsc>
            </rate>
            <start>8147</start>
            <end>8280</end>
            <in>0</in>
            <out>106823</out>
            <file id="file-86">
              <name>OrionS2_086.mp3</name>
              <pathurl>file:///Users/delaxstudio/src/delax-ops/ops/media/orion/projects/OrionS2/output/audio/OrionS2_086.mp3</pathurl>
              <rate>
                <timebase>24000</timebase>
                <ntsc>FALSE</ntsc>
              </rate>
              <media>
                <audio>
                  <channelcount>1</channelcount>
                  <samplecharacteristics>
                    <samplerate>24000</samplerate>
                    <samplesize>16</samplesize>
                  </samplecharacteristics>
                </audio>
              </media>
            </file>
            <sourcetrack>
              <mediatype>audio</mediatype>
              <trackindex>1</trackindex>
            </sourcetrack>
            <comments/>
          </clipitem>
        </track>
      </audio>
    </media>
  </sequence>
</xmeml>
