<?xml version="1.0" ?>
<xmeml version="4">
  <sequence>
    <uuid>OrionEp16_timeline</uuid>
    <duration>12904</duration>
    <name>OrionEp16_timeline</name>
    <rate>
      <timebase>30</timebase>
      <ntsc>TRUE</ntsc>
    </rate>
    <media>
      <video>
        <format/>
      </video>
      <audio>
        <track>
          <clipitem id="clipitem-1">
            <name>OrionEp16_001.mp3</name>
            <enabled>TRUE</enabled>
            <duration>609</duration>
            <rate>
              <timebase>30</timebase>
              <ntsc>TRUE</ntsc>
            </rate>
            <start>0</start>
            <end>609</end>
            <in>0</in>
            <out>488349</out>
            <file id="file-1">
              <name>OrionEp16_001.mp3</name>
              <pathurl>file:///Users/delaxstudio/src/delax-ops/ops/media/orion/projects/OrionS2/output/audio/OrionEp16_001.mp3</pathurl>
              <rate>
                <timebase>24000</timebase>
                <ntsc>FALSE</ntsc>
              </rate>
              <media>
                <audio>
                  <channelcount>1</channelcount>
                  <samplecharacteristics>
                    <samplerate>24000</samplerate>
                    <samplesize>16</samplesize>
                  </samplecharacteristics>
                </audio>
              </media>
            </file>
            <sourcetrack>
              <mediatype>audio</mediatype>
              <trackindex>1</trackindex>
            </sourcetrack>
            <comments/>
          </clipitem>
          <clipitem id="clipitem-2">
            <name>OrionEp16_002.mp3</name>
            <enabled>TRUE</enabled>
            <duration>195</duration>
            <rate>
              <timebase>30</timebase>
              <ntsc>TRUE</ntsc>
            </rate>
            <start>609</start>
            <end>804</end>
            <in>0</in>
            <out>155742</out>
            <file id="file-2">
              <name>OrionEp16_002.mp3</name>
              <pathurl>file:///Users/delaxstudio/src/delax-ops/ops/media/orion/projects/OrionS2/output/audio/OrionEp16_002.mp3</pathurl>
              <rate>
                <timebase>24000</timebase>
                <ntsc>FALSE</ntsc>
              </rate>
              <media>
                <audio>
                  <channelcount>1</channelcount>
                  <samplecharacteristics>
                    <samplerate>24000</samplerate>
                    <samplesize>16</samplesize>
                  </samplecharacteristics>
                </audio>
              </media>
            </file>
            <sourcetrack>
              <mediatype>audio</mediatype>
              <trackindex>1</trackindex>
            </sourcetrack>
            <comments/>
          </clipitem>
          <clipitem id="clipitem-3">
            <name>OrionEp16_003.mp3</name>
            <enabled>TRUE</enabled>
            <duration>306</duration>
            <rate>
              <timebase>30</timebase>
              <ntsc>TRUE</ntsc>
            </rate>
            <start>804</start>
            <end>1110</end>
            <in>0</in>
            <out>245205</out>
            <file id="file-3">
              <name>OrionEp16_003.mp3</name>
              <pathurl>file:///Users/delaxstudio/src/delax-ops/ops/media/orion/projects/OrionS2/output/audio/OrionEp16_003.mp3</pathurl>
              <rate>
                <timebase>24000</timebase>
                <ntsc>FALSE</ntsc>
              </rate>
              <media>
                <audio>
                  <channelcount>1</channelcount>
                  <samplecharacteristics>
                    <samplerate>24000</samplerate>
                    <samplesize>16</samplesize>
                  </samplecharacteristics>
                </audio>
              </media>
            </file>
            <sourcetrack>
              <mediatype>audio</mediatype>
              <trackindex>1</trackindex>
            </sourcetrack>
            <comments/>
          </clipitem>
          <clipitem id="clipitem-4">
            <name>OrionEp16_004.mp3</name>
            <enabled>TRUE</enabled>
            <duration>459</duration>
            <rate>
              <timebase>30</timebase>
              <ntsc>TRUE</ntsc>
            </rate>
            <start>1110</start>
            <end>1569</end>
            <in>0</in>
            <out>367943</out>
            <file id="file-4">
              <name>OrionEp16_004.mp3</name>
              <pathurl>file:///Users/delaxstudio/src/delax-ops/ops/media/orion/projects/OrionS2/output/audio/OrionEp16_004.mp3</pathurl>
              <rate>
                <timebase>24000</timebase>
                <ntsc>FALSE</ntsc>
              </rate>
              <media>
                <audio>
                  <channelcount>1</channelcount>
                  <samplecharacteristics>
                    <samplerate>24000</samplerate>
                    <samplesize>16</samplesize>
                  </samplecharacteristics>
                </audio>
              </media>
            </file>
            <sourcetrack>
              <mediatype>audio</mediatype>
              <trackindex>1</trackindex>
            </sourcetrack>
            <comments/>
          </clipitem>
          <clipitem id="clipitem-5">
            <name>OrionEp16_005.mp3</name>
            <enabled>TRUE</enabled>
            <duration>404</duration>
            <rate>
              <timebase>30</timebase>
              <ntsc>TRUE</ntsc>
            </rate>
            <start>1569</start>
            <end>1973</end>
            <in>0</in>
            <out>322823</out>
            <file id="file-5">
              <name>OrionEp16_005.mp3</name>
              <pathurl>file:///Users/delaxstudio/src/delax-ops/ops/media/orion/projects/OrionS2/output/audio/OrionEp16_005.mp3</pathurl>
              <rate>
                <timebase>24000</timebase>
                <ntsc>FALSE</ntsc>
              </rate>
              <media>
                <audio>
                  <channelcount>1</channelcount>
                  <samplecharacteristics>
                    <samplerate>24000</samplerate>
                    <samplesize>16</samplesize>
                  </samplecharacteristics>
                </audio>
              </media>
            </file>
            <sourcetrack>
              <mediatype>audio</mediatype>
              <trackindex>1</trackindex>
            </sourcetrack>
            <comments/>
          </clipitem>
          <clipitem id="clipitem-6">
            <name>OrionEp16_006.mp3</name>
            <enabled>TRUE</enabled>
            <duration>117</duration>
            <rate>
              <timebase>30</timebase>
              <ntsc>TRUE</ntsc>
            </rate>
            <start>1973</start>
            <end>2090</end>
            <in>0</in>
            <out>94343</out>
            <file id="file-6">
              <name>OrionEp16_006.mp3</name>
              <pathurl>file:///Users/delaxstudio/src/delax-ops/ops/media/orion/projects/OrionS2/output/audio/OrionEp16_006.mp3</pathurl>
              <rate>
                <timebase>24000</timebase>
                <ntsc>FALSE</ntsc>
              </rate>
              <media>
                <audio>
                  <channelcount>1</channelcount>
                  <samplecharacteristics>
                    <samplerate>24000</samplerate>
                    <samplesize>16</samplesize>
                  </samplecharacteristics>
                </audio>
              </media>
            </file>
            <sourcetrack>
              <mediatype>audio</mediatype>
              <trackindex>1</trackindex>
            </sourcetrack>
            <comments/>
          </clipitem>
          <clipitem id="clipitem-7">
            <name>OrionEp16_007.mp3</name>
            <enabled>TRUE</enabled>
            <duration>469</duration>
            <rate>
              <timebase>30</timebase>
              <ntsc>TRUE</ntsc>
            </rate>
            <start>2090</start>
            <end>2559</end>
            <in>0</in>
            <out>375623</out>
            <file id="file-7">
              <name>OrionEp16_007.mp3</name>
              <pathurl>file:///Users/delaxstudio/src/delax-ops/ops/media/orion/projects/OrionS2/output/audio/OrionEp16_007.mp3</pathurl>
              <rate>
                <timebase>24000</timebase>
                <ntsc>FALSE</ntsc>
              </rate>
              <media>
                <audio>
                  <channelcount>1</channelcount>
                  <samplecharacteristics>
                    <samplerate>24000</samplerate>
                    <samplesize>16</samplesize>
                  </samplecharacteristics>
                </audio>
              </media>
            </file>
            <sourcetrack>
              <mediatype>audio</mediatype>
              <trackindex>1</trackindex>
            </sourcetrack>
            <comments/>
          </clipitem>
          <clipitem id="clipitem-8">
            <name>OrionEp16_008.mp3</name>
            <enabled>TRUE</enabled>
            <duration>455</duration>
            <rate>
              <timebase>30</timebase>
              <ntsc>TRUE</ntsc>
            </rate>
            <start>2559</start>
            <end>3014</end>
            <in>0</in>
            <out>364103</out>
            <file id="file-8">
              <name>OrionEp16_008.mp3</name>
              <pathurl>file:///Users/delaxstudio/src/delax-ops/ops/media/orion/projects/OrionS2/output/audio/OrionEp16_008.mp3</pathurl>
              <rate>
                <timebase>24000</timebase>
                <ntsc>FALSE</ntsc>
              </rate>
              <media>
                <audio>
                  <channelcount>1</channelcount>
                  <samplecharacteristics>
                    <samplerate>24000</samplerate>
                    <samplesize>16</samplesize>
                  </samplecharacteristics>
                </audio>
              </media>
            </file>
            <sourcetrack>
              <mediatype>audio</mediatype>
              <trackindex>1</trackindex>
            </sourcetrack>
            <comments/>
          </clipitem>
          <clipitem id="clipitem-9">
            <name>OrionEp16_009.mp3</name>
            <enabled>TRUE</enabled>
            <duration>94</duration>
            <rate>
              <timebase>30</timebase>
              <ntsc>TRUE</ntsc>
            </rate>
            <start>3014</start>
            <end>3108</end>
            <in>0</in>
            <out>75143</out>
            <file id="file-9">
              <name>OrionEp16_009.mp3</name>
              <pathurl>file:///Users/delaxstudio/src/delax-ops/ops/media/orion/projects/OrionS2/output/audio/OrionEp16_009.mp3</pathurl>
              <rate>
                <timebase>24000</timebase>
                <ntsc>FALSE</ntsc>
              </rate>
              <media>
                <audio>
                  <channelcount>1</channelcount>
                  <samplecharacteristics>
                    <samplerate>24000</samplerate>
                    <samplesize>16</samplesize>
                  </samplecharacteristics>
                </audio>
              </media>
            </file>
            <sourcetrack>
              <mediatype>audio</mediatype>
              <trackindex>1</trackindex>
            </sourcetrack>
            <comments/>
          </clipitem>
          <clipitem id="clipitem-10">
            <name>OrionEp16_010.mp3</name>
            <enabled>TRUE</enabled>
            <duration>425</duration>
            <rate>
              <timebase>30</timebase>
              <ntsc>TRUE</ntsc>
            </rate>
            <start>3108</start>
            <end>3533</end>
            <in>0</in>
            <out>340103</out>
            <file id="file-10">
              <name>OrionEp16_010.mp3</name>
              <pathurl>file:///Users/delaxstudio/src/delax-ops/ops/media/orion/projects/OrionS2/output/audio/OrionEp16_010.mp3</pathurl>
              <rate>
                <timebase>24000</timebase>
                <ntsc>FALSE</ntsc>
              </rate>
              <media>
                <audio>
                  <channelcount>1</channelcount>
                  <samplecharacteristics>
                    <samplerate>24000</samplerate>
                    <samplesize>16</samplesize>
                  </samplecharacteristics>
                </audio>
              </media>
            </file>
            <sourcetrack>
              <mediatype>audio</mediatype>
              <trackindex>1</trackindex>
            </sourcetrack>
            <comments/>
          </clipitem>
          <clipitem id="clipitem-11">
            <name>OrionEp16_011.mp3</name>
            <enabled>TRUE</enabled>
            <duration>119</duration>
            <rate>
              <timebase>30</timebase>
              <ntsc>TRUE</ntsc>
            </rate>
            <start>3533</start>
            <end>3652</end>
            <in>0</in>
            <out>95303</out>
            <file id="file-11">
              <name>OrionEp16_011.mp3</name>
              <pathurl>file:///Users/delaxstudio/src/delax-ops/ops/media/orion/projects/OrionS2/output/audio/OrionEp16_011.mp3</pathurl>
              <rate>
                <timebase>24000</timebase>
                <ntsc>FALSE</ntsc>
              </rate>
              <media>
                <audio>
                  <channelcount>1</channelcount>
                  <samplecharacteristics>
                    <samplerate>24000</samplerate>
                    <samplesize>16</samplesize>
                  </samplecharacteristics>
                </audio>
              </media>
            </file>
            <sourcetrack>
              <mediatype>audio</mediatype>
              <trackindex>1</trackindex>
            </sourcetrack>
            <comments/>
          </clipitem>
          <clipitem id="clipitem-12">
            <name>OrionEp16_012.mp3</name>
            <enabled>TRUE</enabled>
            <duration>447</duration>
            <rate>
              <timebase>30</timebase>
              <ntsc>TRUE</ntsc>
            </rate>
            <start>3652</start>
            <end>4099</end>
            <in>0</in>
            <out>358343</out>
            <file id="file-12">
              <name>OrionEp16_012.mp3</name>
              <pathurl>file:///Users/delaxstudio/src/delax-ops/ops/media/orion/projects/OrionS2/output/audio/OrionEp16_012.mp3</pathurl>
              <rate>
                <timebase>24000</timebase>
                <ntsc>FALSE</ntsc>
              </rate>
              <media>
                <audio>
                  <channelcount>1</channelcount>
                  <samplecharacteristics>
                    <samplerate>24000</samplerate>
                    <samplesize>16</samplesize>
                  </samplecharacteristics>
                </audio>
              </media>
            </file>
            <sourcetrack>
              <mediatype>audio</mediatype>
              <trackindex>1</trackindex>
            </sourcetrack>
            <comments/>
          </clipitem>
          <clipitem id="clipitem-13">
            <name>OrionEp16_013.mp3</name>
            <enabled>TRUE</enabled>
            <duration>134</duration>
            <rate>
              <timebase>30</timebase>
              <ntsc>TRUE</ntsc>
            </rate>
            <start>4099</start>
            <end>4233</end>
            <in>0</in>
            <out>106823</out>
            <file id="file-13">
              <name>OrionEp16_013.mp3</name>
              <pathurl>file:///Users/delaxstudio/src/delax-ops/ops/media/orion/projects/OrionS2/output/audio/OrionEp16_013.mp3</pathurl>
              <rate>
                <timebase>24000</timebase>
                <ntsc>FALSE</ntsc>
              </rate>
              <media>
                <audio>
                  <channelcount>1</channelcount>
                  <samplecharacteristics>
                    <samplerate>24000</samplerate>
                    <samplesize>16</samplesize>
                  </samplecharacteristics>
                </audio>
              </media>
            </file>
            <sourcetrack>
              <mediatype>audio</mediatype>
              <trackindex>1</trackindex>
            </sourcetrack>
            <comments/>
          </clipitem>
          <clipitem id="clipitem-14">
            <name>OrionEp16_014.mp3</name>
            <enabled>TRUE</enabled>
            <duration>360</duration>
            <rate>
              <timebase>30</timebase>
              <ntsc>TRUE</ntsc>
            </rate>
            <start>4233</start>
            <end>4593</end>
            <in>0</in>
            <out>288263</out>
            <file id="file-14">
              <name>OrionEp16_014.mp3</name>
              <pathurl>file:///Users/delaxstudio/src/delax-ops/ops/media/orion/projects/OrionS2/output/audio/OrionEp16_014.mp3</pathurl>
              <rate>
                <timebase>24000</timebase>
                <ntsc>FALSE</ntsc>
              </rate>
              <media>
                <audio>
                  <channelcount>1</channelcount>
                  <samplecharacteristics>
                    <samplerate>24000</samplerate>
                    <samplesize>16</samplesize>
                  </samplecharacteristics>
                </audio>
              </media>
            </file>
            <sourcetrack>
              <mediatype>audio</mediatype>
              <trackindex>1</trackindex>
            </sourcetrack>
            <comments/>
          </clipitem>
          <clipitem id="clipitem-15">
            <name>OrionEp16_015.mp3</name>
            <enabled>TRUE</enabled>
            <duration>379</duration>
            <rate>
              <timebase>30</timebase>
              <ntsc>TRUE</ntsc>
            </rate>
            <start>4593</start>
            <end>4972</end>
            <in>0</in>
            <out>303623</out>
            <file id="file-15">
              <name>OrionEp16_015.mp3</name>
              <pathurl>file:///Users/delaxstudio/src/delax-ops/ops/media/orion/projects/OrionS2/output/audio/OrionEp16_015.mp3</pathurl>
              <rate>
                <timebase>24000</timebase>
                <ntsc>FALSE</ntsc>
              </rate>
              <media>
                <audio>
                  <channelcount>1</channelcount>
                  <samplecharacteristics>
                    <samplerate>24000</samplerate>
                    <samplesize>16</samplesize>
                  </samplecharacteristics>
                </audio>
              </media>
            </file>
            <sourcetrack>
              <mediatype>audio</mediatype>
              <trackindex>1</trackindex>
            </sourcetrack>
            <comments/>
          </clipitem>
          <clipitem id="clipitem-16">
            <name>OrionEp16_016.mp3</name>
            <enabled>TRUE</enabled>
            <duration>519</duration>
            <rate>
              <timebase>30</timebase>
              <ntsc>TRUE</ntsc>
            </rate>
            <start>4972</start>
            <end>5491</end>
            <in>0</in>
            <out>415943</out>
            <file id="file-16">
              <name>OrionEp16_016.mp3</name>
              <pathurl>file:///Users/delaxstudio/src/delax-ops/ops/media/orion/projects/OrionS2/output/audio/OrionEp16_016.mp3</pathurl>
              <rate>
                <timebase>24000</timebase>
                <ntsc>FALSE</ntsc>
              </rate>
              <media>
                <audio>
                  <channelcount>1</channelcount>
                  <samplecharacteristics>
                    <samplerate>24000</samplerate>
                    <samplesize>16</samplesize>
                  </samplecharacteristics>
                </audio>
              </media>
            </file>
            <sourcetrack>
              <mediatype>audio</mediatype>
              <trackindex>1</trackindex>
            </sourcetrack>
            <comments/>
          </clipitem>
          <clipitem id="clipitem-17">
            <name>OrionEp16_017.mp3</name>
            <enabled>TRUE</enabled>
            <duration>238</duration>
            <rate>
              <timebase>30</timebase>
              <ntsc>TRUE</ntsc>
            </rate>
            <start>5491</start>
            <end>5729</end>
            <in>0</in>
            <out>190343</out>
            <file id="file-17">
              <name>OrionEp16_017.mp3</name>
              <pathurl>file:///Users/delaxstudio/src/delax-ops/ops/media/orion/projects/OrionS2/output/audio/OrionEp16_017.mp3</pathurl>
              <rate>
                <timebase>24000</timebase>
                <ntsc>FALSE</ntsc>
              </rate>
              <media>
                <audio>
                  <channelcount>1</channelcount>
                  <samplecharacteristics>
                    <samplerate>24000</samplerate>
                    <samplesize>16</samplesize>
                  </samplecharacteristics>
                </audio>
              </media>
            </file>
            <sourcetrack>
              <mediatype>audio</mediatype>
              <trackindex>1</trackindex>
            </sourcetrack>
            <comments/>
          </clipitem>
          <clipitem id="clipitem-18">
            <name>OrionEp16_018.mp3</name>
            <enabled>TRUE</enabled>
            <duration>324</duration>
            <rate>
              <timebase>30</timebase>
              <ntsc>TRUE</ntsc>
            </rate>
            <start>5729</start>
            <end>6053</end>
            <in>0</in>
            <out>259463</out>
            <file id="file-18">
              <name>OrionEp16_018.mp3</name>
              <pathurl>file:///Users/delaxstudio/src/delax-ops/ops/media/orion/projects/OrionS2/output/audio/OrionEp16_018.mp3</pathurl>
              <rate>
                <timebase>24000</timebase>
                <ntsc>FALSE</ntsc>
              </rate>
              <media>
                <audio>
                  <channelcount>1</channelcount>
                  <samplecharacteristics>
                    <samplerate>24000</samplerate>
                    <samplesize>16</samplesize>
                  </samplecharacteristics>
                </audio>
              </media>
            </file>
            <sourcetrack>
              <mediatype>audio</mediatype>
              <trackindex>1</trackindex>
            </sourcetrack>
            <comments/>
          </clipitem>
          <clipitem id="clipitem-19">
            <name>OrionEp16_019.mp3</name>
            <enabled>TRUE</enabled>
            <duration>359</duration>
            <rate>
              <timebase>30</timebase>
              <ntsc>TRUE</ntsc>
            </rate>
            <start>6053</start>
            <end>6412</end>
            <in>0</in>
            <out>287303</out>
            <file id="file-19">
              <name>OrionEp16_019.mp3</name>
              <pathurl>file:///Users/delaxstudio/src/delax-ops/ops/media/orion/projects/OrionS2/output/audio/OrionEp16_019.mp3</pathurl>
              <rate>
                <timebase>24000</timebase>
                <ntsc>FALSE</ntsc>
              </rate>
              <media>
                <audio>
                  <channelcount>1</channelcount>
                  <samplecharacteristics>
                    <samplerate>24000</samplerate>
                    <samplesize>16</samplesize>
                  </samplecharacteristics>
                </audio>
              </media>
            </file>
            <sourcetrack>
              <mediatype>audio</mediatype>
              <trackindex>1</trackindex>
            </sourcetrack>
            <comments/>
          </clipitem>
          <clipitem id="clipitem-20">
            <name>OrionEp16_020.mp3</name>
            <enabled>TRUE</enabled>
            <duration>98</duration>
            <rate>
              <timebase>30</timebase>
              <ntsc>TRUE</ntsc>
            </rate>
            <start>6412</start>
            <end>6510</end>
            <in>0</in>
            <out>78983</out>
            <file id="file-20">
              <name>OrionEp16_020.mp3</name>
              <pathurl>file:///Users/delaxstudio/src/delax-ops/ops/media/orion/projects/OrionS2/output/audio/OrionEp16_020.mp3</pathurl>
              <rate>
                <timebase>24000</timebase>
                <ntsc>FALSE</ntsc>
              </rate>
              <media>
                <audio>
                  <channelcount>1</channelcount>
                  <samplecharacteristics>
                    <samplerate>24000</samplerate>
                    <samplesize>16</samplesize>
                  </samplecharacteristics>
                </audio>
              </media>
            </file>
            <sourcetrack>
              <mediatype>audio</mediatype>
              <trackindex>1</trackindex>
            </sourcetrack>
            <comments/>
          </clipitem>
          <clipitem id="clipitem-21">
            <name>OrionEp16_021.mp3</name>
            <enabled>TRUE</enabled>
            <duration>340</duration>
            <rate>
              <timebase>30</timebase>
              <ntsc>TRUE</ntsc>
            </rate>
            <start>6510</start>
            <end>6850</end>
            <in>0</in>
            <out>271943</out>
            <file id="file-21">
              <name>OrionEp16_021.mp3</name>
              <pathurl>file:///Users/delaxstudio/src/delax-ops/ops/media/orion/projects/OrionS2/output/audio/OrionEp16_021.mp3</pathurl>
              <rate>
                <timebase>24000</timebase>
                <ntsc>FALSE</ntsc>
              </rate>
              <media>
                <audio>
                  <channelcount>1</channelcount>
                  <samplecharacteristics>
                    <samplerate>24000</samplerate>
                    <samplesize>16</samplesize>
                  </samplecharacteristics>
                </audio>
              </media>
            </file>
            <sourcetrack>
              <mediatype>audio</mediatype>
              <trackindex>1</trackindex>
            </sourcetrack>
            <comments/>
          </clipitem>
          <clipitem id="clipitem-22">
            <name>OrionEp16_022.mp3</name>
            <enabled>TRUE</enabled>
            <duration>68</duration>
            <rate>
              <timebase>30</timebase>
              <ntsc>TRUE</ntsc>
            </rate>
            <start>6850</start>
            <end>6918</end>
            <in>0</in>
            <out>54983</out>
            <file id="file-22">
              <name>OrionEp16_022.mp3</name>
              <pathurl>file:///Users/delaxstudio/src/delax-ops/ops/media/orion/projects/OrionS2/output/audio/OrionEp16_022.mp3</pathurl>
              <rate>
                <timebase>24000</timebase>
                <ntsc>FALSE</ntsc>
              </rate>
              <media>
                <audio>
                  <channelcount>1</channelcount>
                  <samplecharacteristics>
                    <samplerate>24000</samplerate>
                    <samplesize>16</samplesize>
                  </samplecharacteristics>
                </audio>
              </media>
            </file>
            <sourcetrack>
              <mediatype>audio</mediatype>
              <trackindex>1</trackindex>
            </sourcetrack>
            <comments/>
          </clipitem>
          <clipitem id="clipitem-23">
            <name>OrionEp16_023.mp3</name>
            <enabled>TRUE</enabled>
            <duration>547</duration>
            <rate>
              <timebase>30</timebase>
              <ntsc>TRUE</ntsc>
            </rate>
            <start>6918</start>
            <end>7465</end>
            <in>0</in>
            <out>438023</out>
            <file id="file-23">
              <name>OrionEp16_023.mp3</name>
              <pathurl>file:///Users/delaxstudio/src/delax-ops/ops/media/orion/projects/OrionS2/output/audio/OrionEp16_023.mp3</pathurl>
              <rate>
                <timebase>24000</timebase>
                <ntsc>FALSE</ntsc>
              </rate>
              <media>
                <audio>
                  <channelcount>1</channelcount>
                  <samplecharacteristics>
                    <samplerate>24000</samplerate>
                    <samplesize>16</samplesize>
                  </samplecharacteristics>
                </audio>
              </media>
            </file>
            <sourcetrack>
              <mediatype>audio</mediatype>
              <trackindex>1</trackindex>
            </sourcetrack>
            <comments/>
          </clipitem>
          <clipitem id="clipitem-24">
            <name>OrionEp16_024.mp3</name>
            <enabled>TRUE</enabled>
            <duration>449</duration>
            <rate>
              <timebase>30</timebase>
              <ntsc>TRUE</ntsc>
            </rate>
            <start>7465</start>
            <end>7914</end>
            <in>0</in>
            <out>359303</out>
            <file id="file-24">
              <name>OrionEp16_024.mp3</name>
              <pathurl>file:///Users/delaxstudio/src/delax-ops/ops/media/orion/projects/OrionS2/output/audio/OrionEp16_024.mp3</pathurl>
              <rate>
                <timebase>24000</timebase>
                <ntsc>FALSE</ntsc>
              </rate>
              <media>
                <audio>
                  <channelcount>1</channelcount>
                  <samplecharacteristics>
                    <samplerate>24000</samplerate>
                    <samplesize>16</samplesize>
                  </samplecharacteristics>
                </audio>
              </media>
            </file>
            <sourcetrack>
              <mediatype>audio</mediatype>
              <trackindex>1</trackindex>
            </sourcetrack>
            <comments/>
          </clipitem>
          <clipitem id="clipitem-25">
            <name>OrionEp16_025.mp3</name>
            <enabled>TRUE</enabled>
            <duration>111</duration>
            <rate>
              <timebase>30</timebase>
              <ntsc>TRUE</ntsc>
            </rate>
            <start>7914</start>
            <end>8025</end>
            <in>0</in>
            <out>88583</out>
            <file id="file-25">
              <name>OrionEp16_025.mp3</name>
              <pathurl>file:///Users/delaxstudio/src/delax-ops/ops/media/orion/projects/OrionS2/output/audio/OrionEp16_025.mp3</pathurl>
              <rate>
                <timebase>24000</timebase>
                <ntsc>FALSE</ntsc>
              </rate>
              <media>
                <audio>
                  <channelcount>1</channelcount>
                  <samplecharacteristics>
                    <samplerate>24000</samplerate>
                    <samplesize>16</samplesize>
                  </samplecharacteristics>
                </audio>
              </media>
            </file>
            <sourcetrack>
              <mediatype>audio</mediatype>
              <trackindex>1</trackindex>
            </sourcetrack>
            <comments/>
          </clipitem>
          <clipitem id="clipitem-26">
            <name>OrionEp16_026.mp3</name>
            <enabled>TRUE</enabled>
            <duration>439</duration>
            <rate>
              <timebase>30</timebase>
              <ntsc>TRUE</ntsc>
            </rate>
            <start>8025</start>
            <end>8464</end>
            <in>0</in>
            <out>351623</out>
            <file id="file-26">
              <name>OrionEp16_026.mp3</name>
              <pathurl>file:///Users/delaxstudio/src/delax-ops/ops/media/orion/projects/OrionS2/output/audio/OrionEp16_026.mp3</pathurl>
              <rate>
                <timebase>24000</timebase>
                <ntsc>FALSE</ntsc>
              </rate>
              <media>
                <audio>
                  <channelcount>1</channelcount>
                  <samplecharacteristics>
                    <samplerate>24000</samplerate>
                    <samplesize>16</samplesize>
                  </samplecharacteristics>
                </audio>
              </media>
            </file>
            <sourcetrack>
              <mediatype>audio</mediatype>
              <trackindex>1</trackindex>
            </sourcetrack>
            <comments/>
          </clipitem>
          <clipitem id="clipitem-27">
            <name>OrionEp16_027.mp3</name>
            <enabled>TRUE</enabled>
            <duration>317</duration>
            <rate>
              <timebase>30</timebase>
              <ntsc>TRUE</ntsc>
            </rate>
            <start>8464</start>
            <end>8781</end>
            <in>0</in>
            <out>253703</out>
            <file id="file-27">
              <name>OrionEp16_027.mp3</name>
              <pathurl>file:///Users/delaxstudio/src/delax-ops/ops/media/orion/projects/OrionS2/output/audio/OrionEp16_027.mp3</pathurl>
              <rate>
                <timebase>24000</timebase>
                <ntsc>FALSE</ntsc>
              </rate>
              <media>
                <audio>
                  <channelcount>1</channelcount>
                  <samplecharacteristics>
                    <samplerate>24000</samplerate>
                    <samplesize>16</samplesize>
                  </samplecharacteristics>
                </audio>
              </media>
            </file>
            <sourcetrack>
              <mediatype>audio</mediatype>
              <trackindex>1</trackindex>
            </sourcetrack>
            <comments/>
          </clipitem>
          <clipitem id="clipitem-28">
            <name>OrionEp16_028.mp3</name>
            <enabled>TRUE</enabled>
            <duration>131</duration>
            <rate>
              <timebase>30</timebase>
              <ntsc>TRUE</ntsc>
            </rate>
            <start>8781</start>
            <end>8912</end>
            <in>0</in>
            <out>104903</out>
            <file id="file-28">
              <name>OrionEp16_028.mp3</name>
              <pathurl>file:///Users/delaxstudio/src/delax-ops/ops/media/orion/projects/OrionS2/output/audio/OrionEp16_028.mp3</pathurl>
              <rate>
                <timebase>24000</timebase>
                <ntsc>FALSE</ntsc>
              </rate>
              <media>
                <audio>
                  <channelcount>1</channelcount>
                  <samplecharacteristics>
                    <samplerate>24000</samplerate>
                    <samplesize>16</samplesize>
                  </samplecharacteristics>
                </audio>
              </media>
            </file>
            <sourcetrack>
              <mediatype>audio</mediatype>
              <trackindex>1</trackindex>
            </sourcetrack>
            <comments/>
          </clipitem>
          <clipitem id="clipitem-29">
            <name>OrionEp16_029.mp3</name>
            <enabled>TRUE</enabled>
            <duration>490</duration>
            <rate>
              <timebase>30</timebase>
              <ntsc>TRUE</ntsc>
            </rate>
            <start>8912</start>
            <end>9402</end>
            <in>0</in>
            <out>392903</out>
            <file id="file-29">
              <name>OrionEp16_029.mp3</name>
              <pathurl>file:///Users/delaxstudio/src/delax-ops/ops/media/orion/projects/OrionS2/output/audio/OrionEp16_029.mp3</pathurl>
              <rate>
                <timebase>24000</timebase>
                <ntsc>FALSE</ntsc>
              </rate>
              <media>
                <audio>
                  <channelcount>1</channelcount>
                  <samplecharacteristics>
                    <samplerate>24000</samplerate>
                    <samplesize>16</samplesize>
                  </samplecharacteristics>
                </audio>
              </media>
            </file>
            <sourcetrack>
              <mediatype>audio</mediatype>
              <trackindex>1</trackindex>
            </sourcetrack>
            <comments/>
          </clipitem>
          <clipitem id="clipitem-30">
            <name>OrionEp16_030.mp3</name>
            <enabled>TRUE</enabled>
            <duration>224</duration>
            <rate>
              <timebase>30</timebase>
              <ntsc>TRUE</ntsc>
            </rate>
            <start>9402</start>
            <end>9626</end>
            <in>0</in>
            <out>178823</out>
            <file id="file-30">
              <name>OrionEp16_030.mp3</name>
              <pathurl>file:///Users/delaxstudio/src/delax-ops/ops/media/orion/projects/OrionS2/output/audio/OrionEp16_030.mp3</pathurl>
              <rate>
                <timebase>24000</timebase>
                <ntsc>FALSE</ntsc>
              </rate>
              <media>
                <audio>
                  <channelcount>1</channelcount>
                  <samplecharacteristics>
                    <samplerate>24000</samplerate>
                    <samplesize>16</samplesize>
                  </samplecharacteristics>
                </audio>
              </media>
            </file>
            <sourcetrack>
              <mediatype>audio</mediatype>
              <trackindex>1</trackindex>
            </sourcetrack>
            <comments/>
          </clipitem>
          <clipitem id="clipitem-31">
            <name>OrionEp16_031.mp3</name>
            <enabled>TRUE</enabled>
            <duration>157</duration>
            <rate>
              <timebase>30</timebase>
              <ntsc>TRUE</ntsc>
            </rate>
            <start>9626</start>
            <end>9783</end>
            <in>0</in>
            <out>126023</out>
            <file id="file-31">
              <name>OrionEp16_031.mp3</name>
              <pathurl>file:///Users/delaxstudio/src/delax-ops/ops/media/orion/projects/OrionS2/output/audio/OrionEp16_031.mp3</pathurl>
              <rate>
                <timebase>24000</timebase>
                <ntsc>FALSE</ntsc>
              </rate>
              <media>
                <audio>
                  <channelcount>1</channelcount>
                  <samplecharacteristics>
                    <samplerate>24000</samplerate>
                    <samplesize>16</samplesize>
                  </samplecharacteristics>
                </audio>
              </media>
            </file>
            <sourcetrack>
              <mediatype>audio</mediatype>
              <trackindex>1</trackindex>
            </sourcetrack>
            <comments/>
          </clipitem>
          <clipitem id="clipitem-32">
            <name>OrionEp16_032.mp3</name>
            <enabled>TRUE</enabled>
            <duration>256</duration>
            <rate>
              <timebase>30</timebase>
              <ntsc>TRUE</ntsc>
            </rate>
            <start>9783</start>
            <end>10039</end>
            <in>0</in>
            <out>204743</out>
            <file id="file-32">
              <name>OrionEp16_032.mp3</name>
              <pathurl>file:///Users/delaxstudio/src/delax-ops/ops/media/orion/projects/OrionS2/output/audio/OrionEp16_032.mp3</pathurl>
              <rate>
                <timebase>24000</timebase>
                <ntsc>FALSE</ntsc>
              </rate>
              <media>
                <audio>
                  <channelcount>1</channelcount>
                  <samplecharacteristics>
                    <samplerate>24000</samplerate>
                    <samplesize>16</samplesize>
                  </samplecharacteristics>
                </audio>
              </media>
            </file>
            <sourcetrack>
              <mediatype>audio</mediatype>
              <trackindex>1</trackindex>
            </sourcetrack>
            <comments/>
          </clipitem>
          <clipitem id="clipitem-33">
            <name>OrionEp16_033.mp3</name>
            <enabled>TRUE</enabled>
            <duration>457</duration>
            <rate>
              <timebase>30</timebase>
              <ntsc>TRUE</ntsc>
            </rate>
            <start>10039</start>
            <end>10496</end>
            <in>0</in>
            <out>366023</out>
            <file id="file-33">
              <name>OrionEp16_033.mp3</name>
              <pathurl>file:///Users/delaxstudio/src/delax-ops/ops/media/orion/projects/OrionS2/output/audio/OrionEp16_033.mp3</pathurl>
              <rate>
                <timebase>24000</timebase>
                <ntsc>FALSE</ntsc>
              </rate>
              <media>
                <audio>
                  <channelcount>1</channelcount>
                  <samplecharacteristics>
                    <samplerate>24000</samplerate>
                    <samplesize>16</samplesize>
                  </samplecharacteristics>
                </audio>
              </media>
            </file>
            <sourcetrack>
              <mediatype>audio</mediatype>
              <trackindex>1</trackindex>
            </sourcetrack>
            <comments/>
          </clipitem>
          <clipitem id="clipitem-34">
            <name>OrionEp16_034.mp3</name>
            <enabled>TRUE</enabled>
            <duration>260</duration>
            <rate>
              <timebase>30</timebase>
              <ntsc>TRUE</ntsc>
            </rate>
            <start>10496</start>
            <end>10756</end>
            <in>0</in>
            <out>208583</out>
            <file id="file-34">
              <name>OrionEp16_034.mp3</name>
              <pathurl>file:///Users/delaxstudio/src/delax-ops/ops/media/orion/projects/OrionS2/output/audio/OrionEp16_034.mp3</pathurl>
              <rate>
                <timebase>24000</timebase>
                <ntsc>FALSE</ntsc>
              </rate>
              <media>
                <audio>
                  <channelcount>1</channelcount>
                  <samplecharacteristics>
                    <samplerate>24000</samplerate>
                    <samplesize>16</samplesize>
                  </samplecharacteristics>
                </audio>
              </media>
            </file>
            <sourcetrack>
              <mediatype>audio</mediatype>
              <trackindex>1</trackindex>
            </sourcetrack>
            <comments/>
          </clipitem>
          <clipitem id="clipitem-35">
            <name>OrionEp16_035.mp3</name>
            <enabled>TRUE</enabled>
            <duration>299</duration>
            <rate>
              <timebase>30</timebase>
              <ntsc>TRUE</ntsc>
            </rate>
            <start>10756</start>
            <end>11055</end>
            <in>0</in>
            <out>239303</out>
            <file id="file-35">
              <name>OrionEp16_035.mp3</name>
              <pathurl>file:///Users/delaxstudio/src/delax-ops/ops/media/orion/projects/OrionS2/output/audio/OrionEp16_035.mp3</pathurl>
              <rate>
                <timebase>24000</timebase>
                <ntsc>FALSE</ntsc>
              </rate>
              <media>
                <audio>
                  <channelcount>1</channelcount>
                  <samplecharacteristics>
                    <samplerate>24000</samplerate>
                    <samplesize>16</samplesize>
                  </samplecharacteristics>
                </audio>
              </media>
            </file>
            <sourcetrack>
              <mediatype>audio</mediatype>
              <trackindex>1</trackindex>
            </sourcetrack>
            <comments/>
          </clipitem>
          <clipitem id="clipitem-36">
            <name>OrionEp16_036.mp3</name>
            <enabled>TRUE</enabled>
            <duration>256</duration>
            <rate>
              <timebase>30</timebase>
              <ntsc>TRUE</ntsc>
            </rate>
            <start>11055</start>
            <end>11311</end>
            <in>0</in>
            <out>204743</out>
            <file id="file-36">
              <name>OrionEp16_036.mp3</name>
              <pathurl>file:///Users/delaxstudio/src/delax-ops/ops/media/orion/projects/OrionS2/output/audio/OrionEp16_036.mp3</pathurl>
              <rate>
                <timebase>24000</timebase>
                <ntsc>FALSE</ntsc>
              </rate>
              <media>
                <audio>
                  <channelcount>1</channelcount>
                  <samplecharacteristics>
                    <samplerate>24000</samplerate>
                    <samplesize>16</samplesize>
                  </samplecharacteristics>
                </audio>
              </media>
            </file>
            <sourcetrack>
              <mediatype>audio</mediatype>
              <trackindex>1</trackindex>
            </sourcetrack>
            <comments/>
          </clipitem>
          <clipitem id="clipitem-37">
            <name>OrionEp16_037.mp3</name>
            <enabled>TRUE</enabled>
            <duration>545</duration>
            <rate>
              <timebase>30</timebase>
              <ntsc>TRUE</ntsc>
            </rate>
            <start>11311</start>
            <end>11856</end>
            <in>0</in>
            <out>437063</out>
            <file id="file-37">
              <name>OrionEp16_037.mp3</name>
              <pathurl>file:///Users/delaxstudio/src/delax-ops/ops/media/orion/projects/OrionS2/output/audio/OrionEp16_037.mp3</pathurl>
              <rate>
                <timebase>24000</timebase>
                <ntsc>FALSE</ntsc>
              </rate>
              <media>
                <audio>
                  <channelcount>1</channelcount>
                  <samplecharacteristics>
                    <samplerate>24000</samplerate>
                    <samplesize>16</samplesize>
                  </samplecharacteristics>
                </audio>
              </media>
            </file>
            <sourcetrack>
              <mediatype>audio</mediatype>
              <trackindex>1</trackindex>
            </sourcetrack>
            <comments/>
          </clipitem>
          <clipitem id="clipitem-38">
            <name>OrionEp16_038.mp3</name>
            <enabled>TRUE</enabled>
            <duration>326</duration>
            <rate>
              <timebase>30</timebase>
              <ntsc>TRUE</ntsc>
            </rate>
            <start>11856</start>
            <end>12182</end>
            <in>0</in>
            <out>260423</out>
            <file id="file-38">
              <name>OrionEp16_038.mp3</name>
              <pathurl>file:///Users/delaxstudio/src/delax-ops/ops/media/orion/projects/OrionS2/output/audio/OrionEp16_038.mp3</pathurl>
              <rate>
                <timebase>24000</timebase>
                <ntsc>FALSE</ntsc>
              </rate>
              <media>
                <audio>
                  <channelcount>1</channelcount>
                  <samplecharacteristics>
                    <samplerate>24000</samplerate>
                    <samplesize>16</samplesize>
                  </samplecharacteristics>
                </audio>
              </media>
            </file>
            <sourcetrack>
              <mediatype>audio</mediatype>
              <trackindex>1</trackindex>
            </sourcetrack>
            <comments/>
          </clipitem>
          <clipitem id="clipitem-39">
            <name>OrionEp16_039.mp3</name>
            <enabled>TRUE</enabled>
            <duration>422</duration>
            <rate>
              <timebase>30</timebase>
              <ntsc>TRUE</ntsc>
            </rate>
            <start>12182</start>
            <end>12604</end>
            <in>0</in>
            <out>338183</out>
            <file id="file-39">
              <name>OrionEp16_039.mp3</name>
              <pathurl>file:///Users/delaxstudio/src/delax-ops/ops/media/orion/projects/OrionS2/output/audio/OrionEp16_039.mp3</pathurl>
              <rate>
                <timebase>24000</timebase>
                <ntsc>FALSE</ntsc>
              </rate>
              <media>
                <audio>
                  <channelcount>1</channelcount>
                  <samplecharacteristics>
                    <samplerate>24000</samplerate>
                    <samplesize>16</samplesize>
                  </samplecharacteristics>
                </audio>
              </media>
            </file>
            <sourcetrack>
              <mediatype>audio</mediatype>
              <trackindex>1</trackindex>
            </sourcetrack>
            <comments/>
          </clipitem>
          <clipitem id="clipitem-40">
            <name>OrionEp16_040.mp3</name>
            <enabled>TRUE</enabled>
            <duration>300</duration>
            <rate>
              <timebase>30</timebase>
              <ntsc>TRUE</ntsc>
            </rate>
            <start>12604</start>
            <end>12904</end>
            <in>0</in>
            <out>240263</out>
            <file id="file-40">
              <name>OrionEp16_040.mp3</name>
              <pathurl>file:///Users/delaxstudio/src/delax-ops/ops/media/orion/projects/OrionS2/output/audio/OrionEp16_040.mp3</pathurl>
              <rate>
                <timebase>24000</timebase>
                <ntsc>FALSE</ntsc>
              </rate>
              <media>
                <audio>
                  <channelcount>1</channelcount>
                  <samplecharacteristics>
                    <samplerate>24000</samplerate>
                    <samplesize>16</samplesize>
                  </samplecharacteristics>
                </audio>
              </media>
            </file>
            <sourcetrack>
              <mediatype>audio</mediatype>
              <trackindex>1</trackindex>
            </sourcetrack>
            <comments/>
          </clipitem>
        </track>
      </audio>
    </media>
  </sequence>
</xmeml>
