<?xml version="1.0" ?>
<xmeml version="4">
  <sequence>
    <uuid>OrionEp22_timeline</uuid>
    <duration>14384</duration>
    <name>OrionEp22_timeline</name>
    <rate>
      <timebase>30</timebase>
      <ntsc>TRUE</ntsc>
    </rate>
    <media>
      <video>
        <format/>
        <track>
          <generatoritem id="subtitle-1">
            <name>Subtitle 1</name>
            <enabled>TRUE</enabled>
            <duration>134</duration>
            <rate>
              <timebase>30</timebase>
              <ntsc>TRUE</ntsc>
            </rate>
            <start>0</start>
            <end>134</end>
            <in>0</in>
            <out>134</out>
            <effect>
              <name>Text</name>
              <effectid>Text</effectid>
              <effectcategory>Text</effectcategory>
              <effecttype>generator</effecttype>
              <mediatype>video</mediatype>
              <parameter>
                <parameterid>str</parameterid>
                <name>Text</name>
                <value>会議で発言するのは いつも上司</value>
              </parameter>
            </effect>
          </generatoritem>
          <generatoritem id="subtitle-2">
            <name>Subtitle 2</name>
            <enabled>TRUE</enabled>
            <duration>134</duration>
            <rate>
              <timebase>30</timebase>
              <ntsc>TRUE</ntsc>
            </rate>
            <start>134</start>
            <end>268</end>
            <in>0</in>
            <out>134</out>
            <effect>
              <name>Text</name>
              <effectid>Text</effectid>
              <effectcategory>Text</effectcategory>
              <effecttype>generator</effecttype>
              <mediatype>video</mediatype>
              <parameter>
                <parameterid>str</parameterid>
                <name>Text</name>
                <value>自分はその横で資料を準備し 根回しをし 後始末をする</value>
              </parameter>
            </effect>
          </generatoritem>
          <generatoritem id="subtitle-3">
            <name>Subtitle 3</name>
            <enabled>TRUE</enabled>
            <duration>196</duration>
            <rate>
              <timebase>30</timebase>
              <ntsc>TRUE</ntsc>
            </rate>
            <start>278</start>
            <end>474</end>
            <in>0</in>
            <out>196</out>
            <effect>
              <name>Text</name>
              <effectid>Text</effectid>
              <effectcategory>Text</effectcategory>
              <effecttype>generator</effecttype>
              <mediatype>video</mediatype>
              <parameter>
                <parameterid>str</parameterid>
                <name>Text</name>
                <value>『縁の下の力持ち』と言えば聞こえはいい でも 評価されるのは常に『上』の人間</value>
              </parameter>
            </effect>
          </generatoritem>
          <generatoritem id="subtitle-4">
            <name>Subtitle 4</name>
            <enabled>TRUE</enabled>
            <duration>62</duration>
            <rate>
              <timebase>30</timebase>
              <ntsc>TRUE</ntsc>
            </rate>
            <start>484</start>
            <end>546</end>
            <in>0</in>
            <out>62</out>
            <effect>
              <name>Text</name>
              <effectid>Text</effectid>
              <effectcategory>Text</effectcategory>
              <effecttype>generator</effecttype>
              <mediatype>video</mediatype>
              <parameter>
                <parameterid>str</parameterid>
                <name>Text</name>
                <value>ナンバー2であることに 意味はあるのでしょうか</value>
              </parameter>
            </effect>
          </generatoritem>
          <generatoritem id="subtitle-5">
            <name>Subtitle 5</name>
            <enabled>TRUE</enabled>
            <duration>61</duration>
            <rate>
              <timebase>30</timebase>
              <ntsc>TRUE</ntsc>
            </rate>
            <start>546</start>
            <end>607</end>
            <in>0</in>
            <out>61</out>
            <effect>
              <name>Text</name>
              <effectid>Text</effectid>
              <effectcategory>Text</effectcategory>
              <effecttype>generator</effecttype>
              <mediatype>video</mediatype>
              <parameter>
                <parameterid>str</parameterid>
                <name>Text</name>
                <value>ナンバー2であることは 劣っていることではない</value>
              </parameter>
            </effect>
          </generatoritem>
          <generatoritem id="subtitle-6">
            <name>Subtitle 6</name>
            <enabled>TRUE</enabled>
            <duration>214</duration>
            <rate>
              <timebase>30</timebase>
              <ntsc>TRUE</ntsc>
            </rate>
            <start>617</start>
            <end>831</end>
            <in>0</in>
            <out>214</out>
            <effect>
              <name>Text</name>
              <effectid>Text</effectid>
              <effectcategory>Text</effectcategory>
              <effecttype>generator</effecttype>
              <mediatype>video</mediatype>
              <parameter>
                <parameterid>str</parameterid>
                <name>Text</name>
                <value>ようこそ オリオンの会議室へ 今夜のテーマは『ナンバー2の矜持』</value>
              </parameter>
            </effect>
          </generatoritem>
          <generatoritem id="subtitle-7">
            <name>Subtitle 7</name>
            <enabled>TRUE</enabled>
            <duration>121</duration>
            <rate>
              <timebase>30</timebase>
              <ntsc>TRUE</ntsc>
            </rate>
            <start>841</start>
            <end>962</end>
            <in>0</in>
            <out>121</out>
            <effect>
              <name>Text</name>
              <effectid>Text</effectid>
              <effectcategory>Text</effectcategory>
              <effecttype>generator</effecttype>
              <mediatype>video</mediatype>
              <parameter>
                <parameterid>str</parameterid>
                <name>Text</name>
                <value>古今東西の叡智を星座のように結び 現代の悩みに新しい視座を見つける8分間</value>
              </parameter>
            </effect>
          </generatoritem>
          <generatoritem id="subtitle-8">
            <name>Subtitle 8</name>
            <enabled>TRUE</enabled>
            <duration>122</duration>
            <rate>
              <timebase>30</timebase>
              <ntsc>TRUE</ntsc>
            </rate>
            <start>962</start>
            <end>1084</end>
            <in>0</in>
            <out>122</out>
            <effect>
              <name>Text</name>
              <effectid>Text</effectid>
              <effectcategory>Text</effectcategory>
              <effecttype>generator</effecttype>
              <mediatype>video</mediatype>
              <parameter>
                <parameterid>str</parameterid>
                <name>Text</name>
                <value>器に従い岩を穿つ水の強さ</value>
              </parameter>
            </effect>
          </generatoritem>
          <generatoritem id="subtitle-9">
            <name>Subtitle 9</name>
            <enabled>TRUE</enabled>
            <duration>101</duration>
            <rate>
              <timebase>30</timebase>
              <ntsc>TRUE</ntsc>
            </rate>
            <start>1093</start>
            <end>1194</end>
            <in>0</in>
            <out>101</out>
            <effect>
              <name>Text</name>
              <effectid>Text</effectid>
              <effectcategory>Text</effectcategory>
              <effecttype>generator</effecttype>
              <mediatype>video</mediatype>
              <parameter>
                <parameterid>str</parameterid>
                <name>Text</name>
                <value>今夜めぐる星々は——</value>
              </parameter>
            </effect>
          </generatoritem>
          <generatoritem id="subtitle-10">
            <name>Subtitle 10</name>
            <enabled>TRUE</enabled>
            <duration>100</duration>
            <rate>
              <timebase>30</timebase>
              <ntsc>TRUE</ntsc>
            </rate>
            <start>1194</start>
            <end>1294</end>
            <in>0</in>
            <out>100</out>
            <effect>
              <name>Text</name>
              <effectid>Text</effectid>
              <effectcategory>Text</effectcategory>
              <effecttype>generator</effecttype>
              <mediatype>video</mediatype>
              <parameter>
                <parameterid>str</parameterid>
                <name>Text</name>
                <value>組織図には載らない『非公式組織』の力</value>
              </parameter>
            </effect>
          </generatoritem>
          <generatoritem id="subtitle-11">
            <name>Subtitle 11</name>
            <enabled>TRUE</enabled>
            <duration>101</duration>
            <rate>
              <timebase>30</timebase>
              <ntsc>TRUE</ntsc>
            </rate>
            <start>1294</start>
            <end>1395</end>
            <in>0</in>
            <out>101</out>
            <effect>
              <name>Text</name>
              <effectid>Text</effectid>
              <effectcategory>Text</effectcategory>
              <effecttype>generator</effecttype>
              <mediatype>video</mediatype>
              <parameter>
                <parameterid>str</parameterid>
                <name>Text</name>
                <value>見えざるところに宿る統治の術</value>
              </parameter>
            </effect>
          </generatoritem>
          <generatoritem id="subtitle-12">
            <name>Subtitle 12</name>
            <enabled>TRUE</enabled>
            <duration>173</duration>
            <rate>
              <timebase>30</timebase>
              <ntsc>TRUE</ntsc>
            </rate>
            <start>1405</start>
            <end>1578</end>
            <in>0</in>
            <out>173</out>
            <effect>
              <name>Text</name>
              <effectid>Text</effectid>
              <effectcategory>Text</effectcategory>
              <effecttype>generator</effecttype>
              <mediatype>video</mediatype>
              <parameter>
                <parameterid>str</parameterid>
                <name>Text</name>
                <value>自らは変わらず反応を加速させる触媒</value>
              </parameter>
            </effect>
          </generatoritem>
          <generatoritem id="subtitle-13">
            <name>Subtitle 13</name>
            <enabled>TRUE</enabled>
            <duration>174</duration>
            <rate>
              <timebase>30</timebase>
              <ntsc>TRUE</ntsc>
            </rate>
            <start>1578</start>
            <end>1752</end>
            <in>0</in>
            <out>174</out>
            <effect>
              <name>Text</name>
              <effectid>Text</effectid>
              <effectcategory>Text</effectcategory>
              <effecttype>generator</effecttype>
              <mediatype>video</mediatype>
              <parameter>
                <parameterid>str</parameterid>
                <name>Text</name>
                <value>そして主役と背景が反転する『図と地』の法則が——</value>
              </parameter>
            </effect>
          </generatoritem>
          <generatoritem id="subtitle-14">
            <name>Subtitle 14</name>
            <enabled>TRUE</enabled>
            <duration>174</duration>
            <rate>
              <timebase>30</timebase>
              <ntsc>TRUE</ntsc>
            </rate>
            <start>1762</start>
            <end>1936</end>
            <in>0</in>
            <out>174</out>
            <effect>
              <name>Text</name>
              <effectid>Text</effectid>
              <effectcategory>Text</effectcategory>
              <effecttype>generator</effecttype>
              <mediatype>video</mediatype>
              <parameter>
                <parameterid>str</parameterid>
                <name>Text</name>
                <value>『二番手』の静かな力を 照らし始めます</value>
              </parameter>
            </effect>
          </generatoritem>
          <generatoritem id="subtitle-15">
            <name>Subtitle 15</name>
            <enabled>TRUE</enabled>
            <duration>112</duration>
            <rate>
              <timebase>30</timebase>
              <ntsc>TRUE</ntsc>
            </rate>
            <start>1946</start>
            <end>2058</end>
            <in>0</in>
            <out>112</out>
            <effect>
              <name>Text</name>
              <effectid>Text</effectid>
              <effectcategory>Text</effectcategory>
              <effecttype>generator</effecttype>
              <mediatype>video</mediatype>
              <parameter>
                <parameterid>str</parameterid>
                <name>Text</name>
                <value>プロジェクトが成功した</value>
              </parameter>
            </effect>
          </generatoritem>
          <generatoritem id="subtitle-16">
            <name>Subtitle 16</name>
            <enabled>TRUE</enabled>
            <duration>113</duration>
            <rate>
              <timebase>30</timebase>
              <ntsc>TRUE</ntsc>
            </rate>
            <start>2058</start>
            <end>2171</end>
            <in>0</in>
            <out>113</out>
            <effect>
              <name>Text</name>
              <effectid>Text</effectid>
              <effectcategory>Text</effectcategory>
              <effecttype>generator</effecttype>
              <mediatype>video</mediatype>
              <parameter>
                <parameterid>str</parameterid>
                <name>Text</name>
                <value>打ち上げの席で 部長が称えられる 『素晴らしいリーダーシップでした』</value>
              </parameter>
            </effect>
          </generatoritem>
          <generatoritem id="subtitle-17">
            <name>Subtitle 17</name>
            <enabled>TRUE</enabled>
            <duration>52</duration>
            <rate>
              <timebase>30</timebase>
              <ntsc>TRUE</ntsc>
            </rate>
            <start>2181</start>
            <end>2233</end>
            <in>0</in>
            <out>52</out>
            <effect>
              <name>Text</name>
              <effectid>Text</effectid>
              <effectcategory>Text</effectcategory>
              <effecttype>generator</effecttype>
              <mediatype>video</mediatype>
              <parameter>
                <parameterid>str</parameterid>
                <name>Text</name>
                <value>拍手が起こる</value>
              </parameter>
            </effect>
          </generatoritem>
          <generatoritem id="subtitle-18">
            <name>Subtitle 18</name>
            <enabled>TRUE</enabled>
            <duration>53</duration>
            <rate>
              <timebase>30</timebase>
              <ntsc>TRUE</ntsc>
            </rate>
            <start>2233</start>
            <end>2286</end>
            <in>0</in>
            <out>53</out>
            <effect>
              <name>Text</name>
              <effectid>Text</effectid>
              <effectcategory>Text</effectcategory>
              <effecttype>generator</effecttype>
              <mediatype>video</mediatype>
              <parameter>
                <parameterid>str</parameterid>
                <name>Text</name>
                <value>あなたは隅の席で 静かにグラスを傾けている</value>
              </parameter>
            </effect>
          </generatoritem>
          <generatoritem id="subtitle-19">
            <name>Subtitle 19</name>
            <enabled>TRUE</enabled>
            <duration>53</duration>
            <rate>
              <timebase>30</timebase>
              <ntsc>TRUE</ntsc>
            </rate>
            <start>2286</start>
            <end>2339</end>
            <in>0</in>
            <out>53</out>
            <effect>
              <name>Text</name>
              <effectid>Text</effectid>
              <effectcategory>Text</effectcategory>
              <effecttype>generator</effecttype>
              <mediatype>video</mediatype>
              <parameter>
                <parameterid>str</parameterid>
                <name>Text</name>
                <value>メンバー間の対立を調整したのも自分だ</value>
              </parameter>
            </effect>
          </generatoritem>
          <generatoritem id="subtitle-20">
            <name>Subtitle 20</name>
            <enabled>TRUE</enabled>
            <duration>152</duration>
            <rate>
              <timebase>30</timebase>
              <ntsc>TRUE</ntsc>
            </rate>
            <start>2349</start>
            <end>2501</end>
            <in>0</in>
            <out>152</out>
            <effect>
              <name>Text</name>
              <effectid>Text</effectid>
              <effectcategory>Text</effectcategory>
              <effecttype>generator</effecttype>
              <mediatype>video</mediatype>
              <parameter>
                <parameterid>str</parameterid>
                <name>Text</name>
                <value>徹夜で資料を直したのは自分だ</value>
              </parameter>
            </effect>
          </generatoritem>
          <generatoritem id="subtitle-21">
            <name>Subtitle 21</name>
            <enabled>TRUE</enabled>
            <duration>152</duration>
            <rate>
              <timebase>30</timebase>
              <ntsc>TRUE</ntsc>
            </rate>
            <start>2501</start>
            <end>2653</end>
            <in>0</in>
            <out>152</out>
            <effect>
              <name>Text</name>
              <effectid>Text</effectid>
              <effectcategory>Text</effectcategory>
              <effecttype>generator</effecttype>
              <mediatype>video</mediatype>
              <parameter>
                <parameterid>str</parameterid>
                <name>Text</name>
                <value>クライアントの無理な要求をなだめたのも</value>
              </parameter>
            </effect>
          </generatoritem>
          <generatoritem id="subtitle-22">
            <name>Subtitle 22</name>
            <enabled>TRUE</enabled>
            <duration>36</duration>
            <rate>
              <timebase>30</timebase>
              <ntsc>TRUE</ntsc>
            </rate>
            <start>2663</start>
            <end>2699</end>
            <in>0</in>
            <out>36</out>
            <effect>
              <name>Text</name>
              <effectid>Text</effectid>
              <effectcategory>Text</effectcategory>
              <effecttype>generator</effecttype>
              <mediatype>video</mediatype>
              <parameter>
                <parameterid>str</parameterid>
                <name>Text</name>
                <value>でも 誰もそれを知らない</value>
              </parameter>
            </effect>
          </generatoritem>
          <generatoritem id="subtitle-23">
            <name>Subtitle 23</name>
            <enabled>TRUE</enabled>
            <duration>36</duration>
            <rate>
              <timebase>30</timebase>
              <ntsc>TRUE</ntsc>
            </rate>
            <start>2699</start>
            <end>2735</end>
            <in>0</in>
            <out>36</out>
            <effect>
              <name>Text</name>
              <effectid>Text</effectid>
              <effectcategory>Text</effectcategory>
              <effecttype>generator</effecttype>
              <mediatype>video</mediatype>
              <parameter>
                <parameterid>str</parameterid>
                <name>Text</name>
                <value>20世紀アメリカの経営学者 チェスター・バーナードは 組織の本質を見抜いていました</value>
              </parameter>
            </effect>
          </generatoritem>
          <generatoritem id="subtitle-24">
            <name>Subtitle 24</name>
            <enabled>TRUE</enabled>
            <duration>82</duration>
            <rate>
              <timebase>30</timebase>
              <ntsc>TRUE</ntsc>
            </rate>
            <start>2745</start>
            <end>2827</end>
            <in>0</in>
            <out>82</out>
            <effect>
              <name>Text</name>
              <effectid>Text</effectid>
              <effectcategory>Text</effectcategory>
              <effecttype>generator</effecttype>
              <mediatype>video</mediatype>
              <parameter>
                <parameterid>str</parameterid>
                <name>Text</name>
                <value>『あなたがいなければ成功しなかった』—— その言葉は 永遠に届かないのだろうか</value>
              </parameter>
            </effect>
          </generatoritem>
          <generatoritem id="subtitle-25">
            <name>Subtitle 25</name>
            <enabled>TRUE</enabled>
            <duration>82</duration>
            <rate>
              <timebase>30</timebase>
              <ntsc>TRUE</ntsc>
            </rate>
            <start>2827</start>
            <end>2909</end>
            <in>0</in>
            <out>82</out>
            <effect>
              <name>Text</name>
              <effectid>Text</effectid>
              <effectcategory>Text</effectcategory>
              <effecttype>generator</effecttype>
              <mediatype>video</mediatype>
              <parameter>
                <parameterid>str</parameterid>
                <name>Text</name>
                <value>『非公式組織こそが生命線である』</value>
              </parameter>
            </effect>
          </generatoritem>
          <generatoritem id="subtitle-26">
            <name>Subtitle 26</name>
            <enabled>TRUE</enabled>
            <duration>81</duration>
            <rate>
              <timebase>30</timebase>
              <ntsc>TRUE</ntsc>
            </rate>
            <start>2909</start>
            <end>2990</end>
            <in>0</in>
            <out>81</out>
            <effect>
              <name>Text</name>
              <effectid>Text</effectid>
              <effectcategory>Text</effectcategory>
              <effecttype>generator</effecttype>
              <mediatype>video</mediatype>
              <parameter>
                <parameterid>str</parameterid>
                <name>Text</name>
                <value>組織図に載っている『公式組織』だけでは 組織は動かない</value>
              </parameter>
            </effect>
          </generatoritem>
          <generatoritem id="subtitle-27">
            <name>Subtitle 27</name>
            <enabled>TRUE</enabled>
            <duration>307</duration>
            <rate>
              <timebase>30</timebase>
              <ntsc>TRUE</ntsc>
            </rate>
            <start>3000</start>
            <end>3307</end>
            <in>0</in>
            <out>307</out>
            <effect>
              <name>Text</name>
              <effectid>Text</effectid>
              <effectcategory>Text</effectcategory>
              <effecttype>generator</effecttype>
              <mediatype>video</mediatype>
              <parameter>
                <parameterid>str</parameterid>
                <name>Text</name>
                <value>誰と誰が信頼関係にあるか 誰が情報のハブになっているか</value>
              </parameter>
            </effect>
          </generatoritem>
          <generatoritem id="subtitle-28">
            <name>Subtitle 28</name>
            <enabled>TRUE</enabled>
            <duration>371</duration>
            <rate>
              <timebase>30</timebase>
              <ntsc>TRUE</ntsc>
            </rate>
            <start>3317</start>
            <end>3688</end>
            <in>0</in>
            <out>371</out>
            <effect>
              <name>Text</name>
              <effectid>Text</effectid>
              <effectcategory>Text</effectcategory>
              <effecttype>generator</effecttype>
              <mediatype>video</mediatype>
              <parameter>
                <parameterid>str</parameterid>
                <name>Text</name>
                <value>そうした『見えない関係性』——非公式組織——が 実際の仕事を回している</value>
              </parameter>
            </effect>
          </generatoritem>
          <generatoritem id="subtitle-29">
            <name>Subtitle 29</name>
            <enabled>TRUE</enabled>
            <duration>236</duration>
            <rate>
              <timebase>30</timebase>
              <ntsc>TRUE</ntsc>
            </rate>
            <start>3698</start>
            <end>3934</end>
            <in>0</in>
            <out>236</out>
            <effect>
              <name>Text</name>
              <effectid>Text</effectid>
              <effectcategory>Text</effectcategory>
              <effecttype>generator</effecttype>
              <mediatype>video</mediatype>
              <parameter>
                <parameterid>str</parameterid>
                <name>Text</name>
                <value>組織図には載らない 議事録にも残らない</value>
              </parameter>
            </effect>
          </generatoritem>
          <generatoritem id="subtitle-30">
            <name>Subtitle 30</name>
            <enabled>TRUE</enabled>
            <duration>71</duration>
            <rate>
              <timebase>30</timebase>
              <ntsc>TRUE</ntsc>
            </rate>
            <start>3944</start>
            <end>4015</end>
            <in>0</in>
            <out>71</out>
            <effect>
              <name>Text</name>
              <effectid>Text</effectid>
              <effectcategory>Text</effectcategory>
              <effecttype>generator</effecttype>
              <mediatype>video</mediatype>
              <parameter>
                <parameterid>str</parameterid>
                <name>Text</name>
                <value>古代中国の思想家・韓非子は 人を動かす『術』の本質をこう説きました</value>
              </parameter>
            </effect>
          </generatoritem>
          <generatoritem id="subtitle-31">
            <name>Subtitle 31</name>
            <enabled>TRUE</enabled>
            <duration>80</duration>
            <rate>
              <timebase>30</timebase>
              <ntsc>TRUE</ntsc>
            </rate>
            <start>4025</start>
            <end>4105</end>
            <in>0</in>
            <out>80</out>
            <effect>
              <name>Text</name>
              <effectid>Text</effectid>
              <effectcategory>Text</effectcategory>
              <effecttype>generator</effecttype>
              <mediatype>video</mediatype>
              <parameter>
                <parameterid>str</parameterid>
                <name>Text</name>
                <value>『術は 見えざるところに在り』</value>
              </parameter>
            </effect>
          </generatoritem>
          <generatoritem id="subtitle-32">
            <name>Subtitle 32</name>
            <enabled>TRUE</enabled>
            <duration>80</duration>
            <rate>
              <timebase>30</timebase>
              <ntsc>TRUE</ntsc>
            </rate>
            <start>4105</start>
            <end>4185</end>
            <in>0</in>
            <out>80</out>
            <effect>
              <name>Text</name>
              <effectid>Text</effectid>
              <effectcategory>Text</effectcategory>
              <effecttype>generator</effecttype>
              <mediatype>video</mediatype>
              <parameter>
                <parameterid>str</parameterid>
                <name>Text</name>
                <value>本当の影響力は 目に見える命令や権限の中にはありません</value>
              </parameter>
            </effect>
          </generatoritem>
          <generatoritem id="subtitle-33">
            <name>Subtitle 33</name>
            <enabled>TRUE</enabled>
            <duration>190</duration>
            <rate>
              <timebase>30</timebase>
              <ntsc>TRUE</ntsc>
            </rate>
            <start>4195</start>
            <end>4385</end>
            <in>0</in>
            <out>190</out>
            <effect>
              <name>Text</name>
              <effectid>Text</effectid>
              <effectcategory>Text</effectcategory>
              <effecttype>generator</effecttype>
              <mediatype>video</mediatype>
              <parameter>
                <parameterid>str</parameterid>
                <name>Text</name>
                <value>誰が感情的な緩衝材になっているか</value>
              </parameter>
            </effect>
          </generatoritem>
          <generatoritem id="subtitle-34">
            <name>Subtitle 34</name>
            <enabled>TRUE</enabled>
            <duration>190</duration>
            <rate>
              <timebase>30</timebase>
              <ntsc>TRUE</ntsc>
            </rate>
            <start>4385</start>
            <end>4575</end>
            <in>0</in>
            <out>190</out>
            <effect>
              <name>Text</name>
              <effectid>Text</effectid>
              <effectcategory>Text</effectcategory>
              <effecttype>generator</effecttype>
              <mediatype>video</mediatype>
              <parameter>
                <parameterid>str</parameterid>
                <name>Text</name>
                <value>ナンバー2の仕事の多くは この『非公式組織』の中にあります</value>
              </parameter>
            </effect>
          </generatoritem>
          <generatoritem id="subtitle-35">
            <name>Subtitle 35</name>
            <enabled>TRUE</enabled>
            <duration>190</duration>
            <rate>
              <timebase>30</timebase>
              <ntsc>TRUE</ntsc>
            </rate>
            <start>4575</start>
            <end>4765</end>
            <in>0</in>
            <out>190</out>
            <effect>
              <name>Text</name>
              <effectid>Text</effectid>
              <effectcategory>Text</effectcategory>
              <effecttype>generator</effecttype>
              <mediatype>video</mediatype>
              <parameter>
                <parameterid>str</parameterid>
                <name>Text</name>
                <value>でも それがなければ組織は崩壊する</value>
              </parameter>
            </effect>
          </generatoritem>
          <generatoritem id="subtitle-36">
            <name>Subtitle 36</name>
            <enabled>TRUE</enabled>
            <duration>190</duration>
            <rate>
              <timebase>30</timebase>
              <ntsc>TRUE</ntsc>
            </rate>
            <start>4765</start>
            <end>4955</end>
            <in>0</in>
            <out>190</out>
            <effect>
              <name>Text</name>
              <effectid>Text</effectid>
              <effectcategory>Text</effectcategory>
              <effecttype>generator</effecttype>
              <mediatype>video</mediatype>
              <parameter>
                <parameterid>str</parameterid>
                <name>Text</name>
                <value>韓非子は これを君主のための技術として書きました</value>
              </parameter>
            </effect>
          </generatoritem>
          <generatoritem id="subtitle-37">
            <name>Subtitle 37</name>
            <enabled>TRUE</enabled>
            <duration>105</duration>
            <rate>
              <timebase>30</timebase>
              <ntsc>TRUE</ntsc>
            </rate>
            <start>5277</start>
            <end>5382</end>
            <in>0</in>
            <out>105</out>
            <effect>
              <name>Text</name>
              <effectid>Text</effectid>
              <effectcategory>Text</effectcategory>
              <effecttype>generator</effecttype>
              <mediatype>video</mediatype>
              <parameter>
                <parameterid>str</parameterid>
                <name>Text</name>
                <value>でも実は その決断に必要な情報を揃え 選択肢を絞り タイミングを計っていたのは——</value>
              </parameter>
            </effect>
          </generatoritem>
          <generatoritem id="subtitle-38">
            <name>Subtitle 38</name>
            <enabled>TRUE</enabled>
            <duration>441</duration>
            <rate>
              <timebase>30</timebase>
              <ntsc>TRUE</ntsc>
            </rate>
            <start>5392</start>
            <end>5833</end>
            <in>0</in>
            <out>441</out>
            <effect>
              <name>Text</name>
              <effectid>Text</effectid>
              <effectcategory>Text</effectcategory>
              <effecttype>generator</effecttype>
              <mediatype>video</mediatype>
              <parameter>
                <parameterid>str</parameterid>
                <name>Text</name>
                <value>見えない『術』の使い手は 玉座に座る者とは限らないのです</value>
              </parameter>
            </effect>
          </generatoritem>
          <generatoritem id="subtitle-39">
            <name>Subtitle 39</name>
            <enabled>TRUE</enabled>
            <duration>34</duration>
            <rate>
              <timebase>30</timebase>
              <ntsc>TRUE</ntsc>
            </rate>
            <start>5843</start>
            <end>5877</end>
            <in>0</in>
            <out>34</out>
            <effect>
              <name>Text</name>
              <effectid>Text</effectid>
              <effectcategory>Text</effectcategory>
              <effecttype>generator</effecttype>
              <mediatype>video</mediatype>
              <parameter>
                <parameterid>str</parameterid>
                <name>Text</name>
                <value>江戸時代の剣豪・宮本武蔵は 『五輪書』の『水之巻』でこう記しました</value>
              </parameter>
            </effect>
          </generatoritem>
          <generatoritem id="subtitle-40">
            <name>Subtitle 40</name>
            <enabled>TRUE</enabled>
            <duration>34</duration>
            <rate>
              <timebase>30</timebase>
              <ntsc>TRUE</ntsc>
            </rate>
            <start>5877</start>
            <end>5911</end>
            <in>0</in>
            <out>34</out>
            <effect>
              <name>Text</name>
              <effectid>Text</effectid>
              <effectcategory>Text</effectcategory>
              <effecttype>generator</effecttype>
              <mediatype>video</mediatype>
              <parameter>
                <parameterid>str</parameterid>
                <name>Text</name>
                <value>『水の如く 形を持たず』</value>
              </parameter>
            </effect>
          </generatoritem>
          <generatoritem id="subtitle-41">
            <name>Subtitle 41</name>
            <enabled>TRUE</enabled>
            <duration>193</duration>
            <rate>
              <timebase>30</timebase>
              <ntsc>TRUE</ntsc>
            </rate>
            <start>6065</start>
            <end>6258</end>
            <in>0</in>
            <out>193</out>
            <effect>
              <name>Text</name>
              <effectid>Text</effectid>
              <effectcategory>Text</effectcategory>
              <effecttype>generator</effecttype>
              <mediatype>video</mediatype>
              <parameter>
                <parameterid>str</parameterid>
                <name>Text</name>
                <value>相手に『自分が決めた』と思わせながら 実は状況全体を整えている そんな見えない力</value>
              </parameter>
            </effect>
          </generatoritem>
          <generatoritem id="subtitle-42">
            <name>Subtitle 42</name>
            <enabled>TRUE</enabled>
            <duration>194</duration>
            <rate>
              <timebase>30</timebase>
              <ntsc>TRUE</ntsc>
            </rate>
            <start>6258</start>
            <end>6452</end>
            <in>0</in>
            <out>194</out>
            <effect>
              <name>Text</name>
              <effectid>Text</effectid>
              <effectcategory>Text</effectcategory>
              <effecttype>generator</effecttype>
              <mediatype>video</mediatype>
              <parameter>
                <parameterid>str</parameterid>
                <name>Text</name>
                <value>現代の組織で その『術』を実際に使っているのは 誰でしょうか</value>
              </parameter>
            </effect>
          </generatoritem>
          <generatoritem id="subtitle-43">
            <name>Subtitle 43</name>
            <enabled>TRUE</enabled>
            <duration>193</duration>
            <rate>
              <timebase>30</timebase>
              <ntsc>TRUE</ntsc>
            </rate>
            <start>6452</start>
            <end>6645</end>
            <in>0</in>
            <out>193</out>
            <effect>
              <name>Text</name>
              <effectid>Text</effectid>
              <effectcategory>Text</effectcategory>
              <effecttype>generator</effecttype>
              <mediatype>video</mediatype>
              <parameter>
                <parameterid>str</parameterid>
                <name>Text</name>
                <value>上司が『自分で決断した』と思っている</value>
              </parameter>
            </effect>
          </generatoritem>
          <generatoritem id="subtitle-44">
            <name>Subtitle 44</name>
            <enabled>TRUE</enabled>
            <duration>193</duration>
            <rate>
              <timebase>30</timebase>
              <ntsc>TRUE</ntsc>
            </rate>
            <start>6645</start>
            <end>6838</end>
            <in>0</in>
            <out>193</out>
            <effect>
              <name>Text</name>
              <effectid>Text</effectid>
              <effectcategory>Text</effectcategory>
              <effecttype>generator</effecttype>
              <mediatype>video</mediatype>
              <parameter>
                <parameterid>str</parameterid>
                <name>Text</name>
                <value>影にいるあなたかもしれません</value>
              </parameter>
            </effect>
          </generatoritem>
          <generatoritem id="subtitle-45">
            <name>Subtitle 45</name>
            <enabled>TRUE</enabled>
            <duration>194</duration>
            <rate>
              <timebase>30</timebase>
              <ntsc>TRUE</ntsc>
            </rate>
            <start>6838</start>
            <end>7032</end>
            <in>0</in>
            <out>194</out>
            <effect>
              <name>Text</name>
              <effectid>Text</effectid>
              <effectcategory>Text</effectcategory>
              <effecttype>generator</effecttype>
              <mediatype>video</mediatype>
              <parameter>
                <parameterid>str</parameterid>
                <name>Text</name>
                <value>しかし その柔軟さこそが 水の強さです</value>
              </parameter>
            </effect>
          </generatoritem>
          <generatoritem id="subtitle-46">
            <name>Subtitle 46</name>
            <enabled>TRUE</enabled>
            <duration>113</duration>
            <rate>
              <timebase>30</timebase>
              <ntsc>TRUE</ntsc>
            </rate>
            <start>7802</start>
            <end>7915</end>
            <in>0</in>
            <out>113</out>
            <effect>
              <name>Text</name>
              <effectid>Text</effectid>
              <effectcategory>Text</effectcategory>
              <effecttype>generator</effecttype>
              <mediatype>video</mediatype>
              <parameter>
                <parameterid>str</parameterid>
                <name>Text</name>
                <value>水は 器に従って形を変える</value>
              </parameter>
            </effect>
          </generatoritem>
          <generatoritem id="subtitle-47">
            <name>Subtitle 47</name>
            <enabled>TRUE</enabled>
            <duration>113</duration>
            <rate>
              <timebase>30</timebase>
              <ntsc>TRUE</ntsc>
            </rate>
            <start>7915</start>
            <end>8028</end>
            <in>0</in>
            <out>113</out>
            <effect>
              <name>Text</name>
              <effectid>Text</effectid>
              <effectcategory>Text</effectcategory>
              <effecttype>generator</effecttype>
              <mediatype>video</mediatype>
              <parameter>
                <parameterid>str</parameterid>
                <name>Text</name>
                <value>四角い器なら四角に 丸い器なら丸く</value>
              </parameter>
            </effect>
          </generatoritem>
          <generatoritem id="subtitle-48">
            <name>Subtitle 48</name>
            <enabled>TRUE</enabled>
            <duration>113</duration>
            <rate>
              <timebase>30</timebase>
              <ntsc>TRUE</ntsc>
            </rate>
            <start>8028</start>
            <end>8141</end>
            <in>0</in>
            <out>113</out>
            <effect>
              <name>Text</name>
              <effectid>Text</effectid>
              <effectcategory>Text</effectcategory>
              <effecttype>generator</effecttype>
              <mediatype>video</mediatype>
              <parameter>
                <parameterid>str</parameterid>
                <name>Text</name>
                <value>岩を穿つのは 硬い鉄ではなく 柔らかい水の滴り</value>
              </parameter>
            </effect>
          </generatoritem>
          <generatoritem id="subtitle-49">
            <name>Subtitle 49</name>
            <enabled>TRUE</enabled>
            <duration>114</duration>
            <rate>
              <timebase>30</timebase>
              <ntsc>TRUE</ntsc>
            </rate>
            <start>8141</start>
            <end>8255</end>
            <in>0</in>
            <out>114</out>
            <effect>
              <name>Text</name>
              <effectid>Text</effectid>
              <effectcategory>Text</effectcategory>
              <effecttype>generator</effecttype>
              <mediatype>video</mediatype>
              <parameter>
                <parameterid>str</parameterid>
                <name>Text</name>
                <value>触媒がなければ 反応は起こらないか 極めて遅くなる</value>
              </parameter>
            </effect>
          </generatoritem>
          <generatoritem id="subtitle-50">
            <name>Subtitle 50</name>
            <enabled>TRUE</enabled>
            <duration>113</duration>
            <rate>
              <timebase>30</timebase>
              <ntsc>TRUE</ntsc>
            </rate>
            <start>8255</start>
            <end>8368</end>
            <in>0</in>
            <out>113</out>
            <effect>
              <name>Text</name>
              <effectid>Text</effectid>
              <effectcategory>Text</effectcategory>
              <effecttype>generator</effecttype>
              <mediatype>video</mediatype>
              <parameter>
                <parameterid>str</parameterid>
                <name>Text</name>
                <value>しかし 反応が終わった後 触媒はそこにいたことの痕跡を残さない</value>
              </parameter>
            </effect>
          </generatoritem>
          <generatoritem id="subtitle-51">
            <name>Subtitle 51</name>
            <enabled>TRUE</enabled>
            <duration>128</duration>
            <rate>
              <timebase>30</timebase>
              <ntsc>TRUE</ntsc>
            </rate>
            <start>8378</start>
            <end>8506</end>
            <in>0</in>
            <out>128</out>
            <effect>
              <name>Text</name>
              <effectid>Text</effectid>
              <effectcategory>Text</effectcategory>
              <effecttype>generator</effecttype>
              <mediatype>video</mediatype>
              <parameter>
                <parameterid>str</parameterid>
                <name>Text</name>
                <value>ナンバー2に求められるのは この『水』の性質かもしれません</value>
              </parameter>
            </effect>
          </generatoritem>
          <generatoritem id="subtitle-52">
            <name>Subtitle 52</name>
            <enabled>TRUE</enabled>
            <duration>128</duration>
            <rate>
              <timebase>30</timebase>
              <ntsc>TRUE</ntsc>
            </rate>
            <start>8506</start>
            <end>8634</end>
            <in>0</in>
            <out>128</out>
            <effect>
              <name>Text</name>
              <effectid>Text</effectid>
              <effectcategory>Text</effectcategory>
              <effecttype>generator</effecttype>
              <mediatype>video</mediatype>
              <parameter>
                <parameterid>str</parameterid>
                <name>Text</name>
                <value>状況に応じて形を変え 隙間に入り込み 障害を迂回する</value>
              </parameter>
            </effect>
          </generatoritem>
          <generatoritem id="subtitle-53">
            <name>Subtitle 53</name>
            <enabled>TRUE</enabled>
            <duration>128</duration>
            <rate>
              <timebase>30</timebase>
              <ntsc>TRUE</ntsc>
            </rate>
            <start>8634</start>
            <end>8762</end>
            <in>0</in>
            <out>128</out>
            <effect>
              <name>Text</name>
              <effectid>Text</effectid>
              <effectcategory>Text</effectcategory>
              <effecttype>generator</effecttype>
              <mediatype>video</mediatype>
              <parameter>
                <parameterid>str</parameterid>
                <name>Text</name>
                <value>自己主張しない でも 確実に浸透していく</value>
              </parameter>
            </effect>
          </generatoritem>
          <generatoritem id="subtitle-54">
            <name>Subtitle 54</name>
            <enabled>TRUE</enabled>
            <duration>129</duration>
            <rate>
              <timebase>30</timebase>
              <ntsc>TRUE</ntsc>
            </rate>
            <start>8762</start>
            <end>8891</end>
            <in>0</in>
            <out>129</out>
            <effect>
              <name>Text</name>
              <effectid>Text</effectid>
              <effectcategory>Text</effectcategory>
              <effecttype>generator</effecttype>
              <mediatype>video</mediatype>
              <parameter>
                <parameterid>str</parameterid>
                <name>Text</name>
                <value>生成物の中に 触媒の名前は刻まれない</value>
              </parameter>
            </effect>
          </generatoritem>
          <generatoritem id="subtitle-55">
            <name>Subtitle 55</name>
            <enabled>TRUE</enabled>
            <duration>29</duration>
            <rate>
              <timebase>30</timebase>
              <ntsc>TRUE</ntsc>
            </rate>
            <start>8901</start>
            <end>8930</end>
            <in>0</in>
            <out>29</out>
            <effect>
              <name>Text</name>
              <effectid>Text</effectid>
              <effectcategory>Text</effectcategory>
              <effecttype>generator</effecttype>
              <mediatype>video</mediatype>
              <parameter>
                <parameterid>str</parameterid>
                <name>Text</name>
                <value>化学に『触媒』という概念があります</value>
              </parameter>
            </effect>
          </generatoritem>
          <generatoritem id="subtitle-56">
            <name>Subtitle 56</name>
            <enabled>TRUE</enabled>
            <duration>30</duration>
            <rate>
              <timebase>30</timebase>
              <ntsc>TRUE</ntsc>
            </rate>
            <start>8930</start>
            <end>8960</end>
            <in>0</in>
            <out>30</out>
            <effect>
              <name>Text</name>
              <effectid>Text</effectid>
              <effectcategory>Text</effectcategory>
              <effecttype>generator</effecttype>
              <mediatype>video</mediatype>
              <parameter>
                <parameterid>str</parameterid>
                <name>Text</name>
                <value>プロジェクトを加速させ 化学反応を起こす でも 成果物に自分の名前は残らない</value>
              </parameter>
            </effect>
          </generatoritem>
          <generatoritem id="subtitle-57">
            <name>Subtitle 57</name>
            <enabled>TRUE</enabled>
            <duration>29</duration>
            <rate>
              <timebase>30</timebase>
              <ntsc>TRUE</ntsc>
            </rate>
            <start>8960</start>
            <end>8989</end>
            <in>0</in>
            <out>29</out>
            <effect>
              <name>Text</name>
              <effectid>Text</effectid>
              <effectcategory>Text</effectcategory>
              <effecttype>generator</effecttype>
              <mediatype>video</mediatype>
              <parameter>
                <parameterid>str</parameterid>
                <name>Text</name>
                <value>それでも 触媒がなければ その反応は起こらなかった</value>
              </parameter>
            </effect>
          </generatoritem>
          <generatoritem id="subtitle-58">
            <name>Subtitle 58</name>
            <enabled>TRUE</enabled>
            <duration>30</duration>
            <rate>
              <timebase>30</timebase>
              <ntsc>TRUE</ntsc>
            </rate>
            <start>8989</start>
            <end>9019</end>
            <in>0</in>
            <out>30</out>
            <effect>
              <name>Text</name>
              <effectid>Text</effectid>
              <effectcategory>Text</effectcategory>
              <effecttype>generator</effecttype>
              <mediatype>video</mediatype>
              <parameter>
                <parameterid>str</parameterid>
                <name>Text</name>
                <value>ゲシュタルト心理学に『図と地』という概念があります</value>
              </parameter>
            </effect>
          </generatoritem>
          <generatoritem id="subtitle-59">
            <name>Subtitle 59</name>
            <enabled>TRUE</enabled>
            <duration>371</duration>
            <rate>
              <timebase>30</timebase>
              <ntsc>TRUE</ntsc>
            </rate>
            <start>9465</start>
            <end>9836</end>
            <in>0</in>
            <out>371</out>
            <effect>
              <name>Text</name>
              <effectid>Text</effectid>
              <effectcategory>Text</effectcategory>
              <effecttype>generator</effecttype>
              <mediatype>video</mediatype>
              <parameter>
                <parameterid>str</parameterid>
                <name>Text</name>
                <value>有名な『ルビンの壺』を思い出してください</value>
              </parameter>
            </effect>
          </generatoritem>
          <generatoritem id="subtitle-60">
            <name>Subtitle 60</name>
            <enabled>TRUE</enabled>
            <duration>399</duration>
            <rate>
              <timebase>30</timebase>
              <ntsc>TRUE</ntsc>
            </rate>
            <start>9846</start>
            <end>10245</end>
            <in>0</in>
            <out>399</out>
            <effect>
              <name>Text</name>
              <effectid>Text</effectid>
              <effectcategory>Text</effectcategory>
              <effecttype>generator</effecttype>
              <mediatype>video</mediatype>
              <parameter>
                <parameterid>str</parameterid>
                <name>Text</name>
                <value>触媒とは 化学反応を加速させるが 自分自身は変化しない物質のこと</value>
              </parameter>
            </effect>
          </generatoritem>
          <generatoritem id="subtitle-61">
            <name>Subtitle 61</name>
            <enabled>TRUE</enabled>
            <duration>123</duration>
            <rate>
              <timebase>30</timebase>
              <ntsc>TRUE</ntsc>
            </rate>
            <start>10255</start>
            <end>10378</end>
            <in>0</in>
            <out>123</out>
            <effect>
              <name>Text</name>
              <effectid>Text</effectid>
              <effectcategory>Text</effectcategory>
              <effecttype>generator</effecttype>
              <mediatype>video</mediatype>
              <parameter>
                <parameterid>str</parameterid>
                <name>Text</name>
                <value>ナンバー2の仕事は 触媒に似ています</value>
              </parameter>
            </effect>
          </generatoritem>
          <generatoritem id="subtitle-62">
            <name>Subtitle 62</name>
            <enabled>TRUE</enabled>
            <duration>122</duration>
            <rate>
              <timebase>30</timebase>
              <ntsc>TRUE</ntsc>
            </rate>
            <start>10378</start>
            <end>10500</end>
            <in>0</in>
            <out>122</out>
            <effect>
              <name>Text</name>
              <effectid>Text</effectid>
              <effectcategory>Text</effectcategory>
              <effecttype>generator</effecttype>
              <mediatype>video</mediatype>
              <parameter>
                <parameterid>str</parameterid>
                <name>Text</name>
                <value>『自分がいなくても同じだった』は 錯覚です</value>
              </parameter>
            </effect>
          </generatoritem>
          <generatoritem id="subtitle-63">
            <name>Subtitle 63</name>
            <enabled>TRUE</enabled>
            <duration>154</duration>
            <rate>
              <timebase>30</timebase>
              <ntsc>TRUE</ntsc>
            </rate>
            <start>10888</start>
            <end>11042</end>
            <in>0</in>
            <out>154</out>
            <effect>
              <name>Text</name>
              <effectid>Text</effectid>
              <effectcategory>Text</effectcategory>
              <effecttype>generator</effecttype>
              <mediatype>video</mediatype>
              <parameter>
                <parameterid>str</parameterid>
                <name>Text</name>
                <value>白い部分を見れば『壺』が見える</value>
              </parameter>
            </effect>
          </generatoritem>
          <generatoritem id="subtitle-64">
            <name>Subtitle 64</name>
            <enabled>TRUE</enabled>
            <duration>153</duration>
            <rate>
              <timebase>30</timebase>
              <ntsc>TRUE</ntsc>
            </rate>
            <start>11042</start>
            <end>11195</end>
            <in>0</in>
            <out>153</out>
            <effect>
              <name>Text</name>
              <effectid>Text</effectid>
              <effectcategory>Text</effectcategory>
              <effecttype>generator</effecttype>
              <mediatype>video</mediatype>
              <parameter>
                <parameterid>str</parameterid>
                <name>Text</name>
                <value>黒い部分を見れば 『向かい合う二つの顔』が見える</value>
              </parameter>
            </effect>
          </generatoritem>
          <generatoritem id="subtitle-65">
            <name>Subtitle 65</name>
            <enabled>TRUE</enabled>
            <duration>176</duration>
            <rate>
              <timebase>30</timebase>
              <ntsc>TRUE</ntsc>
            </rate>
            <start>11205</start>
            <end>11381</end>
            <in>0</in>
            <out>176</out>
            <effect>
              <name>Text</name>
              <effectid>Text</effectid>
              <effectcategory>Text</effectcategory>
              <effecttype>generator</effecttype>
              <mediatype>video</mediatype>
              <parameter>
                <parameterid>str</parameterid>
                <name>Text</name>
                <value>どちらが『図 主役』で どちらが『地 背景』かは 見方によって反転する</value>
              </parameter>
            </effect>
          </generatoritem>
          <generatoritem id="subtitle-66">
            <name>Subtitle 66</name>
            <enabled>TRUE</enabled>
            <duration>176</duration>
            <rate>
              <timebase>30</timebase>
              <ntsc>TRUE</ntsc>
            </rate>
            <start>11381</start>
            <end>11557</end>
            <in>0</in>
            <out>176</out>
            <effect>
              <name>Text</name>
              <effectid>Text</effectid>
              <effectcategory>Text</effectcategory>
              <effecttype>generator</effecttype>
              <mediatype>video</mediatype>
              <parameter>
                <parameterid>str</parameterid>
                <name>Text</name>
                <value>そして重要なのは 地がなければ 図は存在できないということ</value>
              </parameter>
            </effect>
          </generatoritem>
          <generatoritem id="subtitle-67">
            <name>Subtitle 67</name>
            <enabled>TRUE</enabled>
            <duration>176</duration>
            <rate>
              <timebase>30</timebase>
              <ntsc>TRUE</ntsc>
            </rate>
            <start>11557</start>
            <end>11733</end>
            <in>0</in>
            <out>176</out>
            <effect>
              <name>Text</name>
              <effectid>Text</effectid>
              <effectcategory>Text</effectcategory>
              <effecttype>generator</effecttype>
              <mediatype>video</mediatype>
              <parameter>
                <parameterid>str</parameterid>
                <name>Text</name>
                <value>背景があるから 主役が浮かび上がる</value>
              </parameter>
            </effect>
          </generatoritem>
          <generatoritem id="subtitle-68">
            <name>Subtitle 68</name>
            <enabled>TRUE</enabled>
            <duration>157</duration>
            <rate>
              <timebase>30</timebase>
              <ntsc>TRUE</ntsc>
            </rate>
            <start>11743</start>
            <end>11900</end>
            <in>0</in>
            <out>157</out>
            <effect>
              <name>Text</name>
              <effectid>Text</effectid>
              <effectcategory>Text</effectcategory>
              <effecttype>generator</effecttype>
              <mediatype>video</mediatype>
              <parameter>
                <parameterid>str</parameterid>
                <name>Text</name>
                <value>ナンバー2は『地』かもしれません でも 『地』なき『図』はありえない</value>
              </parameter>
            </effect>
          </generatoritem>
          <generatoritem id="subtitle-69">
            <name>Subtitle 69</name>
            <enabled>TRUE</enabled>
            <duration>157</duration>
            <rate>
              <timebase>30</timebase>
              <ntsc>TRUE</ntsc>
            </rate>
            <start>11900</start>
            <end>12057</end>
            <in>0</in>
            <out>157</out>
            <effect>
              <name>Text</name>
              <effectid>Text</effectid>
              <effectcategory>Text</effectcategory>
              <effecttype>generator</effecttype>
              <mediatype>video</mediatype>
              <parameter>
                <parameterid>str</parameterid>
                <name>Text</name>
                <value>あなたがいるから 上司は『図』として輝ける</value>
              </parameter>
            </effect>
          </generatoritem>
          <generatoritem id="subtitle-70">
            <name>Subtitle 70</name>
            <enabled>TRUE</enabled>
            <duration>55</duration>
            <rate>
              <timebase>30</timebase>
              <ntsc>TRUE</ntsc>
            </rate>
            <start>12067</start>
            <end>12122</end>
            <in>0</in>
            <out>55</out>
            <effect>
              <name>Text</name>
              <effectid>Text</effectid>
              <effectcategory>Text</effectcategory>
              <effecttype>generator</effecttype>
              <mediatype>video</mediatype>
              <parameter>
                <parameterid>str</parameterid>
                <name>Text</name>
                <value>それは従属ではありません</value>
              </parameter>
            </effect>
          </generatoritem>
          <generatoritem id="subtitle-71">
            <name>Subtitle 71</name>
            <enabled>TRUE</enabled>
            <duration>54</duration>
            <rate>
              <timebase>30</timebase>
              <ntsc>TRUE</ntsc>
            </rate>
            <start>12122</start>
            <end>12176</end>
            <in>0</in>
            <out>54</out>
            <effect>
              <name>Text</name>
              <effectid>Text</effectid>
              <effectcategory>Text</effectcategory>
              <effecttype>generator</effecttype>
              <mediatype>video</mediatype>
              <parameter>
                <parameterid>str</parameterid>
                <name>Text</name>
                <value>『図』と『地』は 互いを成り立たせている対等な関係なのです</value>
              </parameter>
            </effect>
          </generatoritem>
          <generatoritem id="subtitle-72">
            <name>Subtitle 72</name>
            <enabled>TRUE</enabled>
            <duration>54</duration>
            <rate>
              <timebase>30</timebase>
              <ntsc>TRUE</ntsc>
            </rate>
            <start>12176</start>
            <end>12230</end>
            <in>0</in>
            <out>54</out>
            <effect>
              <name>Text</name>
              <effectid>Text</effectid>
              <effectcategory>Text</effectcategory>
              <effecttype>generator</effecttype>
              <mediatype>video</mediatype>
              <parameter>
                <parameterid>str</parameterid>
                <name>Text</name>
                <value>バーナードが見抜いたように 組織を動かしているのは見えない関係性</value>
              </parameter>
            </effect>
          </generatoritem>
          <generatoritem id="subtitle-73">
            <name>Subtitle 73</name>
            <enabled>TRUE</enabled>
            <duration>54</duration>
            <rate>
              <timebase>30</timebase>
              <ntsc>TRUE</ntsc>
            </rate>
            <start>12230</start>
            <end>12284</end>
            <in>0</in>
            <out>54</out>
            <effect>
              <name>Text</name>
              <effectid>Text</effectid>
              <effectcategory>Text</effectcategory>
              <effecttype>generator</effecttype>
              <mediatype>video</mediatype>
              <parameter>
                <parameterid>str</parameterid>
                <name>Text</name>
                <value>それは 組織という絵画を成り立たせる 不可欠な『地』であることなのです</value>
              </parameter>
            </effect>
          </generatoritem>
          <generatoritem id="subtitle-74">
            <name>Subtitle 74</name>
            <enabled>TRUE</enabled>
            <duration>45</duration>
            <rate>
              <timebase>30</timebase>
              <ntsc>TRUE</ntsc>
            </rate>
            <start>12294</start>
            <end>12339</end>
            <in>0</in>
            <out>45</out>
            <effect>
              <name>Text</name>
              <effectid>Text</effectid>
              <effectcategory>Text</effectcategory>
              <effecttype>generator</effecttype>
              <mediatype>video</mediatype>
              <parameter>
                <parameterid>str</parameterid>
                <name>Text</name>
                <value>明日も会議がある</value>
              </parameter>
            </effect>
          </generatoritem>
          <generatoritem id="subtitle-75">
            <name>Subtitle 75</name>
            <enabled>TRUE</enabled>
            <duration>44</duration>
            <rate>
              <timebase>30</timebase>
              <ntsc>TRUE</ntsc>
            </rate>
            <start>12339</start>
            <end>12383</end>
            <in>0</in>
            <out>44</out>
            <effect>
              <name>Text</name>
              <effectid>Text</effectid>
              <effectcategory>Text</effectcategory>
              <effecttype>generator</effecttype>
              <mediatype>video</mediatype>
              <parameter>
                <parameterid>str</parameterid>
                <name>Text</name>
                <value>上司が発言し あなたは横で控えている</value>
              </parameter>
            </effect>
          </generatoritem>
          <generatoritem id="subtitle-76">
            <name>Subtitle 76</name>
            <enabled>TRUE</enabled>
            <duration>44</duration>
            <rate>
              <timebase>30</timebase>
              <ntsc>TRUE</ntsc>
            </rate>
            <start>12383</start>
            <end>12427</end>
            <in>0</in>
            <out>44</out>
            <effect>
              <name>Text</name>
              <effectid>Text</effectid>
              <effectcategory>Text</effectcategory>
              <effecttype>generator</effecttype>
              <mediatype>video</mediatype>
              <parameter>
                <parameterid>str</parameterid>
                <name>Text</name>
                <value>韓非子が説いた『術』を 実は使っているのはあなた</value>
              </parameter>
            </effect>
          </generatoritem>
          <generatoritem id="subtitle-77">
            <name>Subtitle 77</name>
            <enabled>TRUE</enabled>
            <duration>45</duration>
            <rate>
              <timebase>30</timebase>
              <ntsc>TRUE</ntsc>
            </rate>
            <start>12427</start>
            <end>12472</end>
            <in>0</in>
            <out>45</out>
            <effect>
              <name>Text</name>
              <effectid>Text</effectid>
              <effectcategory>Text</effectcategory>
              <effecttype>generator</effecttype>
              <mediatype>video</mediatype>
              <parameter>
                <parameterid>str</parameterid>
                <name>Text</name>
                <value>武蔵が示したように 水は形を持たないからこそ強い</value>
              </parameter>
            </effect>
          </generatoritem>
          <generatoritem id="subtitle-78">
            <name>Subtitle 78</name>
            <enabled>TRUE</enabled>
            <duration>29</duration>
            <rate>
              <timebase>30</timebase>
              <ntsc>TRUE</ntsc>
            </rate>
            <start>12482</start>
            <end>12511</end>
            <in>0</in>
            <out>29</out>
            <effect>
              <name>Text</name>
              <effectid>Text</effectid>
              <effectcategory>Text</effectcategory>
              <effecttype>generator</effecttype>
              <mediatype>video</mediatype>
              <parameter>
                <parameterid>str</parameterid>
                <name>Text</name>
                <value>しかし 考えてみてください</value>
              </parameter>
            </effect>
          </generatoritem>
          <generatoritem id="subtitle-79">
            <name>Subtitle 79</name>
            <enabled>TRUE</enabled>
            <duration>29</duration>
            <rate>
              <timebase>30</timebase>
              <ntsc>TRUE</ntsc>
            </rate>
            <start>12511</start>
            <end>12540</end>
            <in>0</in>
            <out>29</out>
            <effect>
              <name>Text</name>
              <effectid>Text</effectid>
              <effectcategory>Text</effectcategory>
              <effecttype>generator</effecttype>
              <mediatype>video</mediatype>
              <parameter>
                <parameterid>str</parameterid>
                <name>Text</name>
                <value>でも 少しだけ視点を変えてみてください</value>
              </parameter>
            </effect>
          </generatoritem>
          <generatoritem id="subtitle-80">
            <name>Subtitle 80</name>
            <enabled>TRUE</enabled>
            <duration>29</duration>
            <rate>
              <timebase>30</timebase>
              <ntsc>TRUE</ntsc>
            </rate>
            <start>12540</start>
            <end>12569</end>
            <in>0</in>
            <out>29</out>
            <effect>
              <name>Text</name>
              <effectid>Text</effectid>
              <effectcategory>Text</effectcategory>
              <effecttype>generator</effecttype>
              <mediatype>video</mediatype>
              <parameter>
                <parameterid>str</parameterid>
                <name>Text</name>
                <value>触媒のように あなたがいるから反応は加速する</value>
              </parameter>
            </effect>
          </generatoritem>
          <generatoritem id="subtitle-81">
            <name>Subtitle 81</name>
            <enabled>TRUE</enabled>
            <duration>30</duration>
            <rate>
              <timebase>30</timebase>
              <ntsc>TRUE</ntsc>
            </rate>
            <start>12569</start>
            <end>12599</end>
            <in>0</in>
            <out>30</out>
            <effect>
              <name>Text</name>
              <effectid>Text</effectid>
              <effectcategory>Text</effectcategory>
              <effecttype>generator</effecttype>
              <mediatype>video</mediatype>
              <parameter>
                <parameterid>str</parameterid>
                <name>Text</name>
                <value>そして 『地』がなければ『図』は浮かび上がらない</value>
              </parameter>
            </effect>
          </generatoritem>
          <generatoritem id="subtitle-82">
            <name>Subtitle 82</name>
            <enabled>TRUE</enabled>
            <duration>317</duration>
            <rate>
              <timebase>30</timebase>
              <ntsc>TRUE</ntsc>
            </rate>
            <start>13046</start>
            <end>13363</end>
            <in>0</in>
            <out>317</out>
            <effect>
              <name>Text</name>
              <effectid>Text</effectid>
              <effectcategory>Text</effectcategory>
              <effecttype>generator</effecttype>
              <mediatype>video</mediatype>
              <parameter>
                <parameterid>str</parameterid>
                <name>Text</name>
                <value>夜空を見上げると オリオン座が輝いています</value>
              </parameter>
            </effect>
          </generatoritem>
          <generatoritem id="subtitle-83">
            <name>Subtitle 83</name>
            <enabled>TRUE</enabled>
            <duration>218</duration>
            <rate>
              <timebase>30</timebase>
              <ntsc>TRUE</ntsc>
            </rate>
            <start>13373</start>
            <end>13591</end>
            <in>0</in>
            <out>218</out>
            <effect>
              <name>Text</name>
              <effectid>Text</effectid>
              <effectcategory>Text</effectcategory>
              <effecttype>generator</effecttype>
              <mediatype>video</mediatype>
              <parameter>
                <parameterid>str</parameterid>
                <name>Text</name>
                <value>私たちが見ているのは 明るい星だけ</value>
              </parameter>
            </effect>
          </generatoritem>
          <generatoritem id="subtitle-84">
            <name>Subtitle 84</name>
            <enabled>TRUE</enabled>
            <duration>219</duration>
            <rate>
              <timebase>30</timebase>
              <ntsc>TRUE</ntsc>
            </rate>
            <start>13591</start>
            <end>13810</end>
            <in>0</in>
            <out>219</out>
            <effect>
              <name>Text</name>
              <effectid>Text</effectid>
              <effectcategory>Text</effectcategory>
              <effecttype>generator</effecttype>
              <mediatype>video</mediatype>
              <parameter>
                <parameterid>str</parameterid>
                <name>Text</name>
                <value>でも その星々の間には 見えない暗黒物質が満ちている</value>
              </parameter>
            </effect>
          </generatoritem>
          <generatoritem id="subtitle-85">
            <name>Subtitle 85</name>
            <enabled>TRUE</enabled>
            <duration>129</duration>
            <rate>
              <timebase>30</timebase>
              <ntsc>TRUE</ntsc>
            </rate>
            <start>13820</start>
            <end>13949</end>
            <in>0</in>
            <out>129</out>
            <effect>
              <name>Text</name>
              <effectid>Text</effectid>
              <effectcategory>Text</effectcategory>
              <effecttype>generator</effecttype>
              <mediatype>video</mediatype>
              <parameter>
                <parameterid>str</parameterid>
                <name>Text</name>
                <value>宇宙の構造を支えているのは 光ではなく 見えない質量なのです</value>
              </parameter>
            </effect>
          </generatoritem>
          <generatoritem id="subtitle-86">
            <name>Subtitle 86</name>
            <enabled>TRUE</enabled>
            <duration>129</duration>
            <rate>
              <timebase>30</timebase>
              <ntsc>TRUE</ntsc>
            </rate>
            <start>13949</start>
            <end>14078</end>
            <in>0</in>
            <out>129</out>
            <effect>
              <name>Text</name>
              <effectid>Text</effectid>
              <effectcategory>Text</effectcategory>
              <effecttype>generator</effecttype>
              <mediatype>video</mediatype>
              <parameter>
                <parameterid>str</parameterid>
                <name>Text</name>
                <value>見えないものが 見えるものを支えている</value>
              </parameter>
            </effect>
          </generatoritem>
          <generatoritem id="subtitle-87">
            <name>Subtitle 87</name>
            <enabled>TRUE</enabled>
            <duration>129</duration>
            <rate>
              <timebase>30</timebase>
              <ntsc>TRUE</ntsc>
            </rate>
            <start>14078</start>
            <end>14207</end>
            <in>0</in>
            <out>129</out>
            <effect>
              <name>Text</name>
              <effectid>Text</effectid>
              <effectcategory>Text</effectcategory>
              <effecttype>generator</effecttype>
              <mediatype>video</mediatype>
              <parameter>
                <parameterid>str</parameterid>
                <name>Text</name>
                <value>知識の星座は 見る人によって違う物語を紡ぎます</value>
              </parameter>
            </effect>
          </generatoritem>
          <generatoritem id="subtitle-88">
            <name>Subtitle 88</name>
            <enabled>TRUE</enabled>
            <duration>167</duration>
            <rate>
              <timebase>30</timebase>
              <ntsc>TRUE</ntsc>
            </rate>
            <start>14217</start>
            <end>14384</end>
            <in>0</in>
            <out>167</out>
            <effect>
              <name>Text</name>
              <effectid>Text</effectid>
              <effectcategory>Text</effectcategory>
              <effecttype>generator</effecttype>
              <mediatype>video</mediatype>
              <parameter>
                <parameterid>str</parameterid>
                <name>Text</name>
                <value>今夜 あなたの『見えない仕事』に 静かな誇りが灯りますように</value>
              </parameter>
            </effect>
          </generatoritem>
        </track>
      </video>
      <audio>
        <track>
          <clipitem id="clipitem-1">
            <name>OrionEp22_001.mp3</name>
            <enabled>TRUE</enabled>
            <duration>268</duration>
            <rate>
              <timebase>30</timebase>
              <ntsc>TRUE</ntsc>
            </rate>
            <start>0</start>
            <end>268</end>
            <in>0</in>
            <out>215412</out>
            <file id="file-1">
              <name>OrionEp22_001.mp3</name>
              <pathurl>file:///Users/delaxstudio/src/delax-ops/ops/media/orion/projects/OrionEp22/output/audio/OrionEp22_001.mp3</pathurl>
              <rate>
                <timebase>24000</timebase>
                <ntsc>FALSE</ntsc>
              </rate>
              <media>
                <audio>
                  <channelcount>1</channelcount>
                  <samplecharacteristics>
                    <samplerate>24000</samplerate>
                    <samplesize>16</samplesize>
                  </samplecharacteristics>
                </audio>
              </media>
            </file>
            <sourcetrack>
              <mediatype>audio</mediatype>
              <trackindex>1</trackindex>
            </sourcetrack>
            <comments/>
          </clipitem>
          <clipitem id="clipitem-2">
            <name>OrionEp22_002.mp3</name>
            <enabled>TRUE</enabled>
            <duration>196</duration>
            <rate>
              <timebase>30</timebase>
              <ntsc>TRUE</ntsc>
            </rate>
            <start>278</start>
            <end>474</end>
            <in>0</in>
            <out>156487</out>
            <file id="file-2">
              <name>OrionEp22_002.mp3</name>
              <pathurl>file:///Users/delaxstudio/src/delax-ops/ops/media/orion/projects/OrionEp22/output/audio/OrionEp22_002.mp3</pathurl>
              <rate>
                <timebase>24000</timebase>
                <ntsc>FALSE</ntsc>
              </rate>
              <media>
                <audio>
                  <channelcount>1</channelcount>
                  <samplecharacteristics>
                    <samplerate>24000</samplerate>
                    <samplesize>16</samplesize>
                  </samplecharacteristics>
                </audio>
              </media>
            </file>
            <sourcetrack>
              <mediatype>audio</mediatype>
              <trackindex>1</trackindex>
            </sourcetrack>
            <comments/>
          </clipitem>
          <clipitem id="clipitem-3">
            <name>OrionEp22_003.mp3</name>
            <enabled>TRUE</enabled>
            <duration>123</duration>
            <rate>
              <timebase>30</timebase>
              <ntsc>TRUE</ntsc>
            </rate>
            <start>484</start>
            <end>607</end>
            <in>0</in>
            <out>98913</out>
            <file id="file-3">
              <name>OrionEp22_003.mp3</name>
              <pathurl>file:///Users/delaxstudio/src/delax-ops/ops/media/orion/projects/OrionEp22/output/audio/OrionEp22_003.mp3</pathurl>
              <rate>
                <timebase>24000</timebase>
                <ntsc>FALSE</ntsc>
              </rate>
              <media>
                <audio>
                  <channelcount>1</channelcount>
                  <samplecharacteristics>
                    <samplerate>24000</samplerate>
                    <samplesize>16</samplesize>
                  </samplecharacteristics>
                </audio>
              </media>
            </file>
            <sourcetrack>
              <mediatype>audio</mediatype>
              <trackindex>1</trackindex>
            </sourcetrack>
            <comments/>
          </clipitem>
          <clipitem id="clipitem-4">
            <name>OrionEp22_004.mp3</name>
            <enabled>TRUE</enabled>
            <duration>214</duration>
            <rate>
              <timebase>30</timebase>
              <ntsc>TRUE</ntsc>
            </rate>
            <start>617</start>
            <end>831</end>
            <in>0</in>
            <out>171412</out>
            <file id="file-4">
              <name>OrionEp22_004.mp3</name>
              <pathurl>file:///Users/delaxstudio/src/delax-ops/ops/media/orion/projects/OrionEp22/output/audio/OrionEp22_004.mp3</pathurl>
              <rate>
                <timebase>24000</timebase>
                <ntsc>FALSE</ntsc>
              </rate>
              <media>
                <audio>
                  <channelcount>1</channelcount>
                  <samplecharacteristics>
                    <samplerate>24000</samplerate>
                    <samplesize>16</samplesize>
                  </samplecharacteristics>
                </audio>
              </media>
            </file>
            <sourcetrack>
              <mediatype>audio</mediatype>
              <trackindex>1</trackindex>
            </sourcetrack>
            <comments/>
          </clipitem>
          <clipitem id="clipitem-5">
            <name>OrionEp22_005.mp3</name>
            <enabled>TRUE</enabled>
            <duration>243</duration>
            <rate>
              <timebase>30</timebase>
              <ntsc>TRUE</ntsc>
            </rate>
            <start>841</start>
            <end>1084</end>
            <in>0</in>
            <out>193825</out>
            <file id="file-5">
              <name>OrionEp22_005.mp3</name>
              <pathurl>file:///Users/delaxstudio/src/delax-ops/ops/media/orion/projects/OrionEp22/output/audio/OrionEp22_005.mp3</pathurl>
              <rate>
                <timebase>24000</timebase>
                <ntsc>FALSE</ntsc>
              </rate>
              <media>
                <audio>
                  <channelcount>1</channelcount>
                  <samplecharacteristics>
                    <samplerate>24000</samplerate>
                    <samplesize>16</samplesize>
                  </samplecharacteristics>
                </audio>
              </media>
            </file>
            <sourcetrack>
              <mediatype>audio</mediatype>
              <trackindex>1</trackindex>
            </sourcetrack>
            <comments/>
          </clipitem>
          <clipitem id="clipitem-6">
            <name>OrionEp22_006.mp3</name>
            <enabled>TRUE</enabled>
            <duration>301</duration>
            <rate>
              <timebase>30</timebase>
              <ntsc>TRUE</ntsc>
            </rate>
            <start>1094</start>
            <end>1395</end>
            <in>0</in>
            <out>241218</out>
            <file id="file-6">
              <name>OrionEp22_006.mp3</name>
              <pathurl>file:///Users/delaxstudio/src/delax-ops/ops/media/orion/projects/OrionEp22/output/audio/OrionEp22_006.mp3</pathurl>
              <rate>
                <timebase>24000</timebase>
                <ntsc>FALSE</ntsc>
              </rate>
              <media>
                <audio>
                  <channelcount>1</channelcount>
                  <samplecharacteristics>
                    <samplerate>24000</samplerate>
                    <samplesize>16</samplesize>
                  </samplecharacteristics>
                </audio>
              </media>
            </file>
            <sourcetrack>
              <mediatype>audio</mediatype>
              <trackindex>1</trackindex>
            </sourcetrack>
            <comments/>
          </clipitem>
          <clipitem id="clipitem-7">
            <name>OrionEp22_007.mp3</name>
            <enabled>TRUE</enabled>
            <duration>347</duration>
            <rate>
              <timebase>30</timebase>
              <ntsc>TRUE</ntsc>
            </rate>
            <start>1405</start>
            <end>1752</end>
            <in>0</in>
            <out>278288</out>
            <file id="file-7">
              <name>OrionEp22_007.mp3</name>
              <pathurl>file:///Users/delaxstudio/src/delax-ops/ops/media/orion/projects/OrionEp22/output/audio/OrionEp22_007.mp3</pathurl>
              <rate>
                <timebase>24000</timebase>
                <ntsc>FALSE</ntsc>
              </rate>
              <media>
                <audio>
                  <channelcount>1</channelcount>
                  <samplecharacteristics>
                    <samplerate>24000</samplerate>
                    <samplesize>16</samplesize>
                  </samplecharacteristics>
                </audio>
              </media>
            </file>
            <sourcetrack>
              <mediatype>audio</mediatype>
              <trackindex>1</trackindex>
            </sourcetrack>
            <comments/>
          </clipitem>
          <clipitem id="clipitem-8">
            <name>OrionEp22_008.mp3</name>
            <enabled>TRUE</enabled>
            <duration>174</duration>
            <rate>
              <timebase>30</timebase>
              <ntsc>TRUE</ntsc>
            </rate>
            <start>1762</start>
            <end>1936</end>
            <in>0</in>
            <out>138762</out>
            <file id="file-8">
              <name>OrionEp22_008.mp3</name>
              <pathurl>file:///Users/delaxstudio/src/delax-ops/ops/media/orion/projects/OrionEp22/output/audio/OrionEp22_008.mp3</pathurl>
              <rate>
                <timebase>24000</timebase>
                <ntsc>FALSE</ntsc>
              </rate>
              <media>
                <audio>
                  <channelcount>1</channelcount>
                  <samplecharacteristics>
                    <samplerate>24000</samplerate>
                    <samplesize>16</samplesize>
                  </samplecharacteristics>
                </audio>
              </media>
            </file>
            <sourcetrack>
              <mediatype>audio</mediatype>
              <trackindex>1</trackindex>
            </sourcetrack>
            <comments/>
          </clipitem>
          <clipitem id="clipitem-9">
            <name>OrionEp22_009.mp3</name>
            <enabled>TRUE</enabled>
            <duration>225</duration>
            <rate>
              <timebase>30</timebase>
              <ntsc>TRUE</ntsc>
            </rate>
            <start>1946</start>
            <end>2171</end>
            <in>0</in>
            <out>180393</out>
            <file id="file-9">
              <name>OrionEp22_009.mp3</name>
              <pathurl>file:///Users/delaxstudio/src/delax-ops/ops/media/orion/projects/OrionEp22/output/audio/OrionEp22_009.mp3</pathurl>
              <rate>
                <timebase>24000</timebase>
                <ntsc>FALSE</ntsc>
              </rate>
              <media>
                <audio>
                  <channelcount>1</channelcount>
                  <samplecharacteristics>
                    <samplerate>24000</samplerate>
                    <samplesize>16</samplesize>
                  </samplecharacteristics>
                </audio>
              </media>
            </file>
            <sourcetrack>
              <mediatype>audio</mediatype>
              <trackindex>1</trackindex>
            </sourcetrack>
            <comments/>
          </clipitem>
          <clipitem id="clipitem-10">
            <name>OrionEp22_010.mp3</name>
            <enabled>TRUE</enabled>
            <duration>158</duration>
            <rate>
              <timebase>30</timebase>
              <ntsc>TRUE</ntsc>
            </rate>
            <start>2181</start>
            <end>2339</end>
            <in>0</in>
            <out>126638</out>
            <file id="file-10">
              <name>OrionEp22_010.mp3</name>
              <pathurl>file:///Users/delaxstudio/src/delax-ops/ops/media/orion/projects/OrionEp22/output/audio/OrionEp22_010.mp3</pathurl>
              <rate>
                <timebase>24000</timebase>
                <ntsc>FALSE</ntsc>
              </rate>
              <media>
                <audio>
                  <channelcount>1</channelcount>
                  <samplecharacteristics>
                    <samplerate>24000</samplerate>
                    <samplesize>16</samplesize>
                  </samplecharacteristics>
                </audio>
              </media>
            </file>
            <sourcetrack>
              <mediatype>audio</mediatype>
              <trackindex>1</trackindex>
            </sourcetrack>
            <comments/>
          </clipitem>
          <clipitem id="clipitem-11">
            <name>OrionEp22_011.mp3</name>
            <enabled>TRUE</enabled>
            <duration>304</duration>
            <rate>
              <timebase>30</timebase>
              <ntsc>TRUE</ntsc>
            </rate>
            <start>2349</start>
            <end>2653</end>
            <in>0</in>
            <out>243160</out>
            <file id="file-11">
              <name>OrionEp22_011.mp3</name>
              <pathurl>file:///Users/delaxstudio/src/delax-ops/ops/media/orion/projects/OrionEp22/output/audio/OrionEp22_011.mp3</pathurl>
              <rate>
                <timebase>24000</timebase>
                <ntsc>FALSE</ntsc>
              </rate>
              <media>
                <audio>
                  <channelcount>1</channelcount>
                  <samplecharacteristics>
                    <samplerate>24000</samplerate>
                    <samplesize>16</samplesize>
                  </samplecharacteristics>
                </audio>
              </media>
            </file>
            <sourcetrack>
              <mediatype>audio</mediatype>
              <trackindex>1</trackindex>
            </sourcetrack>
            <comments/>
          </clipitem>
          <clipitem id="clipitem-12">
            <name>OrionEp22_012.mp3</name>
            <enabled>TRUE</enabled>
            <duration>72</duration>
            <rate>
              <timebase>30</timebase>
              <ntsc>TRUE</ntsc>
            </rate>
            <start>2663</start>
            <end>2735</end>
            <in>0</in>
            <out>58337</out>
            <file id="file-12">
              <name>OrionEp22_012.mp3</name>
              <pathurl>file:///Users/delaxstudio/src/delax-ops/ops/media/orion/projects/OrionEp22/output/audio/OrionEp22_012.mp3</pathurl>
              <rate>
                <timebase>24000</timebase>
                <ntsc>FALSE</ntsc>
              </rate>
              <media>
                <audio>
                  <channelcount>1</channelcount>
                  <samplecharacteristics>
                    <samplerate>24000</samplerate>
                    <samplesize>16</samplesize>
                  </samplecharacteristics>
                </audio>
              </media>
            </file>
            <sourcetrack>
              <mediatype>audio</mediatype>
              <trackindex>1</trackindex>
            </sourcetrack>
            <comments/>
          </clipitem>
          <clipitem id="clipitem-13">
            <name>OrionEp22_013.mp3</name>
            <enabled>TRUE</enabled>
            <duration>245</duration>
            <rate>
              <timebase>30</timebase>
              <ntsc>TRUE</ntsc>
            </rate>
            <start>2745</start>
            <end>2990</end>
            <in>0</in>
            <out>195950</out>
            <file id="file-13">
              <name>OrionEp22_013.mp3</name>
              <pathurl>file:///Users/delaxstudio/src/delax-ops/ops/media/orion/projects/OrionEp22/output/audio/OrionEp22_013.mp3</pathurl>
              <rate>
                <timebase>24000</timebase>
                <ntsc>FALSE</ntsc>
              </rate>
              <media>
                <audio>
                  <channelcount>1</channelcount>
                  <samplecharacteristics>
                    <samplerate>24000</samplerate>
                    <samplesize>16</samplesize>
                  </samplecharacteristics>
                </audio>
              </media>
            </file>
            <sourcetrack>
              <mediatype>audio</mediatype>
              <trackindex>1</trackindex>
            </sourcetrack>
            <comments/>
          </clipitem>
          <clipitem id="clipitem-14">
            <name>OrionEp22_014.mp3</name>
            <enabled>TRUE</enabled>
            <duration>307</duration>
            <rate>
              <timebase>30</timebase>
              <ntsc>TRUE</ntsc>
            </rate>
            <start>3000</start>
            <end>3307</end>
            <in>0</in>
            <out>245423</out>
            <file id="file-14">
              <name>OrionEp22_014.mp3</name>
              <pathurl>file:///Users/delaxstudio/src/delax-ops/ops/media/orion/projects/OrionEp22/output/audio/OrionEp22_014.mp3</pathurl>
              <rate>
                <timebase>24000</timebase>
                <ntsc>FALSE</ntsc>
              </rate>
              <media>
                <audio>
                  <channelcount>1</channelcount>
                  <samplecharacteristics>
                    <samplerate>24000</samplerate>
                    <samplesize>16</samplesize>
                  </samplecharacteristics>
                </audio>
              </media>
            </file>
            <sourcetrack>
              <mediatype>audio</mediatype>
              <trackindex>1</trackindex>
            </sourcetrack>
            <comments/>
          </clipitem>
          <clipitem id="clipitem-15">
            <name>OrionEp22_015.mp3</name>
            <enabled>TRUE</enabled>
            <duration>371</duration>
            <rate>
              <timebase>30</timebase>
              <ntsc>TRUE</ntsc>
            </rate>
            <start>3317</start>
            <end>3688</end>
            <in>0</in>
            <out>297419</out>
            <file id="file-15">
              <name>OrionEp22_015.mp3</name>
              <pathurl>file:///Users/delaxstudio/src/delax-ops/ops/media/orion/projects/OrionEp22/output/audio/OrionEp22_015.mp3</pathurl>
              <rate>
                <timebase>24000</timebase>
                <ntsc>FALSE</ntsc>
              </rate>
              <media>
                <audio>
                  <channelcount>1</channelcount>
                  <samplecharacteristics>
                    <samplerate>24000</samplerate>
                    <samplesize>16</samplesize>
                  </samplecharacteristics>
                </audio>
              </media>
            </file>
            <sourcetrack>
              <mediatype>audio</mediatype>
              <trackindex>1</trackindex>
            </sourcetrack>
            <comments/>
          </clipitem>
          <clipitem id="clipitem-16">
            <name>OrionEp22_016.mp3</name>
            <enabled>TRUE</enabled>
            <duration>236</duration>
            <rate>
              <timebase>30</timebase>
              <ntsc>TRUE</ntsc>
            </rate>
            <start>3698</start>
            <end>3934</end>
            <in>0</in>
            <out>188722</out>
            <file id="file-16">
              <name>OrionEp22_016.mp3</name>
              <pathurl>file:///Users/delaxstudio/src/delax-ops/ops/media/orion/projects/OrionEp22/output/audio/OrionEp22_016.mp3</pathurl>
              <rate>
                <timebase>24000</timebase>
                <ntsc>FALSE</ntsc>
              </rate>
              <media>
                <audio>
                  <channelcount>1</channelcount>
                  <samplecharacteristics>
                    <samplerate>24000</samplerate>
                    <samplesize>16</samplesize>
                  </samplecharacteristics>
                </audio>
              </media>
            </file>
            <sourcetrack>
              <mediatype>audio</mediatype>
              <trackindex>1</trackindex>
            </sourcetrack>
            <comments/>
          </clipitem>
          <clipitem id="clipitem-17">
            <name>OrionEp22_017.mp3</name>
            <enabled>TRUE</enabled>
            <duration>71</duration>
            <rate>
              <timebase>30</timebase>
              <ntsc>TRUE</ntsc>
            </rate>
            <start>3944</start>
            <end>4015</end>
            <in>0</in>
            <out>57275</out>
            <file id="file-17">
              <name>OrionEp22_017.mp3</name>
              <pathurl>file:///Users/delaxstudio/src/delax-ops/ops/media/orion/projects/OrionEp22/output/audio/OrionEp22_017.mp3</pathurl>
              <rate>
                <timebase>24000</timebase>
                <ntsc>FALSE</ntsc>
              </rate>
              <media>
                <audio>
                  <channelcount>1</channelcount>
                  <samplecharacteristics>
                    <samplerate>24000</samplerate>
                    <samplesize>16</samplesize>
                  </samplecharacteristics>
                </audio>
              </media>
            </file>
            <sourcetrack>
              <mediatype>audio</mediatype>
              <trackindex>1</trackindex>
            </sourcetrack>
            <comments/>
          </clipitem>
          <clipitem id="clipitem-18">
            <name>OrionEp22_018.mp3</name>
            <enabled>TRUE</enabled>
            <duration>160</duration>
            <rate>
              <timebase>30</timebase>
              <ntsc>TRUE</ntsc>
            </rate>
            <start>4025</start>
            <end>4185</end>
            <in>0</in>
            <out>127846</out>
            <file id="file-18">
              <name>OrionEp22_018.mp3</name>
              <pathurl>file:///Users/delaxstudio/src/delax-ops/ops/media/orion/projects/OrionEp22/output/audio/OrionEp22_018.mp3</pathurl>
              <rate>
                <timebase>24000</timebase>
                <ntsc>FALSE</ntsc>
              </rate>
              <media>
                <audio>
                  <channelcount>1</channelcount>
                  <samplecharacteristics>
                    <samplerate>24000</samplerate>
                    <samplesize>16</samplesize>
                  </samplecharacteristics>
                </audio>
              </media>
            </file>
            <sourcetrack>
              <mediatype>audio</mediatype>
              <trackindex>1</trackindex>
            </sourcetrack>
            <comments/>
          </clipitem>
          <clipitem id="clipitem-19">
            <name>OrionEp22_019.mp3</name>
            <enabled>TRUE</enabled>
            <duration>760</duration>
            <rate>
              <timebase>30</timebase>
              <ntsc>TRUE</ntsc>
            </rate>
            <start>4195</start>
            <end>4955</end>
            <in>0</in>
            <out>608737</out>
            <file id="file-19">
              <name>OrionEp22_019.mp3</name>
              <pathurl>file:///Users/delaxstudio/src/delax-ops/ops/media/orion/projects/OrionEp22/output/audio/OrionEp22_019.mp3</pathurl>
              <rate>
                <timebase>24000</timebase>
                <ntsc>FALSE</ntsc>
              </rate>
              <media>
                <audio>
                  <channelcount>1</channelcount>
                  <samplecharacteristics>
                    <samplerate>24000</samplerate>
                    <samplesize>16</samplesize>
                  </samplecharacteristics>
                </audio>
              </media>
            </file>
            <sourcetrack>
              <mediatype>audio</mediatype>
              <trackindex>1</trackindex>
            </sourcetrack>
            <comments/>
          </clipitem>
          <clipitem id="clipitem-20">
            <name>OrionEp22_020.mp3</name>
            <enabled>TRUE</enabled>
            <duration>302</duration>
            <rate>
              <timebase>30</timebase>
              <ntsc>TRUE</ntsc>
            </rate>
            <start>4965</start>
            <end>5267</end>
            <in>0</in>
            <out>242007</out>
            <file id="file-20">
              <name>OrionEp22_020.mp3</name>
              <pathurl>file:///Users/delaxstudio/src/delax-ops/ops/media/orion/projects/OrionEp22/output/audio/OrionEp22_020.mp3</pathurl>
              <rate>
                <timebase>24000</timebase>
                <ntsc>FALSE</ntsc>
              </rate>
              <media>
                <audio>
                  <channelcount>1</channelcount>
                  <samplecharacteristics>
                    <samplerate>24000</samplerate>
                    <samplesize>16</samplesize>
                  </samplecharacteristics>
                </audio>
              </media>
            </file>
            <sourcetrack>
              <mediatype>audio</mediatype>
              <trackindex>1</trackindex>
            </sourcetrack>
            <comments/>
          </clipitem>
          <clipitem id="clipitem-21">
            <name>OrionEp22_021.mp3</name>
            <enabled>TRUE</enabled>
            <duration>105</duration>
            <rate>
              <timebase>30</timebase>
              <ntsc>TRUE</ntsc>
            </rate>
            <start>5277</start>
            <end>5382</end>
            <in>0</in>
            <out>83937</out>
            <file id="file-21">
              <name>OrionEp22_021.mp3</name>
              <pathurl>file:///Users/delaxstudio/src/delax-ops/ops/media/orion/projects/OrionEp22/output/audio/OrionEp22_021.mp3</pathurl>
              <rate>
                <timebase>24000</timebase>
                <ntsc>FALSE</ntsc>
              </rate>
              <media>
                <audio>
                  <channelcount>1</channelcount>
                  <samplecharacteristics>
                    <samplerate>24000</samplerate>
                    <samplesize>16</samplesize>
                  </samplecharacteristics>
                </audio>
              </media>
            </file>
            <sourcetrack>
              <mediatype>audio</mediatype>
              <trackindex>1</trackindex>
            </sourcetrack>
            <comments/>
          </clipitem>
          <clipitem id="clipitem-22">
            <name>OrionEp22_022.mp3</name>
            <enabled>TRUE</enabled>
            <duration>441</duration>
            <rate>
              <timebase>30</timebase>
              <ntsc>TRUE</ntsc>
            </rate>
            <start>5392</start>
            <end>5833</end>
            <in>0</in>
            <out>353135</out>
            <file id="file-22">
              <name>OrionEp22_022.mp3</name>
              <pathurl>file:///Users/delaxstudio/src/delax-ops/ops/media/orion/projects/OrionEp22/output/audio/OrionEp22_022.mp3</pathurl>
              <rate>
                <timebase>24000</timebase>
                <ntsc>FALSE</ntsc>
              </rate>
              <media>
                <audio>
                  <channelcount>1</channelcount>
                  <samplecharacteristics>
                    <samplerate>24000</samplerate>
                    <samplesize>16</samplesize>
                  </samplecharacteristics>
                </audio>
              </media>
            </file>
            <sourcetrack>
              <mediatype>audio</mediatype>
              <trackindex>1</trackindex>
            </sourcetrack>
            <comments/>
          </clipitem>
          <clipitem id="clipitem-23">
            <name>OrionEp22_023.mp3</name>
            <enabled>TRUE</enabled>
            <duration>68</duration>
            <rate>
              <timebase>30</timebase>
              <ntsc>TRUE</ntsc>
            </rate>
            <start>5843</start>
            <end>5911</end>
            <in>0</in>
            <out>54087</out>
            <file id="file-23">
              <name>OrionEp22_023.mp3</name>
              <pathurl>file:///Users/delaxstudio/src/delax-ops/ops/media/orion/projects/OrionEp22/output/audio/OrionEp22_023.mp3</pathurl>
              <rate>
                <timebase>24000</timebase>
                <ntsc>FALSE</ntsc>
              </rate>
              <media>
                <audio>
                  <channelcount>1</channelcount>
                  <samplecharacteristics>
                    <samplerate>24000</samplerate>
                    <samplesize>16</samplesize>
                  </samplecharacteristics>
                </audio>
              </media>
            </file>
            <sourcetrack>
              <mediatype>audio</mediatype>
              <trackindex>1</trackindex>
            </sourcetrack>
            <comments/>
          </clipitem>
          <clipitem id="clipitem-24">
            <name>OrionEp22_024.mp3</name>
            <enabled>TRUE</enabled>
            <duration>134</duration>
            <rate>
              <timebase>30</timebase>
              <ntsc>TRUE</ntsc>
            </rate>
            <start>5921</start>
            <end>6055</end>
            <in>0</in>
            <out>107658</out>
            <file id="file-24">
              <name>OrionEp22_024.mp3</name>
              <pathurl>file:///Users/delaxstudio/src/delax-ops/ops/media/orion/projects/OrionEp22/output/audio/OrionEp22_024.mp3</pathurl>
              <rate>
                <timebase>24000</timebase>
                <ntsc>FALSE</ntsc>
              </rate>
              <media>
                <audio>
                  <channelcount>1</channelcount>
                  <samplecharacteristics>
                    <samplerate>24000</samplerate>
                    <samplesize>16</samplesize>
                  </samplecharacteristics>
                </audio>
              </media>
            </file>
            <sourcetrack>
              <mediatype>audio</mediatype>
              <trackindex>1</trackindex>
            </sourcetrack>
            <comments/>
          </clipitem>
          <clipitem id="clipitem-25">
            <name>OrionEp22_025.mp3</name>
            <enabled>TRUE</enabled>
            <duration>967</duration>
            <rate>
              <timebase>30</timebase>
              <ntsc>TRUE</ntsc>
            </rate>
            <start>6065</start>
            <end>7032</end>
            <in>0</in>
            <out>774279</out>
            <file id="file-25">
              <name>OrionEp22_025.mp3</name>
              <pathurl>file:///Users/delaxstudio/src/delax-ops/ops/media/orion/projects/OrionEp22/output/audio/OrionEp22_025.mp3</pathurl>
              <rate>
                <timebase>24000</timebase>
                <ntsc>FALSE</ntsc>
              </rate>
              <media>
                <audio>
                  <channelcount>1</channelcount>
                  <samplecharacteristics>
                    <samplerate>24000</samplerate>
                    <samplesize>16</samplesize>
                  </samplecharacteristics>
                </audio>
              </media>
            </file>
            <sourcetrack>
              <mediatype>audio</mediatype>
              <trackindex>1</trackindex>
            </sourcetrack>
            <comments/>
          </clipitem>
          <clipitem id="clipitem-26">
            <name>OrionEp22_026.mp3</name>
            <enabled>TRUE</enabled>
            <duration>262</duration>
            <rate>
              <timebase>30</timebase>
              <ntsc>TRUE</ntsc>
            </rate>
            <start>7042</start>
            <end>7304</end>
            <in>0</in>
            <out>210064</out>
            <file id="file-26">
              <name>OrionEp22_026.mp3</name>
              <pathurl>file:///Users/delaxstudio/src/delax-ops/ops/media/orion/projects/OrionEp22/output/audio/OrionEp22_026.mp3</pathurl>
              <rate>
                <timebase>24000</timebase>
                <ntsc>FALSE</ntsc>
              </rate>
              <media>
                <audio>
                  <channelcount>1</channelcount>
                  <samplecharacteristics>
                    <samplerate>24000</samplerate>
                    <samplesize>16</samplesize>
                  </samplecharacteristics>
                </audio>
              </media>
            </file>
            <sourcetrack>
              <mediatype>audio</mediatype>
              <trackindex>1</trackindex>
            </sourcetrack>
            <comments/>
          </clipitem>
          <clipitem id="clipitem-27">
            <name>OrionEp22_027.mp3</name>
            <enabled>TRUE</enabled>
            <duration>333</duration>
            <rate>
              <timebase>30</timebase>
              <ntsc>TRUE</ntsc>
            </rate>
            <start>7314</start>
            <end>7647</end>
            <in>0</in>
            <out>266580</out>
            <file id="file-27">
              <name>OrionEp22_027.mp3</name>
              <pathurl>file:///Users/delaxstudio/src/delax-ops/ops/media/orion/projects/OrionEp22/output/audio/OrionEp22_027.mp3</pathurl>
              <rate>
                <timebase>24000</timebase>
                <ntsc>FALSE</ntsc>
              </rate>
              <media>
                <audio>
                  <channelcount>1</channelcount>
                  <samplecharacteristics>
                    <samplerate>24000</samplerate>
                    <samplesize>16</samplesize>
                  </samplecharacteristics>
                </audio>
              </media>
            </file>
            <sourcetrack>
              <mediatype>audio</mediatype>
              <trackindex>1</trackindex>
            </sourcetrack>
            <comments/>
          </clipitem>
          <clipitem id="clipitem-28">
            <name>OrionEp22_028.mp3</name>
            <enabled>TRUE</enabled>
            <duration>135</duration>
            <rate>
              <timebase>30</timebase>
              <ntsc>TRUE</ntsc>
            </rate>
            <start>7657</start>
            <end>7792</end>
            <in>0</in>
            <out>108007</out>
            <file id="file-28">
              <name>OrionEp22_028.mp3</name>
              <pathurl>file:///Users/delaxstudio/src/delax-ops/ops/media/orion/projects/OrionEp22/output/audio/OrionEp22_028.mp3</pathurl>
              <rate>
                <timebase>24000</timebase>
                <ntsc>FALSE</ntsc>
              </rate>
              <media>
                <audio>
                  <channelcount>1</channelcount>
                  <samplecharacteristics>
                    <samplerate>24000</samplerate>
                    <samplesize>16</samplesize>
                  </samplecharacteristics>
                </audio>
              </media>
            </file>
            <sourcetrack>
              <mediatype>audio</mediatype>
              <trackindex>1</trackindex>
            </sourcetrack>
            <comments/>
          </clipitem>
          <clipitem id="clipitem-29">
            <name>OrionEp22_029.mp3</name>
            <enabled>TRUE</enabled>
            <duration>566</duration>
            <rate>
              <timebase>30</timebase>
              <ntsc>TRUE</ntsc>
            </rate>
            <start>7802</start>
            <end>8368</end>
            <in>0</in>
            <out>453095</out>
            <file id="file-29">
              <name>OrionEp22_029.mp3</name>
              <pathurl>file:///Users/delaxstudio/src/delax-ops/ops/media/orion/projects/OrionEp22/output/audio/OrionEp22_029.mp3</pathurl>
              <rate>
                <timebase>24000</timebase>
                <ntsc>FALSE</ntsc>
              </rate>
              <media>
                <audio>
                  <channelcount>1</channelcount>
                  <samplecharacteristics>
                    <samplerate>24000</samplerate>
                    <samplesize>16</samplesize>
                  </samplecharacteristics>
                </audio>
              </media>
            </file>
            <sourcetrack>
              <mediatype>audio</mediatype>
              <trackindex>1</trackindex>
            </sourcetrack>
            <comments/>
          </clipitem>
          <clipitem id="clipitem-30">
            <name>OrionEp22_030.mp3</name>
            <enabled>TRUE</enabled>
            <duration>513</duration>
            <rate>
              <timebase>30</timebase>
              <ntsc>TRUE</ntsc>
            </rate>
            <start>8378</start>
            <end>8891</end>
            <in>0</in>
            <out>410735</out>
            <file id="file-30">
              <name>OrionEp22_030.mp3</name>
              <pathurl>file:///Users/delaxstudio/src/delax-ops/ops/media/orion/projects/OrionEp22/output/audio/OrionEp22_030.mp3</pathurl>
              <rate>
                <timebase>24000</timebase>
                <ntsc>FALSE</ntsc>
              </rate>
              <media>
                <audio>
                  <channelcount>1</channelcount>
                  <samplecharacteristics>
                    <samplerate>24000</samplerate>
                    <samplesize>16</samplesize>
                  </samplecharacteristics>
                </audio>
              </media>
            </file>
            <sourcetrack>
              <mediatype>audio</mediatype>
              <trackindex>1</trackindex>
            </sourcetrack>
            <comments/>
          </clipitem>
          <clipitem id="clipitem-31">
            <name>OrionEp22_031.mp3</name>
            <enabled>TRUE</enabled>
            <duration>118</duration>
            <rate>
              <timebase>30</timebase>
              <ntsc>TRUE</ntsc>
            </rate>
            <start>8901</start>
            <end>9019</end>
            <in>0</in>
            <out>94612</out>
            <file id="file-31">
              <name>OrionEp22_031.mp3</name>
              <pathurl>file:///Users/delaxstudio/src/delax-ops/ops/media/orion/projects/OrionEp22/output/audio/OrionEp22_031.mp3</pathurl>
              <rate>
                <timebase>24000</timebase>
                <ntsc>FALSE</ntsc>
              </rate>
              <media>
                <audio>
                  <channelcount>1</channelcount>
                  <samplecharacteristics>
                    <samplerate>24000</samplerate>
                    <samplesize>16</samplesize>
                  </samplecharacteristics>
                </audio>
              </media>
            </file>
            <sourcetrack>
              <mediatype>audio</mediatype>
              <trackindex>1</trackindex>
            </sourcetrack>
            <comments/>
          </clipitem>
          <clipitem id="clipitem-32">
            <name>OrionEp22_032.mp3</name>
            <enabled>TRUE</enabled>
            <duration>426</duration>
            <rate>
              <timebase>30</timebase>
              <ntsc>TRUE</ntsc>
            </rate>
            <start>9029</start>
            <end>9455</end>
            <in>0</in>
            <out>341051</out>
            <file id="file-32">
              <name>OrionEp22_032.mp3</name>
              <pathurl>file:///Users/delaxstudio/src/delax-ops/ops/media/orion/projects/OrionEp22/output/audio/OrionEp22_032.mp3</pathurl>
              <rate>
                <timebase>24000</timebase>
                <ntsc>FALSE</ntsc>
              </rate>
              <media>
                <audio>
                  <channelcount>1</channelcount>
                  <samplecharacteristics>
                    <samplerate>24000</samplerate>
                    <samplesize>16</samplesize>
                  </samplecharacteristics>
                </audio>
              </media>
            </file>
            <sourcetrack>
              <mediatype>audio</mediatype>
              <trackindex>1</trackindex>
            </sourcetrack>
            <comments/>
          </clipitem>
          <clipitem id="clipitem-33">
            <name>OrionEp22_033.mp3</name>
            <enabled>TRUE</enabled>
            <duration>371</duration>
            <rate>
              <timebase>30</timebase>
              <ntsc>TRUE</ntsc>
            </rate>
            <start>9465</start>
            <end>9836</end>
            <in>0</in>
            <out>297287</out>
            <file id="file-33">
              <name>OrionEp22_033.mp3</name>
              <pathurl>file:///Users/delaxstudio/src/delax-ops/ops/media/orion/projects/OrionEp22/output/audio/OrionEp22_033.mp3</pathurl>
              <rate>
                <timebase>24000</timebase>
                <ntsc>FALSE</ntsc>
              </rate>
              <media>
                <audio>
                  <channelcount>1</channelcount>
                  <samplecharacteristics>
                    <samplerate>24000</samplerate>
                    <samplesize>16</samplesize>
                  </samplecharacteristics>
                </audio>
              </media>
            </file>
            <sourcetrack>
              <mediatype>audio</mediatype>
              <trackindex>1</trackindex>
            </sourcetrack>
            <comments/>
          </clipitem>
          <clipitem id="clipitem-34">
            <name>OrionEp22_034.mp3</name>
            <enabled>TRUE</enabled>
            <duration>399</duration>
            <rate>
              <timebase>30</timebase>
              <ntsc>TRUE</ntsc>
            </rate>
            <start>9846</start>
            <end>10245</end>
            <in>0</in>
            <out>319805</out>
            <file id="file-34">
              <name>OrionEp22_034.mp3</name>
              <pathurl>file:///Users/delaxstudio/src/delax-ops/ops/media/orion/projects/OrionEp22/output/audio/OrionEp22_034.mp3</pathurl>
              <rate>
                <timebase>24000</timebase>
                <ntsc>FALSE</ntsc>
              </rate>
              <media>
                <audio>
                  <channelcount>1</channelcount>
                  <samplecharacteristics>
                    <samplerate>24000</samplerate>
                    <samplesize>16</samplesize>
                  </samplecharacteristics>
                </audio>
              </media>
            </file>
            <sourcetrack>
              <mediatype>audio</mediatype>
              <trackindex>1</trackindex>
            </sourcetrack>
            <comments/>
          </clipitem>
          <clipitem id="clipitem-35">
            <name>OrionEp22_035.mp3</name>
            <enabled>TRUE</enabled>
            <duration>245</duration>
            <rate>
              <timebase>30</timebase>
              <ntsc>TRUE</ntsc>
            </rate>
            <start>10255</start>
            <end>10500</end>
            <in>0</in>
            <out>195950</out>
            <file id="file-35">
              <name>OrionEp22_035.mp3</name>
              <pathurl>file:///Users/delaxstudio/src/delax-ops/ops/media/orion/projects/OrionEp22/output/audio/OrionEp22_035.mp3</pathurl>
              <rate>
                <timebase>24000</timebase>
                <ntsc>FALSE</ntsc>
              </rate>
              <media>
                <audio>
                  <channelcount>1</channelcount>
                  <samplecharacteristics>
                    <samplerate>24000</samplerate>
                    <samplesize>16</samplesize>
                  </samplecharacteristics>
                </audio>
              </media>
            </file>
            <sourcetrack>
              <mediatype>audio</mediatype>
              <trackindex>1</trackindex>
            </sourcetrack>
            <comments/>
          </clipitem>
          <clipitem id="clipitem-36">
            <name>OrionEp22_036.mp3</name>
            <enabled>TRUE</enabled>
            <duration>368</duration>
            <rate>
              <timebase>30</timebase>
              <ntsc>TRUE</ntsc>
            </rate>
            <start>10510</start>
            <end>10878</end>
            <in>0</in>
            <out>294550</out>
            <file id="file-36">
              <name>OrionEp22_036.mp3</name>
              <pathurl>file:///Users/delaxstudio/src/delax-ops/ops/media/orion/projects/OrionEp22/output/audio/OrionEp22_036.mp3</pathurl>
              <rate>
                <timebase>24000</timebase>
                <ntsc>FALSE</ntsc>
              </rate>
              <media>
                <audio>
                  <channelcount>1</channelcount>
                  <samplecharacteristics>
                    <samplerate>24000</samplerate>
                    <samplesize>16</samplesize>
                  </samplecharacteristics>
                </audio>
              </media>
            </file>
            <sourcetrack>
              <mediatype>audio</mediatype>
              <trackindex>1</trackindex>
            </sourcetrack>
            <comments/>
          </clipitem>
          <clipitem id="clipitem-37">
            <name>OrionEp22_037.mp3</name>
            <enabled>TRUE</enabled>
            <duration>307</duration>
            <rate>
              <timebase>30</timebase>
              <ntsc>TRUE</ntsc>
            </rate>
            <start>10888</start>
            <end>11195</end>
            <in>0</in>
            <out>246384</out>
            <file id="file-37">
              <name>OrionEp22_037.mp3</name>
              <pathurl>file:///Users/delaxstudio/src/delax-ops/ops/media/orion/projects/OrionEp22/output/audio/OrionEp22_037.mp3</pathurl>
              <rate>
                <timebase>24000</timebase>
                <ntsc>FALSE</ntsc>
              </rate>
              <media>
                <audio>
                  <channelcount>1</channelcount>
                  <samplecharacteristics>
                    <samplerate>24000</samplerate>
                    <samplesize>16</samplesize>
                  </samplecharacteristics>
                </audio>
              </media>
            </file>
            <sourcetrack>
              <mediatype>audio</mediatype>
              <trackindex>1</trackindex>
            </sourcetrack>
            <comments/>
          </clipitem>
          <clipitem id="clipitem-38">
            <name>OrionEp22_038.mp3</name>
            <enabled>TRUE</enabled>
            <duration>528</duration>
            <rate>
              <timebase>30</timebase>
              <ntsc>TRUE</ntsc>
            </rate>
            <start>11205</start>
            <end>11733</end>
            <in>0</in>
            <out>422267</out>
            <file id="file-38">
              <name>OrionEp22_038.mp3</name>
              <pathurl>file:///Users/delaxstudio/src/delax-ops/ops/media/orion/projects/OrionEp22/output/audio/OrionEp22_038.mp3</pathurl>
              <rate>
                <timebase>24000</timebase>
                <ntsc>FALSE</ntsc>
              </rate>
              <media>
                <audio>
                  <channelcount>1</channelcount>
                  <samplecharacteristics>
                    <samplerate>24000</samplerate>
                    <samplesize>16</samplesize>
                  </samplecharacteristics>
                </audio>
              </media>
            </file>
            <sourcetrack>
              <mediatype>audio</mediatype>
              <trackindex>1</trackindex>
            </sourcetrack>
            <comments/>
          </clipitem>
          <clipitem id="clipitem-39">
            <name>OrionEp22_039.mp3</name>
            <enabled>TRUE</enabled>
            <duration>314</duration>
            <rate>
              <timebase>30</timebase>
              <ntsc>TRUE</ntsc>
            </rate>
            <start>11743</start>
            <end>12057</end>
            <in>0</in>
            <out>251895</out>
            <file id="file-39">
              <name>OrionEp22_039.mp3</name>
              <pathurl>file:///Users/delaxstudio/src/delax-ops/ops/media/orion/projects/OrionEp22/output/audio/OrionEp22_039.mp3</pathurl>
              <rate>
                <timebase>24000</timebase>
                <ntsc>FALSE</ntsc>
              </rate>
              <media>
                <audio>
                  <channelcount>1</channelcount>
                  <samplecharacteristics>
                    <samplerate>24000</samplerate>
                    <samplesize>16</samplesize>
                  </samplecharacteristics>
                </audio>
              </media>
            </file>
            <sourcetrack>
              <mediatype>audio</mediatype>
              <trackindex>1</trackindex>
            </sourcetrack>
            <comments/>
          </clipitem>
          <clipitem id="clipitem-40">
            <name>OrionEp22_040.mp3</name>
            <enabled>TRUE</enabled>
            <duration>217</duration>
            <rate>
              <timebase>30</timebase>
              <ntsc>TRUE</ntsc>
            </rate>
            <start>12067</start>
            <end>12284</end>
            <in>0</in>
            <out>173891</out>
            <file id="file-40">
              <name>OrionEp22_040.mp3</name>
              <pathurl>file:///Users/delaxstudio/src/delax-ops/ops/media/orion/projects/OrionEp22/output/audio/OrionEp22_040.mp3</pathurl>
              <rate>
                <timebase>24000</timebase>
                <ntsc>FALSE</ntsc>
              </rate>
              <media>
                <audio>
                  <channelcount>1</channelcount>
                  <samplecharacteristics>
                    <samplerate>24000</samplerate>
                    <samplesize>16</samplesize>
                  </samplecharacteristics>
                </audio>
              </media>
            </file>
            <sourcetrack>
              <mediatype>audio</mediatype>
              <trackindex>1</trackindex>
            </sourcetrack>
            <comments/>
          </clipitem>
          <clipitem id="clipitem-41">
            <name>OrionEp22_041.mp3</name>
            <enabled>TRUE</enabled>
            <duration>178</duration>
            <rate>
              <timebase>30</timebase>
              <ntsc>TRUE</ntsc>
            </rate>
            <start>12294</start>
            <end>12472</end>
            <in>0</in>
            <out>142019</out>
            <file id="file-41">
              <name>OrionEp22_041.mp3</name>
              <pathurl>file:///Users/delaxstudio/src/delax-ops/ops/media/orion/projects/OrionEp22/output/audio/OrionEp22_041.mp3</pathurl>
              <rate>
                <timebase>24000</timebase>
                <ntsc>FALSE</ntsc>
              </rate>
              <media>
                <audio>
                  <channelcount>1</channelcount>
                  <samplecharacteristics>
                    <samplerate>24000</samplerate>
                    <samplesize>16</samplesize>
                  </samplecharacteristics>
                </audio>
              </media>
            </file>
            <sourcetrack>
              <mediatype>audio</mediatype>
              <trackindex>1</trackindex>
            </sourcetrack>
            <comments/>
          </clipitem>
          <clipitem id="clipitem-42">
            <name>OrionEp22_042.mp3</name>
            <enabled>TRUE</enabled>
            <duration>117</duration>
            <rate>
              <timebase>30</timebase>
              <ntsc>TRUE</ntsc>
            </rate>
            <start>12482</start>
            <end>12599</end>
            <in>0</in>
            <out>93550</out>
            <file id="file-42">
              <name>OrionEp22_042.mp3</name>
              <pathurl>file:///Users/delaxstudio/src/delax-ops/ops/media/orion/projects/OrionEp22/output/audio/OrionEp22_042.mp3</pathurl>
              <rate>
                <timebase>24000</timebase>
                <ntsc>FALSE</ntsc>
              </rate>
              <media>
                <audio>
                  <channelcount>1</channelcount>
                  <samplecharacteristics>
                    <samplerate>24000</samplerate>
                    <samplesize>16</samplesize>
                  </samplecharacteristics>
                </audio>
              </media>
            </file>
            <sourcetrack>
              <mediatype>audio</mediatype>
              <trackindex>1</trackindex>
            </sourcetrack>
            <comments/>
          </clipitem>
          <clipitem id="clipitem-43">
            <name>OrionEp22_043.mp3</name>
            <enabled>TRUE</enabled>
            <duration>427</duration>
            <rate>
              <timebase>30</timebase>
              <ntsc>TRUE</ntsc>
            </rate>
            <start>12609</start>
            <end>13036</end>
            <in>0</in>
            <out>342594</out>
            <file id="file-43">
              <name>OrionEp22_043.mp3</name>
              <pathurl>file:///Users/delaxstudio/src/delax-ops/ops/media/orion/projects/OrionEp22/output/audio/OrionEp22_043.mp3</pathurl>
              <rate>
                <timebase>24000</timebase>
                <ntsc>FALSE</ntsc>
              </rate>
              <media>
                <audio>
                  <channelcount>1</channelcount>
                  <samplecharacteristics>
                    <samplerate>24000</samplerate>
                    <samplesize>16</samplesize>
                  </samplecharacteristics>
                </audio>
              </media>
            </file>
            <sourcetrack>
              <mediatype>audio</mediatype>
              <trackindex>1</trackindex>
            </sourcetrack>
            <comments/>
          </clipitem>
          <clipitem id="clipitem-44">
            <name>OrionEp22_044.mp3</name>
            <enabled>TRUE</enabled>
            <duration>317</duration>
            <rate>
              <timebase>30</timebase>
              <ntsc>TRUE</ntsc>
            </rate>
            <start>13046</start>
            <end>13363</end>
            <in>0</in>
            <out>253575</out>
            <file id="file-44">
              <name>OrionEp22_044.mp3</name>
              <pathurl>file:///Users/delaxstudio/src/delax-ops/ops/media/orion/projects/OrionEp22/output/audio/OrionEp22_044.mp3</pathurl>
              <rate>
                <timebase>24000</timebase>
                <ntsc>FALSE</ntsc>
              </rate>
              <media>
                <audio>
                  <channelcount>1</channelcount>
                  <samplecharacteristics>
                    <samplerate>24000</samplerate>
                    <samplesize>16</samplesize>
                  </samplecharacteristics>
                </audio>
              </media>
            </file>
            <sourcetrack>
              <mediatype>audio</mediatype>
              <trackindex>1</trackindex>
            </sourcetrack>
            <comments/>
          </clipitem>
          <clipitem id="clipitem-45">
            <name>OrionEp22_045.mp3</name>
            <enabled>TRUE</enabled>
            <duration>437</duration>
            <rate>
              <timebase>30</timebase>
              <ntsc>TRUE</ntsc>
            </rate>
            <start>13373</start>
            <end>13810</end>
            <in>0</in>
            <out>349580</out>
            <file id="file-45">
              <name>OrionEp22_045.mp3</name>
              <pathurl>file:///Users/delaxstudio/src/delax-ops/ops/media/orion/projects/OrionEp22/output/audio/OrionEp22_045.mp3</pathurl>
              <rate>
                <timebase>24000</timebase>
                <ntsc>FALSE</ntsc>
              </rate>
              <media>
                <audio>
                  <channelcount>1</channelcount>
                  <samplecharacteristics>
                    <samplerate>24000</samplerate>
                    <samplesize>16</samplesize>
                  </samplecharacteristics>
                </audio>
              </media>
            </file>
            <sourcetrack>
              <mediatype>audio</mediatype>
              <trackindex>1</trackindex>
            </sourcetrack>
            <comments/>
          </clipitem>
          <clipitem id="clipitem-46">
            <name>OrionEp22_046.mp3</name>
            <enabled>TRUE</enabled>
            <duration>387</duration>
            <rate>
              <timebase>30</timebase>
              <ntsc>TRUE</ntsc>
            </rate>
            <start>13820</start>
            <end>14207</end>
            <in>0</in>
            <out>310281</out>
            <file id="file-46">
              <name>OrionEp22_046.mp3</name>
              <pathurl>file:///Users/delaxstudio/src/delax-ops/ops/media/orion/projects/OrionEp22/output/audio/OrionEp22_046.mp3</pathurl>
              <rate>
                <timebase>24000</timebase>
                <ntsc>FALSE</ntsc>
              </rate>
              <media>
                <audio>
                  <channelcount>1</channelcount>
                  <samplecharacteristics>
                    <samplerate>24000</samplerate>
                    <samplesize>16</samplesize>
                  </samplecharacteristics>
                </audio>
              </media>
            </file>
            <sourcetrack>
              <mediatype>audio</mediatype>
              <trackindex>1</trackindex>
            </sourcetrack>
            <comments/>
          </clipitem>
          <clipitem id="clipitem-47">
            <name>OrionEp22_047.mp3</name>
            <enabled>TRUE</enabled>
            <duration>167</duration>
            <rate>
              <timebase>30</timebase>
              <ntsc>TRUE</ntsc>
            </rate>
            <start>14217</start>
            <end>14384</end>
            <in>0</in>
            <out>133885</out>
            <file id="file-47">
              <name>OrionEp22_047.mp3</name>
              <pathurl>file:///Users/delaxstudio/src/delax-ops/ops/media/orion/projects/OrionEp22/output/audio/OrionEp22_047.mp3</pathurl>
              <rate>
                <timebase>24000</timebase>
                <ntsc>FALSE</ntsc>
              </rate>
              <media>
                <audio>
                  <channelcount>1</channelcount>
                  <samplecharacteristics>
                    <samplerate>24000</samplerate>
                    <samplesize>16</samplesize>
                  </samplecharacteristics>
                </audio>
              </media>
            </file>
            <sourcetrack>
              <mediatype>audio</mediatype>
              <trackindex>1</trackindex>
            </sourcetrack>
            <comments/>
          </clipitem>
        </track>
      </audio>
    </media>
  </sequence>
</xmeml>
